<svg xmlns="http://www.w3.org/2000/svg" fill="none" viewBox="0 0 212 48" height="48" width="212">
<path fill="#141414" d="M207.51 25.5833C207.51 26.0093 207.483 26.4352 207.427 26.8611H197.121C197.177 27.713 197.408 28.3518 197.816 28.7778C198.242 29.1852 198.779 29.3889 199.427 29.3889C200.334 29.3889 200.983 28.9815 201.371 28.1667H207.177C206.936 29.2407 206.464 30.2037 205.76 31.0555C205.075 31.8889 204.205 32.5463 203.149 33.0278C202.094 33.5093 200.927 33.75 199.649 33.75C198.112 33.75 196.742 33.4259 195.538 32.7778C194.353 32.1296 193.418 31.2037 192.733 30C192.066 28.7963 191.733 27.3796 191.733 25.75C191.733 24.1204 192.066 22.713 192.733 21.5278C193.399 20.3241 194.325 19.3981 195.51 18.75C196.714 18.1018 198.094 17.7778 199.649 17.7778C201.186 17.7778 202.547 18.0926 203.733 18.7222C204.918 19.3518 205.844 20.2593 206.51 21.4444C207.177 22.6111 207.51 23.9907 207.51 25.5833ZM201.955 24.2222C201.955 23.5555 201.733 23.037 201.288 22.6667C200.844 22.2778 200.288 22.0833 199.621 22.0833C198.955 22.0833 198.408 22.2685 197.983 22.6389C197.557 22.9907 197.279 23.5185 197.149 24.2222H201.955Z"></path>
<path fill="#141414" d="M186.173 20.7222C186.784 19.8333 187.525 19.1296 188.395 18.6111C189.265 18.0926 190.2 17.8333 191.2 17.8333V23.6389H189.673C188.488 23.6389 187.608 23.8704 187.034 24.3333C186.46 24.7963 186.173 25.6018 186.173 26.75V33.5556H180.728V17.9722H186.173V20.7222Z"></path>
<path fill="#141414" d="M179.026 28.9167V33.5556H176.665C172.684 33.5556 170.693 31.5833 170.693 27.6389V22.5H168.776V17.9722H170.693V14.1944H176.165V17.9722H178.998V22.5H176.165V27.7222C176.165 28.1481 176.258 28.4537 176.443 28.6389C176.646 28.8241 176.98 28.9167 177.443 28.9167H179.026Z"></path>
<path fill="#141414" d="M161.663 17.8333C163.459 17.8333 164.885 18.4352 165.941 19.6389C166.996 20.8241 167.524 22.4352 167.524 24.4722V33.5556H162.08V25.1944C162.08 24.3056 161.848 23.6111 161.385 23.1111C160.922 22.5926 160.302 22.3333 159.524 22.3333C158.709 22.3333 158.07 22.5926 157.607 23.1111C157.144 23.6111 156.913 24.3056 156.913 25.1944V33.5556H151.468V17.9722H156.913V20.1944C157.394 19.4907 158.043 18.9259 158.857 18.5C159.672 18.0556 160.607 17.8333 161.663 17.8333Z"></path>
<path fill="#141414" d="M149.568 25.5833C149.568 26.0093 149.54 26.4352 149.485 26.8611H139.179C139.235 27.713 139.466 28.3518 139.873 28.7778C140.299 29.1852 140.836 29.3889 141.485 29.3889C142.392 29.3889 143.04 28.9815 143.429 28.1667H149.235C148.994 29.2407 148.522 30.2037 147.818 31.0555C147.133 31.8889 146.262 32.5463 145.207 33.0278C144.151 33.5093 142.985 33.75 141.707 33.75C140.17 33.75 138.799 33.4259 137.596 32.7778C136.411 32.1296 135.475 31.2037 134.79 30C134.123 28.7963 133.79 27.3796 133.79 25.75C133.79 24.1204 134.123 22.713 134.79 21.5278C135.457 20.3241 136.383 19.3981 137.568 18.75C138.772 18.1018 140.151 17.7778 141.707 17.7778C143.244 17.7778 144.605 18.0926 145.79 18.7222C146.975 19.3518 147.901 20.2593 148.568 21.4444C149.235 22.6111 149.568 23.9907 149.568 25.5833ZM144.012 24.2222C144.012 23.5555 143.79 23.037 143.346 22.6667C142.901 22.2778 142.346 22.0833 141.679 22.0833C141.012 22.0833 140.466 22.2685 140.04 22.6389C139.614 22.9907 139.336 23.5185 139.207 24.2222H144.012Z"></path>
<path fill="#141414" d="M116.917 25.75C116.917 24.1389 117.251 22.7315 117.917 21.5278C118.584 20.3241 119.51 19.3981 120.695 18.75C121.899 18.1018 123.269 17.7778 124.806 17.7778C126.788 17.7778 128.454 18.3241 129.806 19.4167C131.158 20.4907 132.028 22 132.417 23.9444H126.64C126.306 22.9259 125.658 22.4167 124.695 22.4167C124.01 22.4167 123.464 22.7037 123.056 23.2778C122.667 23.8333 122.473 24.6574 122.473 25.75C122.473 26.8426 122.667 27.6759 123.056 28.25C123.464 28.8241 124.01 29.1111 124.695 29.1111C125.677 29.1111 126.325 28.6018 126.64 27.5833H132.417C132.028 29.5093 131.158 31.0185 129.806 32.1111C128.454 33.2037 126.788 33.75 124.806 33.75C123.269 33.75 121.899 33.4259 120.695 32.7778C119.51 32.1296 118.584 31.2037 117.917 30C117.251 28.7963 116.917 27.3796 116.917 25.75Z"></path>
<path fill="#F4333D" d="M99.6068 20.1389C100.033 19.4167 100.635 18.8426 101.412 18.4167C102.19 17.9907 103.107 17.7778 104.162 17.7778C105.403 17.7778 106.523 18.1018 107.523 18.75C108.542 19.3981 109.338 20.3241 109.912 21.5278C110.505 22.7315 110.801 24.1389 110.801 25.75C110.801 27.3611 110.505 28.7778 109.912 30C109.338 31.2037 108.542 32.1296 107.523 32.7778C106.523 33.4259 105.403 33.75 104.162 33.75C103.107 33.75 102.19 33.537 101.412 33.1111C100.653 32.6852 100.051 32.1111 99.6068 31.3889V41H94.1624V17.9722H99.6068V20.1389ZM105.273 25.75C105.273 24.7315 104.996 23.9444 104.44 23.3889C103.903 22.8148 103.236 22.5278 102.44 22.5278C101.644 22.5278 100.968 22.8148 100.412 23.3889C99.8753 23.963 99.6068 24.75 99.6068 25.75C99.6068 26.7685 99.8753 27.5648 100.412 28.1389C100.968 28.713 101.644 29 102.44 29C103.236 29 103.903 28.713 104.44 28.1389C104.996 27.5463 105.273 26.75 105.273 25.75Z"></path>
<path fill="#F4333D" d="M92.0213 13V33.5556H86.5769V13H92.0213Z"></path>
<path fill="#F4333D" d="M84.6113 25.5833C84.6113 26.0093 84.5836 26.4352 84.528 26.8611H74.2224C74.278 27.713 74.5095 28.3518 74.9169 28.7778C75.3428 29.1852 75.8799 29.3889 76.528 29.3889C77.4354 29.3889 78.0836 28.9815 78.4724 28.1667H84.278C84.0373 29.2407 83.565 30.2037 82.8613 31.0555C82.1762 31.8889 81.3058 32.5463 80.2502 33.0278C79.1947 33.5093 78.028 33.75 76.7502 33.75C75.2132 33.75 73.8428 33.4259 72.6391 32.7778C71.4539 32.1296 70.5187 31.2037 69.8336 30C69.1669 28.7963 68.8336 27.3796 68.8336 25.75C68.8336 24.1204 69.1669 22.713 69.8336 21.5278C70.5002 20.3241 71.4261 19.3981 72.6113 18.75C73.815 18.1018 75.1947 17.7778 76.7502 17.7778C78.2873 17.7778 79.6484 18.0926 80.8336 18.7222C82.0187 19.3518 82.9447 20.2593 83.6113 21.4444C84.278 22.6111 84.6113 23.9907 84.6113 25.5833ZM79.0558 24.2222C79.0558 23.5555 78.8336 23.037 78.3891 22.6667C77.9447 22.2778 77.3891 22.0833 76.7224 22.0833C76.0558 22.0833 75.5095 22.2685 75.0836 22.6389C74.6576 22.9907 74.3799 23.5185 74.2502 24.2222H79.0558Z"></path>
<path fill="#F4333D" d="M61.25 17.8333C63.0278 17.8333 64.4352 18.4352 65.4722 19.6389C66.5278 20.8241 67.0556 22.4352 67.0556 24.4722V33.5556H61.6111V25.1944C61.6111 24.3056 61.3796 23.6111 60.9167 23.1111C60.4537 22.5926 59.8333 22.3333 59.0556 22.3333C58.2407 22.3333 57.6019 22.5926 57.1389 23.1111C56.6759 23.6111 56.4444 24.3056 56.4444 25.1944V33.5556H51V13H56.4444V20.1944C56.9259 19.4907 57.5741 18.9259 58.3889 18.5C59.2222 18.0556 60.1759 17.8333 61.25 17.8333Z"></path>
<path fill="#F4333D" d="M13.9457 4H26.0543C30.07 4 32.0773 4 34.239 4.68333C36.599 5.54233 38.4577 7.401 39.3167 9.761C40 11.9223 40 13.9303 40 17.9457V30.0543C40 34.07 40 36.0773 39.3167 38.239C38.4577 40.599 36.599 42.4577 34.239 43.3163C32.0773 44 30.07 44 26.0543 44H13.9457C9.93 44 7.92233 44 5.761 43.3163C3.401 42.4577 1.54233 40.599 0.683333 38.239C0 36.0773 0 34.07 0 30.0543V17.9457C0 13.9303 0 11.9223 0.683333 9.761C1.54233 7.401 3.401 5.54233 5.761 4.68333C7.92233 4 9.93 4 13.9457 4V4" clip-rule="evenodd" fill-rule="evenodd"></path>
<path fill="white" d="M16.5686 17.2609C16.5686 19.167 18.0468 20.6452 19.953 20.6452C21.8591 20.6452 23.3373 19.167 23.3373 17.2609C23.3373 15.3548 21.8591 13.8765 19.953 13.8765C18.0468 13.8765 16.5686 15.3548 16.5686 17.2609ZM23.6096 33.8714H16.2963L17.8523 21.7734C19.0194 22.1235 20.8866 22.1235 22.0536 21.7734L23.6096 33.8714Z" clip-rule="evenodd" fill-rule="evenodd"></path>
</svg>
