<svg xmlns="http://www.w3.org/2000/svg" fill="none" viewBox="0 0 214 48" height="48" width="214">
<rect fill="white" height="48" width="214"></rect>
<path fill="black" d="M202.639 25.538C202.639 25.9367 202.613 26.3353 202.561 26.734H192.915C192.967 27.5313 193.184 28.1293 193.565 28.528C193.964 28.9093 194.466 29.1 195.073 29.1C195.922 29.1 196.529 28.7187 196.893 27.956H202.327C202.102 28.9613 201.66 29.8627 201.001 30.66C200.36 31.44 199.545 32.0553 198.557 32.506C197.569 32.9567 196.477 33.182 195.281 33.182C193.842 33.182 192.56 32.8787 191.433 32.272C190.324 31.6653 189.448 30.7987 188.807 29.672C188.183 28.5453 187.871 27.2193 187.871 25.694C187.871 24.1687 188.183 22.8513 188.807 21.742C189.431 20.6153 190.298 19.7487 191.407 19.142C192.534 18.5353 193.825 18.232 195.281 18.232C196.72 18.232 197.994 18.5267 199.103 19.116C200.212 19.7053 201.079 20.5547 201.703 21.664C202.327 22.756 202.639 24.0473 202.639 25.538ZM197.439 24.264C197.439 23.64 197.231 23.1547 196.815 22.808C196.399 22.444 195.879 22.262 195.255 22.262C194.631 22.262 194.12 22.4353 193.721 22.782C193.322 23.1113 193.062 23.6053 192.941 24.264H197.439Z"></path>
<path fill="black" d="M182.17 20.988C182.742 20.156 183.436 19.4973 184.25 19.012C185.065 18.5267 185.94 18.284 186.876 18.284V23.718H185.446C184.337 23.718 183.514 23.9347 182.976 24.368C182.439 24.8013 182.17 25.5553 182.17 26.63V33H177.074V18.414H182.17V20.988Z"></path>
<path fill="black" d="M174.737 28.658V33H172.527C168.8 33 166.937 31.154 166.937 27.462V22.652H165.143V18.414H166.937V14.878H172.059V18.414H174.711V22.652H172.059V27.54C172.059 27.9387 172.146 28.2247 172.319 28.398C172.51 28.5714 172.822 28.658 173.255 28.658H174.737Z"></path>
<path fill="black" d="M157.849 18.284C159.53 18.284 160.865 18.8473 161.853 19.974C162.841 21.0833 163.335 22.5913 163.335 24.498V33H158.239V25.174C158.239 24.342 158.022 23.692 157.589 23.224C157.155 22.7387 156.575 22.496 155.847 22.496C155.084 22.496 154.486 22.7387 154.053 23.224C153.619 23.692 153.403 24.342 153.403 25.174V33H148.307V18.414H153.403V20.494C153.853 19.8353 154.46 19.3067 155.223 18.908C155.985 18.492 156.861 18.284 157.849 18.284Z"></path>
<path fill="black" d="M146.221 25.538C146.221 25.9367 146.195 26.3353 146.143 26.734H136.497C136.549 27.5313 136.766 28.1293 137.147 28.528C137.546 28.9093 138.048 29.1 138.655 29.1C139.504 29.1 140.111 28.7187 140.475 27.956H145.909C145.684 28.9613 145.242 29.8627 144.583 30.66C143.942 31.44 143.127 32.0553 142.139 32.506C141.151 32.9567 140.059 33.182 138.863 33.182C137.424 33.182 136.142 32.8787 135.015 32.272C133.906 31.6653 133.03 30.7987 132.389 29.672C131.765 28.5453 131.453 27.2193 131.453 25.694C131.453 24.1687 131.765 22.8513 132.389 21.742C133.013 20.6153 133.88 19.7487 134.989 19.142C136.116 18.5353 137.407 18.232 138.863 18.232C140.302 18.232 141.576 18.5267 142.685 19.116C143.794 19.7053 144.661 20.5547 145.285 21.664C145.909 22.756 146.221 24.0473 146.221 25.538ZM141.021 24.264C141.021 23.64 140.813 23.1547 140.397 22.808C139.981 22.444 139.461 22.262 138.837 22.262C138.213 22.262 137.702 22.4353 137.303 22.782C136.904 23.1113 136.644 23.6053 136.523 24.264H141.021Z"></path>
<path fill="black" d="M115.66 25.694C115.66 24.186 115.972 22.8687 116.596 21.742C117.22 20.6153 118.087 19.7487 119.196 19.142C120.323 18.5353 121.605 18.232 123.044 18.232C124.899 18.232 126.459 18.7433 127.724 19.766C128.989 20.7713 129.804 22.184 130.168 24.004H124.76C124.448 23.0507 123.841 22.574 122.94 22.574C122.299 22.574 121.787 22.8427 121.406 23.38C121.042 23.9 120.86 24.6713 120.86 25.694C120.86 26.7167 121.042 27.4967 121.406 28.034C121.787 28.5713 122.299 28.84 122.94 28.84C123.859 28.84 124.465 28.3633 124.76 27.41H130.168C129.804 29.2127 128.989 30.6253 127.724 31.648C126.459 32.6707 124.899 33.182 123.044 33.182C121.605 33.182 120.323 32.8787 119.196 32.272C118.087 31.6653 117.22 30.7987 116.596 29.672C115.972 28.5453 115.66 27.2193 115.66 25.694Z"></path>
<path fill="#F4333D" d="M98.9398 20.442C99.3384 19.766 99.9017 19.2287 100.63 18.83C101.358 18.4313 102.216 18.232 103.204 18.232C104.365 18.232 105.414 18.5353 106.35 19.142C107.303 19.7487 108.048 20.6153 108.586 21.742C109.14 22.8687 109.418 24.186 109.418 25.694C109.418 27.202 109.14 28.528 108.586 29.672C108.048 30.7987 107.303 31.6653 106.35 32.272C105.414 32.8787 104.365 33.182 103.204 33.182C102.216 33.182 101.358 32.9827 100.63 32.584C99.9191 32.1853 99.3558 31.648 98.9398 30.972V39.968H93.8438V18.414H98.9398V20.442ZM104.244 25.694C104.244 24.7407 103.984 24.004 103.464 23.484C102.961 22.9467 102.337 22.678 101.592 22.678C100.846 22.678 100.214 22.9467 99.6937 23.484C99.1911 24.0213 98.9398 24.758 98.9398 25.694C98.9398 26.6473 99.1911 27.3927 99.6937 27.93C100.214 28.4673 100.846 28.736 101.592 28.736C102.337 28.736 102.961 28.4673 103.464 27.93C103.984 27.3753 104.244 26.63 104.244 25.694Z"></path>
<path fill="#F4333D" d="M90.9417 13.76V33H85.8457V13.76H90.9417Z"></path>
<path fill="#F4333D" d="M83.7602 25.538C83.7602 25.9367 83.7342 26.3353 83.6822 26.734H74.0362C74.0882 27.5313 74.3049 28.1293 74.6862 28.528C75.0849 28.9093 75.5876 29.1 76.1942 29.1C77.0436 29.1 77.6502 28.7187 78.0142 27.956H83.4482C83.2229 28.9613 82.7809 29.8627 82.1222 30.66C81.4809 31.44 80.6662 32.0553 79.6782 32.506C78.6902 32.9567 77.5982 33.182 76.4022 33.182C74.9636 33.182 73.6809 32.8787 72.5542 32.272C71.4449 31.6653 70.5696 30.7987 69.9282 29.672C69.3042 28.5453 68.9922 27.2193 68.9922 25.694C68.9922 24.1687 69.3042 22.8513 69.9282 21.742C70.5522 20.6153 71.4189 19.7487 72.5282 19.142C73.6549 18.5353 74.9462 18.232 76.4022 18.232C77.8409 18.232 79.1149 18.5267 80.2242 19.116C81.3336 19.7053 82.2002 20.5547 82.8242 21.664C83.4482 22.756 83.7602 24.0473 83.7602 25.538ZM78.5602 24.264C78.5602 23.64 78.3522 23.1547 77.9362 22.808C77.5202 22.444 77.0002 22.262 76.3762 22.262C75.7522 22.262 75.2409 22.4353 74.8422 22.782C74.4436 23.1113 74.1836 23.6053 74.0622 24.264H78.5602Z"></path>
<path fill="#F4333D" d="M61.594 18.284C63.258 18.284 64.5753 18.8473 65.546 19.974C66.534 21.0833 67.028 22.5913 67.028 24.498V33H61.932V25.174C61.932 24.342 61.7153 23.692 61.282 23.224C60.8487 22.7387 60.268 22.496 59.54 22.496C58.7773 22.496 58.1793 22.7387 57.746 23.224C57.3127 23.692 57.096 24.342 57.096 25.174V33H52V13.76H57.096V20.494C57.5467 19.8353 58.1533 19.3067 58.916 18.908C59.696 18.492 60.5887 18.284 61.594 18.284Z"></path>
<path fill="#F4333D" d="M13.9457 4H26.0543C30.07 4 32.0773 4 34.239 4.68333C36.599 5.54233 38.4577 7.401 39.3167 9.761C40 11.9223 40 13.9303 40 17.9457V30.0543C40 34.07 40 36.0773 39.3167 38.239C38.4577 40.599 36.599 42.4577 34.239 43.3163C32.0773 44 30.07 44 26.0543 44H13.9457C9.93 44 7.92233 44 5.761 43.3163C3.401 42.4577 1.54233 40.599 0.683333 38.239C0 36.0773 0 34.07 0 30.0543V17.9457C0 13.9303 0 11.9223 0.683333 9.761C1.54233 7.401 3.401 5.54233 5.761 4.68333C7.92233 4 9.93 4 13.9457 4V4" clip-rule="evenodd" fill-rule="evenodd"></path>
<path fill="white" d="M16.5686 17.2609C16.5686 19.167 18.0468 20.6452 19.953 20.6452C21.8591 20.6452 23.3373 19.167 23.3373 17.2609C23.3373 15.3548 21.8591 13.8766 19.953 13.8766C18.0468 13.8766 16.5686 15.3548 16.5686 17.2609ZM23.6096 33.8714H16.2963L17.8523 21.7734C19.0194 22.1235 20.8866 22.1235 22.0536 21.7734L23.6096 33.8714Z" clip-rule="evenodd" fill-rule="evenodd"></path>
</svg>
