<svg xmlns="http://www.w3.org/2000/svg" fill="none" viewBox="0 0 214 48" height="48" width="214">
<path fill="black" d="M209.095 25.538C209.095 25.9367 209.069 26.3353 209.017 26.734H199.371C199.423 27.5313 199.64 28.1293 200.021 28.528C200.42 28.9093 200.922 29.1 201.529 29.1C202.378 29.1 202.985 28.7187 203.349 27.956H208.783C208.558 28.9613 208.116 29.8627 207.457 30.66C206.816 31.44 206.001 32.0553 205.013 32.506C204.025 32.9567 202.933 33.182 201.737 33.182C200.298 33.182 199.016 32.8787 197.889 32.272C196.78 31.6653 195.904 30.7987 195.263 29.672C194.639 28.5453 194.327 27.2193 194.327 25.694C194.327 24.1687 194.639 22.8513 195.263 21.742C195.887 20.6153 196.754 19.7487 197.863 19.142C198.99 18.5353 200.281 18.232 201.737 18.232C203.176 18.232 204.45 18.5267 205.559 19.116C206.668 19.7053 207.535 20.5547 208.159 21.664C208.783 22.756 209.095 24.0473 209.095 25.538ZM203.895 24.264C203.895 23.64 203.687 23.1547 203.271 22.808C202.855 22.444 202.335 22.262 201.711 22.262C201.087 22.262 200.576 22.4353 200.177 22.782C199.778 23.1113 199.518 23.6053 199.397 24.264H203.895Z"></path>
<path fill="black" d="M188.626 20.988C189.198 20.156 189.892 19.4973 190.706 19.012C191.521 18.5267 192.396 18.284 193.332 18.284V23.718H191.902C190.793 23.718 189.97 23.9347 189.432 24.368C188.895 24.8013 188.626 25.5553 188.626 26.63V33H183.53V18.414H188.626V20.988Z"></path>
<path fill="black" d="M181.193 28.658V33H178.983C175.256 33 173.393 31.154 173.393 27.462V22.652H171.599V18.414H173.393V14.878H178.515V18.414H181.167V22.652H178.515V27.54C178.515 27.9387 178.602 28.2247 178.775 28.398C178.966 28.5714 179.278 28.658 179.711 28.658H181.193Z"></path>
<path fill="black" d="M164.305 18.284C165.986 18.284 167.321 18.8473 168.309 19.974C169.297 21.0833 169.791 22.5913 169.791 24.498V33H164.695V25.174C164.695 24.342 164.478 23.692 164.045 23.224C163.611 22.7387 163.031 22.496 162.303 22.496C161.54 22.496 160.942 22.7387 160.509 23.224C160.075 23.692 159.859 24.342 159.859 25.174V33H154.763V18.414H159.859V20.494C160.309 19.8353 160.916 19.3067 161.679 18.908C162.441 18.492 163.317 18.284 164.305 18.284Z"></path>
<path fill="black" d="M152.677 25.538C152.677 25.9367 152.651 26.3353 152.599 26.734H142.953C143.005 27.5313 143.222 28.1293 143.603 28.528C144.002 28.9093 144.504 29.1 145.111 29.1C145.96 29.1 146.567 28.7187 146.931 27.956H152.365C152.14 28.9613 151.698 29.8627 151.039 30.66C150.398 31.44 149.583 32.0553 148.595 32.506C147.607 32.9567 146.515 33.182 145.319 33.182C143.88 33.182 142.598 32.8787 141.471 32.272C140.362 31.6653 139.486 30.7987 138.845 29.672C138.221 28.5453 137.909 27.2193 137.909 25.694C137.909 24.1687 138.221 22.8513 138.845 21.742C139.469 20.6153 140.336 19.7487 141.445 19.142C142.572 18.5353 143.863 18.232 145.319 18.232C146.758 18.232 148.032 18.5267 149.141 19.116C150.25 19.7053 151.117 20.5547 151.741 21.664C152.365 22.756 152.677 24.0473 152.677 25.538ZM147.477 24.264C147.477 23.64 147.269 23.1547 146.853 22.808C146.437 22.444 145.917 22.262 145.293 22.262C144.669 22.262 144.158 22.4353 143.759 22.782C143.36 23.1113 143.1 23.6053 142.979 24.264H147.477Z"></path>
<path fill="black" d="M122.116 25.694C122.116 24.186 122.428 22.8687 123.052 21.742C123.676 20.6153 124.543 19.7487 125.652 19.142C126.779 18.5353 128.062 18.232 129.5 18.232C131.355 18.232 132.915 18.7433 134.18 19.766C135.446 20.7713 136.26 22.184 136.624 24.004H131.216C130.904 23.0507 130.298 22.574 129.396 22.574C128.755 22.574 128.244 22.8427 127.862 23.38C127.498 23.9 127.316 24.6713 127.316 25.694C127.316 26.7167 127.498 27.4967 127.862 28.034C128.244 28.5713 128.755 28.84 129.396 28.84C130.315 28.84 130.922 28.3633 131.216 27.41H136.624C136.26 29.2127 135.446 30.6253 134.18 31.648C132.915 32.6707 131.355 33.182 129.5 33.182C128.062 33.182 126.779 32.8787 125.652 32.272C124.543 31.6653 123.676 30.7987 123.052 29.672C122.428 28.5453 122.116 27.2193 122.116 25.694Z"></path>
<path fill="#F4333D" d="M105.396 20.442C105.794 19.766 106.358 19.2287 107.086 18.83C107.814 18.4313 108.672 18.232 109.66 18.232C110.821 18.232 111.87 18.5353 112.806 19.142C113.759 19.7487 114.504 20.6153 115.042 21.742C115.596 22.8687 115.874 24.186 115.874 25.694C115.874 27.202 115.596 28.528 115.042 29.672C114.504 30.7987 113.759 31.6653 112.806 32.272C111.87 32.8787 110.821 33.182 109.66 33.182C108.672 33.182 107.814 32.9827 107.086 32.584C106.375 32.1853 105.812 31.648 105.396 30.972V39.968H100.3V18.414H105.396V20.442ZM110.7 25.694C110.7 24.7407 110.44 24.004 109.92 23.484C109.417 22.9467 108.793 22.678 108.048 22.678C107.302 22.678 106.67 22.9467 106.15 23.484C105.647 24.0213 105.396 24.758 105.396 25.694C105.396 26.6473 105.647 27.3927 106.15 27.93C106.67 28.4673 107.302 28.736 108.048 28.736C108.793 28.736 109.417 28.4673 109.92 27.93C110.44 27.3753 110.7 26.63 110.7 25.694Z"></path>
<path fill="#F4333D" d="M97.3977 13.76V33H92.3017V13.76H97.3977Z"></path>
<path fill="#F4333D" d="M90.2162 25.538C90.2162 25.9367 90.1902 26.3353 90.1382 26.734H80.4922C80.5442 27.5313 80.7609 28.1293 81.1422 28.528C81.5409 28.9093 82.0435 29.1 82.6502 29.1C83.4995 29.1 84.1062 28.7187 84.4702 27.956H89.9042C89.6789 28.9613 89.2369 29.8627 88.5782 30.66C87.9369 31.44 87.1222 32.0553 86.1342 32.506C85.1462 32.9567 84.0542 33.182 82.8582 33.182C81.4195 33.182 80.1369 32.8787 79.0102 32.272C77.9009 31.6653 77.0255 30.7987 76.3842 29.672C75.7602 28.5453 75.4482 27.2193 75.4482 25.694C75.4482 24.1687 75.7602 22.8513 76.3842 21.742C77.0082 20.6153 77.8749 19.7487 78.9842 19.142C80.1109 18.5353 81.4022 18.232 82.8582 18.232C84.2969 18.232 85.5709 18.5267 86.6802 19.116C87.7895 19.7053 88.6562 20.5547 89.2802 21.664C89.9042 22.756 90.2162 24.0473 90.2162 25.538ZM85.0162 24.264C85.0162 23.64 84.8082 23.1547 84.3922 22.808C83.9762 22.444 83.4562 22.262 82.8322 22.262C82.2082 22.262 81.6969 22.4353 81.2982 22.782C80.8995 23.1113 80.6395 23.6053 80.5182 24.264H85.0162Z"></path>
<path fill="#F4333D" d="M68.05 18.284C69.714 18.284 71.0313 18.8473 72.002 19.974C72.99 21.0833 73.484 22.5913 73.484 24.498V33H68.388V25.174C68.388 24.342 68.1713 23.692 67.738 23.224C67.3047 22.7387 66.724 22.496 65.996 22.496C65.2333 22.496 64.6353 22.7387 64.202 23.224C63.7687 23.692 63.552 24.342 63.552 25.174V33H58.456V13.76H63.552V20.494C64.0027 19.8353 64.6093 19.3067 65.372 18.908C66.152 18.492 67.0447 18.284 68.05 18.284Z"></path>
<path fill="#F4333D" d="M17.526 44.1669L19.9097 25.5873C22.5937 26.2705 25.4054 26.2705 28.0893 25.5873L30.572 44.9379C39.8963 42.566 46.7999 34.095 46.7999 24C46.7999 12.065 37.1503 2.4 25.2593 2.4C13.3684 2.4 3.71876 12.065 3.71876 24C3.71876 27.7392 4.66428 31.2497 6.32646 34.3113C7.06114 35.6645 7.06502 37.3934 6.12332 38.7728L3.16555 43.1056L10.1967 41.4936C11.3722 41.224 12.557 41.4828 13.4944 42.097C14.7532 42.9217 16.1031 43.6179 17.526 44.1669ZM25.3929 47.9996C25.3484 47.9999 25.3039 48 25.2593 48C20.4324 48 15.9391 46.5679 12.1791 44.1045C11.7519 43.8245 11.2309 43.7187 10.733 43.8329L2.20833 45.7873C0.612073 46.1533 -0.603883 44.3705 0.319448 43.018L4.14115 37.4197C4.53932 36.8364 4.55421 36.0771 4.21725 35.4564C2.3689 32.0519 1.31876 28.1489 1.31876 24C1.31876 10.7452 12.0373 0 25.2593 0C38.4814 0 49.1999 10.7452 49.1999 24C49.1999 35.3144 41.3899 44.8001 30.8795 47.335L30.8873 47.3958C29.1636 47.7912 27.369 48 25.5257 48C25.4814 48 25.4371 47.9999 25.3929 47.9996ZM24.1041 23.399C24.9699 23.4078 25.8287 23.2434 26.6304 22.9155C27.432 22.5876 28.1602 22.1028 28.7725 21.4894C29.3847 20.876 29.8686 20.1463 30.1959 19.3432C30.5232 18.5401 30.6873 17.6796 30.6785 16.8122C30.6785 15.0585 29.9831 13.3767 28.7455 12.1367C27.5078 10.8967 25.8291 10.2 24.0788 10.2C22.3285 10.2 20.6498 10.8967 19.4121 12.1367C18.1745 13.3767 17.4791 15.0585 17.4791 16.8122C17.4702 17.6839 17.6358 18.5486 17.9663 19.3551C18.2967 20.1617 18.7851 20.8936 19.4028 21.5077C20.0204 22.1218 20.7547 22.6056 21.5622 22.9304C22.3697 23.2553 23.2341 23.4146 24.1041 23.399Z" clip-rule="evenodd" fill-rule="evenodd"></path>
</svg>
