<svg xmlns="http://www.w3.org/2000/svg" fill="none" viewBox="0 0 1600 360" height="360" width="1600">
<g clip-path="url(#clip0_2481_3865)">
<rect fill="#FAF8F5" height="360" width="1600"></rect>
<path fill="#F4333D" d="M633.612 145.224C631.969 145.224 630.497 144.957 629.196 144.424C627.895 143.891 626.849 143.101 626.06 142.056C625.292 141.011 624.887 139.752 624.844 138.28H630.668C630.753 139.112 631.041 139.752 631.532 140.2C632.023 140.627 632.663 140.84 633.452 140.84C634.263 140.84 634.903 140.659 635.372 140.296C635.841 139.912 636.076 139.389 636.076 138.728C636.076 138.173 635.884 137.715 635.5 137.352C635.137 136.989 634.679 136.691 634.124 136.456C633.591 136.221 632.823 135.955 631.82 135.656C630.369 135.208 629.185 134.76 628.268 134.312C627.351 133.864 626.561 133.203 625.9 132.328C625.239 131.453 624.908 130.312 624.908 128.904C624.908 126.813 625.665 125.181 627.18 124.008C628.695 122.813 630.668 122.216 633.1 122.216C635.575 122.216 637.569 122.813 639.084 124.008C640.599 125.181 641.409 126.824 641.516 128.936H635.596C635.553 128.211 635.287 127.645 634.796 127.24C634.305 126.813 633.676 126.6 632.908 126.6C632.247 126.6 631.713 126.781 631.308 127.144C630.903 127.485 630.7 127.987 630.7 128.648C630.7 129.373 631.041 129.939 631.724 130.344C632.407 130.749 633.473 131.187 634.924 131.656C636.375 132.147 637.548 132.616 638.444 133.064C639.361 133.512 640.151 134.163 640.812 135.016C641.473 135.869 641.804 136.968 641.804 138.312C641.804 139.592 641.473 140.755 640.812 141.8C640.172 142.845 639.233 143.677 637.996 144.296C636.759 144.915 635.297 145.224 633.612 145.224ZM647.924 125.288C646.964 125.288 646.174 125.011 645.556 124.456C644.958 123.88 644.66 123.176 644.66 122.344C644.66 121.491 644.958 120.787 645.556 120.232C646.174 119.656 646.964 119.368 647.924 119.368C648.862 119.368 649.63 119.656 650.228 120.232C650.846 120.787 651.156 121.491 651.156 122.344C651.156 123.176 650.846 123.88 650.228 124.456C649.63 125.011 648.862 125.288 647.924 125.288ZM650.644 127.144V145H645.172V127.144H650.644ZM665.489 126.952C667.58 126.952 669.244 127.635 670.481 129C671.74 130.344 672.369 132.2 672.369 134.568V145H666.929V135.304C666.929 134.109 666.62 133.181 666.001 132.52C665.382 131.859 664.55 131.528 663.505 131.528C662.46 131.528 661.628 131.859 661.009 132.52C660.39 133.181 660.081 134.109 660.081 135.304V145H654.609V127.144H660.081V129.512C660.636 128.723 661.382 128.104 662.321 127.656C663.26 127.187 664.316 126.952 665.489 126.952ZM682.956 126.888C684.214 126.888 685.313 127.144 686.252 127.656C687.212 128.168 687.948 128.84 688.46 129.672V127.144H693.932V144.968C693.932 146.611 693.601 148.093 692.94 149.416C692.3 150.76 691.308 151.827 689.964 152.616C688.641 153.405 686.988 153.8 685.004 153.8C682.358 153.8 680.214 153.171 678.572 151.912C676.929 150.675 675.99 148.989 675.756 146.856H681.164C681.334 147.539 681.74 148.072 682.38 148.456C683.02 148.861 683.809 149.064 684.748 149.064C685.878 149.064 686.774 148.733 687.436 148.072C688.118 147.432 688.46 146.397 688.46 144.968V142.44C687.926 143.272 687.19 143.955 686.252 144.488C685.313 145 684.214 145.256 682.956 145.256C681.484 145.256 680.15 144.883 678.956 144.136C677.761 143.368 676.812 142.291 676.108 140.904C675.425 139.496 675.084 137.875 675.084 136.04C675.084 134.205 675.425 132.595 676.108 131.208C676.812 129.821 677.761 128.755 678.956 128.008C680.15 127.261 681.484 126.888 682.956 126.888ZM688.46 136.072C688.46 134.707 688.076 133.629 687.308 132.84C686.561 132.051 685.644 131.656 684.556 131.656C683.468 131.656 682.54 132.051 681.772 132.84C681.025 133.608 680.652 134.675 680.652 136.04C680.652 137.405 681.025 138.493 681.772 139.304C682.54 140.093 683.468 140.488 684.556 140.488C685.644 140.488 686.561 140.093 687.308 139.304C688.076 138.515 688.46 137.437 688.46 136.072ZM703.362 129.672C703.896 128.84 704.632 128.168 705.57 127.656C706.509 127.144 707.608 126.888 708.866 126.888C710.338 126.888 711.672 127.261 712.866 128.008C714.061 128.755 715 129.821 715.682 131.208C716.386 132.595 716.738 134.205 716.738 136.04C716.738 137.875 716.386 139.496 715.682 140.904C715 142.291 714.061 143.368 712.866 144.136C711.672 144.883 710.338 145.256 708.866 145.256C707.629 145.256 706.53 145 705.57 144.488C704.632 143.976 703.896 143.315 703.362 142.504V153.512H697.89V127.144H703.362V129.672ZM711.17 136.04C711.17 134.675 710.786 133.608 710.018 132.84C709.272 132.051 708.344 131.656 707.234 131.656C706.146 131.656 705.218 132.051 704.45 132.84C703.704 133.629 703.33 134.707 703.33 136.072C703.33 137.437 703.704 138.515 704.45 139.304C705.218 140.093 706.146 140.488 707.234 140.488C708.322 140.488 709.25 140.093 710.018 139.304C710.786 138.493 711.17 137.405 711.17 136.04ZM718.521 136.04C718.521 134.205 718.862 132.595 719.545 131.208C720.249 129.821 721.198 128.755 722.393 128.008C723.588 127.261 724.921 126.888 726.393 126.888C727.652 126.888 728.75 127.144 729.689 127.656C730.649 128.168 731.385 128.84 731.897 129.672V127.144H737.369V145H731.897V142.472C731.364 143.304 730.617 143.976 729.657 144.488C728.718 145 727.62 145.256 726.361 145.256C724.91 145.256 723.588 144.883 722.393 144.136C721.198 143.368 720.249 142.291 719.545 140.904C718.862 139.496 718.521 137.875 718.521 136.04ZM731.897 136.072C731.897 134.707 731.513 133.629 730.745 132.84C729.998 132.051 729.081 131.656 727.993 131.656C726.905 131.656 725.977 132.051 725.209 132.84C724.462 133.608 724.089 134.675 724.089 136.04C724.089 137.405 724.462 138.493 725.209 139.304C725.977 140.093 726.905 140.488 727.993 140.488C729.081 140.488 729.998 140.093 730.745 139.304C731.513 138.515 731.897 137.437 731.897 136.072ZM748.592 145.256C747.034 145.256 745.648 144.989 744.432 144.456C743.216 143.923 742.256 143.197 741.552 142.28C740.848 141.341 740.453 140.296 740.368 139.144H745.776C745.84 139.763 746.128 140.264 746.64 140.648C747.152 141.032 747.781 141.224 748.528 141.224C749.21 141.224 749.733 141.096 750.096 140.84C750.48 140.563 750.672 140.211 750.672 139.784C750.672 139.272 750.405 138.899 749.872 138.664C749.338 138.408 748.474 138.131 747.28 137.832C746 137.533 744.933 137.224 744.08 136.904C743.226 136.563 742.49 136.04 741.872 135.336C741.253 134.611 740.944 133.64 740.944 132.424C740.944 131.4 741.221 130.472 741.776 129.64C742.352 128.787 743.184 128.115 744.272 127.624C745.381 127.133 746.693 126.888 748.208 126.888C750.448 126.888 752.208 127.443 753.488 128.552C754.789 129.661 755.536 131.133 755.728 132.968H750.672C750.586 132.349 750.309 131.859 749.84 131.496C749.392 131.133 748.794 130.952 748.048 130.952C747.408 130.952 746.917 131.08 746.576 131.336C746.234 131.571 746.064 131.901 746.064 132.328C746.064 132.84 746.33 133.224 746.864 133.48C747.418 133.736 748.272 133.992 749.424 134.248C750.746 134.589 751.824 134.931 752.656 135.272C753.488 135.592 754.213 136.125 754.832 136.872C755.472 137.597 755.802 138.579 755.824 139.816C755.824 140.861 755.525 141.8 754.928 142.632C754.352 143.443 753.509 144.083 752.4 144.552C751.312 145.021 750.042 145.256 748.592 145.256ZM766.436 145.256C764.878 145.256 763.492 144.989 762.276 144.456C761.06 143.923 760.1 143.197 759.396 142.28C758.692 141.341 758.297 140.296 758.212 139.144H763.62C763.684 139.763 763.972 140.264 764.484 140.648C764.996 141.032 765.625 141.224 766.372 141.224C767.054 141.224 767.577 141.096 767.94 140.84C768.324 140.563 768.516 140.211 768.516 139.784C768.516 139.272 768.249 138.899 767.716 138.664C767.182 138.408 766.318 138.131 765.124 137.832C763.844 137.533 762.777 137.224 761.924 136.904C761.07 136.563 760.334 136.04 759.716 135.336C759.097 134.611 758.788 133.64 758.788 132.424C758.788 131.4 759.065 130.472 759.62 129.64C760.196 128.787 761.028 128.115 762.116 127.624C763.225 127.133 764.537 126.888 766.052 126.888C768.292 126.888 770.052 127.443 771.332 128.552C772.633 129.661 773.38 131.133 773.572 132.968H768.516C768.43 132.349 768.153 131.859 767.684 131.496C767.236 131.133 766.638 130.952 765.892 130.952C765.252 130.952 764.761 131.08 764.42 131.336C764.078 131.571 763.908 131.901 763.908 132.328C763.908 132.84 764.174 133.224 764.708 133.48C765.262 133.736 766.116 133.992 767.268 134.248C768.59 134.589 769.668 134.931 770.5 135.272C771.332 135.592 772.057 136.125 772.676 136.872C773.316 137.597 773.646 138.579 773.668 139.816C773.668 140.861 773.369 141.8 772.772 142.632C772.196 143.443 771.353 144.083 770.244 144.552C769.156 145.021 767.886 145.256 766.436 145.256ZM803.253 122.536V145H797.781V135.752H789.269V145H783.797V122.536H789.269V131.336H797.781V122.536H803.253ZM824.035 135.784C824.035 136.296 824.003 136.829 823.939 137.384H811.555C811.64 138.493 811.992 139.347 812.611 139.944C813.251 140.52 814.029 140.808 814.947 140.808C816.312 140.808 817.261 140.232 817.795 139.08H823.619C823.32 140.253 822.776 141.309 821.987 142.248C821.219 143.187 820.248 143.923 819.075 144.456C817.901 144.989 816.589 145.256 815.139 145.256C813.389 145.256 811.832 144.883 810.467 144.136C809.101 143.389 808.035 142.323 807.267 140.936C806.499 139.549 806.115 137.928 806.115 136.072C806.115 134.216 806.488 132.595 807.235 131.208C808.003 129.821 809.069 128.755 810.435 128.008C811.8 127.261 813.368 126.888 815.139 126.888C816.867 126.888 818.403 127.251 819.747 127.976C821.091 128.701 822.136 129.736 822.883 131.08C823.651 132.424 824.035 133.992 824.035 135.784ZM818.435 134.344C818.435 133.405 818.115 132.659 817.475 132.104C816.835 131.549 816.035 131.272 815.075 131.272C814.157 131.272 813.379 131.539 812.739 132.072C812.12 132.605 811.736 133.363 811.587 134.344H818.435ZM832.394 121.32V145H826.922V121.32H832.394ZM841.831 129.672C842.364 128.84 843.1 128.168 844.039 127.656C844.978 127.144 846.076 126.888 847.335 126.888C848.807 126.888 850.14 127.261 851.335 128.008C852.53 128.755 853.468 129.821 854.151 131.208C854.855 132.595 855.207 134.205 855.207 136.04C855.207 137.875 854.855 139.496 854.151 140.904C853.468 142.291 852.53 143.368 851.335 144.136C850.14 144.883 848.807 145.256 847.335 145.256C846.098 145.256 844.999 145 844.039 144.488C843.1 143.976 842.364 143.315 841.831 142.504V153.512H836.359V127.144H841.831V129.672ZM849.639 136.04C849.639 134.675 849.255 133.608 848.487 132.84C847.74 132.051 846.812 131.656 845.703 131.656C844.615 131.656 843.687 132.051 842.919 132.84C842.172 133.629 841.799 134.707 841.799 136.072C841.799 137.437 842.172 138.515 842.919 139.304C843.687 140.093 844.615 140.488 845.703 140.488C846.791 140.488 847.719 140.093 848.487 139.304C849.255 138.493 849.639 137.405 849.639 136.04ZM863.931 133.736C863.931 131.517 864.411 129.544 865.371 127.816C866.331 126.067 867.664 124.712 869.371 123.752C871.099 122.771 873.051 122.28 875.227 122.28C877.894 122.28 880.176 122.984 882.075 124.392C883.974 125.8 885.243 127.72 885.883 130.152H879.867C879.419 129.213 878.779 128.499 877.947 128.008C877.136 127.517 876.208 127.272 875.163 127.272C873.478 127.272 872.112 127.859 871.067 129.032C870.022 130.205 869.499 131.773 869.499 133.736C869.499 135.699 870.022 137.267 871.067 138.44C872.112 139.613 873.478 140.2 875.163 140.2C876.208 140.2 877.136 139.955 877.947 139.464C878.779 138.973 879.419 138.259 879.867 137.32H885.883C885.243 139.752 883.974 141.672 882.075 143.08C880.176 144.467 877.894 145.16 875.227 145.16C873.051 145.16 871.099 144.68 869.371 143.72C867.664 142.739 866.331 141.384 865.371 139.656C864.411 137.928 863.931 135.955 863.931 133.736ZM906.066 135.784C906.066 136.296 906.034 136.829 905.97 137.384H893.586C893.671 138.493 894.023 139.347 894.642 139.944C895.282 140.52 896.061 140.808 896.978 140.808C898.343 140.808 899.293 140.232 899.826 139.08H905.65C905.351 140.253 904.807 141.309 904.018 142.248C903.25 143.187 902.279 143.923 901.106 144.456C899.933 144.989 898.621 145.256 897.17 145.256C895.421 145.256 893.863 144.883 892.498 144.136C891.133 143.389 890.066 142.323 889.298 140.936C888.53 139.549 888.146 137.928 888.146 136.072C888.146 134.216 888.519 132.595 889.266 131.208C890.034 129.821 891.101 128.755 892.466 128.008C893.831 127.261 895.399 126.888 897.17 126.888C898.898 126.888 900.434 127.251 901.778 127.976C903.122 128.701 904.167 129.736 904.914 131.08C905.682 132.424 906.066 133.992 906.066 135.784ZM900.466 134.344C900.466 133.405 900.146 132.659 899.506 132.104C898.866 131.549 898.066 131.272 897.106 131.272C896.189 131.272 895.41 131.539 894.77 132.072C894.151 132.605 893.767 133.363 893.618 134.344H900.466ZM919.833 126.952C921.923 126.952 923.587 127.635 924.825 129C926.083 130.344 926.713 132.2 926.713 134.568V145H921.273V135.304C921.273 134.109 920.963 133.181 920.345 132.52C919.726 131.859 918.894 131.528 917.849 131.528C916.803 131.528 915.971 131.859 915.353 132.52C914.734 133.181 914.425 134.109 914.425 135.304V145H908.953V127.144H914.425V129.512C914.979 128.723 915.726 128.104 916.665 127.656C917.603 127.187 918.659 126.952 919.833 126.952ZM940.467 140.36V145H937.683C935.699 145 934.153 144.52 933.043 143.56C931.934 142.579 931.379 140.989 931.379 138.792V131.688H929.203V127.144H931.379V122.792H936.851V127.144H940.435V131.688H936.851V138.856C936.851 139.389 936.979 139.773 937.235 140.008C937.491 140.243 937.918 140.36 938.515 140.36H940.467ZM948.987 130.12C949.627 129.139 950.427 128.371 951.387 127.816C952.347 127.24 953.414 126.952 954.587 126.952V132.744H953.083C951.718 132.744 950.694 133.043 950.011 133.64C949.329 134.216 948.987 135.24 948.987 136.712V145H943.515V127.144H948.987V130.12ZM974.035 135.784C974.035 136.296 974.003 136.829 973.939 137.384H961.555C961.64 138.493 961.992 139.347 962.611 139.944C963.251 140.52 964.029 140.808 964.947 140.808C966.312 140.808 967.261 140.232 967.795 139.08H973.619C973.32 140.253 972.776 141.309 971.987 142.248C971.219 143.187 970.248 143.923 969.075 144.456C967.901 144.989 966.589 145.256 965.139 145.256C963.389 145.256 961.832 144.883 960.467 144.136C959.101 143.389 958.035 142.323 957.267 140.936C956.499 139.549 956.115 137.928 956.115 136.072C956.115 134.216 956.488 132.595 957.235 131.208C958.003 129.821 959.069 128.755 960.435 128.008C961.8 127.261 963.368 126.888 965.139 126.888C966.867 126.888 968.403 127.251 969.747 127.976C971.091 128.701 972.136 129.736 972.883 131.08C973.651 132.424 974.035 133.992 974.035 135.784ZM968.435 134.344C968.435 133.405 968.115 132.659 967.475 132.104C966.835 131.549 966.035 131.272 965.075 131.272C964.157 131.272 963.379 131.539 962.739 132.072C962.12 132.605 961.736 133.363 961.587 134.344H968.435Z"></path>
<path fill="black" d="M543.664 177.304L537.712 211H529.504L531.952 197.032H519.184L516.736 211H508.528L514.48 177.304H522.688L520.336 190.552H533.104L535.456 177.304H543.664ZM560.341 183.832C563.797 183.832 566.533 184.776 568.549 186.664C570.597 188.52 571.621 191.064 571.621 194.296C571.621 195.352 571.541 196.296 571.381 197.128C571.253 197.864 571.061 198.648 570.805 199.48H552.229C552.197 199.672 552.181 199.976 552.181 200.392C552.181 201.8 552.565 202.872 553.333 203.608C554.101 204.344 555.125 204.712 556.405 204.712C558.453 204.712 560.021 203.848 561.109 202.12H569.845C568.693 204.84 566.821 207.064 564.229 208.792C561.637 210.52 558.725 211.384 555.493 211.384C552.037 211.384 549.269 210.424 547.189 208.504C545.141 206.584 544.117 203.976 544.117 200.68C544.117 199.688 544.213 198.664 544.405 197.608C544.885 194.824 545.877 192.392 547.381 190.312C548.885 188.232 550.757 186.632 552.997 185.512C555.237 184.392 557.685 183.832 560.341 183.832ZM563.317 195.304C563.381 194.856 563.413 194.552 563.413 194.392C563.413 193.112 563.013 192.136 562.213 191.464C561.413 190.76 560.357 190.408 559.045 190.408C557.637 190.408 556.389 190.84 555.301 191.704C554.245 192.536 553.477 193.736 552.997 195.304H563.317ZM587.712 175.48L581.424 211H573.216L579.504 175.48H587.712ZM601.868 175.48L595.58 211H587.372L593.66 175.48H601.868ZM613.768 211.384C611.464 211.384 609.416 210.92 607.624 209.992C605.832 209.064 604.44 207.752 603.448 206.056C602.488 204.36 602.008 202.392 602.008 200.152C602.008 197.112 602.728 194.344 604.168 191.848C605.608 189.352 607.592 187.4 610.12 185.992C612.648 184.552 615.464 183.832 618.568 183.832C620.872 183.832 622.92 184.312 624.712 185.272C626.536 186.2 627.944 187.512 628.936 189.208C629.928 190.904 630.424 192.872 630.424 195.112C630.424 198.184 629.688 200.968 628.216 203.464C626.776 205.928 624.776 207.864 622.216 209.272C619.688 210.68 616.872 211.384 613.768 211.384ZM614.92 204.328C616.264 204.328 617.464 203.928 618.52 203.128C619.608 202.296 620.44 201.24 621.016 199.96C621.624 198.648 621.928 197.288 621.928 195.88C621.928 194.28 621.496 193.048 620.632 192.184C619.768 191.32 618.68 190.888 617.368 190.888C615.992 190.888 614.776 191.304 613.72 192.136C612.696 192.936 611.896 193.992 611.32 195.304C610.744 196.616 610.456 197.992 610.456 199.432C610.456 201 610.872 202.216 611.704 203.08C612.536 203.912 613.608 204.328 614.92 204.328ZM643.371 203.416L638.043 217.192H632.811L635.595 203.416H643.371ZM674.956 183.928C678.028 183.928 680.492 184.952 682.348 187C684.204 189.016 685.132 191.8 685.132 195.352V211H676.972V196.456C676.972 194.664 676.508 193.272 675.58 192.28C674.652 191.288 673.404 190.792 671.836 190.792C670.268 190.792 669.02 191.288 668.092 192.28C667.164 193.272 666.7 194.664 666.7 196.456V211H658.492V175.48H666.7V187.816C667.532 186.632 668.668 185.688 670.108 184.984C671.548 184.28 673.164 183.928 674.956 183.928ZM703.027 211.384C700.403 211.384 698.035 210.824 695.923 209.704C693.843 208.584 692.195 206.984 690.979 204.904C689.795 202.824 689.203 200.392 689.203 197.608C689.203 194.856 689.811 192.44 691.027 190.36C692.243 188.248 693.907 186.632 696.019 185.512C698.131 184.392 700.499 183.832 703.123 183.832C705.747 183.832 708.115 184.392 710.227 185.512C712.339 186.632 714.003 188.248 715.219 190.36C716.435 192.44 717.043 194.856 717.043 197.608C717.043 200.36 716.419 202.792 715.171 204.904C713.955 206.984 712.275 208.584 710.131 209.704C708.019 210.824 705.651 211.384 703.027 211.384ZM703.027 204.28C704.595 204.28 705.923 203.704 707.011 202.552C708.131 201.4 708.691 199.752 708.691 197.608C708.691 195.464 708.147 193.816 707.059 192.664C706.003 191.512 704.691 190.936 703.123 190.936C701.523 190.936 700.195 191.512 699.139 192.664C698.083 193.784 697.555 195.432 697.555 197.608C697.555 199.752 698.067 201.4 699.091 202.552C700.147 203.704 701.459 204.28 703.027 204.28ZM759.846 184.216L752.598 211H743.526L739.302 193.624L734.934 211H725.91L718.614 184.216H726.822L730.614 203.368L735.126 184.216H743.814L748.374 203.272L752.118 184.216H759.846ZM771.516 197.608C771.516 194.824 772.076 192.392 773.196 190.312C774.348 188.232 775.932 186.632 777.948 185.512C779.996 184.392 782.332 183.832 784.956 183.832C788.316 183.832 791.116 184.712 793.356 186.472C795.628 188.232 797.116 190.712 797.82 193.912H789.084C788.348 191.864 786.924 190.84 784.812 190.84C783.308 190.84 782.108 191.432 781.212 192.616C780.316 193.768 779.868 195.432 779.868 197.608C779.868 199.784 780.316 201.464 781.212 202.648C782.108 203.8 783.308 204.376 784.812 204.376C786.924 204.376 788.348 203.352 789.084 201.304H797.82C797.116 204.44 795.628 206.904 793.356 208.696C791.084 210.488 788.284 211.384 784.956 211.384C782.332 211.384 779.996 210.824 777.948 209.704C775.932 208.584 774.348 206.984 773.196 204.904C772.076 202.824 771.516 200.392 771.516 197.608ZM800.578 197.56C800.578 194.808 801.09 192.392 802.114 190.312C803.17 188.232 804.594 186.632 806.386 185.512C808.178 184.392 810.178 183.832 812.386 183.832C814.274 183.832 815.922 184.216 817.33 184.984C818.77 185.752 819.874 186.76 820.642 188.008V184.216H828.85V211H820.642V207.208C819.842 208.456 818.722 209.464 817.282 210.232C815.874 211 814.226 211.384 812.338 211.384C810.162 211.384 808.178 210.824 806.386 209.704C804.594 208.552 803.17 206.936 802.114 204.856C801.09 202.744 800.578 200.312 800.578 197.56ZM820.642 197.608C820.642 195.56 820.066 193.944 818.914 192.76C817.794 191.576 816.418 190.984 814.786 190.984C813.154 190.984 811.762 191.576 810.61 192.76C809.49 193.912 808.93 195.512 808.93 197.56C808.93 199.608 809.49 201.24 810.61 202.456C811.762 203.64 813.154 204.232 814.786 204.232C816.418 204.232 817.794 203.64 818.914 202.456C820.066 201.272 820.642 199.656 820.642 197.608ZM851.109 183.928C854.245 183.928 856.741 184.952 858.597 187C860.485 189.016 861.429 191.8 861.429 195.352V211H853.269V196.456C853.269 194.664 852.805 193.272 851.877 192.28C850.949 191.288 849.701 190.792 848.133 190.792C846.565 190.792 845.317 191.288 844.389 192.28C843.461 193.272 842.997 194.664 842.997 196.456V211H834.789V184.216H842.997V187.768C843.829 186.584 844.949 185.656 846.357 184.984C847.765 184.28 849.349 183.928 851.109 183.928ZM915.752 184.216L908.504 211H899.432L895.208 193.624L890.84 211H881.816L874.52 184.216H882.728L886.52 203.368L891.032 184.216H899.72L904.28 203.272L908.024 184.216H915.752ZM944.13 197.176C944.13 197.944 944.082 198.744 943.986 199.576H925.41C925.538 201.24 926.066 202.52 926.994 203.416C927.954 204.28 929.122 204.712 930.498 204.712C932.546 204.712 933.97 203.848 934.77 202.12H943.506C943.058 203.88 942.242 205.464 941.058 206.872C939.906 208.28 938.45 209.384 936.69 210.184C934.93 210.984 932.962 211.384 930.786 211.384C928.162 211.384 925.826 210.824 923.778 209.704C921.73 208.584 920.13 206.984 918.978 204.904C917.826 202.824 917.25 200.392 917.25 197.608C917.25 194.824 917.81 192.392 918.93 190.312C920.082 188.232 921.682 186.632 923.73 185.512C925.778 184.392 928.13 183.832 930.786 183.832C933.378 183.832 935.682 184.376 937.698 185.464C939.714 186.552 941.282 188.104 942.402 190.12C943.554 192.136 944.13 194.488 944.13 197.176ZM935.73 195.016C935.73 193.608 935.25 192.488 934.29 191.656C933.33 190.824 932.13 190.408 930.69 190.408C929.314 190.408 928.146 190.808 927.186 191.608C926.258 192.408 925.682 193.544 925.458 195.016H935.73ZM975.096 183.928C978.168 183.928 980.632 184.952 982.488 187C984.344 189.016 985.272 191.8 985.272 195.352V211H977.112V196.456C977.112 194.664 976.648 193.272 975.72 192.28C974.792 191.288 973.544 190.792 971.976 190.792C970.408 190.792 969.16 191.288 968.232 192.28C967.304 193.272 966.84 194.664 966.84 196.456V211H958.632V175.48H966.84V187.816C967.672 186.632 968.808 185.688 970.248 184.984C971.688 184.28 973.304 183.928 975.096 183.928ZM1016.22 197.176C1016.22 197.944 1016.18 198.744 1016.08 199.576H997.504C997.632 201.24 998.16 202.52 999.088 203.416C1000.05 204.28 1001.22 204.712 1002.59 204.712C1004.64 204.712 1006.06 203.848 1006.86 202.12H1015.6C1015.15 203.88 1014.34 205.464 1013.15 206.872C1012 208.28 1010.54 209.384 1008.78 210.184C1007.02 210.984 1005.06 211.384 1002.88 211.384C1000.26 211.384 997.92 210.824 995.872 209.704C993.824 208.584 992.224 206.984 991.072 204.904C989.92 202.824 989.344 200.392 989.344 197.608C989.344 194.824 989.904 192.392 991.024 190.312C992.176 188.232 993.776 186.632 995.824 185.512C997.872 184.392 1000.22 183.832 1002.88 183.832C1005.47 183.832 1007.78 184.376 1009.79 185.464C1011.81 186.552 1013.38 188.104 1014.5 190.12C1015.65 192.136 1016.22 194.488 1016.22 197.176ZM1007.82 195.016C1007.82 193.608 1007.34 192.488 1006.38 191.656C1005.42 190.824 1004.22 190.408 1002.78 190.408C1001.41 190.408 1000.24 190.808 999.28 191.608C998.352 192.408 997.776 193.544 997.552 195.016H1007.82ZM1028.76 175.48V211H1020.55V175.48H1028.76ZM1042.92 188.008C1043.72 186.76 1044.82 185.752 1046.23 184.984C1047.64 184.216 1049.29 183.832 1051.17 183.832C1053.38 183.832 1055.38 184.392 1057.17 185.512C1058.97 186.632 1060.37 188.232 1061.4 190.312C1062.45 192.392 1062.98 194.808 1062.98 197.56C1062.98 200.312 1062.45 202.744 1061.4 204.856C1060.37 206.936 1058.97 208.552 1057.17 209.704C1055.38 210.824 1053.38 211.384 1051.17 211.384C1049.32 211.384 1047.67 211 1046.23 210.232C1044.82 209.464 1043.72 208.472 1042.92 207.256V223.768H1034.71V184.216H1042.92V188.008ZM1054.63 197.56C1054.63 195.512 1054.05 193.912 1052.9 192.76C1051.78 191.576 1050.39 190.984 1048.73 190.984C1047.09 190.984 1045.7 191.576 1044.55 192.76C1043.43 193.944 1042.87 195.56 1042.87 197.608C1042.87 199.656 1043.43 201.272 1044.55 202.456C1045.7 203.64 1047.09 204.232 1048.73 204.232C1050.36 204.232 1051.75 203.64 1052.9 202.456C1054.05 201.24 1054.63 199.608 1054.63 197.56ZM1077.13 175.432C1080.55 175.432 1083.29 176.328 1085.34 178.12C1087.42 179.912 1088.46 182.44 1088.46 185.704C1088.46 188.712 1087.46 191.064 1085.48 192.76C1083.53 194.424 1080.94 195.272 1077.7 195.304L1077.46 198.904H1070.26L1070.02 189.976H1072.9C1075.37 189.976 1077.24 189.672 1078.52 189.064C1079.83 188.456 1080.49 187.352 1080.49 185.752C1080.49 184.632 1080.18 183.752 1079.58 183.112C1078.97 182.472 1078.12 182.152 1077.03 182.152C1075.88 182.152 1074.98 182.488 1074.34 183.16C1073.7 183.8 1073.38 184.68 1073.38 185.8H1065.66C1065.59 183.848 1065.99 182.088 1066.86 180.52C1067.75 178.952 1069.06 177.72 1070.79 176.824C1072.55 175.896 1074.66 175.432 1077.13 175.432ZM1073.96 211.384C1072.52 211.384 1071.34 210.968 1070.41 210.136C1069.51 209.272 1069.06 208.216 1069.06 206.968C1069.06 205.688 1069.51 204.616 1070.41 203.752C1071.34 202.888 1072.52 202.456 1073.96 202.456C1075.37 202.456 1076.52 202.888 1077.42 203.752C1078.34 204.616 1078.81 205.688 1078.81 206.968C1078.81 208.216 1078.34 209.272 1077.42 210.136C1076.52 210.968 1075.37 211.384 1073.96 211.384Z"></path>
<g clip-path="url(#clip1_2481_3865)">
<path fill="white" d="M1392.2 26H1556.88C1570.17 26.0049 1582.92 31.2947 1592.31 40.7069C1601.71 50.119 1607 62.8833 1607 76.1941V366.327H1342.08V76.1941C1342.08 69.5673 1343.39 63.0062 1345.94 56.8887C1348.52 50.8177 1352.19 45.2717 1356.77 40.525C1361.44 35.8611 1367 32.1739 1373.11 29.6772C1379.16 27.1884 1385.66 25.9381 1392.2 26V26Z"></path>
<path fill="#A00810" d="M1530.63 139.626V195.152C1530.62 201.295 1528.18 207.185 1523.85 211.528C1519.51 215.872 1513.63 218.314 1507.5 218.319H1452.05C1445.92 218.314 1440.04 215.872 1435.7 211.528C1431.36 207.185 1428.92 201.295 1428.92 195.152V139.626C1428.92 133.484 1431.36 127.594 1435.7 123.25C1440.04 118.907 1445.92 116.465 1452.05 116.46H1507.5C1510.54 116.447 1513.55 117.038 1516.36 118.198C1519.17 119.358 1521.73 121.064 1523.88 123.218C1526.03 125.371 1527.73 127.93 1528.89 130.746C1530.05 133.563 1530.64 136.58 1530.63 139.626V139.626Z"></path>
<path fill="#531113" d="M1506.76 218.135H1458.48L1455.72 206.735L1493.18 192.578L1506.76 218.135Z"></path>
<path fill="#F6AAAF" d="M1473.53 121.24C1475.17 120.92 1476.7 120.157 1477.94 119.034C1479.18 117.856 1480.02 116.309 1480.32 114.621C1480.67 112.964 1480.54 111.245 1479.96 109.657C1479.41 108.04 1478.3 106.672 1476.84 105.796C1475.41 104.873 1473.76 104.364 1472.06 104.325C1470.38 104.293 1468.73 104.739 1467.29 105.612C1465.82 106.532 1464.67 107.879 1463.98 109.473C1463.26 111.022 1463.07 112.767 1463.43 114.437C1463.62 115.563 1464.04 116.638 1464.65 117.598C1465.27 118.557 1466.07 119.38 1467.02 120.017C1467.96 120.654 1469.03 121.091 1470.15 121.301C1471.27 121.512 1472.42 121.491 1473.53 121.24V121.24Z"></path>
<path fill="#F4333D" d="M1492.99 192.578L1455.54 206.736L1448.75 178.421C1454.08 177.851 1459.32 176.615 1464.35 174.744C1469.63 172.822 1474.59 170.093 1479.04 166.654L1492.99 192.578Z"></path>
<path fill="#F6AAAF" d="M1456.46 172.905C1460.89 171.716 1464.9 169.294 1468.02 165.918C1471.07 162.449 1473.05 158.17 1473.72 153.6C1474.34 149.024 1473.64 144.366 1471.7 140.178C1469.71 136.016 1466.51 132.554 1462.52 130.249C1458.61 127.867 1454.05 126.773 1449.48 127.124C1444.89 127.336 1440.47 128.939 1436.81 131.72C1433.17 134.477 1430.42 138.251 1428.92 142.568C1427.46 146.897 1427.27 151.555 1428.37 155.99C1429.08 158.923 1430.4 161.677 1432.22 164.08C1434.13 166.475 1436.42 168.527 1439.02 170.147C1441.67 171.697 1444.6 172.697 1447.65 173.089C1450.55 173.762 1453.58 173.699 1456.46 172.905Z"></path>
<path fill="#EE373F" d="M1427.27 148.819C1426.31 142.949 1427.7 136.938 1431.14 132.087C1434.57 127.236 1439.78 123.934 1445.63 122.895C1455.91 121.056 1465.27 126.204 1469.86 136.868C1469.86 136.868 1460.86 131.352 1446.36 135.03C1431.86 138.707 1427.27 148.819 1427.27 148.819Z"></path>
<path fill="#EE373F" d="M1427.27 149.003C1426.45 149.344 1425.55 149.408 1424.7 149.187C1421.76 148.635 1419.19 143.671 1424.33 139.258C1430.39 132.639 1445.81 128.411 1456.09 130.433C1461.07 131.707 1465.75 133.957 1469.86 137.052C1458.29 136.5 1437.18 137.971 1427.27 149.003Z"></path>
<path fill="#EF4D55" d="M1458.11 148.819C1458.39 149.969 1458.44 151.164 1458.25 152.333C1458.06 153.502 1457.64 154.621 1457.01 155.622C1455.71 157.618 1453.76 159.11 1451.5 159.851C1449.2 160.392 1446.78 160.065 1444.71 158.932C1442.63 157.717 1441.12 155.737 1440.49 153.416L1458.11 148.819Z"></path>
<path fill="#F6AAAF" d="M1428.37 190.74C1430 190.383 1431.51 189.625 1432.77 188.533C1434.01 187.426 1434.85 185.939 1435.16 184.304C1435.5 182.647 1435.37 180.93 1434.79 179.34C1434.19 177.752 1433.1 176.399 1431.67 175.479C1430.33 174.53 1428.73 174.017 1427.08 174.008C1425.4 173.976 1423.75 174.423 1422.31 175.295C1420.9 176.145 1419.8 177.437 1419.19 178.972C1418.46 180.519 1418.26 182.267 1418.64 183.937C1418.83 185.041 1419.24 186.096 1419.83 187.043C1420.43 187.989 1421.21 188.808 1422.13 189.453C1423.98 190.628 1426.2 191.086 1428.37 190.74V190.74Z"></path>
<path fill="#56271E" d="M1277.09 221.077C1291.78 221.077 1303.71 206.919 1303.71 189.453C1303.71 171.986 1291.78 157.645 1277.09 157.645C1262.4 157.645 1250.47 171.802 1250.47 189.269C1250.47 206.735 1262.4 221.077 1277.09 221.077Z"></path>
<path fill="#FFC638" d="M1320.05 219.422C1323.4 219.422 1326.11 214.895 1326.11 209.31C1326.11 203.725 1323.4 199.197 1320.05 199.197C1316.71 199.197 1313.99 203.725 1313.99 209.31C1313.99 214.895 1316.71 219.422 1320.05 219.422Z"></path>
<path fill="#B6BFBE" d="M1384.67 344.263H1389.82C1392.44 344.292 1394.94 345.347 1396.79 347.203C1398.65 349.059 1399.7 351.568 1399.73 354.192V354.376H1384.49V344.263H1384.67Z"></path>
<path fill="#FFC2B5" d="M1292.51 228.799C1298.54 228.799 1304.43 227.009 1309.44 223.655C1314.46 220.301 1318.36 215.535 1320.67 209.958C1322.98 204.381 1323.58 198.244 1322.4 192.323C1321.23 186.403 1318.33 180.965 1314.06 176.696C1309.8 172.428 1304.37 169.521 1298.46 168.343C1292.55 167.166 1286.42 167.77 1280.85 170.08C1275.28 172.39 1270.52 176.302 1267.17 181.321C1263.83 186.34 1262.04 192.241 1262.04 198.278C1262.03 202.289 1262.81 206.262 1264.34 209.969C1265.87 213.676 1268.11 217.045 1270.94 219.881C1273.77 222.717 1277.14 224.965 1280.84 226.495C1284.54 228.026 1288.51 228.808 1292.51 228.799V228.799Z"></path>
<path fill="#56271E" d="M1271.77 188.717C1273.51 188.717 1275.21 188.199 1276.66 187.23C1278.11 186.26 1279.24 184.882 1279.91 183.269C1280.58 181.656 1280.75 179.882 1280.41 178.17C1280.07 176.458 1279.23 174.886 1278 173.651C1276.77 172.417 1275.2 171.577 1273.49 171.236C1271.78 170.895 1270.01 171.07 1268.4 171.738C1266.79 172.406 1265.41 173.537 1264.44 174.989C1263.47 176.44 1262.96 178.146 1262.96 179.892C1262.94 181.055 1263.16 182.209 1263.6 183.286C1264.03 184.364 1264.68 185.343 1265.5 186.165C1266.33 186.988 1267.3 187.637 1268.38 188.075C1269.45 188.514 1270.61 188.732 1271.77 188.717Z"></path>
<path fill="#56271E" d="M1253.78 199.013C1255.19 199.013 1256.58 198.593 1257.75 197.805C1258.93 197.017 1259.85 195.897 1260.39 194.587C1260.93 193.277 1261.07 191.835 1260.8 190.444C1260.52 189.053 1259.84 187.775 1258.84 186.772C1257.84 185.77 1256.56 185.087 1255.17 184.81C1253.78 184.533 1252.34 184.675 1251.04 185.218C1249.73 185.761 1248.61 186.68 1247.82 187.859C1247.04 189.038 1246.62 190.425 1246.62 191.843C1246.6 192.788 1246.78 193.728 1247.13 194.604C1247.49 195.481 1248.01 196.277 1248.68 196.946C1249.35 197.615 1250.14 198.143 1251.02 198.498C1251.89 198.853 1252.83 199.028 1253.78 199.013V199.013Z"></path>
<path fill="#56271E" d="M1276.17 176.766C1277.59 176.766 1278.97 176.346 1280.15 175.558C1281.33 174.77 1282.25 173.65 1282.79 172.34C1283.33 171.029 1283.47 169.588 1283.2 168.197C1282.92 166.806 1282.24 165.528 1281.24 164.525C1280.24 163.522 1278.96 162.84 1277.57 162.563C1276.18 162.286 1274.74 162.428 1273.43 162.971C1272.13 163.514 1271.01 164.433 1270.22 165.612C1269.43 166.791 1269.01 168.177 1269.01 169.596C1269.06 171.483 1269.83 173.28 1271.16 174.614C1272.5 175.949 1274.29 176.72 1276.17 176.766Z"></path>
<path fill="#56271F" d="M1289.58 171.986C1290.99 171.986 1292.38 171.565 1293.55 170.777C1294.73 169.989 1295.65 168.869 1296.19 167.559C1296.73 166.249 1296.87 164.807 1296.6 163.416C1296.32 162.025 1295.64 160.748 1294.64 159.745C1293.64 158.742 1292.36 158.059 1290.97 157.782C1289.58 157.506 1288.14 157.648 1286.84 158.19C1285.53 158.733 1284.41 159.652 1283.62 160.831C1282.84 162.011 1282.42 163.397 1282.42 164.815C1282.4 165.761 1282.58 166.7 1282.93 167.577C1283.29 168.453 1283.81 169.25 1284.48 169.919C1285.15 170.588 1285.94 171.115 1286.82 171.47C1287.69 171.825 1288.63 172.001 1289.58 171.986V171.986Z"></path>
<path fill="#56271E" d="M1278.56 162.609C1280.34 162.609 1282.08 162.08 1283.56 161.09C1285.04 160.1 1286.19 158.693 1286.87 157.047C1287.55 155.401 1287.73 153.59 1287.38 151.842C1287.04 150.094 1286.18 148.489 1284.92 147.229C1283.66 145.969 1282.06 145.111 1280.32 144.763C1278.57 144.416 1276.76 144.594 1275.12 145.276C1273.47 145.958 1272.07 147.113 1271.08 148.594C1270.09 150.076 1269.56 151.818 1269.56 153.6C1269.57 155.987 1270.52 158.276 1272.21 159.965C1273.89 161.653 1276.18 162.604 1278.56 162.609Z"></path>
<path fill="#56271E" d="M1264.98 180.259C1266.39 180.259 1267.78 179.839 1268.95 179.051C1270.13 178.263 1271.05 177.143 1271.59 175.833C1272.13 174.523 1272.27 173.081 1272 171.69C1271.72 170.299 1271.04 169.021 1270.04 168.018C1269.04 167.016 1267.76 166.333 1266.37 166.056C1264.98 165.779 1263.54 165.921 1262.24 166.464C1260.93 167.007 1259.81 167.926 1259.02 169.105C1258.24 170.284 1257.82 171.671 1257.82 173.089C1257.86 174.976 1258.63 176.773 1259.96 178.108C1261.3 179.442 1263.09 180.213 1264.98 180.259Z"></path>
<path fill="#56271F" d="M1270.48 171.25C1271.9 171.25 1273.28 170.83 1274.46 170.042C1275.64 169.254 1276.56 168.134 1277.1 166.824C1277.64 165.514 1277.78 164.072 1277.51 162.681C1277.23 161.29 1276.55 160.012 1275.55 159.009C1274.54 158.007 1273.27 157.324 1271.88 157.047C1270.49 156.77 1269.05 156.912 1267.74 157.455C1266.43 157.998 1265.32 158.917 1264.53 160.096C1263.74 161.275 1263.32 162.662 1263.32 164.08C1263.32 165.021 1263.51 165.954 1263.87 166.824C1264.23 167.694 1264.76 168.484 1265.42 169.15C1266.08 169.816 1266.87 170.344 1267.74 170.705C1268.61 171.065 1269.54 171.25 1270.48 171.25V171.25Z"></path>
<path fill="#56271E" d="M1287.19 179.524C1289 179.524 1290.78 178.985 1292.29 177.975C1293.8 176.965 1294.98 175.529 1295.67 173.849C1296.36 172.169 1296.55 170.321 1296.19 168.538C1295.84 166.754 1294.96 165.116 1293.68 163.831C1292.4 162.545 1290.76 161.669 1288.98 161.315C1287.2 160.96 1285.35 161.142 1283.68 161.838C1282 162.534 1280.57 163.712 1279.56 165.224C1278.55 166.735 1278.01 168.513 1278.01 170.331C1278.01 172.769 1278.98 175.107 1280.7 176.831C1282.42 178.555 1284.75 179.524 1287.19 179.524Z"></path>
<path fill="#56271E" d="M1301.69 174.376C1303.69 174.376 1305.64 173.783 1307.3 172.672C1308.96 171.56 1310.26 169.981 1311.02 168.133C1311.79 166.286 1311.99 164.252 1311.6 162.291C1311.21 160.329 1310.24 158.527 1308.83 157.113C1307.42 155.699 1305.62 154.736 1303.66 154.345C1301.7 153.955 1299.67 154.156 1297.83 154.921C1295.98 155.686 1294.41 156.982 1293.3 158.645C1292.19 160.308 1291.6 162.263 1291.6 164.263C1291.62 166.938 1292.69 169.496 1294.58 171.387C1296.47 173.279 1299.02 174.352 1301.69 174.376V174.376Z"></path>
<path fill="#56271E" d="M1269.38 171.802C1270.91 171.802 1272.4 171.349 1273.67 170.5C1274.93 169.652 1275.92 168.446 1276.51 167.035C1277.09 165.624 1277.24 164.071 1276.94 162.573C1276.65 161.075 1275.91 159.699 1274.83 158.619C1273.76 157.539 1272.38 156.804 1270.89 156.506C1269.39 156.208 1267.84 156.361 1266.43 156.945C1265.02 157.53 1263.82 158.519 1262.97 159.789C1262.12 161.059 1261.67 162.552 1261.67 164.08C1261.69 166.123 1262.5 168.079 1263.94 169.524C1265.39 170.969 1267.34 171.787 1269.38 171.802V171.802Z"></path>
<path fill="#56271E" d="M1288.47 163.528C1288.49 164.535 1288.3 165.535 1287.92 166.47C1287.56 167.436 1287 168.314 1286.27 169.044C1285.54 169.773 1284.67 170.338 1283.7 170.699C1282.76 171.059 1281.77 171.245 1280.76 171.25C1279.76 171.262 1278.76 171.075 1277.83 170.699C1276.86 170.338 1275.98 169.773 1275.26 169.044C1274.53 168.314 1273.96 167.436 1273.6 166.47C1273.24 165.531 1273.06 164.534 1273.05 163.528C1273.05 159.299 1277.46 155.99 1281.68 155.99C1285.9 155.99 1288.47 159.299 1288.47 163.528Z"></path>
<path fill="#56271E" d="M1293.8 168.86C1294.53 173.64 1292.33 178.053 1286.09 176.582C1282.05 175.663 1278.38 173.089 1278.38 168.86C1278.35 166.802 1279.15 164.818 1280.58 163.344C1281.3 162.619 1282.16 162.05 1283.11 161.67C1284.05 161.291 1285.07 161.11 1286.09 161.138C1290.31 161.138 1293.06 164.631 1293.8 168.86Z"></path>
<path fill="#56271E" d="M1291.6 164.447C1293.23 164.447 1294.83 163.962 1296.19 163.053C1297.54 162.144 1298.6 160.852 1299.23 159.34C1299.85 157.828 1300.02 156.164 1299.7 154.56C1299.38 152.955 1298.59 151.48 1297.44 150.323C1296.28 149.166 1294.81 148.378 1293.21 148.059C1291.6 147.74 1289.94 147.903 1288.43 148.53C1286.92 149.156 1285.63 150.216 1284.73 151.577C1283.82 152.938 1283.33 154.537 1283.33 156.174C1283.33 157.262 1283.54 158.34 1283.95 159.346C1284.37 160.352 1284.97 161.266 1285.74 162.035C1286.51 162.804 1287.42 163.413 1288.43 163.828C1289.43 164.242 1290.51 164.452 1291.6 164.447V164.447Z"></path>
<path fill="#56271E" d="M1265.16 202.323C1266.87 202.323 1268.53 201.816 1269.95 200.866C1271.37 199.917 1272.48 198.567 1273.13 196.988C1273.78 195.409 1273.95 193.672 1273.62 191.995C1273.29 190.319 1272.47 188.779 1271.26 187.571C1270.05 186.362 1268.52 185.539 1266.84 185.206C1265.17 184.872 1263.43 185.044 1261.86 185.698C1260.28 186.352 1258.93 187.459 1257.98 188.88C1257.04 190.301 1256.53 191.972 1256.53 193.681C1256.53 194.817 1256.75 195.942 1257.18 196.991C1257.61 198.041 1258.25 198.994 1259.05 199.797C1259.85 200.6 1260.81 201.236 1261.85 201.67C1262.9 202.103 1264.02 202.325 1265.16 202.323V202.323Z"></path>
<path fill="#56271E" d="M1254.14 189.636C1255.67 189.636 1257.16 189.184 1258.43 188.335C1259.7 187.487 1260.68 186.28 1261.27 184.869C1261.85 183.458 1262 181.906 1261.71 180.408C1261.41 178.91 1260.67 177.534 1259.6 176.454C1258.52 175.374 1257.14 174.638 1255.65 174.341C1254.15 174.043 1252.6 174.195 1251.19 174.78C1249.78 175.364 1248.58 176.354 1247.73 177.624C1246.89 178.894 1246.43 180.387 1246.43 181.914C1246.47 183.949 1247.3 185.889 1248.74 187.328C1250.17 188.767 1252.11 189.594 1254.14 189.636Z"></path>
<path fill="#56271E" d="M1255.25 177.318C1256.77 177.318 1258.26 176.865 1259.53 176.016C1260.8 175.168 1261.79 173.962 1262.37 172.551C1262.95 171.14 1263.11 169.587 1262.81 168.089C1262.51 166.591 1261.78 165.215 1260.7 164.135C1259.62 163.055 1258.25 162.32 1256.75 162.022C1255.25 161.724 1253.7 161.877 1252.29 162.461C1250.89 163.046 1249.68 164.035 1248.83 165.305C1247.99 166.575 1247.53 168.068 1247.53 169.595C1247.55 171.639 1248.37 173.595 1249.81 175.04C1251.25 176.485 1253.2 177.303 1255.25 177.318V177.318Z"></path>
<path fill="#56271E" d="M1261.49 170.515C1264.39 170.515 1267.23 169.652 1269.65 168.036C1272.06 166.42 1273.94 164.122 1275.06 161.435C1276.17 158.747 1276.46 155.789 1275.89 152.936C1275.33 150.083 1273.93 147.462 1271.87 145.405C1269.82 143.348 1267.2 141.947 1264.35 141.38C1261.5 140.812 1258.55 141.103 1255.87 142.217C1253.18 143.33 1250.89 145.215 1249.28 147.634C1247.66 150.053 1246.8 152.897 1246.8 155.806C1246.78 157.744 1247.14 159.668 1247.87 161.464C1248.6 163.259 1249.68 164.891 1251.05 166.262C1252.42 167.632 1254.04 168.715 1255.84 169.445C1257.63 170.176 1259.55 170.539 1261.49 170.515V170.515Z"></path>
<path fill="#56271E" d="M1249 149.555C1250.89 149.555 1252.74 148.994 1254.31 147.943C1255.88 146.893 1257.1 145.4 1257.82 143.653C1258.55 141.906 1258.73 139.983 1258.37 138.129C1258 136.274 1257.09 134.57 1255.75 133.233C1254.42 131.896 1252.72 130.986 1250.87 130.617C1249.01 130.248 1247.09 130.437 1245.35 131.161C1243.61 131.885 1242.11 133.11 1241.07 134.682C1240.02 136.254 1239.46 138.103 1239.46 139.994C1239.45 141.252 1239.69 142.5 1240.16 143.664C1240.64 144.829 1241.34 145.886 1242.23 146.776C1243.12 147.666 1244.18 148.37 1245.34 148.847C1246.5 149.324 1247.75 149.564 1249 149.555V149.555Z"></path>
<path fill="#FFC2B5" d="M1266.26 211.7C1267.75 211.7 1269.2 211.258 1270.44 210.429C1271.68 209.601 1272.64 208.424 1273.21 207.046C1273.78 205.669 1273.93 204.153 1273.64 202.691C1273.35 201.228 1272.64 199.885 1271.58 198.831C1270.53 197.777 1269.19 197.059 1267.73 196.768C1266.27 196.477 1264.76 196.626 1263.38 197.197C1262 197.767 1260.83 198.734 1260 199.973C1259.17 201.213 1258.73 202.67 1258.73 204.161C1258.81 206.137 1259.62 208.013 1261.02 209.411C1262.41 210.809 1264.29 211.627 1266.26 211.7V211.7Z"></path>
<path fill="#56271F" d="M1284.44 193.497C1285.02 193.497 1285.58 193.325 1286.07 193.002C1286.55 192.678 1286.93 192.219 1287.15 191.681C1287.37 191.144 1287.43 190.552 1287.32 189.982C1287.2 189.411 1286.92 188.887 1286.51 188.475C1286.1 188.064 1285.58 187.784 1285.01 187.67C1284.44 187.557 1283.85 187.615 1283.31 187.838C1282.77 188.06 1282.32 188.437 1281.99 188.921C1281.67 189.405 1281.5 189.974 1281.5 190.556C1281.49 190.943 1281.57 191.328 1281.71 191.687C1281.86 192.046 1282.07 192.373 1282.35 192.647C1282.62 192.921 1282.95 193.137 1283.31 193.283C1283.66 193.43 1284.05 193.502 1284.44 193.497V193.497Z"></path>
<path fill="#56271F" d="M1304.45 187.246C1305.03 187.246 1305.6 187.074 1306.08 186.75C1306.56 186.427 1306.94 185.968 1307.16 185.43C1307.38 184.893 1307.44 184.301 1307.33 183.73C1307.21 183.16 1306.93 182.636 1306.52 182.224C1306.11 181.813 1305.59 181.533 1305.02 181.419C1304.45 181.306 1303.86 181.364 1303.32 181.586C1302.79 181.809 1302.33 182.186 1302 182.67C1301.68 183.154 1301.51 183.722 1301.51 184.304C1301.5 184.692 1301.58 185.077 1301.72 185.436C1301.87 185.795 1302.08 186.121 1302.36 186.395C1302.63 186.67 1302.96 186.886 1303.32 187.032C1303.68 187.178 1304.06 187.251 1304.45 187.246V187.246Z"></path>
<path stroke-miterlimit="10" stroke-width="1.42" stroke="#56271F" d="M1293.43 188.901C1295.08 188.349 1297.84 187.982 1298.2 190.004C1298.32 190.851 1298.13 191.712 1297.65 192.424C1297.18 193.135 1296.46 193.648 1295.63 193.865"></path>
<path stroke-miterlimit="10" stroke-width="0.97" stroke="#F873AD" d="M1286.82 191.475L1279.3 194.417C1278.9 194.573 1278.53 194.807 1278.23 195.104C1277.92 195.401 1277.67 195.757 1277.5 196.149C1277.33 196.542 1277.24 196.965 1277.23 197.393C1277.22 197.822 1277.3 198.247 1277.46 198.646C1277.62 199.045 1277.85 199.409 1278.15 199.717C1278.44 200.026 1278.8 200.272 1279.19 200.443C1279.58 200.614 1280 200.706 1280.43 200.713C1280.86 200.72 1281.28 200.642 1281.68 200.484L1289.21 197.542C1289.61 197.386 1289.97 197.153 1290.28 196.855C1290.59 196.558 1290.83 196.203 1291 195.81C1291.17 195.417 1291.27 194.994 1291.27 194.566C1291.28 194.138 1291.2 193.712 1291.04 193.314C1290.9 192.904 1290.68 192.527 1290.39 192.209C1290.09 191.89 1289.73 191.636 1289.34 191.463C1288.94 191.29 1288.51 191.202 1288.08 191.204C1287.65 191.206 1287.22 191.298 1286.82 191.475Z"></path>
<path stroke-miterlimit="10" stroke-width="0.97" stroke="#F873AD" d="M1311.61 183.201L1304.08 186.143C1303.68 186.299 1303.32 186.533 1303.01 186.83C1302.7 187.127 1302.46 187.483 1302.28 187.876C1302.11 188.268 1302.02 188.691 1302.02 189.12C1302.01 189.548 1302.09 189.973 1302.24 190.372V190.372C1302.4 190.771 1302.63 191.135 1302.93 191.443C1303.23 191.752 1303.58 191.998 1303.97 192.169C1304.37 192.34 1304.79 192.432 1305.22 192.439C1305.64 192.446 1306.07 192.368 1306.47 192.21L1313.99 189.269C1314.39 189.112 1314.76 188.879 1315.06 188.582C1315.37 188.284 1315.62 187.929 1315.79 187.536C1315.96 187.143 1316.05 186.72 1316.06 186.292C1316.06 185.864 1315.99 185.438 1315.83 185.04V185.04C1315.49 184.249 1314.87 183.618 1314.08 183.276C1313.3 182.934 1312.41 182.907 1311.61 183.201V183.201Z"></path>
<path stroke-miterlimit="10" stroke-width="0.97" stroke="#F873AD" d="M1289.58 191.475C1289.76 190.372 1290.13 189.085 1290.49 187.614C1290.86 186.143 1295.82 183.569 1297.47 184.304L1301.88 186.511"></path>
<path fill="#56271F" d="M1292.51 199.013L1305.55 194.233C1305.55 194.233 1308.85 202.139 1301.14 203.978C1300.25 204.257 1299.31 204.349 1298.38 204.247C1297.45 204.145 1296.55 203.852 1295.74 203.386C1294.93 202.92 1294.23 202.29 1293.67 201.538C1293.12 200.785 1292.72 199.926 1292.51 199.013V199.013Z"></path>
<path stroke-miterlimit="10" stroke-width="24.66" stroke="#FFC2B5" d="M1309.4 266.49C1329.6 262.078 1329.23 263.732 1352.55 253.252C1366.32 247.001 1384.67 225.122 1381.92 198.278C1379.53 174.56 1357.14 151.209 1345.02 110.576"></path>
<path stroke-miterlimit="10" stroke-width="24.66" stroke="#FFC2B5" d="M1259.47 260.055C1240.93 262.813 1224.77 282.486 1218.89 302.711"></path>
<path fill="#336D4A" d="M1366.13 365.592H1242.03L1255.8 237.992C1258.74 237.839 1261.69 237.962 1264.61 238.36C1275.81 239.831 1277.64 243.508 1293.61 243.508C1318.58 243.508 1320.05 237.624 1336.21 236.153L1366.13 365.592Z"></path>
<path stroke-linecap="round" stroke-miterlimit="10" stroke-width="7.19" stroke="#CCD7D6" d="M1288.84 361.914C1279.3 361.914 1271.4 361.73 1266.08 361.73C1252.12 361.914 1252.67 379.749 1268.65 379.381C1283.52 379.013 1319.87 378.829 1319.87 378.829"></path>
<path fill="#CCD7D6" d="M1280.21 368.533H1374.39C1377.89 368.526 1381.27 367.29 1383.94 365.04L1384.31 364.672C1385.95 363.294 1387.21 361.523 1387.98 359.524C1388.86 357.56 1389.3 355.426 1389.26 353.273V301.975C1389.27 299.584 1388.8 297.216 1387.89 295.007C1386.98 292.797 1385.63 290.792 1383.94 289.105C1380.51 285.723 1375.9 283.811 1371.09 283.773H1360.81C1356.52 283.765 1352.36 285.261 1349.06 288.002C1345.75 290.727 1343.59 294.6 1343 298.85L1340.43 311.536H1332.54C1321.34 312.456 1310.69 313.191 1300.04 318.339C1284.07 325.877 1276.72 347.205 1276.17 358.972C1276.17 364.304 1276.36 368.717 1280.21 368.533Z"></path>
<path fill="#CCD7D6" d="M1361.91 294.069L1356.59 295.357C1355.99 295.541 1355.35 295.541 1354.75 295.357C1354.17 295.189 1353.61 294.942 1353.1 294.621C1352.63 294.291 1352.25 293.848 1352 293.334C1351.79 292.805 1351.66 292.247 1351.63 291.679L1351.45 282.67C1351.43 282.127 1351.63 281.599 1352 281.199C1352.28 280.691 1352.74 280.3 1353.28 280.096C1353.8 279.854 1354.38 279.79 1354.93 279.912C1355.5 279.964 1356.02 280.227 1356.4 280.648L1363.93 287.634C1364.46 288.129 1364.85 288.767 1365.03 289.473C1365.21 290.197 1365.21 290.955 1365.03 291.679C1364.85 292.385 1364.46 293.023 1363.93 293.518C1363.24 293.615 1362.56 293.801 1361.91 294.069V294.069Z"></path>
<path fill="#CCD7D6" d="M1377.33 292.782L1372.01 294.069C1371.41 294.254 1370.77 294.254 1370.17 294.069C1369.59 293.902 1369.03 293.655 1368.52 293.334C1368.05 293.004 1367.67 292.561 1367.42 292.047C1367.19 291.524 1367.06 290.962 1367.05 290.392L1366.87 281.383C1366.85 280.84 1367.05 280.312 1367.42 279.912C1367.75 279.449 1368.19 279.071 1368.7 278.809C1369.22 278.567 1369.8 278.503 1370.35 278.625C1370.92 278.677 1371.44 278.939 1371.82 279.361L1379.35 286.347C1379.89 286.842 1380.27 287.48 1380.45 288.186C1380.64 288.847 1380.64 289.547 1380.45 290.208C1380.27 290.914 1379.89 291.552 1379.35 292.047C1378.8 292.231 1378.07 292.599 1377.33 292.782Z"></path>
<path fill="white" d="M1362.46 299.401V301.056C1362.43 302.143 1362.83 303.199 1363.56 303.998C1364.34 304.787 1365.39 305.248 1366.5 305.285H1374.39C1375.49 305.213 1376.53 304.757 1377.33 303.998C1378.07 303.199 1378.46 302.143 1378.43 301.056V299.401C1378.47 298.543 1378.21 297.698 1377.7 297.011L1375.13 292.966C1374.8 292.45 1374.36 292.012 1373.84 291.679C1373.24 291.303 1372.54 291.111 1371.82 291.128H1369.07C1368.63 291.098 1368.2 291.161 1367.78 291.312C1366.93 291.597 1366.21 292.186 1365.77 292.966L1363.19 297.011C1362.76 297.737 1362.51 298.557 1362.46 299.401Z"></path>
<path fill="#56271F" d="M1379.17 294.989C1379.57 294.989 1379.96 294.87 1380.29 294.648C1380.62 294.426 1380.88 294.11 1381.03 293.74C1381.19 293.371 1381.23 292.964 1381.15 292.572C1381.07 292.179 1380.88 291.819 1380.6 291.536C1380.31 291.253 1379.95 291.061 1379.56 290.983C1379.17 290.905 1378.76 290.945 1378.39 291.098C1378.03 291.251 1377.71 291.51 1377.49 291.843C1377.27 292.175 1377.15 292.566 1377.15 292.966C1377.15 293.501 1377.37 294.013 1377.74 294.391C1378.12 294.769 1378.63 294.984 1379.17 294.989V294.989Z"></path>
<path fill="#56271F" d="M1361.54 294.989C1361.94 294.989 1362.33 294.87 1362.66 294.648C1363 294.426 1363.26 294.11 1363.41 293.74C1363.56 293.371 1363.6 292.964 1363.52 292.572C1363.45 292.179 1363.25 291.819 1362.97 291.536C1362.69 291.253 1362.33 291.061 1361.94 290.983C1361.54 290.905 1361.14 290.945 1360.77 291.098C1360.4 291.251 1360.09 291.51 1359.86 291.843C1359.64 292.175 1359.52 292.566 1359.52 292.966C1359.53 293.501 1359.74 294.013 1360.12 294.391C1360.5 294.769 1361.01 294.984 1361.54 294.989V294.989Z"></path>
<path stroke-linecap="round" stroke-miterlimit="10" stroke-width="1.2" stroke="#56271F" d="M1356.95 297.563C1355.67 297.195 1351.26 296.092 1351.26 296.092"></path>
<path stroke-linecap="round" stroke-miterlimit="10" stroke-width="1.2" stroke="#56271F" d="M1356.95 300.872C1355.67 301.056 1351.08 301.424 1351.08 301.424"></path>
<path stroke-linecap="round" stroke-miterlimit="10" stroke-width="1.2" stroke="#56271F" d="M1384.12 297.563C1385.41 297.195 1389.82 296.092 1389.82 296.092"></path>
<path stroke-linecap="round" stroke-miterlimit="10" stroke-width="1.2" stroke="#56271F" d="M1384.12 300.872C1385.41 301.056 1390 301.424 1390 301.424"></path>
<path fill="#56271F" d="M1369.25 293.518H1371.82C1371.95 293.526 1372.07 293.508 1372.18 293.464C1372.3 293.421 1372.4 293.354 1372.49 293.267C1372.58 293.18 1372.64 293.075 1372.69 292.96C1372.73 292.844 1372.75 292.721 1372.74 292.598V292.415C1372.75 292.292 1372.73 292.169 1372.69 292.053C1372.64 291.938 1372.58 291.834 1372.49 291.746C1372.4 291.659 1372.3 291.592 1372.18 291.549C1372.07 291.505 1371.95 291.487 1371.82 291.495H1369.25C1369.13 291.487 1369.01 291.505 1368.89 291.549C1368.78 291.592 1368.67 291.659 1368.59 291.746C1368.5 291.834 1368.43 291.938 1368.39 292.053C1368.35 292.169 1368.33 292.292 1368.34 292.415V292.598C1368.35 292.837 1368.45 293.061 1368.62 293.23C1368.79 293.398 1369.02 293.501 1369.25 293.518V293.518Z"></path>
<path fill="#F873AD" d="M1373.84 297.563C1373.84 297.563 1370.35 297.563 1367.97 297.379C1367.97 297.379 1367.78 303.998 1371.46 304.366C1375.13 304.733 1373.84 297.563 1373.84 297.563Z"></path>
<path stroke-linejoin="round" stroke-linecap="round" stroke-width="1.2" stroke="#56271F" d="M1375.31 296.46C1374.76 297.563 1372.74 298.666 1371.27 295.356C1370.35 298.482 1367.6 298.298 1367.05 297.011"></path>
<path fill="#F7F7F7" d="M1327.58 352.354H1338.59C1342.53 352.296 1346.36 351.081 1349.61 348.86C1352.82 346.579 1355.25 343.372 1356.59 339.667C1359.52 331.026 1365.21 324.039 1372.74 322.752C1378.3 321.819 1383.99 322.07 1389.45 323.487V353.457C1389.48 355.61 1389.04 357.744 1388.16 359.708C1387.26 361.633 1386.02 363.378 1384.49 364.856L1384.12 365.224C1381.43 367.446 1378.06 368.678 1374.58 368.717H1295.45C1298.94 354.008 1312.16 352.354 1327.58 352.354Z"></path>
<path fill="#B6BFBE" d="M1361.36 369.452C1366.87 369.269 1381.37 369.085 1387.8 369.085C1394.22 369.085 1399.73 361.362 1399.73 354.743V354.008C1394.96 354.008 1382.1 354.192 1371.64 354.376C1370.24 354.397 1368.87 354.71 1367.6 355.295C1366.29 355.853 1365.11 356.665 1364.11 357.685C1363.15 358.687 1362.4 359.876 1361.91 361.179C1361.4 362.465 1361.15 363.84 1361.18 365.224L1361.36 369.452Z"></path>
<path stroke-miterlimit="10" stroke-width="6.87" stroke="#B6BFBE" d="M1323.72 363.017H1294.53C1291.6 362.65 1291.23 355.847 1299.49 353.457C1315.46 349.044 1311.61 340.954 1296.19 341.873"></path>
<path stroke-miterlimit="10" stroke-width="7.81" stroke="#B6BFBE" d="M1335.84 345.367C1377.7 352.169 1348.51 308.962 1379.17 310.065"></path>
<path stroke-miterlimit="10" stroke-width="24.66" stroke="#FFC2B5" d="M1218.89 302.711C1212.47 325.326 1218.89 348.86 1249.92 350.515C1271.77 351.802 1329.6 347.389 1329.6 347.389"></path>
<path fill="#FF9C56" d="M1278.38 248.288C1280.91 248.288 1282.97 246.23 1282.97 243.691C1282.97 241.153 1280.91 239.095 1278.38 239.095C1275.84 239.095 1273.79 241.153 1273.79 243.691C1273.79 246.23 1275.84 248.288 1278.38 248.288Z"></path>
<path fill="#FF9C56" d="M1284.44 255.091C1286.97 255.091 1289.03 253.033 1289.03 250.494C1289.03 247.956 1286.97 245.898 1284.44 245.898C1281.9 245.898 1279.85 247.956 1279.85 250.494C1279.85 253.033 1281.9 255.091 1284.44 255.091Z"></path>
<path fill="#FF9C56" d="M1292.33 259.687C1294.86 259.687 1296.92 257.63 1296.92 255.091C1296.92 252.552 1294.86 250.494 1292.33 250.494C1289.79 250.494 1287.74 252.552 1287.74 255.091C1287.74 257.63 1289.79 259.687 1292.33 259.687Z"></path>
<path fill="#FF9C56" d="M1301.51 260.055C1304.04 260.055 1306.1 257.997 1306.1 255.459C1306.1 252.92 1304.04 250.862 1301.51 250.862C1298.97 250.862 1296.92 252.92 1296.92 255.459C1296.92 257.997 1298.97 260.055 1301.51 260.055Z"></path>
<path fill="#FF9C56" d="M1309.77 256.01C1312.31 256.01 1314.36 253.952 1314.36 251.414C1314.36 248.875 1312.31 246.817 1309.77 246.817C1307.24 246.817 1305.18 248.875 1305.18 251.414C1305.18 253.952 1307.24 256.01 1309.77 256.01Z"></path>
<path fill="#FF9C56" d="M1315.65 249.024C1318.18 249.024 1320.24 246.966 1320.24 244.427C1320.24 241.889 1318.18 239.831 1315.65 239.831C1313.11 239.831 1311.06 241.889 1311.06 244.427C1311.06 246.966 1313.11 249.024 1315.65 249.024Z"></path>
<path fill="#FFC638" d="M1266.26 228.799C1269.61 228.799 1272.32 224.271 1272.32 218.686C1272.32 213.101 1269.61 208.574 1266.26 208.574C1262.91 208.574 1260.2 213.101 1260.2 218.686C1260.2 224.271 1262.91 228.799 1266.26 228.799Z"></path>
</g>
<path fill="white" d="M350.24 380.561H204.668C191.479 380.561 180.758 369.862 180.758 356.64V60.9209C180.758 47.726 191.451 37 204.668 37H350.24C363.429 37 374.151 47.6986 374.151 60.9209V356.667C374.123 369.862 363.429 380.561 350.24 380.561Z"></path>
<path fill="#9F0910" d="M209.564 126.401H247.897C256.699 126.401 263.828 119.268 263.828 110.463V72.1124C263.828 63.3067 256.699 56.1743 247.897 56.1743H209.564C200.762 56.1743 193.633 63.3067 193.633 72.1124V110.463C193.633 119.268 200.762 126.401 209.564 126.401Z"></path>
<path fill="#F6AAAF" d="M233.118 59.4657C229.882 58.8896 227.716 55.7623 228.292 52.5253C228.868 49.2883 231.966 47.1212 235.229 47.6973C238.465 48.2733 240.631 51.3732 240.055 54.6376C239.452 57.902 236.353 60.0692 233.118 59.4657Z"></path>
<path fill="#F4333D" d="M219.627 108.762L245.484 118.555L250.2 98.9958C246.663 98.6666 242.989 97.8162 239.342 96.4446C235.558 95.0181 232.103 93.1253 229.142 90.9033L219.627 108.762Z"></path>
<path fill="#F6AAAF" d="M243.454 95.127C234.872 92.905 229.717 84.1267 231.938 75.5404C234.159 66.9541 242.933 61.7969 251.516 64.0189C260.098 66.2409 265.253 75.0192 263.032 83.6054C260.811 92.1917 252.037 97.3764 243.454 95.127Z"></path>
<path fill="#EE373F" d="M263.691 78.4762C264.843 69.9173 259.935 62.4832 250.996 60.6453C243.922 59.3285 237.423 62.8673 234.188 70.3014C234.188 70.3014 240.412 66.4609 250.475 69.0669C260.538 71.673 263.691 78.4762 263.691 78.4762Z"></path>
<path fill="#531113" d="M263.691 78.5862C263.691 78.5862 268.435 74.8554 263.335 69.6707C259.14 65.1444 250.886 64.3214 243.702 65.7753C238.794 66.7629 234.188 70.3016 234.188 70.3016C242.249 69.9176 256.864 70.96 263.691 78.5862Z"></path>
<path fill="#EF4D55" d="M240.741 81.4114C239.726 85.3067 242.112 89.3667 246.005 90.3543C249.899 91.3418 253.957 88.9827 254.944 85.0873L240.741 81.4114Z"></path>
<path fill="#F6AAAF" d="M264.323 107.417C261.142 106.841 259.031 103.796 259.606 100.641C260.182 97.459 263.226 95.3467 266.379 95.9228C269.56 96.4989 271.671 99.5438 271.095 102.699C270.52 105.881 267.476 107.993 264.323 107.417Z"></path>
<mask height="71" width="71" y="56" x="193" maskUnits="userSpaceOnUse" style="mask-type:alpha" id="mask0_2481_3865">
<path fill="#9F0910" d="M209.564 126.401H247.897C256.699 126.401 263.828 119.268 263.828 110.463V72.1124C263.828 63.3067 256.699 56.1743 247.897 56.1743H209.564C200.762 56.1743 193.633 63.3067 193.633 72.1124V110.463C193.633 119.268 200.762 126.401 209.564 126.401Z"></path>
</mask>
<g mask="url(#mask0_2481_3865)">
<path fill="#531113" d="M202.407 140.885L236.901 153.97L245.401 118.527L219.544 108.734L202.407 140.885Z"></path>
</g>
<path fill="#E8E9EB" d="M328.139 125.634H295.865C290.875 125.634 286.817 121.574 286.817 116.581C286.817 111.588 290.875 107.528 295.865 107.528H328.166C333.157 107.528 337.215 111.588 337.215 116.581C337.215 121.574 333.157 125.634 328.139 125.634Z"></path>
<path stroke-miterlimit="10" stroke-width="0.672737" stroke="#CCD7D6" d="M201.734 143.903H354.518"></path>
<path stroke-miterlimit="10" stroke-width="0.672737" stroke="#CCD7D6" d="M201.734 177.288H354.518"></path>
<path fill="#F5F5F7" d="M284.652 368.354H201.734V215.858C201.734 206.586 209.247 199.097 218.488 199.097H267.844C277.112 199.097 284.597 206.613 284.597 215.858V368.354H284.652Z"></path>
<path fill="#F5F5F7" d="M366.719 368.354H299.897V214.157C299.897 205.845 306.642 199.097 314.95 199.097H366.747V368.354H366.719Z"></path>
<path fill="#21286E" d="M428.771 260.736C428.223 264.577 424.685 267.238 420.847 266.717L368.996 259.529C365.184 259.008 362.47 255.469 362.991 251.656C362.991 251.629 362.991 251.629 362.991 251.629C363.484 247.98 365.979 245.128 369.215 243.975C369.215 243.92 369.215 243.838 369.242 243.783C369.791 239.806 372.752 236.733 376.426 235.828C376.426 235.828 376.454 235.828 376.454 235.801C378.565 229.381 386.983 225.349 396.361 226.638C405.711 227.928 412.73 234.1 413.005 240.876C413.059 240.876 413.114 240.876 413.169 240.903C417.858 241.561 421.285 245.539 421.395 250.12C421.395 250.148 421.395 250.148 421.422 250.148C426.221 251.19 429.457 255.771 428.771 260.736Z"></path>
<path fill="#30533D" d="M435.515 266.387H404.338V270.941H435.515V266.387Z"></path>
<path fill="#30533D" d="M407.464 319.332H388.901C384.404 319.332 380.757 315.683 380.757 311.184V274.535C380.757 270.036 384.404 266.388 388.901 266.388H407.464C411.961 266.388 415.608 270.036 415.608 274.535V311.157C415.608 315.683 411.961 319.332 407.464 319.332Z"></path>
<path fill="#F1B4A5" d="M379.608 260.572L380.074 260.599L368.338 278.128V278.101C357.946 267.786 348.952 254.125 345.936 240.546C341.96 222.551 338.779 211.358 328.442 207.463L335.462 188.836C345.223 192.512 352.38 199.398 357.398 209.849C361.319 218.052 362.552 227.516 365.349 236.267C369.654 249.571 375.33 254.098 379.608 260.572Z"></path>
<path fill="#F1B4A5" d="M467.652 319.413L449.911 328.411C446.182 321.032 434.364 300.265 424.685 292.749C417.884 287.482 410.947 284.08 404.284 282.709L396.634 261.915L400.034 262.19C412.346 262.738 425.041 267.813 436.886 277.03C451.775 288.634 466.061 316.286 467.652 319.413Z"></path>
<path fill="#EA4C2D" d="M405.161 306.026L361.207 305.423L368.336 278.155L380.072 260.626L396.633 261.943L404.284 282.737C404.284 282.737 404.284 282.737 404.256 282.737L405.161 306.026Z"></path>
<path fill="black" d="M384.076 326.382C384.076 326.382 353.256 325.998 346.702 326.025C343.549 326.053 341.246 325.614 338.887 332.088C338.696 332.609 338.476 333.267 338.229 334.036L314.155 326.492C315.471 322.487 316.431 319.606 316.76 318.673C318.323 313.955 322.737 304.628 333.568 304.628C351.089 304.628 383.006 305.506 383.006 305.506L384.076 326.382Z"></path>
<path fill="black" d="M404.421 319.139C402.995 324.022 396.908 327.78 392.987 328.411C388.984 329.07 382.43 328.823 378.729 328.658C374.451 328.494 371.353 330.963 369.68 334.008H344.618C345.276 328.878 345.852 324.982 346.209 323.419C347.854 316.424 353.173 307.536 362.88 305.999C367.322 305.286 403.599 305.451 405.162 305.999C405.162 306.027 405.545 315.244 404.421 319.139Z"></path>
<path fill="#F1B4A5" d="M338.203 334.009C336.695 338.809 332.747 353.403 330.334 362.703L304.724 355.68C307.603 346.957 312.045 332.747 314.129 326.492L338.203 334.009Z"></path>
<path fill="#F1B4A5" d="M369.654 334.036C368.776 335.627 368.31 337.356 368.228 338.974C368.036 344.131 367.871 354.418 367.762 363.937H341.055C342.179 353.897 343.495 342.348 344.592 334.036H369.654Z"></path>
<path fill="#CCD7D6" d="M330.361 362.702C327.015 375.65 321.668 395.237 321.668 395.237L293.618 389.394C293.618 389.394 300.144 369.533 304.75 355.679L330.361 362.702Z"></path>
<path stroke-miterlimit="10" stroke-width="4.18084" stroke="#56271F" fill="white" d="M400.061 397.267C426.411 397.267 447.772 375.896 447.772 349.535C447.772 323.173 426.411 301.803 400.061 301.803C373.711 301.803 352.351 323.173 352.351 349.535C352.351 375.896 373.711 397.267 400.061 397.267Z"></path>
<path stroke-miterlimit="10" stroke-width="1.93161" stroke="#56271F" d="M393.812 351.674L363.513 364.403"></path>
<path stroke-miterlimit="10" stroke-width="1.93161" stroke="#56271F" d="M436.093 333.925L405.794 346.654"></path>
<path stroke-miterlimit="10" stroke-width="1.93161" stroke="#56271F" d="M397.291 343.17L384.569 312.858"></path>
<path stroke-miterlimit="10" stroke-width="1.93161" stroke="#56271F" d="M415.034 385.47L402.311 355.157"></path>
<path stroke-miterlimit="10" stroke-width="1.93161" stroke="#56271F" d="M393.508 346.6L363.346 334.282"></path>
<path stroke-miterlimit="10" stroke-width="1.93161" stroke="#56271F" d="M436.256 364.047L406.095 351.729"></path>
<path stroke-miterlimit="10" stroke-width="1.93161" stroke="#56271F" d="M402.365 342.868L414.676 312.692"></path>
<path stroke-miterlimit="10" stroke-width="1.93161" stroke="#56271F" d="M384.924 385.634L397.236 355.459"></path>
<path fill="#F1B4A5" d="M389.999 257.582C397.752 257.582 404.038 251.294 404.038 243.537C404.038 235.78 397.752 229.492 389.999 229.492C382.245 229.492 375.96 235.78 375.96 243.537C375.96 251.294 382.245 257.582 389.999 257.582Z"></path>
<path fill="#F1B4A5" d="M404.118 251.438C406.359 251.438 408.176 249.62 408.176 247.378C408.176 245.135 406.359 243.318 404.118 243.318C401.877 243.318 400.06 245.135 400.06 247.378C400.06 249.62 401.877 251.438 404.118 251.438Z"></path>
<path fill="#56271F" d="M383.829 238.106C384.723 238.106 385.447 237.381 385.447 236.487C385.447 235.593 384.723 234.869 383.829 234.869C382.936 234.869 382.211 235.593 382.211 236.487C382.211 237.381 382.936 238.106 383.829 238.106Z"></path>
<path fill="#56271F" d="M394.633 240.3C395.526 240.3 396.251 239.575 396.251 238.681C396.251 237.787 395.526 237.063 394.633 237.063C393.739 237.063 393.015 237.787 393.015 238.681C393.015 239.575 393.739 240.3 394.633 240.3Z"></path>
<path stroke-miterlimit="10" stroke-width="0.92155" stroke="#56271F" d="M389.12 238.104C387.914 238.159 387.228 238.598 387.119 239.339C387.009 239.997 387.475 240.793 388.38 241.04"></path>
<path fill="#56271F" d="M383.965 242.96L392.328 244.744C392.602 245.018 390.984 249.462 386.871 248.337C384.129 247.542 383.471 245.813 383.965 242.96Z"></path>
<path fill="#E17021" d="M208.391 178.367L196.508 195.716C190.053 191.636 181.368 187.643 171.274 184.15L178.199 164.277C186.591 167.183 198.474 171.968 208.391 178.367Z"></path>
<path fill="#CCD7D6" d="M224.821 211.215C220.919 219.053 213.907 223.397 205.075 223.485H204.781C198.854 223.485 192.869 221.724 186.561 219.845C180.017 217.908 173.269 215.912 167.371 216.235L166.139 195.217C175.704 194.659 184.653 197.301 192.546 199.65C196.214 200.736 202.023 202.468 204.752 202.468H204.811C203.637 201.029 201.231 198.74 196.83 195.922C196.713 195.834 196.595 195.775 196.478 195.687L208.361 178.338C216.019 183.27 222.474 189.17 225.203 195.922C227.315 201.088 227.198 206.518 224.821 211.215Z"></path>
<path fill="#30533D" d="M133.394 246.218L121.746 395.237H165.819L160.215 246.218H133.394Z"></path>
<path fill="#30533D" d="M187.035 249.021L230.288 392.414L178.229 394.738L159.815 249.021H187.035Z"></path>
<path fill="#CCD7D6" d="M187.835 251.535H132.704L134.48 195.422L167.4 195.304L187.835 251.535Z"></path>
<path fill="#1E1E82" d="M148.858 193.945C160.379 193.902 169.684 184.287 169.639 172.468C169.595 160.65 160.219 151.104 148.698 151.147C137.176 151.19 127.872 160.806 127.916 172.624C127.961 184.443 137.336 193.989 148.858 193.945Z"></path>
<path fill="#E17021" d="M167.732 178.591C167.732 179.736 167.585 180.822 167.351 181.879C167.321 181.967 167.321 182.026 167.292 182.114C167.263 182.172 167.263 182.202 167.263 182.202C167.233 182.348 167.175 182.466 167.145 182.613C167.145 182.613 167.145 182.613 167.145 182.642C167.087 182.818 167.028 182.994 166.969 183.17C166.881 183.435 166.764 183.699 166.676 183.934C166.617 184.051 166.588 184.168 166.529 184.286C166.412 184.521 166.294 184.785 166.148 185.02C164.152 188.689 160.514 191.331 156.201 191.947C156.084 191.977 155.966 191.977 155.849 191.977C155.35 192.035 154.881 192.065 154.382 192.065C154.264 192.065 154.176 192.065 154.059 192.065C153.942 192.065 153.824 192.065 153.707 192.065C149.042 191.859 144.963 189.247 142.733 185.431C142.411 184.902 142.146 184.345 141.912 183.757C141.266 182.202 140.914 180.47 140.914 178.679C140.885 171.253 146.87 165.206 154.294 165.176C160.69 165.147 166.03 169.579 167.439 175.568C167.585 176.243 167.703 176.947 167.761 177.652V177.681C167.732 177.975 167.732 178.268 167.732 178.591Z"></path>
<path fill="#56271F" d="M161.51 171.194C162.32 171.194 162.977 170.537 162.977 169.727C162.977 168.916 162.32 168.259 161.51 168.259C160.7 168.259 160.043 168.916 160.043 169.727C160.043 170.537 160.7 171.194 161.51 171.194Z"></path>
<path fill="#56271F" d="M151.211 174.951C152.022 174.951 152.678 174.294 152.678 173.484C152.678 172.673 152.022 172.016 151.211 172.016C150.401 172.016 149.744 172.673 149.744 173.484C149.744 174.294 150.401 174.951 151.211 174.951Z"></path>
<path stroke-miterlimit="10" stroke-width="0.796676" stroke="#56271F" d="M155.935 171.547C156.992 171.458 157.608 171.752 157.784 172.398C157.931 172.955 157.637 173.689 156.874 174.012"></path>
<path fill="#A64A36" d="M167.732 178.591C167.732 179.736 167.585 180.822 167.35 181.878C167.321 181.967 167.321 182.025 167.291 182.113C167.262 182.172 167.262 182.201 167.262 182.201C167.233 182.348 167.174 182.466 167.145 182.612C167.145 182.612 167.145 182.612 167.145 182.642C167.086 182.818 167.027 182.994 166.969 183.17C166.881 183.434 166.763 183.698 166.675 183.933C166.617 184.051 166.587 184.168 166.529 184.286C166.411 184.52 166.294 184.785 166.147 185.019C163.947 188.513 160.367 191.066 156.2 191.947C156.083 191.976 155.966 191.976 155.848 191.976C155.35 192.035 154.88 192.064 154.381 192.064C154.264 192.064 154.176 192.064 154.059 192.064C153.941 192.064 153.824 192.064 153.706 192.064C149.041 191.859 144.963 189.246 142.733 185.43C142.41 184.902 142.146 184.344 141.911 183.757L152.68 180.293C152.357 177.974 153.706 175.773 155.907 174.98L159.575 173.659C161.775 172.867 164.211 173.747 165.443 175.714L167.409 175.567C167.555 176.242 167.673 176.947 167.732 177.651V177.681C167.732 177.974 167.732 178.268 167.732 178.591Z"></path>
<path fill="#56271F" d="M155.614 176.624L160.572 174.951C160.572 174.951 162.538 177.886 159.516 179.207C156.025 180.763 155.614 176.624 155.614 176.624Z"></path>
<path fill="#1E1E82" d="M142.381 189.658C134.518 187.339 129.999 179.09 132.288 171.194C134.606 163.327 142.851 158.806 150.744 161.096L142.381 189.658Z"></path>
<path fill="#E17021" d="M172.713 220.227C164.937 228.328 154.345 233.818 145.924 236.929L150.355 257.653C153.054 256.773 155.255 255.921 156.487 255.393C168.693 250.432 179.843 243.123 187.823 234.816L172.713 220.227Z"></path>
<path fill="#CCD7D6" d="M145.923 236.929L150.353 257.653C147.918 258.445 145.101 259.267 142.138 259.913C137.707 260.852 133.042 261.381 129.257 260.647C117.726 258.475 110.537 251.929 106.635 240.011C103.789 231.351 105.667 219.492 111.3 210.539C116.64 202.056 124.914 196.684 134.538 195.451L137.238 216.322C133.805 216.762 131.135 218.553 129.11 221.782C126.44 226.038 125.941 231.381 126.616 233.465C128.377 238.807 129.873 239.365 133.042 239.952C135.037 240.099 139.937 239.13 145.923 236.929Z"></path>
</g>
<defs>
<clipPath id="clip0_2481_3865">
<rect fill="white" height="360" width="1600"></rect>
</clipPath>
<clipPath id="clip1_2481_3865">
<rect transform="translate(1194 26)" fill="white" height="360" width="413"></rect>
</clipPath>
</defs>
</svg>
