<svg xmlns="http://www.w3.org/2000/svg" fill="none" viewBox="0 0 160 40" height="40" width="160">
<path fill="#F4333D" d="M10.4592 5H19.5407C22.5525 5 24.058 5 25.6792 5.5125C27.4492 6.15675 28.8432 7.55075 29.4875 9.32075C30 10.9417 30 12.4477 30 15.4592V24.5407C30 27.5525 30 29.058 29.4875 30.6792C28.8432 32.4492 27.4492 33.8433 25.6792 34.4873C24.058 35 22.5525 35 19.5407 35H10.4592C7.4475 35 5.94175 35 4.32075 34.4873C2.55075 33.8433 1.15675 32.4492 0.5125 30.6792C0 29.058 0 27.5525 0 24.5407V15.4592C0 12.4477 0 10.9417 0.5125 9.32075C1.15675 7.55075 2.55075 6.15675 4.32075 5.5125C5.94175 5 7.4475 5 10.4592 5V5" clip-rule="evenodd" fill-rule="evenodd"></path>
<path fill="white" d="M12.4265 14.9457C12.4265 16.3753 13.5352 17.4839 14.9648 17.4839C16.3944 17.4839 17.503 16.3753 17.503 14.9457C17.503 13.5161 16.3944 12.4074 14.9648 12.4074C13.5352 12.4074 12.4265 13.5161 12.4265 14.9457ZM17.7073 27.4036H12.2223L13.3893 18.33C14.2646 18.5926 15.665 18.5926 16.5402 18.33L17.7073 27.4036Z" clip-rule="evenodd" fill-rule="evenodd"></path>
<path fill="black" d="M44.505 15.156C45.849 15.156 46.927 15.604 47.739 16.5C48.551 17.382 48.957 18.6 48.957 20.154V27H45.387V20.637C45.387 19.853 45.184 19.244 44.778 18.81C44.372 18.376 43.826 18.159 43.14 18.159C42.454 18.159 41.908 18.376 41.502 18.81C41.096 19.244 40.893 19.853 40.893 20.637V27H37.302V11.46H40.893V16.857C41.257 16.339 41.754 15.926 42.384 15.618C43.014 15.31 43.721 15.156 44.505 15.156ZM62.4984 20.952C62.4984 21.288 62.4774 21.638 62.4354 22.002H54.3084C54.3644 22.73 54.5954 23.29 55.0014 23.682C55.4214 24.06 55.9324 24.249 56.5344 24.249C57.4304 24.249 58.0534 23.871 58.4034 23.115H62.2254C62.0294 23.885 61.6724 24.578 61.1544 25.194C60.6504 25.81 60.0134 26.293 59.2434 26.643C58.4734 26.993 57.6124 27.168 56.6604 27.168C55.5124 27.168 54.4904 26.923 53.5944 26.433C52.6984 25.943 51.9984 25.243 51.4944 24.333C50.9904 23.423 50.7384 22.359 50.7384 21.141C50.7384 19.923 50.9834 18.859 51.4734 17.949C51.9774 17.039 52.6774 16.339 53.5734 15.849C54.4694 15.359 55.4984 15.114 56.6604 15.114C57.7944 15.114 58.8024 15.352 59.6844 15.828C60.5664 16.304 61.2524 16.983 61.7424 17.865C62.2464 18.747 62.4984 19.776 62.4984 20.952ZM58.8234 20.007C58.8234 19.391 58.6134 18.901 58.1934 18.537C57.7734 18.173 57.2484 17.991 56.6184 17.991C56.0164 17.991 55.5054 18.166 55.0854 18.516C54.6794 18.866 54.4274 19.363 54.3294 20.007H58.8234ZM67.9838 11.46V27H64.3928V11.46H67.9838ZM74.1772 16.941C74.5272 16.395 75.0102 15.954 75.6262 15.618C76.2422 15.282 76.9632 15.114 77.7892 15.114C78.7552 15.114 79.6302 15.359 80.4142 15.849C81.1982 16.339 81.8142 17.039 82.2622 17.949C82.7242 18.859 82.9552 19.916 82.9552 21.12C82.9552 22.324 82.7242 23.388 82.2622 24.312C81.8142 25.222 81.1982 25.929 80.4142 26.433C79.6302 26.923 78.7552 27.168 77.7892 27.168C76.9772 27.168 76.2562 27 75.6262 26.664C75.0102 26.328 74.5272 25.894 74.1772 25.362V32.586H70.5862V15.282H74.1772V16.941ZM79.3012 21.12C79.3012 20.224 79.0492 19.524 78.5452 19.02C78.0552 18.502 77.4462 18.243 76.7182 18.243C76.0042 18.243 75.3952 18.502 74.8912 19.02C74.4012 19.538 74.1562 20.245 74.1562 21.141C74.1562 22.037 74.4012 22.744 74.8912 23.262C75.3952 23.78 76.0042 24.039 76.7182 24.039C77.4322 24.039 78.0412 23.78 78.5452 23.262C79.0492 22.73 79.3012 22.016 79.3012 21.12Z"></path>
<path fill="black" d="M87.588 21.141C87.588 19.923 87.833 18.859 88.323 17.949C88.827 17.039 89.52 16.339 90.402 15.849C91.298 15.359 92.32 15.114 93.468 15.114C94.938 15.114 96.163 15.499 97.143 16.269C98.137 17.039 98.788 18.124 99.096 19.524H95.274C94.952 18.628 94.329 18.18 93.405 18.18C92.747 18.18 92.222 18.439 91.83 18.957C91.438 19.461 91.242 20.189 91.242 21.141C91.242 22.093 91.438 22.828 91.83 23.346C92.222 23.85 92.747 24.102 93.405 24.102C94.329 24.102 94.952 23.654 95.274 22.758H99.096C98.788 24.13 98.137 25.208 97.143 25.992C96.149 26.776 94.924 27.168 93.468 27.168C92.32 27.168 91.298 26.923 90.402 26.433C89.52 25.943 88.827 25.243 88.323 24.333C87.833 23.423 87.588 22.359 87.588 21.141ZM111.863 20.952C111.863 21.288 111.842 21.638 111.8 22.002H103.673C103.729 22.73 103.96 23.29 104.366 23.682C104.786 24.06 105.297 24.249 105.899 24.249C106.795 24.249 107.418 23.871 107.768 23.115H111.59C111.394 23.885 111.037 24.578 110.519 25.194C110.015 25.81 109.378 26.293 108.608 26.643C107.838 26.993 106.977 27.168 106.025 27.168C104.877 27.168 103.855 26.923 102.959 26.433C102.063 25.943 101.363 25.243 100.859 24.333C100.355 23.423 100.103 22.359 100.103 21.141C100.103 19.923 100.348 18.859 100.838 17.949C101.342 17.039 102.042 16.339 102.938 15.849C103.834 15.359 104.863 15.114 106.025 15.114C107.159 15.114 108.167 15.352 109.049 15.828C109.931 16.304 110.617 16.983 111.107 17.865C111.611 18.747 111.863 19.776 111.863 20.952ZM108.188 20.007C108.188 19.391 107.978 18.901 107.558 18.537C107.138 18.173 106.613 17.991 105.983 17.991C105.381 17.991 104.87 18.166 104.45 18.516C104.044 18.866 103.792 19.363 103.694 20.007H108.188ZM120.697 15.156C122.069 15.156 123.161 15.604 123.973 16.5C124.799 17.382 125.212 18.6 125.212 20.154V27H121.642V20.637C121.642 19.853 121.439 19.244 121.033 18.81C120.627 18.376 120.081 18.159 119.395 18.159C118.709 18.159 118.163 18.376 117.757 18.81C117.351 19.244 117.148 19.853 117.148 20.637V27H113.557V15.282H117.148V16.836C117.512 16.318 118.002 15.912 118.618 15.618C119.234 15.31 119.927 15.156 120.697 15.156ZM134.039 23.955V27H132.212C130.91 27 129.895 26.685 129.167 26.055C128.439 25.411 128.075 24.368 128.075 22.926V18.264H126.647V15.282H128.075V12.426H131.666V15.282H134.018V18.264H131.666V22.968C131.666 23.318 131.75 23.57 131.918 23.724C132.086 23.878 132.366 23.955 132.758 23.955H134.039ZM139.43 17.235C139.85 16.591 140.375 16.087 141.005 15.723C141.635 15.345 142.335 15.156 143.105 15.156V18.957H142.118C141.222 18.957 140.55 19.153 140.102 19.545C139.654 19.923 139.43 20.595 139.43 21.561V27H135.839V15.282H139.43V17.235ZM155.667 20.952C155.667 21.288 155.646 21.638 155.604 22.002H147.477C147.533 22.73 147.764 23.29 148.17 23.682C148.59 24.06 149.101 24.249 149.703 24.249C150.599 24.249 151.222 23.871 151.572 23.115H155.394C155.198 23.885 154.841 24.578 154.323 25.194C153.819 25.81 153.182 26.293 152.412 26.643C151.642 26.993 150.781 27.168 149.829 27.168C148.681 27.168 147.659 26.923 146.763 26.433C145.867 25.943 145.167 25.243 144.663 24.333C144.159 23.423 143.907 22.359 143.907 21.141C143.907 19.923 144.152 18.859 144.642 17.949C145.146 17.039 145.846 16.339 146.742 15.849C147.638 15.359 148.667 15.114 149.829 15.114C150.963 15.114 151.971 15.352 152.853 15.828C153.735 16.304 154.421 16.983 154.911 17.865C155.415 18.747 155.667 19.776 155.667 20.952ZM151.992 20.007C151.992 19.391 151.782 18.901 151.362 18.537C150.942 18.173 150.417 17.991 149.787 17.991C149.185 17.991 148.674 18.166 148.254 18.516C147.848 18.866 147.596 19.363 147.498 20.007H151.992Z"></path>
</svg>
