<svg xmlns="http://www.w3.org/2000/svg" fill="none" viewBox="0 0 32 32" height="32" width="32">
<path fill="#F4333D" d="M11.1565 0H20.8435C24.056 0 25.6619 0 27.3912 0.546667C29.2792 1.23387 30.7661 2.7208 31.4533 4.6088C32 6.33787 32 7.94427 32 11.1565V20.8435C32 24.056 32 25.6619 31.4533 27.3912C30.7661 29.2792 29.2792 30.7661 27.3912 31.4531C25.6619 32 24.056 32 20.8435 32H11.1565C7.944 32 6.33787 32 4.6088 31.4531C2.7208 30.7661 1.23387 29.2792 0.546667 27.3912C0 25.6619 0 24.056 0 20.8435V11.1565C0 7.94427 0 6.33787 0.546667 4.6088C1.23387 2.7208 2.7208 1.23387 4.6088 0.546667C6.33787 0 7.944 0 11.1565 0Z" clip-rule="evenodd" fill-rule="evenodd"></path>
<path fill="white" d="M13.2549 10.6087C13.2549 12.1336 14.4375 13.3162 15.9624 13.3162C17.4872 13.3162 18.6698 12.1336 18.6698 10.6087C18.6698 9.08381 17.4872 7.90124 15.9624 7.90124C14.4375 7.90124 13.2549 9.08381 13.2549 10.6087ZM18.8877 23.8971H13.037L14.2819 14.2187C15.2155 14.4988 16.7093 14.4988 17.6429 14.2187L18.8877 23.8971Z" clip-rule="evenodd" fill-rule="evenodd"></path>
</svg>
