<svg xmlns="http://www.w3.org/2000/svg" fill="none" viewBox="0 0 128 40" height="40" width="128">
<path fill="black" d="M12.7003 11.4732C13.5677 11.4732 14.2405 10.8009 14.2405 9.93383C14.2405 9.06686 13.5677 8.39444 12.7003 8.39444C11.8329 8.39444 11.1601 9.06686 11.1601 9.93383C11.1601 10.8009 11.8329 11.4732 12.7003 11.4732Z" clip-rule="evenodd" fill-rule="evenodd"></path>
<path fill="black" d="M11.0361 17.4893H14.3644L13.6563 11.9864C13.1252 12.1457 12.2754 12.1457 11.7443 11.9864L11.0361 17.4893Z" clip-rule="evenodd" fill-rule="evenodd"></path>
<path fill="#F4333D" d="M6.4682 17.7239C8.71657 17.7239 10.0797 16.5398 10.0797 14.6918C10.0797 13.4001 9.30078 12.5209 7.68975 12.1621L6.11409 11.8033C5.5122 11.6598 5.19353 11.4624 5.19353 11.1035C5.19353 10.7448 5.49452 10.5116 6.16722 10.5116C6.98161 10.5116 7.83137 10.9062 8.41558 11.4445L9.74338 9.47096C9.10604 8.89682 7.79592 8.39444 6.16722 8.39444C4.06047 8.39444 2.64418 9.45296 2.64418 11.2471C2.64418 12.5568 3.37009 13.5077 4.91031 13.8666L6.48589 14.2433C7.26483 14.4227 7.5127 14.656 7.5127 14.961C7.5127 15.3557 7.19403 15.571 6.4682 15.571C5.61845 15.571 4.59164 15.2122 3.75948 14.4945L2.43176 16.4681C3.05142 17.0422 4.46771 17.7239 6.4682 17.7239Z" clip-rule="evenodd" fill-rule="evenodd"></path>
<path fill="#F4333D" d="M15.9224 17.5446H18.5779V12.7184C18.5779 11.5343 19.1444 10.7987 20.242 10.7987C21.2865 10.7987 21.8354 11.4087 21.8354 12.7184V17.5446H24.4909V12.0366C24.4909 9.63248 23.3048 8.39453 21.2689 8.39453C20.1004 8.39453 19.2152 8.86099 18.5779 9.776V9.20186C18.5779 8.80715 18.3478 8.57388 17.9583 8.57388H15.9224V17.5446Z" clip-rule="evenodd" fill-rule="evenodd"></path>
<path fill="#F4333D" d="M30.6167 14.9252C29.5013 14.9252 28.5985 14.0102 28.5985 12.844C28.5985 11.6778 29.5013 10.7628 30.6167 10.7628C31.8206 10.7628 32.688 11.6778 32.688 12.844C32.688 14.0102 31.8206 14.9252 30.6167 14.9252ZM33.2191 8.57388C32.8296 8.57388 32.5995 8.80715 32.5995 9.20186V9.74008C31.9976 8.82507 31.0416 8.39453 29.9086 8.39453C27.7665 8.39453 25.9076 10.2963 25.9076 12.844C25.9076 15.3916 27.7665 17.2934 29.9086 17.2934C31.0416 17.2934 31.9622 16.9346 32.5995 16.1272V16.7013C32.5995 17.9214 31.8028 18.8006 30.4397 18.8006C29.2181 18.8006 28.2798 18.2802 27.6957 17.7061L26.3147 19.7872C27.1999 20.5946 28.6693 21.0611 30.4397 21.0611C33.0952 21.0611 35.2551 19.7155 35.2551 16.3426V8.57388H33.2191Z" clip-rule="evenodd" fill-rule="evenodd"></path>
<path fill="#F4333D" d="M42.0005 15.3557C40.7436 15.3557 39.7699 14.4048 39.7699 13.0593C39.7699 11.7136 40.7436 10.7627 42.0005 10.7627C43.2398 10.7627 44.1781 11.7136 44.1781 13.0593C44.1781 14.4048 43.2398 15.3557 42.0005 15.3557ZM42.7087 8.39444C41.5049 8.39444 40.5134 8.82498 39.8584 9.74007V9.20177C39.8584 8.80715 39.6282 8.57387 39.2388 8.57387H37.2029V20.8457H39.8584V16.5577C40.5489 17.3651 41.5049 17.7239 42.7087 17.7239C45.0102 17.7239 46.8691 15.8222 46.8691 13.0592C46.8691 10.2962 45.0102 8.39444 42.7087 8.39444Z" clip-rule="evenodd" fill-rule="evenodd"></path>
<path fill="#F4333D" d="M52.8708 15.3557C51.6316 15.3557 50.6933 14.4048 50.6933 13.0593C50.6933 11.7136 51.6316 10.7627 52.8708 10.7627C54.1277 10.7627 55.1015 11.7136 55.1015 13.0593C55.1015 14.4048 54.1277 15.3557 52.8708 15.3557ZM55.6326 8.57387C55.2431 8.57387 55.0129 8.80715 55.0129 9.20177V9.74007C54.3579 8.82498 53.3665 8.39444 52.1627 8.39444C49.8612 8.39444 48.0023 10.2962 48.0023 13.0592C48.0023 15.8222 49.8612 17.7239 52.1627 17.7239C53.3665 17.7239 54.3579 17.2933 55.0129 16.3784V17.5445H57.6684V8.57387H55.6326Z" clip-rule="evenodd" fill-rule="evenodd"></path>
<path fill="#F4333D" d="M63.0506 17.7239C65.299 17.7239 66.6621 16.5398 66.6621 14.6918C66.6621 13.4001 65.8832 12.5209 64.2722 12.1621L62.6965 11.8033C62.0946 11.6598 61.776 11.4624 61.776 11.1035C61.776 10.7448 62.0769 10.5116 62.7496 10.5116C63.564 10.5116 64.4138 10.9062 64.998 11.4445L66.3258 9.47096C65.6885 8.89682 64.3783 8.39444 62.7496 8.39444C60.6429 8.39444 59.2266 9.45296 59.2266 11.2471C59.2266 12.5568 59.9525 13.5077 61.4927 13.8666L63.0683 14.2433C63.8473 14.4227 64.0951 14.656 64.0951 14.961C64.0951 15.3557 63.7765 15.571 63.0506 15.571C62.2009 15.571 61.1741 15.2122 60.342 14.4945L59.0142 16.4681C59.6338 17.0422 61.0501 17.7239 63.0506 17.7239Z" clip-rule="evenodd" fill-rule="evenodd"></path>
<path fill="#F4333D" d="M71.4425 17.7239C73.6908 17.7239 75.054 16.5398 75.054 14.6918C75.054 13.4001 74.275 12.5209 72.664 12.1621L71.0884 11.8033C70.4865 11.6598 70.1678 11.4624 70.1678 11.1035C70.1678 10.7448 70.4688 10.5116 71.1415 10.5116C71.9559 10.5116 72.8056 10.9062 73.3898 11.4445L74.7176 9.47096C74.0803 8.89682 72.7702 8.39444 71.1415 8.39444C69.0347 8.39444 67.6185 9.45296 67.6185 11.2471C67.6185 12.5568 68.3444 13.5077 69.8845 13.8666L71.4602 14.2433C72.2391 14.4227 72.487 14.656 72.487 14.961C72.487 15.3557 72.1683 15.571 71.4425 15.571C70.5927 15.571 69.5659 15.2122 68.7338 14.4945L67.406 16.4681C68.0257 17.0422 69.442 17.7239 71.4425 17.7239Z" clip-rule="evenodd" fill-rule="evenodd"></path>
<path fill="black" d="M7.3865 25.4988C8.2377 25.4988 8.92043 25.7825 9.4347 26.35C9.94897 26.9086 10.2061 27.68 10.2061 28.6642V33H7.9451V28.9701C7.9451 28.4736 7.81653 28.0879 7.5594 27.813C7.30227 27.5381 6.95647 27.4007 6.522 27.4007C6.08753 27.4007 5.74173 27.5381 5.4846 27.813C5.22747 28.0879 5.0989 28.4736 5.0989 28.9701V33H2.8246V23.158H5.0989V26.5761C5.32943 26.248 5.6442 25.9865 6.0432 25.7914C6.4422 25.5963 6.88997 25.4988 7.3865 25.4988ZM18.7823 29.1696C18.7823 29.3824 18.769 29.6041 18.7424 29.8346H13.5953C13.6308 30.2957 13.7771 30.6503 14.0342 30.8986C14.3002 31.138 14.6238 31.2577 15.0051 31.2577C15.5726 31.2577 15.9671 31.0183 16.1888 30.5395H18.6094C18.4853 31.0272 18.2592 31.4661 17.9311 31.8562C17.6119 32.2463 17.2085 32.5522 16.7208 32.7739C16.2331 32.9956 15.6878 33.1064 15.0849 33.1064C14.3578 33.1064 13.7106 32.9512 13.1431 32.6409C12.5756 32.3306 12.1323 31.8872 11.8131 31.3109C11.4939 30.7346 11.3343 30.0607 11.3343 29.2893C11.3343 28.5179 11.4895 27.844 11.7998 27.2677C12.119 26.6914 12.5623 26.248 13.1298 25.9377C13.6973 25.6274 14.349 25.4722 15.0849 25.4722C15.8031 25.4722 16.4415 25.6229 17.0001 25.9244C17.5587 26.2259 17.9932 26.6559 18.3035 27.2145C18.6227 27.7731 18.7823 28.4248 18.7823 29.1696ZM16.4548 28.5711C16.4548 28.181 16.3218 27.8706 16.0558 27.6401C15.7898 27.4096 15.4573 27.2943 15.0583 27.2943C14.677 27.2943 14.3534 27.4051 14.0874 27.6268C13.8303 27.8485 13.6707 28.1632 13.6086 28.5711H16.4548ZM22.2564 23.158V33H19.9821V23.158H22.2564ZM26.1789 26.6293C26.4005 26.2835 26.7064 26.0042 27.0966 25.7914C27.4867 25.5786 27.9433 25.4722 28.4665 25.4722C29.0783 25.4722 29.6324 25.6274 30.129 25.9377C30.6255 26.248 31.0156 26.6914 31.2994 27.2677C31.592 27.844 31.7383 28.5135 31.7383 29.276C31.7383 30.0385 31.592 30.7124 31.2994 31.2976C31.0156 31.8739 30.6255 32.3217 30.129 32.6409C29.6324 32.9512 29.0783 33.1064 28.4665 33.1064C27.9522 33.1064 27.4956 33 27.0966 32.7872C26.7064 32.5744 26.4005 32.2995 26.1789 31.9626V36.5378H23.9046V25.5786H26.1789V26.6293ZM29.4241 29.276C29.4241 28.7085 29.2645 28.2652 28.9453 27.946C28.6349 27.6179 28.2492 27.4539 27.7882 27.4539C27.336 27.4539 26.9503 27.6179 26.6311 27.946C26.3207 28.2741 26.1656 28.7218 26.1656 29.2893C26.1656 29.8568 26.3207 30.3045 26.6311 30.6326C26.9503 30.9607 27.336 31.1247 27.7882 31.1247C28.2404 31.1247 28.6261 30.9607 28.9453 30.6326C29.2645 30.2957 29.4241 29.8435 29.4241 29.276ZM35.2977 29.2893C35.2977 28.5179 35.4529 27.844 35.7632 27.2677C36.0824 26.6914 36.5213 26.248 37.0799 25.9377C37.6474 25.6274 38.2946 25.4722 39.0217 25.4722C39.9527 25.4722 40.7285 25.716 41.3492 26.2037C41.9787 26.6914 42.391 27.3785 42.5861 28.2652H40.1655C39.9616 27.6977 39.567 27.414 38.9818 27.414C38.5651 27.414 38.2326 27.578 37.9843 27.9061C37.736 28.2253 37.6119 28.6864 37.6119 29.2893C37.6119 29.8922 37.736 30.3577 37.9843 30.6858C38.2326 31.005 38.5651 31.1646 38.9818 31.1646C39.567 31.1646 39.9616 30.8809 40.1655 30.3134H42.5861C42.391 31.1823 41.9787 31.8651 41.3492 32.3616C40.7197 32.8581 39.9438 33.1064 39.0217 33.1064C38.2946 33.1064 37.6474 32.9512 37.0799 32.6409C36.5213 32.3306 36.0824 31.8872 35.7632 31.3109C35.4529 30.7346 35.2977 30.0607 35.2977 29.2893ZM50.7984 29.1696C50.7984 29.3824 50.7851 29.6041 50.7585 29.8346H45.6114C45.6469 30.2957 45.7932 30.6503 46.0503 30.8986C46.3163 31.138 46.64 31.2577 47.0212 31.2577C47.5887 31.2577 47.9833 31.0183 48.2049 30.5395H50.6255C50.5014 31.0272 50.2753 31.4661 49.9472 31.8562C49.628 32.2463 49.2246 32.5522 48.7369 32.7739C48.2493 32.9956 47.704 33.1064 47.101 33.1064C46.374 33.1064 45.7267 32.9512 45.1592 32.6409C44.5918 32.3306 44.1484 31.8872 43.8292 31.3109C43.51 30.7346 43.3504 30.0607 43.3504 29.2893C43.3504 28.5179 43.5056 27.844 43.8159 27.2677C44.1351 26.6914 44.5785 26.248 45.1459 25.9377C45.7134 25.6274 46.3651 25.4722 47.101 25.4722C47.8192 25.4722 48.4576 25.6229 49.0162 25.9244C49.5748 26.2259 50.0093 26.6559 50.3196 27.2145C50.6388 27.7731 50.7984 28.4248 50.7984 29.1696ZM48.4709 28.5711C48.4709 28.181 48.3379 27.8706 48.0719 27.6401C47.8059 27.4096 47.4734 27.2943 47.0744 27.2943C46.6932 27.2943 46.3695 27.4051 46.1035 27.6268C45.8464 27.8485 45.6868 28.1632 45.6247 28.5711H48.4709ZM56.5202 25.4988C57.3892 25.4988 58.0808 25.7825 58.595 26.35C59.1182 26.9086 59.3797 27.68 59.3797 28.6642V33H57.1187V28.9701C57.1187 28.4736 56.9902 28.0879 56.733 27.813C56.4759 27.5381 56.1301 27.4007 55.6956 27.4007C55.2612 27.4007 54.9154 27.5381 54.6582 27.813C54.4011 28.0879 54.2725 28.4736 54.2725 28.9701V33H51.9982V25.5786H54.2725V26.5628C54.5031 26.2347 54.8134 25.9776 55.2035 25.7914C55.5937 25.5963 56.0326 25.4988 56.5202 25.4988ZM65.0964 31.0715V33H63.9393C63.1147 33 62.4719 32.8005 62.0108 32.4015C61.5498 31.9936 61.3192 31.3331 61.3192 30.4198V27.4672H60.4148V25.5786H61.3192V23.7698H63.5935V25.5786H65.0831V27.4672H63.5935V30.4464C63.5935 30.6681 63.6467 30.8277 63.7531 30.9252C63.8595 31.0227 64.0369 31.0715 64.2851 31.0715H65.0964ZM68.6376 26.8155C68.9036 26.4076 69.2361 26.0884 69.6351 25.8579C70.0341 25.6185 70.4774 25.4988 70.9651 25.4988V27.9061H70.34C69.7725 27.9061 69.3469 28.0302 69.0632 28.2785C68.7794 28.5179 68.6376 28.9435 68.6376 29.5553V33H66.3633V25.5786H68.6376V26.8155ZM79.0479 29.1696C79.0479 29.3824 79.0346 29.6041 79.008 29.8346H73.8609C73.8964 30.2957 74.0427 30.6503 74.2998 30.8986C74.5658 31.138 74.8895 31.2577 75.2707 31.2577C75.8382 31.2577 76.2328 31.0183 76.4544 30.5395H78.875C78.7509 31.0272 78.5248 31.4661 78.1967 31.8562C77.8775 32.2463 77.4741 32.5522 76.9864 32.7739C76.4988 32.9956 75.9535 33.1064 75.3505 33.1064C74.6235 33.1064 73.9762 32.9512 73.4087 32.6409C72.8413 32.3306 72.3979 31.8872 72.0787 31.3109C71.7595 30.7346 71.5999 30.0607 71.5999 29.2893C71.5999 28.5179 71.7551 27.844 72.0654 27.2677C72.3846 26.6914 72.828 26.248 73.3954 25.9377C73.9629 25.6274 74.6146 25.4722 75.3505 25.4722C76.0687 25.4722 76.7071 25.6229 77.2657 25.9244C77.8243 26.2259 78.2588 26.6559 78.5691 27.2145C78.8883 27.7731 79.0479 28.4248 79.0479 29.1696ZM76.7204 28.5711C76.7204 28.181 76.5874 27.8706 76.3214 27.6401C76.0554 27.4096 75.7229 27.2943 75.3239 27.2943C74.9427 27.2943 74.619 27.4051 74.353 27.6268C74.0959 27.8485 73.9363 28.1632 73.8742 28.5711H76.7204Z"></path>
</svg>
