<svg xmlns="http://www.w3.org/2000/svg" fill="none" viewBox="0 0 1080 270" height="270" width="1080">
<path stroke-miterlimit="10" stroke="#C9CACC" fill="white" d="M966.354 40H862.664C859.536 40 857 42.536 857 45.6644V90.5855C857 93.7139 859.536 96.2499 862.664 96.2499H952.289V104.226L961.71 97.341C962.68 96.632 963.851 96.2499 965.052 96.2499H966.354C969.482 96.2499 972.019 93.7139 972.019 90.5855V45.6644C972.019 42.536 969.483 40 966.354 40Z"></path>
<path stroke-linecap="round" stroke-width="5.66442" stroke="#C9CACC" d="M879.668 58.4701H949.351"></path>
<path stroke-linecap="round" stroke-width="5.66442" stroke="#C9CACC" d="M879.668 75.261H940.955"></path>
<path fill="#56271F" d="M863.612 127.4C863.549 128.299 862.819 128.992 861.918 128.98C851.468 128.842 792.521 127.923 784.274 124.725C775.22 121.214 789.687 93.4345 789.687 93.4345C792.91 70.8298 810.672 54.3833 831.036 55.1791C851.372 55.9738 864.051 77.7127 865.5 100.5L863.612 127.4Z"></path>
<path stroke-miterlimit="10" stroke="#C9CACC" fill="white" d="M771.641 148.574H714.694C711.565 148.574 709.029 151.11 709.029 154.239V185.901C709.029 189.029 711.565 191.565 714.694 191.565H755.508C756.412 191.565 757.303 191.781 758.106 192.196L769.897 198.282V191.565H771.641C774.77 191.565 777.306 189.029 777.306 185.901V154.239C777.306 151.11 774.77 148.574 771.641 148.574Z"></path>
<path stroke-linecap="round" stroke-width="5.66442" stroke="#C9CACC" d="M719.104 163.021H756.883"></path>
<path stroke-linecap="round" stroke-width="5.66442" stroke="#C9CACC" d="M719.104 175.614H747.648"></path>
<path fill="#FB8266" d="M826.256 123.359C841.059 123.359 853.059 111.359 853.059 96.5563C853.059 81.7533 841.059 69.7532 826.256 69.7532C811.453 69.7532 799.453 81.7533 799.453 96.5563C799.453 111.359 811.453 123.359 826.256 123.359Z"></path>
<path fill="#FB8266" d="M852.578 107.552C856.484 107.552 859.65 104.386 859.65 100.48C859.65 96.5739 856.484 93.4076 852.578 93.4076C848.672 93.4076 845.506 96.5739 845.506 100.48C845.506 104.386 848.672 107.552 852.578 107.552Z"></path>
<path fill="#FB8266" d="M801.269 100.447C805.175 100.447 808.341 97.2812 808.341 93.3753C808.341 89.4695 805.175 86.3032 801.269 86.3032C797.364 86.3032 794.197 89.4695 794.197 93.3753C794.197 97.2812 797.364 100.447 801.269 100.447Z"></path>
<path stroke-miterlimit="10" stroke-width="2.26615" stroke="#BA2362" d="M813.178 97.6579L806.495 96.5966C801.887 95.8649 798.743 91.5375 799.475 86.9321L800.189 82.4304L823.561 86.1417L822.847 90.6433C822.112 95.2695 817.786 98.3896 813.178 97.6579Z"></path>
<path stroke-miterlimit="10" stroke-width="2.26615" stroke="#BA2362" d="M843.545 102.479L836.862 101.418C832.254 100.686 829.111 96.359 829.842 91.7536L830.557 87.252L853.908 90.9599L853.193 95.4616C852.458 100.088 848.153 103.211 843.545 102.479Z"></path>
<path stroke-miterlimit="10" stroke-width="2.26615" stroke="#BA2362" d="M823.559 86.1621L831.239 87.3816"></path>
<path fill="#56271F" d="M835.563 96.1489C837.027 96.3234 838.355 95.2777 838.53 93.8134C838.704 92.349 837.659 91.0205 836.194 90.8461C834.73 90.6716 833.402 91.7172 833.227 93.1816C833.053 94.6459 834.098 95.9744 835.563 96.1489Z"></path>
<path fill="#56271F" d="M815.438 93.5752C816.902 93.7496 818.23 92.704 818.405 91.2396C818.579 89.7753 817.534 88.4468 816.069 88.2723C814.605 88.0979 813.277 89.1435 813.102 90.6078C812.928 92.0722 813.973 93.4007 815.438 93.5752Z"></path>
<path stroke-miterlimit="10" stroke-width="2.31021" stroke="#56271F" d="M828.71 94.2656C823.731 91.0396 821.42 96.7401 826.467 98.8963"></path>
<path fill="#56271F" d="M830.208 110.514C830.208 110.514 829.115 116.121 822.842 115.236C816.192 114.298 817.094 108.444 817.094 108.444L830.208 110.514Z"></path>
<path stroke-linejoin="round" stroke-width="29.5165" stroke="#FB8266" d="M749.281 109.774C750.363 106.291 760.132 94.4593 760.132 82.8624"></path>
<path fill="#2A2A2B" d="M856.016 123.419C856.016 123.419 837.157 126.756 823.869 126.756C810.838 126.756 795.428 123.419 795.428 123.419L789.139 218.257H898.999L856.016 123.419Z"></path>
<path fill="#F54E57" d="M824.049 126.686C820.953 126.686 817.467 126.499 813.948 126.213L810 218.257H863.5L837.407 125.915C832.906 126.362 828.206 126.686 824.049 126.686Z"></path>
<path stroke-linejoin="round" stroke-width="29.5165" stroke="#2A2A2B" d="M800.795 138.393C781.32 133.082 775.239 158.757 755.957 151.912C740.455 146.409 742.515 123.448 750.582 106.736"></path>
<path stroke-width="28.3221" stroke="#2A2A2B" d="M856.704 137.344C884.145 129.339 902.004 160.349 902.004 174.338C902.004 192.799 874.682 170.374 853.865 172.705"></path>
<path fill="#9BA3A2" d="M807.292 143.796C806.857 140.698 809.015 137.834 812.113 137.399L851.249 131.898C854.347 131.463 857.212 133.621 857.647 136.719L865.612 193.393C866.047 196.491 863.889 199.355 860.791 199.791L821.655 205.291C818.557 205.726 815.693 203.568 815.257 200.47L807.292 143.796Z"></path>
<path fill="#DAE5E4" d="M811.632 143.186C811.197 140.088 813.355 137.224 816.453 136.789L855.589 131.288C858.687 130.853 861.551 133.012 861.987 136.109L869.952 192.783C870.387 195.881 868.229 198.745 865.131 199.181L825.995 204.681C822.897 205.116 820.032 202.958 819.597 199.86L811.632 143.186Z"></path>
<path fill="#F4333D" d="M834.834 146.868L844.933 145.449C848.282 144.978 849.956 144.743 851.839 145.059C853.908 145.499 855.676 146.831 856.669 148.699C857.492 150.422 857.728 152.096 858.198 155.445L859.618 165.544C860.088 168.893 860.324 170.567 860.007 172.45C859.567 174.519 858.235 176.287 856.367 177.28C854.645 178.103 852.971 178.339 849.621 178.809L839.523 180.229C836.173 180.699 834.499 180.935 832.616 180.618C830.547 180.178 828.779 178.846 827.786 176.978C826.963 175.256 826.728 173.582 826.257 170.232L824.838 160.134C824.367 156.785 824.132 155.11 824.448 153.227C824.888 151.158 826.22 149.39 828.088 148.397C829.81 147.574 831.485 147.339 834.834 146.868V146.868" clip-rule="evenodd" fill-rule="evenodd"></path>
<path fill="white" d="M837.41 156.056C837.698 158.103 839.508 159.466 841.554 159.179C843.6 158.891 844.964 157.081 844.676 155.035C844.389 152.989 842.579 151.625 840.533 151.912C838.486 152.2 837.122 154.01 837.41 156.056ZM847.475 172.825L839.624 173.929L839.469 160.706C840.775 160.906 842.779 160.624 843.979 160.073L847.475 172.825Z" clip-rule="evenodd" fill-rule="evenodd"></path>
<path fill="#FB8266" d="M877.05 190.135C874.233 189.276 871.618 188.478 868.423 187.698C863.517 186.499 859.732 186.062 856.851 186.385L853.865 159.725C861.393 158.882 868.785 160.17 874.791 161.638C875.289 161.759 875.799 161.889 876.317 162.023L881.307 191.413C879.785 190.969 878.394 190.545 877.05 190.135L877.05 190.135Z"></path>
<path fill="#56271F" d="M827.961 76.0347C819.517 87.2698 806.577 91.7867 799.047 86.1276C797.351 84.8531 796.072 83.1824 795.23 81.2199C795.244 81.201 795.258 81.1822 795.287 81.1444C795.487 80.8516 795.7 80.5684 795.913 80.2852C801.022 73.4875 807.363 68.5022 813.712 65.7984C820.494 62.8879 827.294 62.5617 832.623 65.3258C832.892 65.4688 833.148 65.6022 833.403 65.764C832.269 69.1963 830.444 72.7303 827.961 76.0347Z"></path>
<path fill="#FFC46B" d="M682 225.213C682 217.794 688.014 211.78 695.433 211.78H984.567C991.986 211.78 998 217.794 998 225.213V230.011H682V225.213Z"></path>
</svg>
