<svg xmlns="http://www.w3.org/2000/svg" fill="none" viewBox="0 0 1080 270" height="270" width="1080">
<path stroke-miterlimit="10" stroke-width="0.88948" stroke="#C9CACC" fill="white" d="M934.928 50H842.699C839.916 50 837.66 52.2558 837.66 55.0384V94.9948C837.66 97.7774 839.916 100.033 842.699 100.033H922.418V107.127L930.798 101.004C931.661 100.373 932.702 100.033 933.771 100.033H934.928C937.711 100.033 939.967 97.7774 939.967 94.9948V55.0384C939.967 52.2558 937.711 50 934.928 50Z"></path>
<path stroke-linecap="round" stroke-width="5.03838" stroke="#C9CACC" d="M857.822 66.4288H919.804"></path>
<path stroke-linecap="round" stroke-width="5.03838" stroke="#C9CACC" d="M857.822 81.3639H912.336"></path>
<path fill="#56271F" d="M843.54 127.741C843.484 128.54 842.834 129.157 842.033 129.146C832.737 129.023 780.306 128.205 772.97 125.361C764.917 122.238 777.785 97.5289 777.785 97.5289C780.652 77.4225 796.451 62.7937 814.564 63.5015C832.652 64.2084 843.93 83.5447 845.219 103.814L843.54 127.741Z"></path>
<path stroke-miterlimit="10" stroke-width="0.88948" stroke="#C9CACC" fill="white" d="M761.733 146.575H711.079C708.297 146.575 706.041 148.83 706.041 151.613V179.776C706.041 182.558 708.297 184.814 711.079 184.814H747.383C748.187 184.814 748.979 185.007 749.694 185.375L760.181 190.788V184.814H761.733C764.516 184.814 766.771 182.558 766.771 179.776V151.613C766.771 148.83 764.516 146.575 761.733 146.575Z"></path>
<path stroke-linecap="round" stroke-width="5.03838" stroke="#C9CACC" d="M715.002 159.424H748.606"></path>
<path stroke-linecap="round" stroke-width="5.03838" stroke="#C9CACC" d="M715.002 170.626H740.392"></path>
<path fill="#FB8266" d="M810.315 124.146C823.482 124.146 834.156 113.473 834.156 100.306C834.156 87.1387 823.482 76.4648 810.315 76.4648C797.149 76.4648 786.475 87.1387 786.475 100.306C786.475 113.473 797.149 124.146 810.315 124.146Z"></path>
<path fill="#FB8266" d="M833.728 110.086C837.202 110.086 840.019 107.27 840.019 103.796C840.019 100.321 837.202 97.505 833.728 97.505C830.254 97.505 827.438 100.321 827.438 103.796C827.438 107.27 830.254 110.086 833.728 110.086Z"></path>
<path fill="#FB8266" d="M788.089 103.767C791.563 103.767 794.38 100.95 794.38 97.4763C794.38 94.0021 791.563 91.1858 788.089 91.1858C784.615 91.1858 781.799 94.0021 781.799 97.4763C781.799 100.95 784.615 103.767 788.089 103.767Z"></path>
<path stroke-miterlimit="10" stroke-width="2.0157" stroke="#BA2362" d="M798.682 101.285L792.737 100.341C788.638 99.6906 785.843 95.8415 786.493 91.7451L787.129 87.741L807.918 91.042L807.282 95.0462C806.629 99.161 802.781 101.936 798.682 101.285Z"></path>
<path stroke-miterlimit="10" stroke-width="2.0157" stroke="#BA2362" d="M825.694 105.574L819.749 104.63C815.65 103.979 812.854 100.13 813.505 96.0338L814.141 92.0297L834.911 95.3278L834.275 99.332C833.622 103.447 829.793 106.225 825.694 105.574Z"></path>
<path stroke-miterlimit="10" stroke-width="2.0157" stroke="#BA2362" d="M807.916 91.0603L814.747 92.145"></path>
<path fill="#56271F" d="M818.591 99.9433C819.894 100.098 821.076 99.1684 821.231 97.8659C821.386 96.5634 820.456 95.3817 819.153 95.2265C817.851 95.0714 816.669 96.0014 816.514 97.3039C816.359 98.6064 817.289 99.7881 818.591 99.9433Z"></path>
<path fill="#56271F" d="M800.691 97.654C801.993 97.8092 803.175 96.8791 803.33 95.5766C803.486 94.2741 802.555 93.0924 801.253 92.9372C799.95 92.7821 798.769 93.7121 798.614 95.0146C798.458 96.3171 799.388 97.4988 800.691 97.654Z"></path>
<path stroke-miterlimit="10" stroke-width="2.05489" stroke="#56271F" d="M812.497 98.2681C808.067 95.3987 806.012 100.469 810.501 102.387"></path>
<path fill="#56271F" d="M813.829 112.721C813.829 112.721 812.857 117.708 807.277 116.921C801.362 116.087 802.164 110.88 802.164 110.88L813.829 112.721Z"></path>
<path stroke-linejoin="round" stroke-width="26.2543" stroke="#FB8266" d="M741.846 112.063C742.809 108.965 751.498 98.4405 751.498 88.1253"></path>
<path fill="#2A2A2B" d="M836.785 124.2C836.785 124.2 820.01 127.168 808.191 127.168C796.6 127.168 782.893 124.2 782.893 124.2L777.299 208.556H875.017L836.785 124.2Z"></path>
<path fill="#F54E57" d="M808.35 127.106C805.596 127.106 802.495 126.939 799.366 126.685L795.854 208.556H843.441L820.232 126.419C816.228 126.817 812.047 127.106 808.35 127.106Z"></path>
<path stroke-linejoin="round" stroke-width="26.2543" stroke="#2A2A2B" d="M787.666 137.519C770.344 132.794 764.935 155.632 747.784 149.543C733.995 144.649 735.827 124.225 743.003 109.36"></path>
<path stroke-width="25.1919" stroke="#2A2A2B" d="M837.396 136.585C861.804 129.466 877.69 157.048 877.69 169.491C877.69 185.912 853.388 165.965 834.871 168.039"></path>
<path fill="#9BA3A2" d="M793.445 142.325C793.058 139.569 794.978 137.021 797.733 136.634L832.544 131.742C835.3 131.355 837.848 133.274 838.235 136.03L845.32 186.44C845.707 189.196 843.787 191.743 841.031 192.131L806.221 197.023C803.465 197.41 800.917 195.49 800.53 192.735L793.445 142.325Z"></path>
<path fill="#DAE5E4" d="M797.305 141.782C796.917 139.027 798.837 136.479 801.593 136.092L836.404 131.199C839.159 130.812 841.707 132.732 842.094 135.487L849.179 185.898C849.566 188.653 847.646 191.201 844.891 191.588L810.08 196.481C807.324 196.868 804.777 194.948 804.389 192.192L797.305 141.782Z"></path>
<path fill="#F4333D" d="M817.943 145.057L826.926 143.795C829.905 143.376 831.394 143.167 833.069 143.448C834.909 143.839 836.482 145.024 837.365 146.686C838.097 148.218 838.307 149.707 838.725 152.686L839.988 161.669C840.406 164.648 840.616 166.137 840.334 167.812C839.943 169.652 838.758 171.225 837.097 172.108C835.564 172.84 834.075 173.05 831.096 173.468L822.113 174.731C819.134 175.149 817.645 175.359 815.97 175.077C814.13 174.686 812.558 173.501 811.674 171.84C810.942 170.307 810.733 168.818 810.314 165.839L809.052 156.856C808.633 153.878 808.424 152.388 808.705 150.713C809.096 148.873 810.281 147.301 811.943 146.417C813.475 145.685 814.964 145.476 817.943 145.057V145.057" clip-rule="evenodd" fill-rule="evenodd"></path>
<path fill="white" d="M820.235 153.23C820.49 155.05 822.1 156.263 823.92 156.007C825.74 155.751 826.954 154.141 826.698 152.321C826.442 150.501 824.832 149.288 823.012 149.544C821.192 149.8 819.979 151.41 820.235 153.23ZM829.188 168.146L822.205 169.127L822.067 157.366C823.228 157.544 825.011 157.293 826.079 156.802L829.188 168.146Z" clip-rule="evenodd" fill-rule="evenodd"></path>
<path fill="#FB8266" d="M855.493 183.542C852.988 182.778 850.662 182.068 847.82 181.374C843.457 180.308 840.089 179.92 837.527 180.207L834.871 156.493C841.567 155.743 848.142 156.889 853.484 158.194C853.927 158.303 854.381 158.417 854.841 158.537L859.28 184.678C857.926 184.284 856.689 183.907 855.493 183.542Z"></path>
<path fill="#56271F" d="M811.83 82.0522C804.319 92.0455 792.809 96.0633 786.112 91.0295C784.603 89.8959 783.465 88.4099 782.717 86.6643C782.729 86.6475 782.742 86.6307 782.767 86.5971C782.945 86.3367 783.134 86.0848 783.324 85.8328C787.868 79.7864 793.508 75.3522 799.156 72.9472C805.188 70.3583 811.237 70.0682 815.977 72.5268C816.216 72.654 816.444 72.7727 816.67 72.9166C815.662 75.9695 814.039 79.1129 811.83 82.0522Z"></path>
<path fill="#FFC46B" d="M682 214.743C682 208.144 687.349 202.795 693.948 202.795H951.127C957.726 202.795 963.076 208.144 963.076 214.743V219.011H682V214.743Z"></path>
</svg>
