<svg xmlns="http://www.w3.org/2000/svg" fill="none" viewBox="0 0 776 244" height="244" width="776">
<path stroke-miterlimit="10" stroke-width="1.13033" stroke="#C9CACC" fill="white" d="M692.705 68H634.104C632.336 68 630.902 69.4333 630.902 71.2013V96.5891C630.902 98.3572 632.336 99.7904 634.104 99.7904H684.756V104.298L690.081 100.407C690.629 100.006 691.291 99.7904 691.97 99.7904H692.705C694.473 99.7904 695.907 98.3572 695.907 96.5891V71.2013C695.907 69.4333 694.473 68 692.705 68Z"></path>
<path stroke-linecap="round" stroke-width="3.20132" stroke="#C9CACC" d="M643.713 78.4386H683.095"></path>
<path stroke-linecap="round" stroke-width="3.20132" stroke="#C9CACC" d="M643.713 87.9282H678.35"></path>
<path fill="#56271F" d="M634.641 117.396C634.605 117.903 634.193 118.295 633.684 118.289C627.777 118.21 594.463 117.691 589.802 115.883C584.685 113.899 592.861 98.1993 592.861 98.1993C594.683 85.424 604.721 76.129 616.23 76.5788C627.723 77.0279 634.889 89.3139 635.708 102.192L634.641 117.396Z"></path>
<path stroke-miterlimit="10" stroke-width="1.13033" stroke="#C9CACC" fill="white" d="M582.663 129.362H550.479C548.711 129.362 547.277 130.795 547.277 132.564V150.458C547.277 152.226 548.711 153.659 550.479 153.659H573.546C574.056 153.659 574.56 153.781 575.014 154.016L581.677 157.455V153.659H582.663C584.431 153.659 585.865 152.226 585.865 150.458V132.564C585.865 130.795 584.431 129.362 582.663 129.362Z"></path>
<path stroke-linecap="round" stroke-width="3.20132" stroke="#C9CACC" d="M552.971 137.527H574.322"></path>
<path stroke-linecap="round" stroke-width="3.20132" stroke="#C9CACC" d="M552.971 144.644H569.103"></path>
<path fill="#FB8266" d="M613.529 115.112C621.895 115.112 628.677 108.33 628.677 99.9636C628.677 91.5975 621.895 84.8154 613.529 84.8154C605.163 84.8154 598.381 91.5975 598.381 99.9636C598.381 108.33 605.163 115.112 613.529 115.112Z"></path>
<path fill="#FB8266" d="M628.405 106.178C630.613 106.178 632.402 104.388 632.402 102.181C632.402 99.9736 630.613 98.1841 628.405 98.1841C626.198 98.1841 624.408 99.9736 624.408 102.181C624.408 104.388 626.198 106.178 628.405 106.178Z"></path>
<path fill="#FB8266" d="M599.407 102.163C601.614 102.163 603.404 100.373 603.404 98.1658C603.404 95.9584 601.614 94.1689 599.407 94.1689C597.2 94.1689 595.41 95.9584 595.41 98.1658C595.41 100.373 597.2 102.163 599.407 102.163Z"></path>
<path stroke-miterlimit="10" stroke-width="1.28075" stroke="#BA2362" d="M606.138 100.586L602.36 99.9863C599.756 99.5728 597.98 97.1271 598.393 94.5243L598.797 91.9801L612.006 94.0776L611.602 96.6217C611.187 99.2363 608.742 101 606.138 100.586Z"></path>
<path stroke-miterlimit="10" stroke-width="1.28075" stroke="#BA2362" d="M623.3 103.311L619.522 102.711C616.918 102.298 615.142 99.8521 615.555 97.2493L615.959 94.7051L629.156 96.8007L628.752 99.3449C628.337 101.959 625.904 103.725 623.3 103.311Z"></path>
<path stroke-miterlimit="10" stroke-width="1.28075" stroke="#BA2362" d="M612.004 94.0891L616.344 94.7783"></path>
<path fill="#56271F" d="M618.788 99.7334C619.616 99.832 620.366 99.241 620.465 98.4134C620.564 97.5858 619.973 96.835 619.145 96.7364C618.317 96.6378 617.567 97.2288 617.468 98.0563C617.369 98.8839 617.96 99.6348 618.788 99.7334Z"></path>
<path fill="#56271F" d="M607.415 98.2788C608.242 98.3774 608.993 97.7864 609.092 96.9588C609.19 96.1312 608.6 95.3804 607.772 95.2818C606.944 95.1832 606.194 95.7742 606.095 96.6018C605.996 97.4294 606.587 98.1802 607.415 98.2788Z"></path>
<path stroke-miterlimit="10" stroke-width="1.30565" stroke="#56271F" d="M614.916 98.669C612.102 96.8458 610.796 100.067 613.648 101.286"></path>
<path fill="#56271F" d="M615.763 107.852C615.763 107.852 615.146 111.021 611.6 110.521C607.842 109.991 608.352 106.682 608.352 106.682L615.763 107.852Z"></path>
<path stroke-linejoin="round" stroke-width="16.6817" stroke="#FB8266" d="M570.026 107.434C570.638 105.465 576.159 98.7785 576.159 92.2243"></path>
<path fill="#2A2A2B" d="M630.35 115.146C630.35 115.146 619.691 117.032 612.181 117.032C604.817 117.032 596.107 115.146 596.107 115.146L592.553 168.745H654.642L630.35 115.146Z"></path>
<path fill="#F54E57" d="M612.282 116.992C610.532 116.992 608.562 116.886 606.573 116.725L604.342 168.744H634.578L619.831 116.556C617.288 116.809 614.631 116.992 612.282 116.992Z"></path>
<path stroke-linejoin="round" stroke-width="16.6817" stroke="#2A2A2B" d="M599.14 123.608C588.133 120.606 584.697 135.117 573.799 131.249C565.038 128.139 566.202 115.162 570.761 105.717"></path>
<path stroke-width="16.0066" stroke="#2A2A2B" d="M630.737 123.015C646.246 118.491 656.339 136.017 656.339 143.923C656.339 154.357 640.898 141.683 629.133 143"></path>
<path fill="#9BA3A2" d="M602.811 126.662C602.565 124.911 603.785 123.292 605.535 123.046L627.654 119.938C629.405 119.692 631.023 120.911 631.269 122.662L635.771 154.692C636.017 156.443 634.797 158.062 633.046 158.308L610.928 161.416C609.177 161.663 607.558 160.443 607.312 158.692L602.811 126.662Z"></path>
<path fill="#DAE5E4" d="M605.264 126.317C605.018 124.566 606.238 122.947 607.989 122.701L630.107 119.593C631.858 119.347 633.476 120.567 633.723 122.318L638.224 154.348C638.47 156.098 637.25 157.717 635.499 157.963L613.381 161.072C611.63 161.318 610.011 160.098 609.765 158.347L605.264 126.317Z"></path>
<path fill="#F4333D" d="M618.378 128.398L624.086 127.596C625.978 127.33 626.925 127.197 627.989 127.376C629.158 127.624 630.157 128.377 630.718 129.433C631.184 130.406 631.317 131.353 631.583 133.245L632.385 138.953C632.651 140.846 632.784 141.792 632.605 142.856C632.356 144.025 631.603 145.025 630.548 145.586C629.574 146.051 628.628 146.184 626.735 146.45L621.028 147.252C619.135 147.518 618.189 147.651 617.125 147.472C615.955 147.224 614.956 146.471 614.395 145.415C613.93 144.442 613.797 143.496 613.531 141.603L612.729 135.895C612.463 134.003 612.33 133.056 612.508 131.992C612.757 130.823 613.51 129.824 614.565 129.262C615.539 128.797 616.485 128.664 618.378 128.398V128.398" clip-rule="evenodd" fill-rule="evenodd"></path>
<path fill="white" d="M619.834 133.591C619.996 134.748 621.019 135.518 622.176 135.356C623.332 135.193 624.103 134.17 623.94 133.014C623.778 131.857 622.755 131.087 621.598 131.249C620.442 131.412 619.671 132.435 619.834 133.591ZM625.523 143.068L621.086 143.692L620.998 136.219C621.736 136.332 622.869 136.173 623.547 135.861L625.523 143.068Z" clip-rule="evenodd" fill-rule="evenodd"></path>
<path fill="#FB8266" d="M642.236 152.851C640.644 152.365 639.166 151.915 637.36 151.473C634.588 150.796 632.448 150.549 630.82 150.731L629.133 135.664C633.387 135.188 637.565 135.916 640.959 136.745C641.241 136.814 641.529 136.887 641.822 136.963L644.642 153.573C643.782 153.322 642.996 153.083 642.236 152.851L642.236 152.851Z"></path>
<path fill="#56271F" d="M614.493 88.3656C609.721 94.7152 602.408 97.268 598.152 94.0697C597.194 93.3494 596.471 92.4052 595.995 91.2961C596.003 91.2854 596.011 91.2747 596.027 91.2534C596.14 91.0879 596.261 90.9278 596.381 90.7678C599.268 86.926 602.852 84.1085 606.44 82.5804C610.273 80.9354 614.116 80.7511 617.128 82.3133C617.28 82.3941 617.425 82.4695 617.569 82.5609C616.928 84.5007 615.897 86.498 614.493 88.3656Z"></path>
<path fill="#FFC46B" d="M532 172.676C532 168.483 535.399 165.084 539.592 165.084H703C707.193 165.084 710.592 168.483 710.592 172.676V175.387H532V172.676Z"></path>
</svg>
