<svg xmlns="http://www.w3.org/2000/svg" fill="none" viewBox="0 0 480 270" height="270" width="480">
<path stroke-miterlimit="10" stroke="#C9CACC" fill="white" d="M366.354 40H262.664C259.536 40 257 42.536 257 45.6644V90.5855C257 93.7139 259.536 96.2499 262.664 96.2499H352.289V104.226L361.71 97.341C362.68 96.632 363.851 96.2499 365.052 96.2499H366.354C369.482 96.2499 372.019 93.7139 372.019 90.5855V45.6644C372.019 42.536 369.483 40 366.354 40Z"></path>
<path stroke-linecap="round" stroke-width="5.66442" stroke="#C9CACC" d="M279.668 58.4701H349.351"></path>
<path stroke-linecap="round" stroke-width="5.66442" stroke="#C9CACC" d="M279.668 75.261H340.955"></path>
<path fill="#56271F" d="M263.612 127.4C263.549 128.299 262.819 128.992 261.918 128.98C251.468 128.842 192.521 127.923 184.274 124.725C175.22 121.214 189.687 93.4345 189.687 93.4345C192.91 70.8298 210.672 54.3833 231.036 55.1791C251.372 55.9738 264.051 77.7127 265.5 100.5L263.612 127.4Z"></path>
<path stroke-miterlimit="10" stroke="#C9CACC" fill="white" d="M171.641 148.574H114.694C111.565 148.574 109.029 151.11 109.029 154.239V185.901C109.029 189.029 111.565 191.565 114.694 191.565H155.508C156.412 191.565 157.303 191.781 158.106 192.196L169.897 198.282V191.565H171.641C174.77 191.565 177.306 189.029 177.306 185.901V154.239C177.306 151.11 174.77 148.574 171.641 148.574Z"></path>
<path stroke-linecap="round" stroke-width="5.66442" stroke="#C9CACC" d="M119.104 163.021H156.883"></path>
<path stroke-linecap="round" stroke-width="5.66442" stroke="#C9CACC" d="M119.104 175.614H147.648"></path>
<path fill="#FB8266" d="M226.256 123.359C241.059 123.359 253.059 111.359 253.059 96.5563C253.059 81.7533 241.059 69.7532 226.256 69.7532C211.453 69.7532 199.453 81.7533 199.453 96.5563C199.453 111.359 211.453 123.359 226.256 123.359Z"></path>
<path fill="#FB8266" d="M252.578 107.552C256.484 107.552 259.65 104.386 259.65 100.48C259.65 96.5739 256.484 93.4076 252.578 93.4076C248.672 93.4076 245.506 96.5739 245.506 100.48C245.506 104.386 248.672 107.552 252.578 107.552Z"></path>
<path fill="#FB8266" d="M201.269 100.447C205.175 100.447 208.341 97.2812 208.341 93.3753C208.341 89.4695 205.175 86.3032 201.269 86.3032C197.364 86.3032 194.197 89.4695 194.197 93.3753C194.197 97.2812 197.364 100.447 201.269 100.447Z"></path>
<path stroke-miterlimit="10" stroke-width="2.26615" stroke="#BA2362" d="M213.178 97.6579L206.495 96.5966C201.887 95.8649 198.743 91.5375 199.475 86.9321L200.189 82.4304L223.561 86.1417L222.847 90.6433C222.112 95.2695 217.786 98.3896 213.178 97.6579Z"></path>
<path stroke-miterlimit="10" stroke-width="2.26615" stroke="#BA2362" d="M243.545 102.479L236.862 101.418C232.254 100.686 229.111 96.359 229.842 91.7536L230.557 87.252L253.908 90.9599L253.193 95.4616C252.458 100.088 248.153 103.211 243.545 102.479Z"></path>
<path stroke-miterlimit="10" stroke-width="2.26615" stroke="#BA2362" d="M223.559 86.1621L231.239 87.3816"></path>
<path fill="#56271F" d="M235.563 96.1489C237.027 96.3234 238.355 95.2777 238.53 93.8134C238.704 92.349 237.659 91.0205 236.194 90.8461C234.73 90.6716 233.402 91.7172 233.227 93.1816C233.053 94.6459 234.098 95.9744 235.563 96.1489Z"></path>
<path fill="#56271F" d="M215.438 93.5752C216.902 93.7496 218.23 92.704 218.405 91.2396C218.579 89.7753 217.534 88.4468 216.069 88.2723C214.605 88.0979 213.277 89.1435 213.102 90.6078C212.928 92.0722 213.973 93.4007 215.438 93.5752Z"></path>
<path stroke-miterlimit="10" stroke-width="2.31021" stroke="#56271F" d="M228.71 94.2656C223.731 91.0396 221.42 96.7401 226.467 98.8963"></path>
<path fill="#56271F" d="M230.208 110.514C230.208 110.514 229.115 116.121 222.842 115.236C216.192 114.298 217.094 108.444 217.094 108.444L230.208 110.514Z"></path>
<path stroke-linejoin="round" stroke-width="29.5165" stroke="#FB8266" d="M149.281 109.774C150.363 106.291 160.132 94.4593 160.132 82.8624"></path>
<path fill="#2A2A2B" d="M256.016 123.419C256.016 123.419 237.157 126.756 223.869 126.756C210.838 126.756 195.428 123.419 195.428 123.419L189.139 218.257H298.999L256.016 123.419Z"></path>
<path fill="#F54E57" d="M224.049 126.686C220.953 126.686 217.467 126.499 213.948 126.213L210 218.257H263.5L237.407 125.915C232.906 126.362 228.206 126.686 224.049 126.686Z"></path>
<path stroke-linejoin="round" stroke-width="29.5165" stroke="#2A2A2B" d="M200.795 138.393C181.32 133.082 175.239 158.757 155.957 151.912C140.455 146.409 142.515 123.448 150.582 106.736"></path>
<path stroke-width="28.3221" stroke="#2A2A2B" d="M256.704 137.344C284.145 129.339 302.004 160.349 302.004 174.338C302.004 192.799 274.682 170.374 253.865 172.705"></path>
<path fill="#9BA3A2" d="M207.292 143.796C206.857 140.698 209.015 137.834 212.113 137.399L251.249 131.898C254.347 131.463 257.212 133.621 257.647 136.719L265.612 193.393C266.047 196.491 263.889 199.355 260.791 199.791L221.655 205.291C218.557 205.726 215.693 203.568 215.257 200.47L207.292 143.796Z"></path>
<path fill="#DAE5E4" d="M211.632 143.186C211.197 140.088 213.355 137.224 216.453 136.789L255.589 131.288C258.687 130.853 261.551 133.012 261.987 136.109L269.952 192.783C270.387 195.881 268.229 198.745 265.131 199.181L225.995 204.681C222.897 205.116 220.032 202.958 219.597 199.86L211.632 143.186Z"></path>
<path fill="#F4333D" d="M234.834 146.868L244.933 145.449C248.282 144.978 249.956 144.743 251.839 145.059C253.908 145.499 255.676 146.831 256.669 148.699C257.492 150.422 257.728 152.096 258.198 155.445L259.618 165.544C260.088 168.893 260.324 170.567 260.007 172.45C259.567 174.519 258.235 176.287 256.367 177.28C254.645 178.103 252.971 178.339 249.621 178.809L239.523 180.229C236.173 180.699 234.499 180.935 232.616 180.618C230.547 180.178 228.779 178.846 227.786 176.978C226.963 175.256 226.728 173.582 226.257 170.232L224.838 160.134C224.367 156.785 224.132 155.11 224.448 153.227C224.888 151.158 226.22 149.39 228.088 148.397C229.81 147.574 231.485 147.339 234.834 146.868V146.868" clip-rule="evenodd" fill-rule="evenodd"></path>
<path fill="white" d="M237.41 156.056C237.698 158.103 239.508 159.466 241.554 159.179C243.6 158.891 244.964 157.081 244.676 155.035C244.389 152.989 242.579 151.625 240.533 151.912C238.486 152.2 237.122 154.01 237.41 156.056ZM247.475 172.825L239.624 173.929L239.469 160.706C240.775 160.906 242.779 160.624 243.979 160.073L247.475 172.825Z" clip-rule="evenodd" fill-rule="evenodd"></path>
<path fill="#FB8266" d="M277.05 190.135C274.233 189.276 271.618 188.478 268.423 187.698C263.517 186.499 259.732 186.062 256.851 186.385L253.865 159.725C261.393 158.882 268.785 160.17 274.791 161.638C275.289 161.759 275.799 161.889 276.317 162.023L281.307 191.413C279.785 190.969 278.394 190.545 277.05 190.135L277.05 190.135Z"></path>
<path fill="#56271F" d="M227.961 76.0347C219.517 87.2698 206.577 91.7867 199.047 86.1276C197.351 84.8531 196.072 83.1824 195.23 81.2199C195.244 81.201 195.258 81.1822 195.287 81.1444C195.487 80.8516 195.7 80.5684 195.913 80.2852C201.022 73.4875 207.363 68.5022 213.712 65.7984C220.494 62.8879 227.294 62.5617 232.623 65.3258C232.892 65.4688 233.148 65.6022 233.403 65.764C232.269 69.1963 230.444 72.7303 227.961 76.0347Z"></path>
<path fill="#FFC46B" d="M82 225.213C82 217.794 88.0141 211.78 95.4328 211.78H384.567C391.986 211.78 398 217.794 398 225.213V230.011H82V225.213Z"></path>
</svg>
