<svg xmlns="http://www.w3.org/2000/svg" fill="none" viewBox="0 0 776 244" height="244" width="776">
<path stroke-miterlimit="10" stroke-width="1.01316" stroke="#C9CACC" fill="white" d="M676.047 68H623.52C621.935 68 620.65 69.2847 620.65 70.8695V93.6257C620.65 95.2105 621.935 96.4952 623.52 96.4952H668.922V100.536L673.695 97.0479C674.186 96.6888 674.779 96.4952 675.388 96.4952H676.047C677.632 96.4952 678.917 95.2105 678.917 93.6257V70.8695C678.917 69.2847 677.632 68 676.047 68Z"></path>
<path stroke-linecap="round" stroke-width="2.86949" stroke="#C9CACC" d="M632.133 77.3566H667.433"></path>
<path stroke-linecap="round" stroke-width="2.86949" stroke="#C9CACC" d="M632.133 85.8625H663.18"></path>
<path fill="#56271F" d="M624.003 112.276C623.971 112.731 623.601 113.082 623.145 113.076C617.851 113.006 587.989 112.54 583.812 110.92C579.225 109.141 586.554 95.0691 586.554 95.0691C588.186 83.6179 597.184 75.2864 607.5 75.6896C617.802 76.0922 624.225 87.1047 624.959 98.6483L624.003 112.276Z"></path>
<path stroke-miterlimit="10" stroke-width="1.01316" stroke="#C9CACC" fill="white" d="M577.413 123.002H548.565C546.98 123.002 545.695 124.287 545.695 125.871V141.911C545.695 143.496 546.98 144.78 548.565 144.78H569.241C569.699 144.78 570.15 144.89 570.557 145.1L576.53 148.183V144.78H577.413C578.998 144.78 580.283 143.496 580.283 141.911V125.871C580.283 124.287 578.998 123.002 577.413 123.002Z"></path>
<path stroke-linecap="round" stroke-width="2.86949" stroke="#C9CACC" d="M550.799 130.32H569.937"></path>
<path stroke-linecap="round" stroke-width="2.86949" stroke="#C9CACC" d="M550.799 136.7H565.259"></path>
<path fill="#FB8266" d="M605.076 110.228C612.575 110.228 618.654 104.149 618.654 96.6505C618.654 89.1516 612.575 83.0725 605.076 83.0725C597.577 83.0725 591.498 89.1516 591.498 96.6505C591.498 104.149 597.577 110.228 605.076 110.228Z"></path>
<path fill="#FB8266" d="M618.411 102.221C620.389 102.221 621.993 100.617 621.993 98.6379C621.993 96.6593 620.389 95.0553 618.411 95.0553C616.432 95.0553 614.828 96.6593 614.828 98.6379C614.828 100.617 616.432 102.221 618.411 102.221Z"></path>
<path fill="#FB8266" d="M592.419 98.6218C594.397 98.6218 596.001 97.0178 596.001 95.0391C596.001 93.0605 594.397 91.4565 592.419 91.4565C590.44 91.4565 588.836 93.0605 588.836 95.0391C588.836 97.0178 590.44 98.6218 592.419 98.6218Z"></path>
<path stroke-miterlimit="10" stroke-width="1.14799" stroke="#BA2362" d="M598.453 97.2085L595.067 96.6708C592.733 96.3002 591.14 94.108 591.511 91.775L591.873 89.4945L603.713 91.3746L603.351 93.655C602.979 95.9985 600.787 97.5791 598.453 97.2085Z"></path>
<path stroke-miterlimit="10" stroke-width="1.14799" stroke="#BA2362" d="M613.838 99.6511L610.452 99.1135C608.118 98.7428 606.525 96.5506 606.896 94.2176L607.258 91.9371L619.087 93.8155L618.725 96.096C618.353 98.4395 616.172 100.022 613.838 99.6511Z"></path>
<path stroke-miterlimit="10" stroke-width="1.14799" stroke="#BA2362" d="M603.711 91.385L607.601 92.0028"></path>
<path fill="#56271F" d="M609.791 96.4441C610.532 96.5325 611.205 96.0028 611.294 95.261C611.382 94.5192 610.853 93.8462 610.111 93.7578C609.369 93.6694 608.696 94.1991 608.608 94.9409C608.519 95.6827 609.049 96.3557 609.791 96.4441Z"></path>
<path fill="#56271F" d="M599.595 95.1403C600.337 95.2287 601.01 94.699 601.099 93.9572C601.187 93.2154 600.657 92.5424 599.915 92.454C599.174 92.3656 598.501 92.8953 598.412 93.6371C598.324 94.3789 598.854 95.0519 599.595 95.1403Z"></path>
<path stroke-miterlimit="10" stroke-width="1.17031" stroke="#56271F" d="M606.322 95.4901C603.799 93.8558 602.629 96.7436 605.185 97.8359"></path>
<path fill="#56271F" d="M607.079 103.721C607.079 103.721 606.525 106.562 603.347 106.113C599.979 105.638 600.436 102.673 600.436 102.673L607.079 103.721Z"></path>
<path stroke-linejoin="round" stroke-width="14.9525" stroke="#FB8266" d="M566.086 103.346C566.634 101.582 571.583 95.5882 571.583 89.7134"></path>
<path fill="#2A2A2B" d="M620.156 110.259C620.156 110.259 610.602 111.949 603.871 111.949C597.27 111.949 589.464 110.259 589.464 110.259L586.277 158.302H641.93L620.156 110.259Z"></path>
<path fill="#F54E57" d="M603.961 111.914C602.392 111.914 600.626 111.819 598.844 111.674L596.844 158.302H623.946L610.728 111.523C608.448 111.749 606.066 111.914 603.961 111.914Z"></path>
<path stroke-linejoin="round" stroke-width="14.9525" stroke="#2A2A2B" d="M592.181 117.844C582.315 115.154 579.235 128.16 569.467 124.693C561.614 121.905 562.657 110.273 566.744 101.807"></path>
<path stroke-width="14.3475" stroke="#2A2A2B" d="M620.504 117.313C634.405 113.258 643.453 128.967 643.453 136.053C643.453 145.405 629.612 134.045 619.066 135.226"></path>
<path fill="#9BA3A2" d="M595.472 120.581C595.251 119.012 596.344 117.561 597.914 117.341L617.739 114.554C619.309 114.334 620.76 115.427 620.98 116.996L625.015 145.706C625.236 147.276 624.142 148.727 622.573 148.947L602.747 151.734C601.178 151.954 599.727 150.861 599.507 149.291L595.472 120.581Z"></path>
<path fill="#DAE5E4" d="M597.671 120.272C597.45 118.703 598.544 117.252 600.113 117.032L619.939 114.245C621.508 114.025 622.959 115.118 623.18 116.687L627.215 145.397C627.435 146.967 626.342 148.418 624.772 148.638L604.947 151.425C603.377 151.645 601.926 150.552 601.706 148.982L597.671 120.272Z"></path>
<path fill="#F4333D" d="M609.427 122.138L614.543 121.419C616.24 121.18 617.088 121.061 618.042 121.221C619.09 121.444 619.985 122.119 620.488 123.065C620.905 123.938 621.025 124.786 621.263 126.483L621.982 131.598C622.221 133.295 622.34 134.143 622.179 135.097C621.957 136.145 621.282 137.041 620.336 137.544C619.463 137.961 618.615 138.08 616.918 138.319L611.802 139.038C610.106 139.276 609.257 139.395 608.304 139.235C607.256 139.012 606.36 138.337 605.857 137.391C605.44 136.518 605.321 135.67 605.082 133.974L604.363 128.858C604.125 127.161 604.006 126.313 604.166 125.359C604.389 124.311 605.064 123.415 606.01 122.912C606.882 122.495 607.731 122.376 609.427 122.138V122.138" clip-rule="evenodd" fill-rule="evenodd"></path>
<path fill="white" d="M610.731 126.792C610.877 127.829 611.794 128.52 612.83 128.374C613.867 128.228 614.558 127.312 614.412 126.275C614.267 125.238 613.35 124.547 612.313 124.693C611.276 124.839 610.586 125.756 610.731 126.792ZM615.832 135.287L611.854 135.846L611.776 129.148C612.437 129.249 613.453 129.106 614.061 128.827L615.832 135.287Z" clip-rule="evenodd" fill-rule="evenodd"></path>
<path fill="#FB8266" d="M630.811 144.056C629.384 143.621 628.06 143.217 626.441 142.821C623.956 142.214 622.038 141.993 620.579 142.156L619.066 128.651C622.88 128.224 626.624 128.876 629.667 129.62C629.919 129.681 630.178 129.747 630.44 129.815L632.968 144.703C632.197 144.479 631.492 144.264 630.811 144.056Z"></path>
<path fill="#56271F" d="M605.942 86.2546C601.665 91.946 595.109 94.2342 591.295 91.3674C590.436 90.7218 589.788 89.8755 589.361 88.8813C589.369 88.8717 589.376 88.8622 589.39 88.843C589.491 88.6947 589.599 88.5512 589.707 88.4078C592.295 84.9642 595.508 82.4387 598.724 81.069C602.16 79.5946 605.604 79.4294 608.304 80.8296C608.44 80.902 608.57 80.9696 608.699 81.0516C608.124 82.7903 607.2 84.5806 605.942 86.2546Z"></path>
<path fill="#FFC46B" d="M532 161.826C532 158.067 535.047 155.021 538.805 155.021H685.275C689.033 155.021 692.08 158.067 692.08 161.826V164.256H532V161.826Z"></path>
</svg>
