<svg xmlns="http://www.w3.org/2000/svg" fill="none" viewBox="0 0 1280 244" height="244" width="1280">
<path stroke-miterlimit="10" stroke-width="1.15886" stroke="#C9CACC" fill="white" d="M1166.76 69.1582H1106.68C1104.87 69.1582 1103.4 70.6277 1103.4 72.4403V98.469C1103.4 100.282 1104.87 101.751 1106.68 101.751H1158.61V106.372L1164.07 102.383C1164.63 101.972 1165.31 101.751 1166.01 101.751H1166.76C1168.57 101.751 1170.04 100.282 1170.04 98.469V72.4403C1170.04 70.6277 1168.57 69.1582 1166.76 69.1582Z"></path>
<path stroke-linecap="round" stroke-width="3.28213" stroke="#C9CACC" d="M1116.53 79.8604H1156.91"></path>
<path stroke-linecap="round" stroke-width="3.28213" stroke="#C9CACC" d="M1116.53 89.5894H1152.04"></path>
<path fill="#56271F" d="M1107.23 119.801C1107.2 120.321 1106.77 120.723 1106.25 120.716C1100.2 120.636 1066.04 120.103 1061.26 118.25C1056.02 116.216 1064.4 100.12 1064.4 100.12C1066.27 87.0219 1076.56 77.4923 1088.36 77.9535C1100.14 78.414 1107.49 91.0101 1108.33 104.214L1107.23 119.801Z"></path>
<path stroke-miterlimit="10" stroke-width="1.15886" stroke="#C9CACC" fill="white" d="M1053.94 132.069H1020.95C1019.13 132.069 1017.66 133.539 1017.66 135.352V153.698C1017.66 155.51 1019.13 156.98 1020.95 156.98H1044.6C1045.12 156.98 1045.64 157.105 1046.1 157.345L1052.93 160.871V156.98H1053.94C1055.76 156.98 1057.23 155.51 1057.23 153.698V135.352C1057.23 133.539 1055.76 132.069 1053.94 132.069Z"></path>
<path stroke-linecap="round" stroke-width="3.28213" stroke="#C9CACC" d="M1023.5 140.44H1045.39"></path>
<path stroke-linecap="round" stroke-width="3.28213" stroke="#C9CACC" d="M1023.5 147.737H1040.04"></path>
<path fill="#FB8266" d="M1085.58 117.459C1094.16 117.459 1101.11 110.506 1101.11 101.929C1101.11 93.3516 1094.16 86.3983 1085.58 86.3983C1077.01 86.3983 1070.05 93.3516 1070.05 101.929C1070.05 110.506 1077.01 117.459 1085.58 117.459Z"></path>
<path fill="#FB8266" d="M1100.84 108.3C1103.1 108.3 1104.93 106.465 1104.93 104.202C1104.93 101.939 1103.1 100.104 1100.84 100.104C1098.57 100.104 1096.74 101.939 1096.74 104.202C1096.74 106.465 1098.57 108.3 1100.84 108.3Z"></path>
<path fill="#FB8266" d="M1071.11 104.183C1073.37 104.183 1075.2 102.349 1075.2 100.086C1075.2 97.8226 1073.37 95.9879 1071.11 95.9879C1068.84 95.9879 1067.01 97.8226 1067.01 100.086C1067.01 102.349 1068.84 104.183 1071.11 104.183Z"></path>
<path stroke-miterlimit="10" stroke-width="1.31308" stroke="#BA2362" d="M1078.01 102.567L1074.14 101.952C1071.47 101.528 1069.64 99.0208 1070.07 96.3523L1070.48 93.7439L1084.02 95.8943L1083.61 98.5027C1083.18 101.183 1080.68 102.991 1078.01 102.567Z"></path>
<path stroke-miterlimit="10" stroke-width="1.31308" stroke="#BA2362" d="M1095.61 105.361L1091.73 104.746C1089.06 104.322 1087.24 101.815 1087.67 99.1461L1088.08 96.5377L1101.61 98.6862L1101.2 101.295C1100.77 103.975 1098.28 105.785 1095.61 105.361Z"></path>
<path stroke-miterlimit="10" stroke-width="1.31308" stroke="#BA2362" d="M1084.02 95.9061L1088.47 96.6127"></path>
<path fill="#56271F" d="M1090.98 101.693C1091.83 101.794 1092.6 101.188 1092.7 100.34C1092.8 99.491 1092.19 98.7213 1091.34 98.6202C1090.49 98.5191 1089.72 99.125 1089.62 99.9734C1089.52 100.822 1090.13 101.592 1090.98 101.693Z"></path>
<path fill="#56271F" d="M1079.32 100.201C1080.17 100.303 1080.93 99.6967 1081.04 98.8482C1081.14 97.9997 1080.53 97.2299 1079.68 97.1288C1078.83 97.0278 1078.06 97.6336 1077.96 98.4821C1077.86 99.3306 1078.47 100.1 1079.32 100.201Z"></path>
<path stroke-miterlimit="10" stroke-width="1.3386" stroke="#56271F" d="M1087.01 100.601C1084.12 98.7322 1082.78 102.035 1085.71 103.285"></path>
<path fill="#56271F" d="M1087.87 110.016C1087.87 110.016 1087.24 113.265 1083.61 112.752C1079.75 112.209 1080.28 108.817 1080.28 108.817L1087.87 110.016Z"></path>
<path stroke-linejoin="round" stroke-width="17.1027" stroke="#FB8266" d="M1040.99 109.588C1041.61 107.569 1047.27 100.714 1047.27 93.994"></path>
<path fill="#2A2A2B" d="M1102.83 117.494C1102.83 117.494 1091.91 119.428 1084.21 119.428C1076.66 119.428 1067.73 117.494 1067.73 117.494L1064.08 172.446H1127.74L1102.83 117.494Z"></path>
<path fill="#F54E57" d="M1084.31 119.387C1082.51 119.387 1080.49 119.278 1078.46 119.113L1076.17 172.446H1107.17L1092.05 118.94C1089.44 119.199 1086.72 119.387 1084.31 119.387Z"></path>
<path stroke-linejoin="round" stroke-width="17.1027" stroke="#2A2A2B" d="M1070.84 126.17C1059.55 123.093 1056.03 137.97 1044.85 134.004C1035.87 130.815 1037.07 117.51 1041.74 107.827"></path>
<path stroke-width="16.4106" stroke="#2A2A2B" d="M1103.23 125.562C1119.13 120.924 1129.48 138.892 1129.48 146.997C1129.48 157.695 1113.65 144.701 1101.59 146.052"></path>
<path fill="#9BA3A2" d="M1074.6 129.301C1074.35 127.506 1075.6 125.846 1077.39 125.594L1100.07 122.407C1101.86 122.155 1103.52 123.406 1103.78 125.201L1108.39 158.039C1108.64 159.834 1107.39 161.494 1105.6 161.746L1082.92 164.933C1081.13 165.185 1079.47 163.935 1079.21 162.14L1074.6 129.301Z"></path>
<path fill="#DAE5E4" d="M1077.11 128.948C1076.86 127.153 1078.11 125.493 1079.91 125.241L1102.59 122.054C1104.38 121.801 1106.04 123.052 1106.29 124.847L1110.91 157.686C1111.16 159.481 1109.91 161.14 1108.11 161.393L1085.44 164.58C1083.64 164.832 1081.98 163.581 1081.73 161.786L1077.11 128.948Z"></path>
<path fill="#F4333D" d="M1090.56 131.081L1096.41 130.259C1098.35 129.986 1099.32 129.849 1100.41 130.033C1101.61 130.288 1102.64 131.06 1103.21 132.142C1103.69 133.14 1103.83 134.11 1104.1 136.051L1104.92 141.902C1105.19 143.843 1105.33 144.813 1105.15 145.904C1104.89 147.103 1104.12 148.127 1103.04 148.702C1102.04 149.18 1101.07 149.316 1099.13 149.589L1093.28 150.411C1091.34 150.684 1090.37 150.82 1089.28 150.637C1088.08 150.382 1087.05 149.61 1086.48 148.528C1086 147.53 1085.86 146.56 1085.59 144.619L1084.77 138.767C1084.5 136.827 1084.36 135.857 1084.54 134.766C1084.8 133.567 1085.57 132.542 1086.65 131.967C1087.65 131.49 1088.62 131.354 1090.56 131.081V131.081" clip-rule="evenodd" fill-rule="evenodd"></path>
<path fill="white" d="M1092.05 136.405C1092.22 137.591 1093.27 138.381 1094.45 138.214C1095.64 138.048 1096.43 136.999 1096.26 135.813C1096.1 134.628 1095.05 133.837 1093.86 134.004C1092.68 134.171 1091.89 135.219 1092.05 136.405ZM1097.89 146.121L1093.34 146.76L1093.25 139.099C1094 139.215 1095.17 139.052 1095.86 138.732L1097.89 146.121Z" clip-rule="evenodd" fill-rule="evenodd"></path>
<path fill="#FB8266" d="M1115.02 156.151C1113.39 155.653 1111.87 155.191 1110.02 154.739C1107.18 154.044 1104.99 153.791 1103.32 153.978L1101.59 138.531C1105.95 138.042 1110.23 138.788 1113.71 139.639C1114 139.709 1114.29 139.784 1114.6 139.862L1117.49 156.891C1116.6 156.634 1115.8 156.389 1115.02 156.151Z"></path>
<path fill="#56271F" d="M1086.58 90.0378C1081.68 96.5477 1074.19 99.165 1069.82 95.8859C1068.84 95.1474 1068.1 94.1794 1067.61 93.0423C1067.62 93.0313 1067.63 93.0204 1067.64 92.9985C1067.76 92.8289 1067.88 92.6648 1068.01 92.5006C1070.97 88.5619 1074.64 85.6732 1078.32 84.1066C1082.25 82.4201 1086.19 82.2311 1089.28 83.8328C1089.43 83.9156 1089.58 83.9929 1089.73 84.0867C1089.07 86.0754 1088.01 88.1231 1086.58 90.0378Z"></path>
<path fill="#FFC46B" d="M1002 176.476C1002 172.177 1005.48 168.693 1009.78 168.693H1177.32C1181.62 168.693 1185.1 172.177 1185.1 176.476V179.256H1002V176.476Z"></path>
</svg>
