<svg xmlns="http://www.w3.org/2000/svg" fill="none" viewBox="0 0 134 48" height="48" width="134">
<circle fill="#F4333D" r="16" cy="24" cx="16"></circle>
<path fill="white" d="M13.2549 18.6087C13.2549 20.1336 14.4375 21.3162 15.9624 21.3162C17.4872 21.3162 18.6698 20.1336 18.6698 18.6087C18.6698 17.0838 17.4872 15.9012 15.9624 15.9012C14.4375 15.9012 13.2549 17.0838 13.2549 18.6087Z"></path>
<path fill="white" d="M18.8877 31.8971H13.037L14.2819 22.2187C15.2155 22.4988 16.7093 22.4988 17.6429 22.2187L18.8877 31.8971Z"></path>
<path fill="#F4333D" d="M44.8 20.944C45.824 20.944 46.6347 21.2907 47.232 21.984C47.84 22.6667 48.144 23.5947 48.144 24.768V30H45.008V25.184C45.008 24.672 44.8747 24.272 44.608 23.984C44.3413 23.6853 43.984 23.536 43.536 23.536C43.0667 23.536 42.6987 23.6853 42.432 23.984C42.1653 24.272 42.032 24.672 42.032 25.184V30H38.896V18.16H42.032V22.304C42.3093 21.8987 42.6827 21.5733 43.152 21.328C43.632 21.072 44.1813 20.944 44.8 20.944ZM58.4408 25.408C58.4408 25.6533 58.4248 25.8987 58.3928 26.144H52.4568C52.4888 26.6347 52.6221 27.0027 52.8568 27.248C53.1021 27.4827 53.4114 27.6 53.7848 27.6C54.3074 27.6 54.6808 27.3653 54.9048 26.896H58.2488C58.1101 27.5147 57.8381 28.0693 57.4328 28.56C57.0381 29.04 56.5368 29.4187 55.9288 29.696C55.3208 29.9733 54.6488 30.112 53.9128 30.112C53.0274 30.112 52.2381 29.9253 51.5448 29.552C50.8621 29.1787 50.3234 28.6453 49.9288 27.952C49.5448 27.2587 49.3528 26.4427 49.3528 25.504C49.3528 24.5653 49.5448 23.7547 49.9288 23.072C50.3128 22.3787 50.8461 21.8453 51.5288 21.472C52.2221 21.0987 53.0168 20.912 53.9128 20.912C54.7981 20.912 55.5821 21.0933 56.2648 21.456C56.9474 21.8187 57.4808 22.3413 57.8648 23.024C58.2488 23.696 58.4408 24.4907 58.4408 25.408ZM55.2408 24.624C55.2408 24.24 55.1128 23.9413 54.8568 23.728C54.6008 23.504 54.2808 23.392 53.8968 23.392C53.5128 23.392 53.1981 23.4987 52.9528 23.712C52.7074 23.9147 52.5474 24.2187 52.4728 24.624H55.2408ZM62.8601 18.16V30H59.7241V18.16H62.8601ZM67.782 22.272C68.0273 21.856 68.374 21.5253 68.822 21.28C69.27 21.0347 69.798 20.912 70.406 20.912C71.1207 20.912 71.766 21.0987 72.342 21.472C72.9287 21.8453 73.3873 22.3787 73.718 23.072C74.0593 23.7653 74.23 24.576 74.23 25.504C74.23 26.432 74.0593 27.248 73.718 27.952C73.3873 28.6453 72.9287 29.1787 72.342 29.552C71.766 29.9253 71.1207 30.112 70.406 30.112C69.798 30.112 69.27 29.9893 68.822 29.744C68.3847 29.4987 68.038 29.168 67.782 28.752V34.288H64.646V21.024H67.782V22.272ZM71.046 25.504C71.046 24.9173 70.886 24.464 70.566 24.144C70.2567 23.8133 69.8727 23.648 69.414 23.648C68.9553 23.648 68.566 23.8133 68.246 24.144C67.9367 24.4747 67.782 24.928 67.782 25.504C67.782 26.0907 67.9367 26.5493 68.246 26.88C68.566 27.2107 68.9553 27.376 69.414 27.376C69.8727 27.376 70.2567 27.2107 70.566 26.88C70.886 26.5387 71.046 26.08 71.046 25.504Z"></path>
<path fill="#141414" d="M78.0715 25.504C78.0715 24.576 78.2635 23.7653 78.6475 23.072C79.0315 22.3787 79.5648 21.8453 80.2475 21.472C80.9408 21.0987 81.7302 20.912 82.6155 20.912C83.7568 20.912 84.7168 21.2267 85.4955 21.856C86.2742 22.4747 86.7755 23.344 86.9995 24.464H83.6715C83.4795 23.8773 83.1062 23.584 82.5515 23.584C82.1568 23.584 81.8422 23.7493 81.6075 24.08C81.3835 24.4 81.2715 24.8747 81.2715 25.504C81.2715 26.1333 81.3835 26.6133 81.6075 26.944C81.8422 27.2747 82.1568 27.44 82.5515 27.44C83.1168 27.44 83.4902 27.1467 83.6715 26.56H86.9995C86.7755 27.6693 86.2742 28.5387 85.4955 29.168C84.7168 29.7973 83.7568 30.112 82.6155 30.112C81.7302 30.112 80.9408 29.9253 80.2475 29.552C79.5648 29.1787 79.0315 28.6453 78.6475 27.952C78.2635 27.2587 78.0715 26.4427 78.0715 25.504ZM96.8783 25.408C96.8783 25.6533 96.8623 25.8987 96.8303 26.144H90.8943C90.9263 26.6347 91.0596 27.0027 91.2943 27.248C91.5396 27.4827 91.8489 27.6 92.2223 27.6C92.7449 27.6 93.1183 27.3653 93.3423 26.896H96.6863C96.5476 27.5147 96.2756 28.0693 95.8703 28.56C95.4756 29.04 94.9743 29.4187 94.3663 29.696C93.7583 29.9733 93.0863 30.112 92.3503 30.112C91.4649 30.112 90.6756 29.9253 89.9823 29.552C89.2996 29.1787 88.7609 28.6453 88.3663 27.952C87.9823 27.2587 87.7903 26.4427 87.7903 25.504C87.7903 24.5653 87.9823 23.7547 88.3663 23.072C88.7503 22.3787 89.2836 21.8453 89.9663 21.472C90.6596 21.0987 91.4543 20.912 92.3503 20.912C93.2356 20.912 94.0196 21.0933 94.7023 21.456C95.3849 21.8187 95.9183 22.3413 96.3023 23.024C96.6863 23.696 96.8783 24.4907 96.8783 25.408ZM93.6783 24.624C93.6783 24.24 93.5503 23.9413 93.2943 23.728C93.0383 23.504 92.7183 23.392 92.3343 23.392C91.9503 23.392 91.6356 23.4987 91.3903 23.712C91.1449 23.9147 90.9849 24.2187 90.9103 24.624H93.6783ZM104.034 20.944C105.068 20.944 105.89 21.2907 106.498 21.984C107.106 22.6667 107.41 23.5947 107.41 24.768V30H104.274V25.184C104.274 24.672 104.14 24.272 103.874 23.984C103.607 23.6853 103.25 23.536 102.802 23.536C102.332 23.536 101.964 23.6853 101.698 23.984C101.431 24.272 101.298 24.672 101.298 25.184V30H98.1616V21.024H101.298V22.304C101.575 21.8987 101.948 21.5733 102.418 21.328C102.887 21.072 103.426 20.944 104.034 20.944ZM114.426 27.328V30H113.066C110.773 30 109.626 28.864 109.626 26.592V23.632H108.522V21.024H109.626V18.848H112.778V21.024H114.41V23.632H112.778V26.64C112.778 26.8853 112.832 27.0613 112.938 27.168C113.056 27.2747 113.248 27.328 113.514 27.328H114.426ZM119.001 22.608C119.353 22.096 119.779 21.6907 120.281 21.392C120.782 21.0933 121.321 20.944 121.897 20.944V24.288H121.017C120.334 24.288 119.827 24.4213 119.497 24.688C119.166 24.9547 119.001 25.4187 119.001 26.08V30H115.865V21.024H119.001V22.608ZM131.597 25.408C131.597 25.6533 131.581 25.8987 131.549 26.144H125.613C125.645 26.6347 125.778 27.0027 126.013 27.248C126.258 27.4827 126.568 27.6 126.941 27.6C127.464 27.6 127.837 27.3653 128.061 26.896H131.405C131.266 27.5147 130.994 28.0693 130.589 28.56C130.194 29.04 129.693 29.4187 129.085 29.696C128.477 29.9733 127.805 30.112 127.069 30.112C126.184 30.112 125.394 29.9253 124.701 29.552C124.018 29.1787 123.48 28.6453 123.085 27.952C122.701 27.2587 122.509 26.4427 122.509 25.504C122.509 24.5653 122.701 23.7547 123.085 23.072C123.469 22.3787 124.002 21.8453 124.685 21.472C125.378 21.0987 126.173 20.912 127.069 20.912C127.954 20.912 128.738 21.0933 129.421 21.456C130.104 21.8187 130.637 22.3413 131.021 23.024C131.405 23.696 131.597 24.4907 131.597 25.408ZM128.397 24.624C128.397 24.24 128.269 23.9413 128.013 23.728C127.757 23.504 127.437 23.392 127.053 23.392C126.669 23.392 126.354 23.4987 126.109 23.712C125.864 23.9147 125.704 24.2187 125.629 24.624H128.397Z"></path>
</svg>
