<svg xmlns="http://www.w3.org/2000/svg" fill="none" viewBox="0 0 1423 344" height="344" width="1423">
<rect fill="#FAF8F5" height="344" width="1423"></rect>
<path fill="#344054" d="M130.5 135.9V171H121.95V156.55H108.65V171H100.1V135.9H108.65V149.65H121.95V135.9H130.5ZM162.972 156.6C162.972 157.4 162.922 158.233 162.822 159.1H143.472C143.606 160.833 144.156 162.167 145.122 163.1C146.122 164 147.339 164.45 148.772 164.45C150.906 164.45 152.389 163.55 153.222 161.75H162.322C161.856 163.583 161.006 165.233 159.772 166.7C158.572 168.167 157.056 169.317 155.222 170.15C153.389 170.983 151.339 171.4 149.072 171.4C146.339 171.4 143.906 170.817 141.772 169.65C139.639 168.483 137.972 166.817 136.772 164.65C135.572 162.483 134.972 159.95 134.972 157.05C134.972 154.15 135.556 151.617 136.722 149.45C137.922 147.283 139.589 145.617 141.722 144.45C143.856 143.283 146.306 142.7 149.072 142.7C151.772 142.7 154.172 143.267 156.272 144.4C158.372 145.533 160.006 147.15 161.172 149.25C162.372 151.35 162.972 153.8 162.972 156.6ZM154.222 154.35C154.222 152.883 153.722 151.717 152.722 150.85C151.722 149.983 150.472 149.55 148.972 149.55C147.539 149.55 146.322 149.967 145.322 150.8C144.356 151.633 143.756 152.817 143.522 154.35H154.222ZM176.033 134V171H167.483V134H176.033ZM190.779 134V171H182.229V134H190.779ZM209.675 171.4C206.942 171.4 204.475 170.817 202.275 169.65C200.108 168.483 198.392 166.817 197.125 164.65C195.892 162.483 195.275 159.95 195.275 157.05C195.275 154.183 195.908 151.667 197.175 149.5C198.442 147.3 200.175 145.617 202.375 144.45C204.575 143.283 207.042 142.7 209.775 142.7C212.508 142.7 214.975 143.283 217.175 144.45C219.375 145.617 221.108 147.3 222.375 149.5C223.642 151.667 224.275 154.183 224.275 157.05C224.275 159.917 223.625 162.45 222.325 164.65C221.058 166.817 219.308 168.483 217.075 169.65C214.875 170.817 212.408 171.4 209.675 171.4ZM209.675 164C211.308 164 212.692 163.4 213.825 162.2C214.992 161 215.575 159.283 215.575 157.05C215.575 154.817 215.008 153.1 213.875 151.9C212.775 150.7 211.408 150.1 209.775 150.1C208.108 150.1 206.725 150.7 205.625 151.9C204.525 153.067 203.975 154.783 203.975 157.05C203.975 159.283 204.508 161 205.575 162.2C206.675 163.4 208.042 164 209.675 164ZM238.011 163.1L232.461 177.45H227.011L229.911 163.1H238.011ZM117.25 217.8C120.45 217.8 123.017 218.867 124.95 221C126.883 223.1 127.85 226 127.85 229.7V246H119.35V230.85C119.35 228.983 118.867 227.533 117.9 226.5C116.933 225.467 115.633 224.95 114 224.95C112.367 224.95 111.067 225.467 110.1 226.5C109.133 227.533 108.65 228.983 108.65 230.85V246H100.1V209H108.65V221.85C109.517 220.617 110.7 219.633 112.2 218.9C113.7 218.167 115.383 217.8 117.25 217.8ZM146.491 246.4C143.758 246.4 141.291 245.817 139.091 244.65C136.925 243.483 135.208 241.817 133.941 239.65C132.708 237.483 132.091 234.95 132.091 232.05C132.091 229.183 132.725 226.667 133.991 224.5C135.258 222.3 136.991 220.617 139.191 219.45C141.391 218.283 143.858 217.7 146.591 217.7C149.325 217.7 151.791 218.283 153.991 219.45C156.191 220.617 157.925 222.3 159.191 224.5C160.458 226.667 161.091 229.183 161.091 232.05C161.091 234.917 160.441 237.45 159.141 239.65C157.875 241.817 156.125 243.483 153.891 244.65C151.691 245.817 149.225 246.4 146.491 246.4ZM146.491 239C148.125 239 149.508 238.4 150.641 237.2C151.808 236 152.391 234.283 152.391 232.05C152.391 229.817 151.825 228.1 150.691 226.9C149.591 225.7 148.225 225.1 146.591 225.1C144.925 225.1 143.541 225.7 142.441 226.9C141.341 228.067 140.791 229.783 140.791 232.05C140.791 234.283 141.325 236 142.391 237.2C143.491 238.4 144.858 239 146.491 239ZM205.677 218.1L198.127 246H188.677L184.277 227.9L179.727 246H170.327L162.727 218.1H171.277L175.227 238.05L179.927 218.1H188.977L193.727 237.95L197.627 218.1H205.677ZM217.834 232.05C217.834 229.15 218.417 226.617 219.584 224.45C220.784 222.283 222.434 220.617 224.534 219.45C226.667 218.283 229.1 217.7 231.834 217.7C235.334 217.7 238.25 218.617 240.584 220.45C242.95 222.283 244.5 224.867 245.234 228.2H236.134C235.367 226.067 233.884 225 231.684 225C230.117 225 228.867 225.617 227.934 226.85C227 228.05 226.534 229.783 226.534 232.05C226.534 234.317 227 236.067 227.934 237.3C228.867 238.5 230.117 239.1 231.684 239.1C233.884 239.1 235.367 238.033 236.134 235.9H245.234C244.5 239.167 242.95 241.733 240.584 243.6C238.217 245.467 235.3 246.4 231.834 246.4C229.1 246.4 226.667 245.817 224.534 244.65C222.434 243.483 220.784 241.817 219.584 239.65C218.417 237.483 217.834 234.95 217.834 232.05ZM248.107 232C248.107 229.133 248.64 226.617 249.707 224.45C250.807 222.283 252.29 220.617 254.157 219.45C256.024 218.283 258.107 217.7 260.407 217.7C262.374 217.7 264.09 218.1 265.557 218.9C267.057 219.7 268.207 220.75 269.007 222.05V218.1H277.557V246H269.007V242.05C268.174 243.35 267.007 244.4 265.507 245.2C264.04 246 262.324 246.4 260.357 246.4C258.09 246.4 256.024 245.817 254.157 244.65C252.29 243.45 250.807 241.767 249.707 239.6C248.64 237.4 248.107 234.867 248.107 232ZM269.007 232.05C269.007 229.917 268.407 228.233 267.207 227C266.04 225.767 264.607 225.15 262.907 225.15C261.207 225.15 259.757 225.767 258.557 227C257.39 228.2 256.807 229.867 256.807 232C256.807 234.133 257.39 235.833 258.557 237.1C259.757 238.333 261.207 238.95 262.907 238.95C264.607 238.95 266.04 238.333 267.207 237.1C268.407 235.867 269.007 234.183 269.007 232.05ZM300.743 217.8C304.009 217.8 306.609 218.867 308.543 221C310.509 223.1 311.493 226 311.493 229.7V246H302.993V230.85C302.993 228.983 302.509 227.533 301.543 226.5C300.576 225.467 299.276 224.95 297.643 224.95C296.009 224.95 294.709 225.467 293.743 226.5C292.776 227.533 292.293 228.983 292.293 230.85V246H283.743V218.1H292.293V221.8C293.159 220.567 294.326 219.6 295.793 218.9C297.259 218.167 298.909 217.8 300.743 217.8ZM368.08 218.1L360.53 246H351.08L346.68 227.9L342.13 246H332.73L325.13 218.1H333.68L337.63 238.05L342.33 218.1H351.38L356.13 237.95L360.03 218.1H368.08ZM397.64 231.6C397.64 232.4 397.59 233.233 397.49 234.1H378.14C378.274 235.833 378.824 237.167 379.79 238.1C380.79 239 382.007 239.45 383.44 239.45C385.574 239.45 387.057 238.55 387.89 236.75H396.99C396.524 238.583 395.674 240.233 394.44 241.7C393.24 243.167 391.724 244.317 389.89 245.15C388.057 245.983 386.007 246.4 383.74 246.4C381.007 246.4 378.574 245.817 376.44 244.65C374.307 243.483 372.64 241.817 371.44 239.65C370.24 237.483 369.64 234.95 369.64 232.05C369.64 229.15 370.224 226.617 371.39 224.45C372.59 222.283 374.257 220.617 376.39 219.45C378.524 218.283 380.974 217.7 383.74 217.7C386.44 217.7 388.84 218.267 390.94 219.4C393.04 220.533 394.674 222.15 395.84 224.25C397.04 226.35 397.64 228.8 397.64 231.6ZM388.89 229.35C388.89 227.883 388.39 226.717 387.39 225.85C386.39 224.983 385.14 224.55 383.64 224.55C382.207 224.55 380.99 224.967 379.99 225.8C379.024 226.633 378.424 227.817 378.19 229.35H388.89ZM429.896 217.8C433.096 217.8 435.663 218.867 437.596 221C439.53 223.1 440.496 226 440.496 229.7V246H431.996V230.85C431.996 228.983 431.513 227.533 430.546 226.5C429.58 225.467 428.28 224.95 426.646 224.95C425.013 224.95 423.713 225.467 422.746 226.5C421.78 227.533 421.296 228.983 421.296 230.85V246H412.746V209H421.296V221.85C422.163 220.617 423.346 219.633 424.846 218.9C426.346 218.167 428.03 217.8 429.896 217.8ZM472.738 231.6C472.738 232.4 472.688 233.233 472.588 234.1H453.238C453.371 235.833 453.921 237.167 454.888 238.1C455.888 239 457.105 239.45 458.538 239.45C460.671 239.45 462.155 238.55 462.988 236.75H472.088C471.621 238.583 470.771 240.233 469.538 241.7C468.338 243.167 466.821 244.317 464.988 245.15C463.155 245.983 461.105 246.4 458.838 246.4C456.105 246.4 453.671 245.817 451.538 244.65C449.405 243.483 447.738 241.817 446.538 239.65C445.338 237.483 444.738 234.95 444.738 232.05C444.738 229.15 445.321 226.617 446.488 224.45C447.688 222.283 449.355 220.617 451.488 219.45C453.621 218.283 456.071 217.7 458.838 217.7C461.538 217.7 463.938 218.267 466.038 219.4C468.138 220.533 469.771 222.15 470.938 224.25C472.138 226.35 472.738 228.8 472.738 231.6ZM463.988 229.35C463.988 227.883 463.488 226.717 462.488 225.85C461.488 224.983 460.238 224.55 458.738 224.55C457.305 224.55 456.088 224.967 455.088 225.8C454.121 226.633 453.521 227.817 453.288 229.35H463.988ZM485.798 209V246H477.248V209H485.798ZM500.545 222.05C501.378 220.75 502.528 219.7 503.995 218.9C505.461 218.1 507.178 217.7 509.145 217.7C511.445 217.7 513.528 218.283 515.395 219.45C517.261 220.617 518.728 222.283 519.795 224.45C520.895 226.617 521.445 229.133 521.445 232C521.445 234.867 520.895 237.4 519.795 239.6C518.728 241.767 517.261 243.45 515.395 244.65C513.528 245.817 511.445 246.4 509.145 246.4C507.211 246.4 505.495 246 503.995 245.2C502.528 244.4 501.378 243.367 500.545 242.1V259.3H491.995V218.1H500.545V222.05ZM512.745 232C512.745 229.867 512.145 228.2 510.945 227C509.778 225.767 508.328 225.15 506.595 225.15C504.895 225.15 503.445 225.767 502.245 227C501.078 228.233 500.495 229.917 500.495 232.05C500.495 234.183 501.078 235.867 502.245 237.1C503.445 238.333 504.895 238.95 506.595 238.95C508.295 238.95 509.745 238.333 510.945 237.1C512.145 235.833 512.745 234.133 512.745 232ZM565.026 218.1L547.526 259.25H538.326L544.726 245.05L533.376 218.1H542.926L549.376 235.55L555.776 218.1H565.026ZM580.818 246.4C578.084 246.4 575.618 245.817 573.418 244.65C571.251 243.483 569.534 241.817 568.268 239.65C567.034 237.483 566.418 234.95 566.418 232.05C566.418 229.183 567.051 226.667 568.318 224.5C569.584 222.3 571.318 220.617 573.518 219.45C575.718 218.283 578.184 217.7 580.918 217.7C583.651 217.7 586.118 218.283 588.318 219.45C590.518 220.617 592.251 222.3 593.518 224.5C594.784 226.667 595.418 229.183 595.418 232.05C595.418 234.917 594.768 237.45 593.468 239.65C592.201 241.817 590.451 243.483 588.218 244.65C586.018 245.817 583.551 246.4 580.818 246.4ZM580.818 239C582.451 239 583.834 238.4 584.968 237.2C586.134 236 586.718 234.283 586.718 232.05C586.718 229.817 586.151 228.1 585.018 226.9C583.918 225.7 582.551 225.1 580.918 225.1C579.251 225.1 577.868 225.7 576.768 226.9C575.668 228.067 575.118 229.783 575.118 232.05C575.118 234.283 575.651 236 576.718 237.2C577.818 238.4 579.184 239 580.818 239ZM627.504 218.1V246H618.954V242.2C618.087 243.433 616.904 244.433 615.404 245.2C613.937 245.933 612.304 246.3 610.504 246.3C608.37 246.3 606.487 245.833 604.854 244.9C603.22 243.933 601.954 242.55 601.054 240.75C600.154 238.95 599.704 236.833 599.704 234.4V218.1H608.204V233.25C608.204 235.117 608.687 236.567 609.654 237.6C610.62 238.633 611.92 239.15 613.554 239.15C615.22 239.15 616.537 238.633 617.504 237.6C618.47 236.567 618.954 235.117 618.954 233.25V218.1H627.504ZM643.895 208.95C647.462 208.95 650.312 209.883 652.445 211.75C654.612 213.617 655.695 216.25 655.695 219.65C655.695 222.783 654.662 225.233 652.595 227C650.562 228.733 647.862 229.617 644.495 229.65L644.245 233.4H636.745L636.495 224.1H639.495C642.062 224.1 644.012 223.783 645.345 223.15C646.712 222.517 647.395 221.367 647.395 219.7C647.395 218.533 647.078 217.617 646.445 216.95C645.812 216.283 644.928 215.95 643.795 215.95C642.595 215.95 641.662 216.3 640.995 217C640.328 217.667 639.995 218.583 639.995 219.75H631.945C631.878 217.717 632.295 215.883 633.195 214.25C634.128 212.617 635.495 211.333 637.295 210.4C639.128 209.433 641.328 208.95 643.895 208.95ZM640.595 246.4C639.095 246.4 637.862 245.967 636.895 245.1C635.962 244.2 635.495 243.1 635.495 241.8C635.495 240.467 635.962 239.35 636.895 238.45C637.862 237.55 639.095 237.1 640.595 237.1C642.062 237.1 643.262 237.55 644.195 238.45C645.162 239.35 645.645 240.467 645.645 241.8C645.645 243.1 645.162 244.2 644.195 245.1C643.262 245.967 642.062 246.4 640.595 246.4Z"></path>
<path fill="#F4333D" d="M106.48 106.21C104.94 106.21 103.56 105.96 102.34 105.46C101.12 104.96 100.14 104.22 99.4 103.24C98.68 102.26 98.3 101.08 98.26 99.7H103.72C103.8 100.48 104.07 101.08 104.53 101.5C104.99 101.9 105.59 102.1 106.33 102.1C107.09 102.1 107.69 101.93 108.13 101.59C108.57 101.23 108.79 100.74 108.79 100.12C108.79 99.6 108.61 99.17 108.25 98.83C107.91 98.49 107.48 98.21 106.96 97.99C106.46 97.77 105.74 97.52 104.8 97.24C103.44 96.82 102.33 96.4 101.47 95.98C100.61 95.56 99.87 94.94 99.25 94.12C98.63 93.3 98.32 92.23 98.32 90.91C98.32 88.95 99.03 87.42 100.45 86.32C101.87 85.2 103.72 84.64 106 84.64C108.32 84.64 110.19 85.2 111.61 86.32C113.03 87.42 113.79 88.96 113.89 90.94H108.34C108.3 90.26 108.05 89.73 107.59 89.35C107.13 88.95 106.54 88.75 105.82 88.75C105.2 88.75 104.7 88.92 104.32 89.26C103.94 89.58 103.75 90.05 103.75 90.67C103.75 91.35 104.07 91.88 104.71 92.26C105.35 92.64 106.35 93.05 107.71 93.49C109.07 93.95 110.17 94.39 111.01 94.81C111.87 95.23 112.61 95.84 113.23 96.64C113.85 97.44 114.16 98.47 114.16 99.73C114.16 100.93 113.85 102.02 113.23 103C112.63 103.98 111.75 104.76 110.59 105.34C109.43 105.92 108.06 106.21 106.48 106.21ZM119.897 87.52C118.997 87.52 118.257 87.26 117.677 86.74C117.117 86.2 116.837 85.54 116.837 84.76C116.837 83.96 117.117 83.3 117.677 82.78C118.257 82.24 118.997 81.97 119.897 81.97C120.777 81.97 121.497 82.24 122.057 82.78C122.637 83.3 122.927 83.96 122.927 84.76C122.927 85.54 122.637 86.2 122.057 86.74C121.497 87.26 120.777 87.52 119.897 87.52ZM122.447 89.26V106H117.317V89.26H122.447ZM136.365 89.08C138.325 89.08 139.885 89.72 141.045 91C142.225 92.26 142.815 94 142.815 96.22V106H137.715V96.91C137.715 95.79 137.425 94.92 136.845 94.3C136.265 93.68 135.485 93.37 134.505 93.37C133.525 93.37 132.745 93.68 132.165 94.3C131.585 94.92 131.295 95.79 131.295 96.91V106H126.165V89.26H131.295V91.48C131.815 90.74 132.515 90.16 133.395 89.74C134.275 89.3 135.265 89.08 136.365 89.08ZM152.74 89.02C153.92 89.02 154.95 89.26 155.83 89.74C156.73 90.22 157.42 90.85 157.9 91.63V89.26H163.03V105.97C163.03 107.51 162.72 108.9 162.1 110.14C161.5 111.4 160.57 112.4 159.31 113.14C158.07 113.88 156.52 114.25 154.66 114.25C152.18 114.25 150.17 113.66 148.63 112.48C147.09 111.32 146.21 109.74 145.99 107.74H151.06C151.22 108.38 151.6 108.88 152.2 109.24C152.8 109.62 153.54 109.81 154.42 109.81C155.48 109.81 156.32 109.5 156.94 108.88C157.58 108.28 157.9 107.31 157.9 105.97V103.6C157.4 104.38 156.71 105.02 155.83 105.52C154.95 106 153.92 106.24 152.74 106.24C151.36 106.24 150.11 105.89 148.99 105.19C147.87 104.47 146.98 103.46 146.32 102.16C145.68 100.84 145.36 99.32 145.36 97.6C145.36 95.88 145.68 94.37 146.32 93.07C146.98 91.77 147.87 90.77 148.99 90.07C150.11 89.37 151.36 89.02 152.74 89.02ZM157.9 97.63C157.9 96.35 157.54 95.34 156.82 94.6C156.12 93.86 155.26 93.49 154.24 93.49C153.22 93.49 152.35 93.86 151.63 94.6C150.93 95.32 150.58 96.32 150.58 97.6C150.58 98.88 150.93 99.9 151.63 100.66C152.35 101.4 153.22 101.77 154.24 101.77C155.26 101.77 156.12 101.4 156.82 100.66C157.54 99.92 157.9 98.91 157.9 97.63ZM171.871 91.63C172.371 90.85 173.061 90.22 173.941 89.74C174.821 89.26 175.851 89.02 177.031 89.02C178.411 89.02 179.661 89.37 180.781 90.07C181.901 90.77 182.781 91.77 183.421 93.07C184.081 94.37 184.411 95.88 184.411 97.6C184.411 99.32 184.081 100.84 183.421 102.16C182.781 103.46 181.901 104.47 180.781 105.19C179.661 105.89 178.411 106.24 177.031 106.24C175.871 106.24 174.841 106 173.941 105.52C173.061 105.04 172.371 104.42 171.871 103.66V113.98H166.741V89.26H171.871V91.63ZM179.191 97.6C179.191 96.32 178.831 95.32 178.111 94.6C177.411 93.86 176.541 93.49 175.501 93.49C174.481 93.49 173.611 93.86 172.891 94.6C172.191 95.34 171.841 96.35 171.841 97.63C171.841 98.91 172.191 99.92 172.891 100.66C173.611 101.4 174.481 101.77 175.501 101.77C176.521 101.77 177.391 101.4 178.111 100.66C178.831 99.9 179.191 98.88 179.191 97.6ZM186.082 97.6C186.082 95.88 186.402 94.37 187.042 93.07C187.702 91.77 188.592 90.77 189.712 90.07C190.832 89.37 192.082 89.02 193.462 89.02C194.642 89.02 195.672 89.26 196.552 89.74C197.452 90.22 198.142 90.85 198.622 91.63V89.26H203.752V106H198.622V103.63C198.122 104.41 197.422 105.04 196.522 105.52C195.642 106 194.612 106.24 193.432 106.24C192.072 106.24 190.832 105.89 189.712 105.19C188.592 104.47 187.702 103.46 187.042 102.16C186.402 100.84 186.082 99.32 186.082 97.6ZM198.622 97.63C198.622 96.35 198.262 95.34 197.542 94.6C196.842 93.86 195.982 93.49 194.962 93.49C193.942 93.49 193.072 93.86 192.352 94.6C191.652 95.32 191.302 96.32 191.302 97.6C191.302 98.88 191.652 99.9 192.352 100.66C193.072 101.4 193.942 101.77 194.962 101.77C195.982 101.77 196.842 101.4 197.542 100.66C198.262 99.92 198.622 98.91 198.622 97.63ZM214.274 106.24C212.814 106.24 211.514 105.99 210.374 105.49C209.234 104.99 208.334 104.31 207.674 103.45C207.014 102.57 206.644 101.59 206.564 100.51H211.634C211.694 101.09 211.964 101.56 212.444 101.92C212.924 102.28 213.514 102.46 214.214 102.46C214.854 102.46 215.344 102.34 215.684 102.1C216.044 101.84 216.224 101.51 216.224 101.11C216.224 100.63 215.974 100.28 215.474 100.06C214.974 99.82 214.164 99.56 213.044 99.28C211.844 99 210.844 98.71 210.044 98.41C209.244 98.09 208.554 97.6 207.974 96.94C207.394 96.26 207.104 95.35 207.104 94.21C207.104 93.25 207.364 92.38 207.884 91.6C208.424 90.8 209.204 90.17 210.224 89.71C211.264 89.25 212.494 89.02 213.914 89.02C216.014 89.02 217.664 89.54 218.864 90.58C220.084 91.62 220.784 93 220.964 94.72H216.224C216.144 94.14 215.884 93.68 215.444 93.34C215.024 93 214.464 92.83 213.764 92.83C213.164 92.83 212.704 92.95 212.384 93.19C212.064 93.41 211.904 93.72 211.904 94.12C211.904 94.6 212.154 94.96 212.654 95.2C213.174 95.44 213.974 95.68 215.054 95.92C216.294 96.24 217.304 96.56 218.084 96.88C218.864 97.18 219.544 97.68 220.124 98.38C220.724 99.06 221.034 99.98 221.054 101.14C221.054 102.12 220.774 103 220.214 103.78C219.674 104.54 218.884 105.14 217.844 105.58C216.824 106.02 215.634 106.24 214.274 106.24ZM231.002 106.24C229.542 106.24 228.242 105.99 227.102 105.49C225.962 104.99 225.062 104.31 224.402 103.45C223.742 102.57 223.372 101.59 223.292 100.51H228.362C228.422 101.09 228.692 101.56 229.172 101.92C229.652 102.28 230.242 102.46 230.942 102.46C231.582 102.46 232.072 102.34 232.412 102.1C232.772 101.84 232.952 101.51 232.952 101.11C232.952 100.63 232.702 100.28 232.202 100.06C231.702 99.82 230.892 99.56 229.772 99.28C228.572 99 227.572 98.71 226.772 98.41C225.972 98.09 225.282 97.6 224.702 96.94C224.122 96.26 223.832 95.35 223.832 94.21C223.832 93.25 224.092 92.38 224.612 91.6C225.152 90.8 225.932 90.17 226.952 89.71C227.992 89.25 229.222 89.02 230.642 89.02C232.742 89.02 234.392 89.54 235.592 90.58C236.812 91.62 237.512 93 237.692 94.72H232.952C232.872 94.14 232.612 93.68 232.172 93.34C231.752 93 231.192 92.83 230.492 92.83C229.892 92.83 229.432 92.95 229.112 93.19C228.792 93.41 228.632 93.72 228.632 94.12C228.632 94.6 228.882 94.96 229.382 95.2C229.902 95.44 230.702 95.68 231.782 95.92C233.022 96.24 234.032 96.56 234.812 96.88C235.592 97.18 236.272 97.68 236.852 98.38C237.452 99.06 237.762 99.98 237.782 101.14C237.782 102.12 237.502 103 236.942 103.78C236.402 104.54 235.612 105.14 234.572 105.58C233.552 106.02 232.362 106.24 231.002 106.24ZM265.518 84.94V106H260.388V97.33H252.408V106H247.278V84.94H252.408V93.19H260.388V84.94H265.518ZM285.001 97.36C285.001 97.84 284.971 98.34 284.911 98.86H273.301C273.381 99.9 273.711 100.7 274.291 101.26C274.891 101.8 275.621 102.07 276.481 102.07C277.761 102.07 278.651 101.53 279.151 100.45H284.611C284.331 101.55 283.821 102.54 283.081 103.42C282.361 104.3 281.451 104.99 280.351 105.49C279.251 105.99 278.021 106.24 276.661 106.24C275.021 106.24 273.561 105.89 272.281 105.19C271.001 104.49 270.001 103.49 269.281 102.19C268.561 100.89 268.201 99.37 268.201 97.63C268.201 95.89 268.551 94.37 269.251 93.07C269.971 91.77 270.971 90.77 272.251 90.07C273.531 89.37 275.001 89.02 276.661 89.02C278.281 89.02 279.721 89.36 280.981 90.04C282.241 90.72 283.221 91.69 283.921 92.95C284.641 94.21 285.001 95.68 285.001 97.36ZM279.751 96.01C279.751 95.13 279.451 94.43 278.851 93.91C278.251 93.39 277.501 93.13 276.601 93.13C275.741 93.13 275.011 93.38 274.411 93.88C273.831 94.38 273.471 95.09 273.331 96.01H279.751ZM292.838 83.8V106H287.708V83.8H292.838ZM301.685 91.63C302.185 90.85 302.875 90.22 303.755 89.74C304.635 89.26 305.665 89.02 306.845 89.02C308.225 89.02 309.475 89.37 310.595 90.07C311.715 90.77 312.595 91.77 313.235 93.07C313.895 94.37 314.225 95.88 314.225 97.6C314.225 99.32 313.895 100.84 313.235 102.16C312.595 103.46 311.715 104.47 310.595 105.19C309.475 105.89 308.225 106.24 306.845 106.24C305.685 106.24 304.655 106 303.755 105.52C302.875 105.04 302.185 104.42 301.685 103.66V113.98H296.555V89.26H301.685V91.63ZM309.005 97.6C309.005 96.32 308.645 95.32 307.925 94.6C307.225 93.86 306.355 93.49 305.315 93.49C304.295 93.49 303.425 93.86 302.705 94.6C302.005 95.34 301.655 96.35 301.655 97.63C301.655 98.91 302.005 99.92 302.705 100.66C303.425 101.4 304.295 101.77 305.315 101.77C306.335 101.77 307.205 101.4 307.925 100.66C308.645 99.9 309.005 98.88 309.005 97.6ZM322.404 95.44C322.404 93.36 322.854 91.51 323.754 89.89C324.654 88.25 325.904 86.98 327.504 86.08C329.124 85.16 330.954 84.7 332.994 84.7C335.494 84.7 337.634 85.36 339.414 86.68C341.194 88 342.384 89.8 342.984 92.08H337.344C336.924 91.2 336.324 90.53 335.544 90.07C334.784 89.61 333.914 89.38 332.934 89.38C331.354 89.38 330.074 89.93 329.094 91.03C328.114 92.13 327.624 93.6 327.624 95.44C327.624 97.28 328.114 98.75 329.094 99.85C330.074 100.95 331.354 101.5 332.934 101.5C333.914 101.5 334.784 101.27 335.544 100.81C336.324 100.35 336.924 99.68 337.344 98.8H342.984C342.384 101.08 341.194 102.88 339.414 104.2C337.634 105.5 335.494 106.15 332.994 106.15C330.954 106.15 329.124 105.7 327.504 104.8C325.904 103.88 324.654 102.61 323.754 100.99C322.854 99.37 322.404 97.52 322.404 95.44ZM361.906 97.36C361.906 97.84 361.876 98.34 361.816 98.86H350.206C350.286 99.9 350.616 100.7 351.196 101.26C351.796 101.8 352.526 102.07 353.386 102.07C354.666 102.07 355.556 101.53 356.056 100.45H361.516C361.236 101.55 360.726 102.54 359.986 103.42C359.266 104.3 358.356 104.99 357.256 105.49C356.156 105.99 354.926 106.24 353.566 106.24C351.926 106.24 350.466 105.89 349.186 105.19C347.906 104.49 346.906 103.49 346.186 102.19C345.466 100.89 345.106 99.37 345.106 97.63C345.106 95.89 345.456 94.37 346.156 93.07C346.876 91.77 347.876 90.77 349.156 90.07C350.436 89.37 351.906 89.02 353.566 89.02C355.186 89.02 356.626 89.36 357.886 90.04C359.146 90.72 360.126 91.69 360.826 92.95C361.546 94.21 361.906 95.68 361.906 97.36ZM356.656 96.01C356.656 95.13 356.356 94.43 355.756 93.91C355.156 93.39 354.406 93.13 353.506 93.13C352.646 93.13 351.916 93.38 351.316 93.88C350.736 94.38 350.376 95.09 350.236 96.01H356.656ZM374.812 89.08C376.772 89.08 378.332 89.72 379.492 91C380.672 92.26 381.262 94 381.262 96.22V106H376.162V96.91C376.162 95.79 375.872 94.92 375.292 94.3C374.712 93.68 373.932 93.37 372.952 93.37C371.972 93.37 371.192 93.68 370.612 94.3C370.032 94.92 369.742 95.79 369.742 96.91V106H364.612V89.26H369.742V91.48C370.262 90.74 370.962 90.16 371.842 89.74C372.722 89.3 373.712 89.08 374.812 89.08ZM394.157 101.65V106H391.547C389.687 106 388.237 105.55 387.197 104.65C386.157 103.73 385.637 102.24 385.637 100.18V93.52H383.597V89.26H385.637V85.18H390.767V89.26H394.127V93.52H390.767V100.24C390.767 100.74 390.887 101.1 391.127 101.32C391.367 101.54 391.767 101.65 392.327 101.65H394.157ZM402.144 92.05C402.744 91.13 403.494 90.41 404.394 89.89C405.294 89.35 406.294 89.08 407.394 89.08V94.51H405.984C404.704 94.51 403.744 94.79 403.104 95.35C402.464 95.89 402.144 96.85 402.144 98.23V106H397.014V89.26H402.144V92.05ZM425.626 97.36C425.626 97.84 425.596 98.34 425.536 98.86H413.926C414.006 99.9 414.336 100.7 414.916 101.26C415.516 101.8 416.246 102.07 417.106 102.07C418.386 102.07 419.276 101.53 419.776 100.45H425.236C424.956 101.55 424.446 102.54 423.706 103.42C422.986 104.3 422.076 104.99 420.976 105.49C419.876 105.99 418.646 106.24 417.286 106.24C415.646 106.24 414.186 105.89 412.906 105.19C411.626 104.49 410.626 103.49 409.906 102.19C409.186 100.89 408.826 99.37 408.826 97.63C408.826 95.89 409.176 94.37 409.876 93.07C410.596 91.77 411.596 90.77 412.876 90.07C414.156 89.37 415.626 89.02 417.286 89.02C418.906 89.02 420.346 89.36 421.606 90.04C422.866 90.72 423.846 91.69 424.546 92.95C425.266 94.21 425.626 95.68 425.626 97.36ZM420.376 96.01C420.376 95.13 420.076 94.43 419.476 93.91C418.876 93.39 418.126 93.13 417.226 93.13C416.366 93.13 415.636 93.38 415.036 93.88C414.456 94.38 414.096 95.09 413.956 96.01H420.376Z"></path>
<path fill="white" d="M1209.35 69H1105.66C1102.54 69 1100 71.536 1100 74.6644V119.586C1100 122.714 1102.54 125.25 1105.66 125.25H1195.29V133.226L1204.71 126.341C1205.68 125.632 1206.85 125.25 1208.05 125.25H1209.35C1212.48 125.25 1215.02 122.714 1215.02 119.586V74.6644C1215.02 71.536 1212.48 69 1209.35 69Z"></path>
<path fill="#C9CACC" d="M1099 74.6644C1099 70.9838 1101.98 68 1105.66 68H1209.35C1213.03 68 1216.02 70.9838 1216.02 74.6644V119.586C1216.02 123.266 1213.03 126.25 1209.35 126.25H1208.05C1207.06 126.25 1206.1 126.565 1205.3 127.148L1194.29 135.195V126.25H1105.66C1101.98 126.25 1099 123.266 1099 119.586V74.6644ZM1105.66 70C1103.09 70 1101 72.0883 1101 74.6644V119.586C1101 122.162 1103.09 124.25 1105.66 124.25H1196.29V131.256L1204.12 125.534C1205.26 124.699 1206.64 124.25 1208.05 124.25H1209.35C1211.93 124.25 1214.02 122.162 1214.02 119.586V74.6644C1214.02 72.0883 1211.93 70 1209.35 70H1105.66Z" clip-rule="evenodd" fill-rule="evenodd"></path>
<path fill="#C9CACC" d="M1119.84 87.4701C1119.84 85.906 1121.1 84.6379 1122.67 84.6379H1192.35C1193.92 84.6379 1195.18 85.906 1195.18 87.4701C1195.18 89.0343 1193.92 90.3024 1192.35 90.3024H1122.67C1121.1 90.3024 1119.84 89.0343 1119.84 87.4701Z" clip-rule="evenodd" fill-rule="evenodd"></path>
<path fill="#C9CACC" d="M1119.84 104.261C1119.84 102.697 1121.1 101.429 1122.67 101.429H1183.96C1185.52 101.429 1186.79 102.697 1186.79 104.261C1186.79 105.825 1185.52 107.093 1183.96 107.093H1122.67C1121.1 107.093 1119.84 105.825 1119.84 104.261Z" clip-rule="evenodd" fill-rule="evenodd"></path>
<path fill="#56271F" d="M1106.61 156.4C1106.55 157.299 1105.82 157.992 1104.92 157.98C1094.47 157.842 1035.52 156.923 1027.27 153.725C1018.22 150.214 1032.69 122.434 1032.69 122.434C1035.91 99.8298 1053.67 83.3833 1074.04 84.1791C1094.37 84.9738 1107.05 106.713 1108.5 129.5L1106.61 156.4Z"></path>
<path fill="white" d="M1014.64 177.574H957.694C954.565 177.574 952.029 180.11 952.029 183.239V214.901C952.029 218.029 954.565 220.565 957.694 220.565H998.508C999.412 220.565 1000.3 220.781 1001.11 221.196L1012.9 227.282V220.565H1014.64C1017.77 220.565 1020.31 218.029 1020.31 214.901V183.239C1020.31 180.11 1017.77 177.574 1014.64 177.574Z"></path>
<path fill="#C9CACC" d="M951.029 183.239C951.029 179.558 954.013 176.574 957.694 176.574H1014.64C1018.32 176.574 1021.31 179.558 1021.31 183.239V214.901C1021.31 218.581 1018.32 221.565 1014.64 221.565H1013.9V228.923L1000.65 222.085C999.986 221.743 999.252 221.565 998.508 221.565H957.694C954.013 221.565 951.029 218.581 951.029 214.901V183.239ZM957.694 178.574C955.118 178.574 953.029 180.663 953.029 183.239V214.901C953.029 217.477 955.118 219.565 957.694 219.565H998.508C999.572 219.565 1000.62 219.82 1001.56 220.307L1011.9 225.64V219.565H1014.64C1017.22 219.565 1019.31 217.477 1019.31 214.901V183.239C1019.31 180.663 1017.22 178.574 1014.64 178.574H957.694Z" clip-rule="evenodd" fill-rule="evenodd"></path>
<path fill="#C9CACC" d="M959.271 192.021C959.271 190.456 960.54 189.188 962.104 189.188H999.884C1001.45 189.188 1002.72 190.456 1002.72 192.021C1002.72 193.585 1001.45 194.853 999.884 194.853H962.104C960.54 194.853 959.271 193.585 959.271 192.021Z" clip-rule="evenodd" fill-rule="evenodd"></path>
<path fill="#C9CACC" d="M959.271 204.614C959.271 203.05 960.54 201.782 962.104 201.782H990.648C992.213 201.782 993.481 203.05 993.481 204.614C993.481 206.178 992.213 207.446 990.648 207.446H962.104C960.54 207.446 959.271 206.178 959.271 204.614Z" clip-rule="evenodd" fill-rule="evenodd"></path>
<path fill="#FB8266" d="M1069.26 152.359C1084.06 152.359 1096.06 140.359 1096.06 125.556C1096.06 110.753 1084.06 98.7532 1069.26 98.7532C1054.45 98.7532 1042.45 110.753 1042.45 125.556C1042.45 140.359 1054.45 152.359 1069.26 152.359Z"></path>
<path fill="#FB8266" d="M1095.58 136.552C1099.48 136.552 1102.65 133.386 1102.65 129.48C1102.65 125.574 1099.48 122.408 1095.58 122.408C1091.67 122.408 1088.51 125.574 1088.51 129.48C1088.51 133.386 1091.67 136.552 1095.58 136.552Z"></path>
<path fill="#FB8266" d="M1044.27 129.447C1048.18 129.447 1051.34 126.281 1051.34 122.375C1051.34 118.47 1048.18 115.303 1044.27 115.303C1040.36 115.303 1037.2 118.47 1037.2 122.375C1037.2 126.281 1040.36 129.447 1044.27 129.447Z"></path>
<path fill="#BA2362" d="M1042.25 110.134L1067.86 114.2L1066.97 119.821C1066.13 125.067 1061.22 128.606 1056 127.777L1049.32 126.715C1044.09 125.886 1040.53 120.978 1041.36 115.754L1042.25 110.134ZM1044.13 112.727L1043.59 116.11C1042.96 120.096 1045.68 123.844 1049.67 124.477L1056.36 125.539C1060.35 126.173 1064.09 123.471 1064.73 119.466L1065.26 116.083L1044.13 112.727Z" clip-rule="evenodd" fill-rule="evenodd"></path>
<path fill="#BA2362" d="M1072.62 114.955L1098.2 119.018L1097.31 124.639C1096.48 129.882 1091.59 133.428 1086.37 132.598L1079.68 131.537C1074.46 130.707 1070.89 125.8 1071.72 120.576L1072.62 114.955ZM1074.5 117.549L1073.96 120.931C1073.33 124.918 1076.05 128.665 1080.04 129.299L1086.72 130.36C1090.71 130.994 1094.44 128.293 1095.07 124.284L1095.61 120.901L1074.5 117.549Z" clip-rule="evenodd" fill-rule="evenodd"></path>
<path fill="#BA2362" d="M1074.06 117.501L1066.38 116.281L1066.74 114.043L1074.42 115.262L1074.06 117.501Z" clip-rule="evenodd" fill-rule="evenodd"></path>
<path fill="#56271F" d="M1078.56 125.149C1080.03 125.323 1081.36 124.278 1081.53 122.813C1081.7 121.349 1080.66 120.02 1079.19 119.846C1077.73 119.671 1076.4 120.717 1076.23 122.181C1076.05 123.646 1077.1 124.974 1078.56 125.149Z"></path>
<path fill="#56271F" d="M1058.44 122.575C1059.9 122.749 1061.23 121.704 1061.4 120.24C1061.58 118.775 1060.53 117.447 1059.07 117.272C1057.61 117.098 1056.28 118.143 1056.1 119.608C1055.93 121.072 1056.97 122.401 1058.44 122.575Z"></path>
<path fill="#56271F" d="M1068.39 121.181C1069.59 121.018 1070.94 121.391 1072.34 122.296L1071.08 124.235C1069.99 123.527 1069.19 123.404 1068.71 123.469C1068.25 123.532 1068 123.764 1067.89 124.029C1067.67 124.524 1067.76 125.91 1069.92 126.834L1069.01 128.959C1066.13 127.727 1064.85 125.184 1065.77 123.097C1066.22 122.07 1067.17 121.347 1068.39 121.181Z" clip-rule="evenodd" fill-rule="evenodd"></path>
<path fill="#56271F" d="M1073.21 139.514C1073.21 139.514 1072.12 145.121 1065.84 144.236C1059.19 143.298 1060.09 137.444 1060.09 137.444L1073.21 139.514Z"></path>
<path fill="#FB8266" d="M980.101 130.026C979.667 130.82 978.784 132.47 978.186 134.395L1006.37 143.154C1006.2 143.721 1006.02 144.133 1005.94 144.304C1005.95 144.268 1005.98 144.221 1006.01 144.161C1006.22 143.783 1006.54 143.232 1007.09 142.323C1007.19 142.149 1007.3 141.966 1007.42 141.773C1008.41 140.126 1009.79 137.829 1011.14 135.295C1014 129.922 1017.89 121.407 1017.89 111.862L988.373 111.863C988.373 113.915 987.379 117.115 985.083 121.427C984.119 123.239 983.134 124.879 982.116 126.573C982.003 126.76 981.89 126.949 981.776 127.138C981.253 128.01 980.636 129.046 980.101 130.026ZM1005.89 144.393C1005.89 144.392 1005.91 144.361 1005.94 144.304C1005.9 144.366 1005.89 144.394 1005.89 144.393Z" clip-rule="evenodd" fill-rule="evenodd"></path>
<path fill="#2A2A2B" d="M1099.02 152.419C1099.02 152.419 1080.16 155.756 1066.87 155.756C1053.84 155.756 1038.43 152.419 1038.43 152.419L1032.14 247.257H1142L1099.02 152.419Z"></path>
<path fill="#F54E57" d="M1067.05 155.686C1063.95 155.686 1060.47 155.499 1056.95 155.213L1053 247.257H1106.5L1080.41 154.915C1075.91 155.362 1071.21 155.686 1067.05 155.686Z"></path>
<path fill="#2A2A2B" d="M1003.19 166.441C1003.37 166.756 1003.45 166.847 1003.89 167.004C1005.24 167.481 1005.64 167.326 1006.08 167.159C1006.09 167.154 1006.11 167.149 1006.12 167.143C1007.35 166.677 1008.87 165.678 1012.3 163.033C1012.58 162.817 1012.88 162.587 1013.19 162.344C1019.12 157.727 1030.87 148.571 1047.68 153.155L1039.91 181.631L1039.89 181.625C1038.12 181.143 1037.42 180.95 1030.31 186.422C1030.21 186.495 1030.12 186.569 1030.02 186.645C1027.07 188.92 1022.35 192.554 1016.6 194.738C1009.88 197.289 1002.28 197.75 994.021 194.82C978.366 189.263 973.258 174.908 972.691 163.245C972.127 151.663 975.484 139.28 980.292 129.32L1006.87 142.152C1003.61 148.904 1001.91 156.357 1002.17 161.81C1002.3 164.457 1002.85 165.869 1003.19 166.441Z" clip-rule="evenodd" fill-rule="evenodd"></path>
<path fill="#2A2A2B" d="M1122.27 186.23C1116.78 180.316 1110.7 177.888 1103.67 179.938L1095.74 152.749C1116.15 146.795 1132.72 155.869 1143.02 166.956C1148.13 172.462 1152.06 178.751 1154.73 184.796C1157.33 190.658 1159.17 197.227 1159.17 203.337C1159.17 207.141 1158.5 212.021 1155.5 216.436C1152.17 221.323 1147.36 223.664 1142.97 224.471C1139.03 225.194 1135.32 224.741 1132.63 224.234C1129.81 223.701 1126.97 222.867 1124.44 222.062C1122.34 221.393 1120.46 220.753 1118.66 220.141C1115.57 219.091 1112.74 218.126 1109.47 217.242C1104.6 215.923 1101.02 215.489 1098.44 215.778L1095.29 187.632C1103.12 186.755 1110.76 188.25 1116.87 189.904C1120.31 190.834 1124.03 192.059 1127.28 193.15C1125.91 190.719 1124.22 188.329 1122.27 186.23ZM1130.84 203.558C1130.83 203.557 1130.84 203.53 1130.84 203.478C1130.84 203.533 1130.84 203.559 1130.84 203.558Z" clip-rule="evenodd" fill-rule="evenodd"></path>
<path fill="#9BA3A2" d="M1050.29 172.796C1049.86 169.698 1052.02 166.834 1055.12 166.399L1094.25 160.898C1097.35 160.463 1100.21 162.621 1100.65 165.719L1108.61 222.393C1109.05 225.491 1106.89 228.355 1103.79 228.791L1064.66 234.291C1061.56 234.726 1058.69 232.568 1058.26 229.47L1050.29 172.796Z"></path>
<path fill="#DAE5E4" d="M1054.63 172.186C1054.2 169.089 1056.36 166.224 1059.45 165.789L1098.59 160.289C1101.69 159.853 1104.55 162.012 1104.99 165.11L1112.95 221.783C1113.39 224.881 1111.23 227.746 1108.13 228.181L1069 233.681C1065.9 234.117 1063.03 231.958 1062.6 228.86L1054.63 172.186Z"></path>
<path fill="#F4333D" d="M1077.83 175.868L1087.93 174.449C1091.28 173.978 1092.96 173.743 1094.84 174.059C1096.91 174.499 1098.68 175.831 1099.67 177.699C1100.49 179.422 1100.73 181.096 1101.2 184.445L1102.62 194.544C1103.09 197.893 1103.32 199.567 1103.01 201.45C1102.57 203.519 1101.24 205.287 1099.37 206.28C1097.64 207.103 1095.97 207.339 1092.62 207.809L1082.52 209.229C1079.17 209.699 1077.5 209.935 1075.62 209.618C1073.55 209.178 1071.78 207.846 1070.79 205.978C1069.96 204.256 1069.73 202.582 1069.26 199.232L1067.84 189.134C1067.37 185.785 1067.13 184.11 1067.45 182.227C1067.89 180.158 1069.22 178.39 1071.09 177.397C1072.81 176.574 1074.48 176.339 1077.83 175.868Z" clip-rule="evenodd" fill-rule="evenodd"></path>
<path fill="white" d="M1080.41 185.056C1080.7 187.102 1082.51 188.466 1084.55 188.179C1086.6 187.891 1087.96 186.081 1087.68 184.035C1087.39 181.989 1085.58 180.625 1083.53 180.912C1081.49 181.2 1080.12 183.01 1080.41 185.056ZM1090.48 201.825L1082.62 202.929L1082.47 189.706C1083.77 189.906 1085.78 189.624 1086.98 189.073L1090.48 201.825Z" clip-rule="evenodd" fill-rule="evenodd"></path>
<path fill="#FB8266" d="M1120.05 219.135C1117.23 218.276 1114.62 217.478 1111.42 216.698C1106.52 215.499 1102.73 215.062 1099.85 215.385L1096.87 188.725C1104.39 187.882 1111.78 189.17 1117.79 190.638C1118.29 190.759 1118.8 190.889 1119.32 191.023L1124.31 220.413C1122.78 219.969 1121.39 219.545 1120.05 219.135L1120.05 219.135Z"></path>
<path fill="#56271F" d="M1070.96 105.035C1062.52 116.27 1049.58 120.787 1042.05 115.128C1040.35 113.853 1039.07 112.182 1038.23 110.22C1038.24 110.201 1038.26 110.182 1038.29 110.144C1038.49 109.852 1038.7 109.568 1038.91 109.285C1044.02 102.487 1050.36 97.5022 1056.71 94.7984C1063.49 91.8879 1070.29 91.5617 1075.62 94.3258C1075.89 94.4688 1076.15 94.6022 1076.4 94.764C1075.27 98.1963 1073.44 101.73 1070.96 105.035Z"></path>
<path fill="#FFC46B" d="M925 254.213C925 246.794 931.014 240.78 938.433 240.78H1227.57C1234.99 240.78 1241 246.794 1241 254.213V259.011H925V254.213Z"></path>
</svg>
