<svg xmlns="http://www.w3.org/2000/svg" fill="none" viewBox="0 0 1423 344" height="344" width="1423">
<rect fill="#F0F4F6" height="344" width="1423"></rect>
<path fill="#344054" d="M130.12 129.296V164H123.64V148.832H107.344V164H100.864V129.296H107.344V144.224H123.64V129.296H130.12ZM152.026 148.856C152.026 148.088 151.914 147.368 151.69 146.696C151.482 146.008 151.162 145.408 150.73 144.896C150.298 144.384 149.746 143.984 149.074 143.696C148.418 143.392 147.65 143.24 146.77 143.24C145.058 143.24 143.706 143.728 142.714 144.704C141.738 145.68 141.114 147.064 140.842 148.856H152.026ZM140.722 152.432C140.818 153.696 141.042 154.792 141.394 155.72C141.746 156.632 142.21 157.392 142.786 158C143.362 158.592 144.042 159.04 144.826 159.344C145.626 159.632 146.506 159.776 147.466 159.776C148.426 159.776 149.25 159.664 149.938 159.44C150.642 159.216 151.25 158.968 151.762 158.696C152.29 158.424 152.746 158.176 153.13 157.952C153.53 157.728 153.914 157.616 154.282 157.616C154.778 157.616 155.146 157.8 155.386 158.168L157.09 160.328C156.434 161.096 155.698 161.744 154.882 162.272C154.066 162.784 153.21 163.2 152.314 163.52C151.434 163.824 150.53 164.04 149.602 164.168C148.69 164.296 147.802 164.36 146.938 164.36C145.226 164.36 143.634 164.08 142.162 163.52C140.69 162.944 139.41 162.104 138.322 161C137.234 159.88 136.378 158.504 135.754 156.872C135.13 155.224 134.818 153.32 134.818 151.16C134.818 149.48 135.09 147.904 135.634 146.432C136.178 144.944 136.954 143.656 137.962 142.568C138.986 141.464 140.226 140.592 141.682 139.952C143.154 139.312 144.81 138.992 146.65 138.992C148.202 138.992 149.634 139.24 150.946 139.736C152.258 140.232 153.386 140.96 154.33 141.92C155.274 142.864 156.01 144.032 156.538 145.424C157.082 146.8 157.354 148.376 157.354 150.152C157.354 151.048 157.258 151.656 157.066 151.976C156.874 152.28 156.506 152.432 155.962 152.432H140.722ZM167.803 128.336V164H161.875V128.336H167.803ZM179.709 128.336V164H173.781V128.336H179.709ZM196.512 138.992C198.336 138.992 199.992 139.288 201.48 139.88C202.984 140.472 204.264 141.312 205.32 142.4C206.391 143.488 207.215 144.816 207.792 146.384C208.368 147.952 208.656 149.704 208.656 151.64C208.656 153.592 208.368 155.352 207.792 156.92C207.215 158.488 206.391 159.824 205.32 160.928C204.264 162.032 202.984 162.88 201.48 163.472C199.992 164.064 198.336 164.36 196.512 164.36C194.672 164.36 193 164.064 191.496 163.472C189.992 162.88 188.704 162.032 187.632 160.928C186.576 159.824 185.752 158.488 185.16 156.92C184.584 155.352 184.296 153.592 184.296 151.64C184.296 149.704 184.584 147.952 185.16 146.384C185.752 144.816 186.576 143.488 187.632 142.4C188.704 141.312 189.992 140.472 191.496 139.88C193 139.288 194.672 138.992 196.512 138.992ZM196.512 159.8C198.56 159.8 200.072 159.112 201.048 157.736C202.04 156.36 202.536 154.344 202.536 151.688C202.536 149.032 202.04 147.008 201.048 145.616C200.072 144.224 198.56 143.528 196.512 143.528C194.432 143.528 192.888 144.232 191.88 145.64C190.888 147.032 190.392 149.048 190.392 151.688C190.392 154.328 190.888 156.344 191.88 157.736C192.888 159.112 194.432 159.8 196.512 159.8ZM213.082 169.88C212.794 169.64 212.65 169.344 212.65 168.992C212.65 168.864 212.69 168.72 212.77 168.56C212.866 168.4 212.978 168.256 213.106 168.128C213.282 167.936 213.498 167.696 213.754 167.408C214.01 167.136 214.266 166.816 214.522 166.448C214.778 166.096 215.01 165.704 215.218 165.272C215.442 164.856 215.61 164.408 215.722 163.928C215.21 163.928 214.746 163.84 214.33 163.664C213.914 163.472 213.554 163.216 213.25 162.896C212.962 162.576 212.73 162.2 212.554 161.768C212.394 161.336 212.314 160.864 212.314 160.352C212.314 159.904 212.394 159.488 212.554 159.104C212.73 158.704 212.97 158.36 213.274 158.072C213.578 157.768 213.946 157.536 214.378 157.376C214.81 157.2 215.282 157.112 215.794 157.112C216.402 157.112 216.93 157.224 217.378 157.448C217.842 157.656 218.218 157.952 218.506 158.336C218.81 158.704 219.034 159.136 219.178 159.632C219.338 160.112 219.418 160.624 219.418 161.168C219.418 161.936 219.298 162.744 219.058 163.592C218.834 164.44 218.498 165.288 218.05 166.136C217.602 166.984 217.042 167.808 216.37 168.608C215.714 169.408 214.962 170.144 214.114 170.816L213.082 169.88ZM105.856 200.016C106.816 199.12 107.872 198.392 109.024 197.832C110.176 197.272 111.528 196.992 113.08 196.992C114.424 196.992 115.616 197.224 116.656 197.688C117.696 198.136 118.56 198.776 119.248 199.608C119.952 200.424 120.48 201.408 120.832 202.56C121.2 203.696 121.384 204.952 121.384 206.328V222H115.456V206.328C115.456 204.824 115.112 203.664 114.424 202.848C113.736 202.016 112.688 201.6 111.28 201.6C110.256 201.6 109.296 201.832 108.4 202.296C107.504 202.76 106.656 203.392 105.856 204.192V222H99.928V186.336H105.856V200.016ZM137.918 196.992C139.742 196.992 141.398 197.288 142.886 197.88C144.39 198.472 145.67 199.312 146.726 200.4C147.798 201.488 148.622 202.816 149.198 204.384C149.774 205.952 150.062 207.704 150.062 209.64C150.062 211.592 149.774 213.352 149.198 214.92C148.622 216.488 147.798 217.824 146.726 218.928C145.67 220.032 144.39 220.88 142.886 221.472C141.398 222.064 139.742 222.36 137.918 222.36C136.078 222.36 134.406 222.064 132.902 221.472C131.398 220.88 130.11 220.032 129.038 218.928C127.982 217.824 127.158 216.488 126.566 214.92C125.99 213.352 125.702 211.592 125.702 209.64C125.702 207.704 125.99 205.952 126.566 204.384C127.158 202.816 127.982 201.488 129.038 200.4C130.11 199.312 131.398 198.472 132.902 197.88C134.406 197.288 136.078 196.992 137.918 196.992ZM137.918 217.8C139.966 217.8 141.478 217.112 142.454 215.736C143.446 214.36 143.942 212.344 143.942 209.688C143.942 207.032 143.446 205.008 142.454 203.616C141.478 202.224 139.966 201.528 137.918 201.528C135.838 201.528 134.294 202.232 133.286 203.64C132.294 205.032 131.798 207.048 131.798 209.688C131.798 212.328 132.294 214.344 133.286 215.736C134.294 217.112 135.838 217.8 137.918 217.8ZM189.322 197.376L181.498 222H176.746C176.202 222 175.826 221.648 175.618 220.944L171.202 206.712C171.058 206.232 170.922 205.76 170.794 205.296C170.682 204.816 170.586 204.336 170.506 203.856C170.41 204.336 170.298 204.824 170.17 205.32C170.058 205.8 169.93 206.28 169.786 206.76L165.298 220.944C165.106 221.648 164.682 222 164.026 222H159.466L151.666 197.376H156.394C156.826 197.376 157.194 197.48 157.498 197.688C157.802 197.896 158.002 198.16 158.098 198.48L161.626 211.632C161.802 212.352 161.954 213.056 162.082 213.744C162.226 214.432 162.346 215.12 162.442 215.808C162.618 215.12 162.802 214.432 162.994 213.744C163.202 213.056 163.418 212.352 163.642 211.632L167.722 198.432C167.818 198.112 168.002 197.848 168.274 197.64C168.562 197.432 168.906 197.328 169.306 197.328H171.922C172.338 197.328 172.69 197.432 172.978 197.64C173.282 197.848 173.482 198.112 173.578 198.432L177.538 211.632C177.746 212.352 177.938 213.064 178.114 213.768C178.306 214.456 178.49 215.144 178.666 215.832C178.874 214.472 179.17 213.072 179.554 211.632L183.178 198.48C183.29 198.16 183.49 197.896 183.778 197.688C184.066 197.48 184.41 197.376 184.81 197.376H189.322ZM221.021 202.584C220.845 202.808 220.669 202.984 220.493 203.112C220.333 203.24 220.093 203.304 219.773 203.304C219.469 203.304 219.173 203.216 218.885 203.04C218.597 202.848 218.253 202.64 217.853 202.416C217.453 202.176 216.973 201.968 216.413 201.792C215.869 201.6 215.189 201.504 214.373 201.504C213.333 201.504 212.421 201.696 211.637 202.08C210.853 202.448 210.197 202.984 209.669 203.688C209.157 204.392 208.773 205.248 208.517 206.256C208.261 207.248 208.133 208.376 208.133 209.64C208.133 210.952 208.269 212.12 208.541 213.144C208.829 214.168 209.237 215.032 209.765 215.736C210.293 216.424 210.933 216.952 211.685 217.32C212.437 217.672 213.285 217.848 214.229 217.848C215.173 217.848 215.933 217.736 216.509 217.512C217.101 217.272 217.597 217.016 217.997 216.744C218.397 216.456 218.741 216.2 219.029 215.976C219.333 215.736 219.669 215.616 220.037 215.616C220.517 215.616 220.877 215.8 221.117 216.168L222.821 218.328C222.165 219.096 221.453 219.744 220.685 220.272C219.917 220.784 219.117 221.2 218.285 221.52C217.469 221.824 216.621 222.04 215.741 222.168C214.877 222.296 214.013 222.36 213.149 222.36C211.629 222.36 210.197 222.08 208.853 221.52C207.509 220.944 206.333 220.112 205.325 219.024C204.317 217.936 203.517 216.608 202.925 215.04C202.349 213.456 202.061 211.656 202.061 209.64C202.061 207.832 202.317 206.16 202.829 204.624C203.357 203.072 204.125 201.736 205.133 200.616C206.141 199.48 207.389 198.592 208.877 197.952C210.365 197.312 212.077 196.992 214.013 196.992C215.853 196.992 217.461 197.288 218.837 197.88C220.229 198.472 221.477 199.32 222.581 200.424L221.021 202.584ZM239.545 211.488C237.833 211.568 236.393 211.72 235.225 211.944C234.057 212.152 233.121 212.424 232.417 212.76C231.713 213.096 231.209 213.488 230.905 213.936C230.601 214.384 230.449 214.872 230.449 215.4C230.449 216.44 230.753 217.184 231.361 217.632C231.985 218.08 232.793 218.304 233.785 218.304C235.001 218.304 236.049 218.088 236.929 217.656C237.825 217.208 238.697 216.536 239.545 215.64V211.488ZM225.961 200.808C228.793 198.216 232.201 196.92 236.185 196.92C237.625 196.92 238.913 197.16 240.049 197.64C241.185 198.104 242.145 198.76 242.929 199.608C243.713 200.44 244.305 201.44 244.705 202.608C245.121 203.776 245.329 205.056 245.329 206.448V222H242.641C242.081 222 241.649 221.92 241.345 221.76C241.041 221.584 240.801 221.24 240.625 220.728L240.097 218.952C239.473 219.512 238.865 220.008 238.273 220.44C237.681 220.856 237.065 221.208 236.425 221.496C235.785 221.784 235.097 222 234.361 222.144C233.641 222.304 232.841 222.384 231.961 222.384C230.921 222.384 229.961 222.248 229.081 221.976C228.201 221.688 227.441 221.264 226.801 220.704C226.161 220.144 225.665 219.448 225.313 218.616C224.961 217.784 224.785 216.816 224.785 215.712C224.785 215.088 224.889 214.472 225.097 213.864C225.305 213.24 225.641 212.648 226.105 212.088C226.585 211.528 227.201 211 227.953 210.504C228.705 210.008 229.625 209.576 230.713 209.208C231.817 208.84 233.097 208.544 234.553 208.32C236.009 208.08 237.673 207.936 239.545 207.888V206.448C239.545 204.8 239.193 203.584 238.489 202.8C237.785 202 236.769 201.6 235.441 201.6C234.481 201.6 233.681 201.712 233.041 201.936C232.417 202.16 231.865 202.416 231.385 202.704C230.905 202.976 230.465 203.224 230.065 203.448C229.681 203.672 229.249 203.784 228.769 203.784C228.353 203.784 228.001 203.68 227.713 203.472C227.425 203.248 227.193 202.992 227.017 202.704L225.961 200.808ZM256.456 200.4C256.952 199.904 257.472 199.448 258.016 199.032C258.576 198.6 259.16 198.24 259.768 197.952C260.392 197.648 261.056 197.416 261.76 197.256C262.464 197.08 263.232 196.992 264.064 196.992C265.408 196.992 266.6 197.224 267.64 197.688C268.68 198.136 269.544 198.776 270.232 199.608C270.936 200.424 271.464 201.408 271.816 202.56C272.184 203.696 272.368 204.952 272.368 206.328V222H266.44V206.328C266.44 204.824 266.096 203.664 265.408 202.848C264.72 202.016 263.672 201.6 262.264 201.6C261.24 201.6 260.28 201.832 259.384 202.296C258.488 202.76 257.64 203.392 256.84 204.192V222H250.912V197.376H254.536C255.304 197.376 255.808 197.736 256.048 198.456L256.456 200.4ZM323.854 197.376L316.03 222H311.278C310.734 222 310.358 221.648 310.15 220.944L305.734 206.712C305.59 206.232 305.454 205.76 305.326 205.296C305.214 204.816 305.118 204.336 305.038 203.856C304.942 204.336 304.83 204.824 304.702 205.32C304.59 205.8 304.462 206.28 304.318 206.76L299.83 220.944C299.638 221.648 299.214 222 298.558 222H293.998L286.198 197.376H290.926C291.358 197.376 291.726 197.48 292.03 197.688C292.334 197.896 292.534 198.16 292.63 198.48L296.158 211.632C296.334 212.352 296.486 213.056 296.614 213.744C296.758 214.432 296.878 215.12 296.974 215.808C297.15 215.12 297.334 214.432 297.526 213.744C297.734 213.056 297.95 212.352 298.174 211.632L302.254 198.432C302.35 198.112 302.534 197.848 302.806 197.64C303.094 197.432 303.438 197.328 303.838 197.328H306.454C306.87 197.328 307.222 197.432 307.51 197.64C307.814 197.848 308.014 198.112 308.11 198.432L312.07 211.632C312.278 212.352 312.47 213.064 312.646 213.768C312.838 214.456 313.022 215.144 313.198 215.832C313.406 214.472 313.702 213.072 314.086 211.632L317.71 198.48C317.822 198.16 318.022 197.896 318.31 197.688C318.598 197.48 318.942 197.376 319.342 197.376H323.854ZM342.667 206.856C342.667 206.088 342.555 205.368 342.331 204.696C342.123 204.008 341.803 203.408 341.371 202.896C340.939 202.384 340.387 201.984 339.715 201.696C339.059 201.392 338.291 201.24 337.411 201.24C335.699 201.24 334.347 201.728 333.355 202.704C332.379 203.68 331.755 205.064 331.483 206.856H342.667ZM331.363 210.432C331.459 211.696 331.683 212.792 332.035 213.72C332.387 214.632 332.851 215.392 333.427 216C334.003 216.592 334.683 217.04 335.467 217.344C336.267 217.632 337.147 217.776 338.107 217.776C339.067 217.776 339.891 217.664 340.579 217.44C341.283 217.216 341.891 216.968 342.403 216.696C342.931 216.424 343.387 216.176 343.771 215.952C344.171 215.728 344.555 215.616 344.923 215.616C345.419 215.616 345.787 215.8 346.027 216.168L347.731 218.328C347.075 219.096 346.339 219.744 345.523 220.272C344.707 220.784 343.851 221.2 342.955 221.52C342.075 221.824 341.171 222.04 340.243 222.168C339.331 222.296 338.443 222.36 337.579 222.36C335.867 222.36 334.275 222.08 332.803 221.52C331.331 220.944 330.051 220.104 328.963 219C327.875 217.88 327.019 216.504 326.395 214.872C325.771 213.224 325.459 211.32 325.459 209.16C325.459 207.48 325.731 205.904 326.275 204.432C326.819 202.944 327.595 201.656 328.603 200.568C329.627 199.464 330.867 198.592 332.323 197.952C333.795 197.312 335.451 196.992 337.291 196.992C338.843 196.992 340.275 197.24 341.587 197.736C342.899 198.232 344.027 198.96 344.971 199.92C345.915 200.864 346.651 202.032 347.179 203.424C347.723 204.8 347.995 206.376 347.995 208.152C347.995 209.048 347.899 209.656 347.707 209.976C347.515 210.28 347.147 210.432 346.603 210.432H331.363ZM370.044 200.016C371.004 199.12 372.06 198.392 373.212 197.832C374.364 197.272 375.716 196.992 377.268 196.992C378.612 196.992 379.804 197.224 380.844 197.688C381.884 198.136 382.748 198.776 383.436 199.608C384.14 200.424 384.668 201.408 385.02 202.56C385.388 203.696 385.572 204.952 385.572 206.328V222H379.644V206.328C379.644 204.824 379.3 203.664 378.612 202.848C377.924 202.016 376.876 201.6 375.468 201.6C374.444 201.6 373.484 201.832 372.588 202.296C371.692 202.76 370.844 203.392 370.044 204.192V222H364.116V186.336H370.044V200.016ZM407.073 206.856C407.073 206.088 406.961 205.368 406.737 204.696C406.529 204.008 406.209 203.408 405.777 202.896C405.345 202.384 404.793 201.984 404.121 201.696C403.465 201.392 402.697 201.24 401.817 201.24C400.105 201.24 398.753 201.728 397.761 202.704C396.785 203.68 396.161 205.064 395.889 206.856H407.073ZM395.769 210.432C395.865 211.696 396.089 212.792 396.441 213.72C396.793 214.632 397.257 215.392 397.833 216C398.409 216.592 399.089 217.04 399.873 217.344C400.673 217.632 401.553 217.776 402.513 217.776C403.473 217.776 404.297 217.664 404.985 217.44C405.689 217.216 406.297 216.968 406.809 216.696C407.337 216.424 407.793 216.176 408.177 215.952C408.577 215.728 408.961 215.616 409.329 215.616C409.825 215.616 410.193 215.8 410.433 216.168L412.137 218.328C411.481 219.096 410.745 219.744 409.929 220.272C409.113 220.784 408.257 221.2 407.361 221.52C406.481 221.824 405.577 222.04 404.649 222.168C403.737 222.296 402.849 222.36 401.985 222.36C400.273 222.36 398.681 222.08 397.209 221.52C395.737 220.944 394.457 220.104 393.369 219C392.281 217.88 391.425 216.504 390.801 214.872C390.177 213.224 389.865 211.32 389.865 209.16C389.865 207.48 390.137 205.904 390.681 204.432C391.225 202.944 392.001 201.656 393.009 200.568C394.033 199.464 395.273 198.592 396.729 197.952C398.201 197.312 399.857 196.992 401.697 196.992C403.249 196.992 404.681 197.24 405.993 197.736C407.305 198.232 408.433 198.96 409.377 199.92C410.321 200.864 411.057 202.032 411.585 203.424C412.129 204.8 412.401 206.376 412.401 208.152C412.401 209.048 412.305 209.656 412.113 209.976C411.921 210.28 411.553 210.432 411.009 210.432H395.769ZM422.85 186.336V222H416.922V186.336H422.85ZM434.684 215.616C435.356 216.432 436.084 217.008 436.868 217.344C437.668 217.68 438.532 217.848 439.46 217.848C440.356 217.848 441.164 217.68 441.884 217.344C442.604 217.008 443.212 216.496 443.708 215.808C444.22 215.12 444.612 214.256 444.884 213.216C445.156 212.16 445.292 210.92 445.292 209.496C445.292 208.056 445.172 206.84 444.932 205.848C444.708 204.84 444.38 204.024 443.948 203.4C443.516 202.776 442.988 202.32 442.364 202.032C441.756 201.744 441.06 201.6 440.276 201.6C439.044 201.6 437.996 201.864 437.132 202.392C436.268 202.904 435.452 203.632 434.684 204.576V215.616ZM434.372 200.736C435.38 199.6 436.524 198.68 437.804 197.976C439.084 197.272 440.588 196.92 442.316 196.92C443.66 196.92 444.884 197.2 445.988 197.76C447.108 198.32 448.068 199.136 448.868 200.208C449.684 201.264 450.308 202.576 450.74 204.144C451.188 205.696 451.412 207.48 451.412 209.496C451.412 211.336 451.164 213.04 450.668 214.608C450.172 216.176 449.46 217.536 448.532 218.688C447.62 219.84 446.508 220.744 445.196 221.4C443.9 222.04 442.444 222.36 440.828 222.36C439.452 222.36 438.276 222.152 437.3 221.736C436.324 221.304 435.452 220.712 434.684 219.96V230.04H428.756V197.376H432.38C433.148 197.376 433.652 197.736 433.892 198.456L434.372 200.736ZM488.859 197.376L475.443 228.768C475.267 229.184 475.035 229.496 474.747 229.704C474.475 229.928 474.051 230.04 473.475 230.04H469.059L473.667 220.152L463.707 197.376H468.915C469.379 197.376 469.739 197.488 469.995 197.712C470.267 197.936 470.467 198.192 470.595 198.48L475.827 211.248C476.003 211.68 476.147 212.112 476.259 212.544C476.387 212.976 476.507 213.416 476.619 213.864C476.763 213.416 476.907 212.976 477.051 212.544C477.195 212.096 477.355 211.656 477.531 211.224L482.475 198.48C482.603 198.16 482.811 197.896 483.099 197.688C483.403 197.48 483.739 197.376 484.107 197.376H488.859ZM501.949 196.992C503.773 196.992 505.429 197.288 506.917 197.88C508.421 198.472 509.701 199.312 510.757 200.4C511.829 201.488 512.653 202.816 513.229 204.384C513.805 205.952 514.093 207.704 514.093 209.64C514.093 211.592 513.805 213.352 513.229 214.92C512.653 216.488 511.829 217.824 510.757 218.928C509.701 220.032 508.421 220.88 506.917 221.472C505.429 222.064 503.773 222.36 501.949 222.36C500.109 222.36 498.437 222.064 496.933 221.472C495.429 220.88 494.141 220.032 493.069 218.928C492.013 217.824 491.189 216.488 490.597 214.92C490.021 213.352 489.733 211.592 489.733 209.64C489.733 207.704 490.021 205.952 490.597 204.384C491.189 202.816 492.013 201.488 493.069 200.4C494.141 199.312 495.429 198.472 496.933 197.88C498.437 197.288 500.109 196.992 501.949 196.992ZM501.949 217.8C503.997 217.8 505.509 217.112 506.485 215.736C507.477 214.36 507.973 212.344 507.973 209.688C507.973 207.032 507.477 205.008 506.485 203.616C505.509 202.224 503.997 201.528 501.949 201.528C499.869 201.528 498.325 202.232 497.317 203.64C496.325 205.032 495.829 207.048 495.829 209.688C495.829 212.328 496.325 214.344 497.317 215.736C498.325 217.112 499.869 217.8 501.949 217.8ZM539.832 197.376V222H536.208C535.424 222 534.928 221.64 534.72 220.92L534.312 218.952C533.304 219.976 532.192 220.808 530.976 221.448C529.76 222.072 528.328 222.384 526.68 222.384C525.336 222.384 524.144 222.16 523.104 221.712C522.08 221.248 521.216 220.6 520.512 219.768C519.808 218.936 519.272 217.952 518.904 216.816C518.552 215.664 518.376 214.4 518.376 213.024V197.376H524.304V213.024C524.304 214.528 524.648 215.696 525.336 216.528C526.04 217.344 527.088 217.752 528.48 217.752C529.504 217.752 530.464 217.528 531.36 217.08C532.256 216.616 533.104 215.984 533.904 215.184V197.376H539.832ZM543.876 190.44C544.42 189.96 545.012 189.504 545.652 189.072C546.308 188.64 547.012 188.264 547.764 187.944C548.516 187.624 549.332 187.376 550.212 187.2C551.092 187.008 552.044 186.912 553.068 186.912C554.46 186.912 555.724 187.104 556.86 187.488C558.012 187.872 558.996 188.424 559.812 189.144C560.628 189.848 561.26 190.704 561.708 191.712C562.156 192.72 562.38 193.848 562.38 195.096C562.38 196.312 562.204 197.368 561.852 198.264C561.5 199.144 561.06 199.912 560.532 200.568C560.004 201.224 559.42 201.792 558.78 202.272C558.156 202.752 557.564 203.208 557.004 203.64C556.444 204.056 555.956 204.472 555.54 204.888C555.14 205.288 554.9 205.744 554.82 206.256L554.268 209.76H550.212L549.804 205.848C549.708 205.096 549.812 204.44 550.116 203.88C550.436 203.304 550.852 202.784 551.364 202.32C551.892 201.84 552.476 201.384 553.116 200.952C553.756 200.504 554.356 200.024 554.916 199.512C555.476 198.984 555.94 198.4 556.308 197.76C556.692 197.104 556.884 196.328 556.884 195.432C556.884 194.856 556.772 194.344 556.548 193.896C556.34 193.432 556.044 193.04 555.66 192.72C555.276 192.384 554.812 192.128 554.268 191.952C553.74 191.776 553.164 191.688 552.54 191.688C551.628 191.688 550.852 191.792 550.212 192C549.588 192.192 549.052 192.416 548.604 192.672C548.172 192.912 547.804 193.136 547.5 193.344C547.196 193.536 546.924 193.632 546.684 193.632C546.108 193.632 545.692 193.392 545.436 192.912L543.876 190.44ZM548.412 218.736C548.412 218.24 548.5 217.768 548.676 217.32C548.868 216.872 549.124 216.488 549.444 216.168C549.764 215.848 550.148 215.592 550.596 215.4C551.044 215.208 551.524 215.112 552.036 215.112C552.548 215.112 553.02 215.208 553.452 215.4C553.9 215.592 554.284 215.848 554.604 216.168C554.94 216.488 555.204 216.872 555.396 217.32C555.588 217.768 555.684 218.24 555.684 218.736C555.684 219.248 555.588 219.728 555.396 220.176C555.204 220.608 554.94 220.984 554.604 221.304C554.284 221.624 553.9 221.872 553.452 222.048C553.02 222.24 552.548 222.336 552.036 222.336C551.524 222.336 551.044 222.24 550.596 222.048C550.148 221.872 549.764 221.624 549.444 221.304C549.124 220.984 548.868 220.608 548.676 220.176C548.5 219.728 548.412 219.248 548.412 218.736Z"></path>
<path fill="#F4333D" d="M110.965 85.255C110.845 85.465 110.715 85.62 110.575 85.72C110.445 85.81 110.28 85.855 110.08 85.855C109.87 85.855 109.64 85.78 109.39 85.63C109.15 85.47 108.86 85.295 108.52 85.105C108.18 84.915 107.78 84.745 107.32 84.595C106.87 84.435 106.335 84.355 105.715 84.355C105.155 84.355 104.665 84.425 104.245 84.565C103.825 84.695 103.47 84.88 103.18 85.12C102.9 85.36 102.69 85.65 102.55 85.99C102.41 86.32 102.34 86.685 102.34 87.085C102.34 87.595 102.48 88.02 102.76 88.36C103.05 88.7 103.43 88.99 103.9 89.23C104.37 89.47 104.905 89.685 105.505 89.875C106.105 90.065 106.72 90.27 107.35 90.49C107.98 90.7 108.595 90.95 109.195 91.24C109.795 91.52 110.33 91.88 110.8 92.32C111.27 92.75 111.645 93.28 111.925 93.91C112.215 94.54 112.36 95.305 112.36 96.205C112.36 97.185 112.19 98.105 111.85 98.965C111.52 99.815 111.03 100.56 110.38 101.2C109.74 101.83 108.955 102.33 108.025 102.7C107.095 103.06 106.03 103.24 104.83 103.24C104.14 103.24 103.46 103.17 102.79 103.03C102.12 102.9 101.475 102.71 100.855 102.46C100.245 102.21 99.67 101.91 99.13 101.56C98.59 101.21 98.11 100.82 97.69 100.39L98.875 98.455C98.975 98.315 99.105 98.2 99.265 98.11C99.425 98.01 99.595 97.96 99.775 97.96C100.025 97.96 100.295 98.065 100.585 98.275C100.875 98.475 101.22 98.7 101.62 98.95C102.02 99.2 102.485 99.43 103.015 99.64C103.555 99.84 104.2 99.94 104.95 99.94C106.1 99.94 106.99 99.67 107.62 99.13C108.25 98.58 108.565 97.795 108.565 96.775C108.565 96.205 108.42 95.74 108.13 95.38C107.85 95.02 107.475 94.72 107.005 94.48C106.535 94.23 106 94.02 105.4 93.85C104.8 93.68 104.19 93.495 103.57 93.295C102.95 93.095 102.34 92.855 101.74 92.575C101.14 92.295 100.605 91.93 100.135 91.48C99.665 91.03 99.285 90.47 98.995 89.8C98.715 89.12 98.575 88.285 98.575 87.295C98.575 86.505 98.73 85.735 99.04 84.985C99.36 84.235 99.82 83.57 100.42 82.99C101.02 82.41 101.76 81.945 102.64 81.595C103.52 81.245 104.53 81.07 105.67 81.07C106.95 81.07 108.13 81.27 109.21 81.67C110.29 82.07 111.21 82.63 111.97 83.35L110.965 85.255ZM119.076 87.61V103H115.356V87.61H119.076ZM119.586 83.125C119.586 83.445 119.521 83.745 119.391 84.025C119.261 84.305 119.086 84.55 118.866 84.76C118.656 84.97 118.406 85.14 118.116 85.27C117.826 85.39 117.516 85.45 117.186 85.45C116.866 85.45 116.561 85.39 116.271 85.27C115.991 85.14 115.746 84.97 115.536 84.76C115.326 84.55 115.156 84.305 115.026 84.025C114.906 83.745 114.846 83.445 114.846 83.125C114.846 82.795 114.906 82.485 115.026 82.195C115.156 81.905 115.326 81.655 115.536 81.445C115.746 81.235 115.991 81.07 116.271 80.95C116.561 80.82 116.866 80.755 117.186 80.755C117.516 80.755 117.826 80.82 118.116 80.95C118.406 81.07 118.656 81.235 118.866 81.445C119.086 81.655 119.261 81.905 119.391 82.195C119.521 82.485 119.586 82.795 119.586 83.125ZM126.318 89.5C126.628 89.19 126.953 88.905 127.293 88.645C127.643 88.375 128.008 88.15 128.388 87.97C128.778 87.78 129.193 87.635 129.633 87.535C130.073 87.425 130.553 87.37 131.073 87.37C131.913 87.37 132.658 87.515 133.308 87.805C133.958 88.085 134.498 88.485 134.928 89.005C135.368 89.515 135.698 90.13 135.918 90.85C136.148 91.56 136.263 92.345 136.263 93.205V103H132.558V93.205C132.558 92.265 132.343 91.54 131.913 91.03C131.483 90.51 130.828 90.25 129.948 90.25C129.308 90.25 128.708 90.395 128.148 90.685C127.588 90.975 127.058 91.37 126.558 91.87V103H122.853V87.61H125.118C125.598 87.61 125.913 87.835 126.063 88.285L126.318 89.5ZM145.412 94.93C145.872 94.93 146.272 94.87 146.612 94.75C146.952 94.62 147.232 94.445 147.452 94.225C147.682 94.005 147.852 93.74 147.962 93.43C148.082 93.12 148.142 92.78 148.142 92.41C148.142 91.65 147.912 91.05 147.452 90.61C147.002 90.16 146.322 89.935 145.412 89.935C144.502 89.935 143.817 90.16 143.357 90.61C142.907 91.05 142.682 91.65 142.682 92.41C142.682 92.77 142.737 93.105 142.847 93.415C142.967 93.725 143.137 93.995 143.357 94.225C143.587 94.445 143.872 94.62 144.212 94.75C144.562 94.87 144.962 94.93 145.412 94.93ZM149.597 103.69C149.597 103.39 149.507 103.145 149.327 102.955C149.147 102.765 148.902 102.62 148.592 102.52C148.282 102.41 147.917 102.33 147.497 102.28C147.087 102.23 146.647 102.195 146.177 102.175C145.717 102.145 145.237 102.12 144.737 102.1C144.247 102.08 143.767 102.04 143.297 101.98C142.887 102.21 142.552 102.48 142.292 102.79C142.042 103.1 141.917 103.46 141.917 103.87C141.917 104.14 141.982 104.39 142.112 104.62C142.252 104.86 142.467 105.065 142.757 105.235C143.057 105.405 143.442 105.535 143.912 105.625C144.382 105.725 144.957 105.775 145.637 105.775C146.327 105.775 146.922 105.72 147.422 105.61C147.922 105.51 148.332 105.365 148.652 105.175C148.982 104.995 149.222 104.775 149.372 104.515C149.522 104.265 149.597 103.99 149.597 103.69ZM153.287 88.135V89.515C153.287 89.955 153.022 90.225 152.492 90.325L151.112 90.58C151.322 91.11 151.427 91.69 151.427 92.32C151.427 93.08 151.272 93.77 150.962 94.39C150.662 95 150.242 95.52 149.702 95.95C149.162 96.38 148.522 96.715 147.782 96.955C147.052 97.185 146.262 97.3 145.412 97.3C145.112 97.3 144.822 97.285 144.542 97.255C144.262 97.225 143.987 97.185 143.717 97.135C143.237 97.425 142.997 97.75 142.997 98.11C142.997 98.42 143.137 98.65 143.417 98.8C143.707 98.94 144.087 99.04 144.557 99.1C145.027 99.16 145.562 99.2 146.162 99.22C146.762 99.23 147.377 99.26 148.007 99.31C148.637 99.36 149.252 99.45 149.852 99.58C150.452 99.7 150.987 99.895 151.457 100.165C151.927 100.435 152.302 100.805 152.582 101.275C152.872 101.735 153.017 102.33 153.017 103.06C153.017 103.74 152.847 104.4 152.507 105.04C152.177 105.68 151.692 106.25 151.052 106.75C150.422 107.25 149.642 107.65 148.712 107.95C147.792 108.26 146.742 108.415 145.562 108.415C144.402 108.415 143.392 108.3 142.532 108.07C141.672 107.85 140.957 107.55 140.387 107.17C139.817 106.8 139.392 106.37 139.112 105.88C138.832 105.39 138.692 104.88 138.692 104.35C138.692 103.63 138.907 103.03 139.337 102.55C139.777 102.06 140.377 101.67 141.137 101.38C140.727 101.17 140.402 100.89 140.162 100.54C139.922 100.19 139.802 99.73 139.802 99.16C139.802 98.93 139.842 98.695 139.922 98.455C140.012 98.205 140.137 97.96 140.297 97.72C140.467 97.48 140.677 97.255 140.927 97.045C141.177 96.825 141.472 96.63 141.812 96.46C141.032 96.04 140.417 95.48 139.967 94.78C139.527 94.08 139.307 93.26 139.307 92.32C139.307 91.56 139.457 90.875 139.757 90.265C140.067 89.645 140.492 89.12 141.032 88.69C141.582 88.25 142.227 87.915 142.967 87.685C143.717 87.455 144.532 87.34 145.412 87.34C146.072 87.34 146.692 87.41 147.272 87.55C147.852 87.68 148.382 87.875 148.862 88.135H153.287ZM159.342 99.01C159.762 99.52 160.217 99.88 160.707 100.09C161.207 100.3 161.747 100.405 162.327 100.405C162.887 100.405 163.392 100.3 163.842 100.09C164.292 99.88 164.672 99.56 164.982 99.13C165.302 98.7 165.547 98.16 165.717 97.51C165.887 96.85 165.972 96.075 165.972 95.185C165.972 94.285 165.897 93.525 165.747 92.905C165.607 92.275 165.402 91.765 165.132 91.375C164.862 90.985 164.532 90.7 164.142 90.52C163.762 90.34 163.327 90.25 162.837 90.25C162.067 90.25 161.412 90.415 160.872 90.745C160.332 91.065 159.822 91.52 159.342 92.11V99.01ZM159.147 89.71C159.777 89 160.492 88.425 161.292 87.985C162.092 87.545 163.032 87.325 164.112 87.325C164.952 87.325 165.717 87.5 166.407 87.85C167.107 88.2 167.707 88.71 168.207 89.38C168.717 90.04 169.107 90.86 169.377 91.84C169.657 92.81 169.797 93.925 169.797 95.185C169.797 96.335 169.642 97.4 169.332 98.38C169.022 99.36 168.577 100.21 167.997 100.93C167.427 101.65 166.732 102.215 165.912 102.625C165.102 103.025 164.192 103.225 163.182 103.225C162.322 103.225 161.587 103.095 160.977 102.835C160.367 102.565 159.822 102.195 159.342 101.725V108.025H155.637V87.61H157.902C158.382 87.61 158.697 87.835 158.847 88.285L159.147 89.71ZM180.817 96.43C179.747 96.48 178.847 96.575 178.117 96.715C177.387 96.845 176.802 97.015 176.362 97.225C175.922 97.435 175.607 97.68 175.417 97.96C175.227 98.24 175.132 98.545 175.132 98.875C175.132 99.525 175.322 99.99 175.702 100.27C176.092 100.55 176.597 100.69 177.217 100.69C177.977 100.69 178.632 100.555 179.182 100.285C179.742 100.005 180.287 99.585 180.817 99.025V96.43ZM172.327 89.755C174.097 88.135 176.227 87.325 178.717 87.325C179.617 87.325 180.422 87.475 181.132 87.775C181.842 88.065 182.442 88.475 182.932 89.005C183.422 89.525 183.792 90.15 184.042 90.88C184.302 91.61 184.432 92.41 184.432 93.28V103H182.752C182.402 103 182.132 102.95 181.942 102.85C181.752 102.74 181.602 102.525 181.492 102.205L181.162 101.095C180.772 101.445 180.392 101.755 180.022 102.025C179.652 102.285 179.267 102.505 178.867 102.685C178.467 102.865 178.037 103 177.577 103.09C177.127 103.19 176.627 103.24 176.077 103.24C175.427 103.24 174.827 103.155 174.277 102.985C173.727 102.805 173.252 102.54 172.852 102.19C172.452 101.84 172.142 101.405 171.922 100.885C171.702 100.365 171.592 99.76 171.592 99.07C171.592 98.68 171.657 98.295 171.787 97.915C171.917 97.525 172.127 97.155 172.417 96.805C172.717 96.455 173.102 96.125 173.572 95.815C174.042 95.505 174.617 95.235 175.297 95.005C175.987 94.775 176.787 94.59 177.697 94.45C178.607 94.3 179.647 94.21 180.817 94.18V93.28C180.817 92.25 180.597 91.49 180.157 91C179.717 90.5 179.082 90.25 178.252 90.25C177.652 90.25 177.152 90.32 176.752 90.46C176.362 90.6 176.017 90.76 175.717 90.94C175.417 91.11 175.142 91.265 174.892 91.405C174.652 91.545 174.382 91.615 174.082 91.615C173.822 91.615 173.602 91.55 173.422 91.42C173.242 91.28 173.097 91.12 172.987 90.94L172.327 89.755ZM197.312 90.61C197.212 90.77 197.107 90.885 196.997 90.955C196.887 91.015 196.747 91.045 196.577 91.045C196.397 91.045 196.202 90.995 195.992 90.895C195.792 90.795 195.557 90.685 195.287 90.565C195.017 90.435 194.707 90.32 194.357 90.22C194.017 90.12 193.612 90.07 193.142 90.07C192.412 90.07 191.837 90.225 191.417 90.535C191.007 90.845 190.802 91.25 190.802 91.75C190.802 92.08 190.907 92.36 191.117 92.59C191.337 92.81 191.622 93.005 191.972 93.175C192.332 93.345 192.737 93.5 193.187 93.64C193.637 93.77 194.092 93.915 194.552 94.075C195.022 94.235 195.482 94.42 195.932 94.63C196.382 94.83 196.782 95.09 197.132 95.41C197.492 95.72 197.777 96.095 197.987 96.535C198.207 96.975 198.317 97.505 198.317 98.125C198.317 98.865 198.182 99.55 197.912 100.18C197.652 100.8 197.262 101.34 196.742 101.8C196.222 102.25 195.577 102.605 194.807 102.865C194.047 103.115 193.167 103.24 192.167 103.24C191.637 103.24 191.117 103.19 190.607 103.09C190.107 103 189.622 102.87 189.152 102.7C188.692 102.53 188.262 102.33 187.862 102.1C187.472 101.87 187.127 101.62 186.827 101.35L187.682 99.94C187.792 99.77 187.922 99.64 188.072 99.55C188.222 99.46 188.412 99.415 188.642 99.415C188.872 99.415 189.087 99.48 189.287 99.61C189.497 99.74 189.737 99.88 190.007 100.03C190.277 100.18 190.592 100.32 190.952 100.45C191.322 100.58 191.787 100.645 192.347 100.645C192.787 100.645 193.162 100.595 193.472 100.495C193.792 100.385 194.052 100.245 194.252 100.075C194.462 99.905 194.612 99.71 194.702 99.49C194.802 99.26 194.852 99.025 194.852 98.785C194.852 98.425 194.742 98.13 194.522 97.9C194.312 97.67 194.027 97.47 193.667 97.3C193.317 97.13 192.912 96.98 192.452 96.85C192.002 96.71 191.537 96.56 191.057 96.4C190.587 96.24 190.122 96.055 189.662 95.845C189.212 95.625 188.807 95.35 188.447 95.02C188.097 94.69 187.812 94.285 187.592 93.805C187.382 93.325 187.277 92.745 187.277 92.065C187.277 91.435 187.402 90.835 187.652 90.265C187.902 89.695 188.267 89.2 188.747 88.78C189.237 88.35 189.842 88.01 190.562 87.76C191.292 87.5 192.132 87.37 193.082 87.37C194.142 87.37 195.107 87.545 195.977 87.895C196.847 88.245 197.572 88.705 198.152 89.275L197.312 90.61ZM210.495 90.61C210.395 90.77 210.29 90.885 210.18 90.955C210.07 91.015 209.93 91.045 209.76 91.045C209.58 91.045 209.385 90.995 209.175 90.895C208.975 90.795 208.74 90.685 208.47 90.565C208.2 90.435 207.89 90.32 207.54 90.22C207.2 90.12 206.795 90.07 206.325 90.07C205.595 90.07 205.02 90.225 204.6 90.535C204.19 90.845 203.985 91.25 203.985 91.75C203.985 92.08 204.09 92.36 204.3 92.59C204.52 92.81 204.805 93.005 205.155 93.175C205.515 93.345 205.92 93.5 206.37 93.64C206.82 93.77 207.275 93.915 207.735 94.075C208.205 94.235 208.665 94.42 209.115 94.63C209.565 94.83 209.965 95.09 210.315 95.41C210.675 95.72 210.96 96.095 211.17 96.535C211.39 96.975 211.5 97.505 211.5 98.125C211.5 98.865 211.365 99.55 211.095 100.18C210.835 100.8 210.445 101.34 209.925 101.8C209.405 102.25 208.76 102.605 207.99 102.865C207.23 103.115 206.35 103.24 205.35 103.24C204.82 103.24 204.3 103.19 203.79 103.09C203.29 103 202.805 102.87 202.335 102.7C201.875 102.53 201.445 102.33 201.045 102.1C200.655 101.87 200.31 101.62 200.01 101.35L200.865 99.94C200.975 99.77 201.105 99.64 201.255 99.55C201.405 99.46 201.595 99.415 201.825 99.415C202.055 99.415 202.27 99.48 202.47 99.61C202.68 99.74 202.92 99.88 203.19 100.03C203.46 100.18 203.775 100.32 204.135 100.45C204.505 100.58 204.97 100.645 205.53 100.645C205.97 100.645 206.345 100.595 206.655 100.495C206.975 100.385 207.235 100.245 207.435 100.075C207.645 99.905 207.795 99.71 207.885 99.49C207.985 99.26 208.035 99.025 208.035 98.785C208.035 98.425 207.925 98.13 207.705 97.9C207.495 97.67 207.21 97.47 206.85 97.3C206.5 97.13 206.095 96.98 205.635 96.85C205.185 96.71 204.72 96.56 204.24 96.4C203.77 96.24 203.305 96.055 202.845 95.845C202.395 95.625 201.99 95.35 201.63 95.02C201.28 94.69 200.995 94.285 200.775 93.805C200.565 93.325 200.46 92.745 200.46 92.065C200.46 91.435 200.585 90.835 200.835 90.265C201.085 89.695 201.45 89.2 201.93 88.78C202.42 88.35 203.025 88.01 203.745 87.76C204.475 87.5 205.315 87.37 206.265 87.37C207.325 87.37 208.29 87.545 209.16 87.895C210.03 88.245 210.755 88.705 211.335 89.275L210.495 90.61ZM240.454 81.31V103H236.404V93.52H226.219V103H222.169V81.31H226.219V90.64H236.404V81.31H240.454ZM254.145 93.535C254.145 93.055 254.075 92.605 253.935 92.185C253.805 91.755 253.605 91.38 253.335 91.06C253.065 90.74 252.72 90.49 252.3 90.31C251.89 90.12 251.41 90.025 250.86 90.025C249.79 90.025 248.945 90.33 248.325 90.94C247.715 91.55 247.325 92.415 247.155 93.535H254.145ZM247.08 95.77C247.14 96.56 247.28 97.245 247.5 97.825C247.72 98.395 248.01 98.87 248.37 99.25C248.73 99.62 249.155 99.9 249.645 100.09C250.145 100.27 250.695 100.36 251.295 100.36C251.895 100.36 252.41 100.29 252.84 100.15C253.28 100.01 253.66 99.855 253.98 99.685C254.31 99.515 254.595 99.36 254.835 99.22C255.085 99.08 255.325 99.01 255.555 99.01C255.865 99.01 256.095 99.125 256.245 99.355L257.31 100.705C256.9 101.185 256.44 101.59 255.93 101.92C255.42 102.24 254.885 102.5 254.325 102.7C253.775 102.89 253.21 103.025 252.63 103.105C252.06 103.185 251.505 103.225 250.965 103.225C249.895 103.225 248.9 103.05 247.98 102.7C247.06 102.34 246.26 101.815 245.58 101.125C244.9 100.425 244.365 99.565 243.975 98.545C243.585 97.515 243.39 96.325 243.39 94.975C243.39 93.925 243.56 92.94 243.9 92.02C244.24 91.09 244.725 90.285 245.355 89.605C245.995 88.915 246.77 88.37 247.68 87.97C248.6 87.57 249.635 87.37 250.785 87.37C251.755 87.37 252.65 87.525 253.47 87.835C254.29 88.145 254.995 88.6 255.585 89.2C256.175 89.79 256.635 90.52 256.965 91.39C257.305 92.25 257.475 93.235 257.475 94.345C257.475 94.905 257.415 95.285 257.295 95.485C257.175 95.675 256.945 95.77 256.605 95.77H247.08ZM264.006 80.71V103H260.301V80.71H264.006ZM271.402 99.01C271.822 99.52 272.277 99.88 272.767 100.09C273.267 100.3 273.807 100.405 274.387 100.405C274.947 100.405 275.452 100.3 275.902 100.09C276.352 99.88 276.732 99.56 277.042 99.13C277.362 98.7 277.607 98.16 277.777 97.51C277.947 96.85 278.032 96.075 278.032 95.185C278.032 94.285 277.957 93.525 277.807 92.905C277.667 92.275 277.462 91.765 277.192 91.375C276.922 90.985 276.592 90.7 276.202 90.52C275.822 90.34 275.387 90.25 274.897 90.25C274.127 90.25 273.472 90.415 272.932 90.745C272.392 91.065 271.882 91.52 271.402 92.11V99.01ZM271.207 89.71C271.837 89 272.552 88.425 273.352 87.985C274.152 87.545 275.092 87.325 276.172 87.325C277.012 87.325 277.777 87.5 278.467 87.85C279.167 88.2 279.767 88.71 280.267 89.38C280.777 90.04 281.167 90.86 281.437 91.84C281.717 92.81 281.857 93.925 281.857 95.185C281.857 96.335 281.702 97.4 281.392 98.38C281.082 99.36 280.637 100.21 280.057 100.93C279.487 101.65 278.792 102.215 277.972 102.625C277.162 103.025 276.252 103.225 275.242 103.225C274.382 103.225 273.647 103.095 273.037 102.835C272.427 102.565 271.882 102.195 271.402 101.725V108.025H267.697V87.61H269.962C270.442 87.61 270.757 87.835 270.907 88.285L271.207 89.71ZM307.523 97.885C307.743 97.885 307.938 97.97 308.108 98.14L309.698 99.865C308.818 100.955 307.733 101.79 306.443 102.37C305.163 102.95 303.623 103.24 301.823 103.24C300.213 103.24 298.763 102.965 297.473 102.415C296.193 101.865 295.098 101.1 294.188 100.12C293.278 99.14 292.578 97.97 292.088 96.61C291.608 95.25 291.368 93.765 291.368 92.155C291.368 90.525 291.628 89.035 292.148 87.685C292.668 86.325 293.398 85.155 294.338 84.175C295.288 83.195 296.418 82.435 297.728 81.895C299.038 81.345 300.488 81.07 302.078 81.07C303.658 81.07 305.058 81.33 306.278 81.85C307.508 82.37 308.553 83.05 309.413 83.89L308.063 85.765C307.983 85.885 307.878 85.99 307.748 86.08C307.628 86.17 307.458 86.215 307.238 86.215C307.088 86.215 306.933 86.175 306.773 86.095C306.613 86.005 306.438 85.9 306.248 85.78C306.058 85.65 305.838 85.51 305.588 85.36C305.338 85.21 305.048 85.075 304.718 84.955C304.388 84.825 304.003 84.72 303.563 84.64C303.133 84.55 302.633 84.505 302.063 84.505C301.093 84.505 300.203 84.68 299.393 85.03C298.593 85.37 297.903 85.87 297.323 86.53C296.743 87.18 296.293 87.98 295.973 88.93C295.653 89.87 295.493 90.945 295.493 92.155C295.493 93.375 295.663 94.46 296.003 95.41C296.353 96.36 296.823 97.16 297.413 97.81C298.003 98.46 298.698 98.96 299.498 99.31C300.298 99.65 301.158 99.82 302.078 99.82C302.628 99.82 303.123 99.79 303.563 99.73C304.013 99.67 304.423 99.575 304.793 99.445C305.173 99.315 305.528 99.15 305.858 98.95C306.198 98.74 306.533 98.485 306.863 98.185C306.963 98.095 307.068 98.025 307.178 97.975C307.288 97.915 307.403 97.885 307.523 97.885ZM321.47 93.535C321.47 93.055 321.4 92.605 321.26 92.185C321.13 91.755 320.93 91.38 320.66 91.06C320.39 90.74 320.045 90.49 319.625 90.31C319.215 90.12 318.735 90.025 318.185 90.025C317.115 90.025 316.27 90.33 315.65 90.94C315.04 91.55 314.65 92.415 314.48 93.535H321.47ZM314.405 95.77C314.465 96.56 314.605 97.245 314.825 97.825C315.045 98.395 315.335 98.87 315.695 99.25C316.055 99.62 316.48 99.9 316.97 100.09C317.47 100.27 318.02 100.36 318.62 100.36C319.22 100.36 319.735 100.29 320.165 100.15C320.605 100.01 320.985 99.855 321.305 99.685C321.635 99.515 321.92 99.36 322.16 99.22C322.41 99.08 322.65 99.01 322.88 99.01C323.19 99.01 323.42 99.125 323.57 99.355L324.635 100.705C324.225 101.185 323.765 101.59 323.255 101.92C322.745 102.24 322.21 102.5 321.65 102.7C321.1 102.89 320.535 103.025 319.955 103.105C319.385 103.185 318.83 103.225 318.29 103.225C317.22 103.225 316.225 103.05 315.305 102.7C314.385 102.34 313.585 101.815 312.905 101.125C312.225 100.425 311.69 99.565 311.3 98.545C310.91 97.515 310.715 96.325 310.715 94.975C310.715 93.925 310.885 92.94 311.225 92.02C311.565 91.09 312.05 90.285 312.68 89.605C313.32 88.915 314.095 88.37 315.005 87.97C315.925 87.57 316.96 87.37 318.11 87.37C319.08 87.37 319.975 87.525 320.795 87.835C321.615 88.145 322.32 88.6 322.91 89.2C323.5 89.79 323.96 90.52 324.29 91.39C324.63 92.25 324.8 93.235 324.8 94.345C324.8 94.905 324.74 95.285 324.62 95.485C324.5 95.675 324.27 95.77 323.93 95.77H314.405ZM331.045 89.5C331.355 89.19 331.68 88.905 332.02 88.645C332.37 88.375 332.735 88.15 333.115 87.97C333.505 87.78 333.92 87.635 334.36 87.535C334.8 87.425 335.28 87.37 335.8 87.37C336.64 87.37 337.385 87.515 338.035 87.805C338.685 88.085 339.225 88.485 339.655 89.005C340.095 89.515 340.425 90.13 340.645 90.85C340.875 91.56 340.99 92.345 340.99 93.205V103H337.285V93.205C337.285 92.265 337.07 91.54 336.64 91.03C336.21 90.51 335.555 90.25 334.675 90.25C334.035 90.25 333.435 90.395 332.875 90.685C332.315 90.975 331.785 91.37 331.285 91.87V103H327.58V87.61H329.845C330.325 87.61 330.64 87.835 330.79 88.285L331.045 89.5ZM349.439 103.24C348.099 103.24 347.069 102.865 346.349 102.115C345.639 101.355 345.284 100.31 345.284 98.98V90.385H343.709C343.509 90.385 343.339 90.32 343.199 90.19C343.059 90.06 342.989 89.865 342.989 89.605V88.135L345.464 87.73L346.244 83.53C346.294 83.33 346.389 83.175 346.529 83.065C346.669 82.955 346.849 82.9 347.069 82.9H348.989V87.745H353.099V90.385H348.989V98.725C348.989 99.205 349.104 99.58 349.334 99.85C349.574 100.12 349.899 100.255 350.309 100.255C350.539 100.255 350.729 100.23 350.879 100.18C351.039 100.12 351.174 100.06 351.284 100C351.404 99.94 351.509 99.885 351.599 99.835C351.689 99.775 351.779 99.745 351.869 99.745C351.979 99.745 352.069 99.775 352.139 99.835C352.209 99.885 352.284 99.965 352.364 100.075L353.474 101.875C352.934 102.325 352.314 102.665 351.614 102.895C350.914 103.125 350.189 103.24 349.439 103.24ZM358.966 90.28C359.446 89.36 360.016 88.64 360.676 88.12C361.336 87.59 362.116 87.325 363.016 87.325C363.726 87.325 364.296 87.48 364.726 87.79L364.486 90.565C364.436 90.745 364.361 90.875 364.261 90.955C364.171 91.025 364.046 91.06 363.886 91.06C363.736 91.06 363.511 91.035 363.211 90.985C362.921 90.935 362.636 90.91 362.356 90.91C361.946 90.91 361.581 90.97 361.261 91.09C360.941 91.21 360.651 91.385 360.391 91.615C360.141 91.835 359.916 92.105 359.716 92.425C359.526 92.745 359.346 93.11 359.176 93.52V103H355.471V87.61H357.646C358.026 87.61 358.291 87.68 358.441 87.82C358.591 87.95 358.691 88.19 358.741 88.54L358.966 90.28ZM376.138 93.535C376.138 93.055 376.068 92.605 375.928 92.185C375.798 91.755 375.598 91.38 375.328 91.06C375.058 90.74 374.713 90.49 374.293 90.31C373.883 90.12 373.403 90.025 372.853 90.025C371.783 90.025 370.938 90.33 370.318 90.94C369.708 91.55 369.318 92.415 369.148 93.535H376.138ZM369.073 95.77C369.133 96.56 369.273 97.245 369.493 97.825C369.713 98.395 370.003 98.87 370.363 99.25C370.723 99.62 371.148 99.9 371.638 100.09C372.138 100.27 372.688 100.36 373.288 100.36C373.888 100.36 374.403 100.29 374.833 100.15C375.273 100.01 375.653 99.855 375.973 99.685C376.303 99.515 376.588 99.36 376.828 99.22C377.078 99.08 377.318 99.01 377.548 99.01C377.858 99.01 378.088 99.125 378.238 99.355L379.303 100.705C378.893 101.185 378.433 101.59 377.923 101.92C377.413 102.24 376.878 102.5 376.318 102.7C375.768 102.89 375.203 103.025 374.623 103.105C374.053 103.185 373.498 103.225 372.958 103.225C371.888 103.225 370.893 103.05 369.973 102.7C369.053 102.34 368.253 101.815 367.573 101.125C366.893 100.425 366.358 99.565 365.968 98.545C365.578 97.515 365.383 96.325 365.383 94.975C365.383 93.925 365.553 92.94 365.893 92.02C366.233 91.09 366.718 90.285 367.348 89.605C367.988 88.915 368.763 88.37 369.673 87.97C370.593 87.57 371.628 87.37 372.778 87.37C373.748 87.37 374.643 87.525 375.463 87.835C376.283 88.145 376.988 88.6 377.578 89.2C378.168 89.79 378.628 90.52 378.958 91.39C379.298 92.25 379.468 93.235 379.468 94.345C379.468 94.905 379.408 95.285 379.288 95.485C379.168 95.675 378.938 95.77 378.598 95.77H369.073Z"></path>
<path stroke-miterlimit="10" stroke="#C9CACC" fill="white" d="M1209.35 69H1105.66C1102.54 69 1100 71.536 1100 74.6644V119.586C1100 122.714 1102.54 125.25 1105.66 125.25H1195.29V133.226L1204.71 126.341C1205.68 125.632 1206.85 125.25 1208.05 125.25H1209.35C1212.48 125.25 1215.02 122.714 1215.02 119.586V74.6644C1215.02 71.536 1212.48 69 1209.35 69Z"></path>
<path stroke-linecap="round" stroke-width="5.66442" stroke="#C9CACC" d="M1122.67 87.4702H1192.35"></path>
<path stroke-linecap="round" stroke-width="5.66442" stroke="#C9CACC" d="M1122.67 104.261H1183.96"></path>
<path fill="#56271F" d="M1106.61 156.4C1106.55 157.299 1105.82 157.992 1104.92 157.98C1094.47 157.842 1035.52 156.923 1027.27 153.725C1018.22 150.214 1032.69 122.434 1032.69 122.434C1035.91 99.8298 1053.67 83.3833 1074.04 84.1791C1094.37 84.9738 1107.05 106.713 1108.5 129.5L1106.61 156.4Z"></path>
<path stroke-miterlimit="10" stroke="#C9CACC" fill="white" d="M1014.64 177.574H957.694C954.565 177.574 952.029 180.11 952.029 183.239V214.901C952.029 218.029 954.565 220.565 957.694 220.565H998.508C999.412 220.565 1000.3 220.781 1001.11 221.196L1012.9 227.282V220.565H1014.64C1017.77 220.565 1020.31 218.029 1020.31 214.901V183.239C1020.31 180.11 1017.77 177.574 1014.64 177.574Z"></path>
<path stroke-linecap="round" stroke-width="5.66442" stroke="#C9CACC" d="M962.104 192.021H999.883"></path>
<path stroke-linecap="round" stroke-width="5.66442" stroke="#C9CACC" d="M962.104 204.614H990.648"></path>
<path fill="#FB8266" d="M1069.26 152.359C1084.06 152.359 1096.06 140.359 1096.06 125.556C1096.06 110.753 1084.06 98.7532 1069.26 98.7532C1054.45 98.7532 1042.45 110.753 1042.45 125.556C1042.45 140.359 1054.45 152.359 1069.26 152.359Z"></path>
<path fill="#FB8266" d="M1095.58 136.552C1099.48 136.552 1102.65 133.386 1102.65 129.48C1102.65 125.574 1099.48 122.408 1095.58 122.408C1091.67 122.408 1088.51 125.574 1088.51 129.48C1088.51 133.386 1091.67 136.552 1095.58 136.552Z"></path>
<path fill="#FB8266" d="M1044.27 129.447C1048.18 129.447 1051.34 126.281 1051.34 122.375C1051.34 118.47 1048.18 115.303 1044.27 115.303C1040.36 115.303 1037.2 118.47 1037.2 122.375C1037.2 126.281 1040.36 129.447 1044.27 129.447Z"></path>
<path stroke-miterlimit="10" stroke-width="2.26615" stroke="#BA2362" d="M1056.18 126.658L1049.49 125.597C1044.89 124.865 1041.74 120.537 1042.47 115.932L1043.19 111.43L1066.56 115.142L1065.85 119.643C1065.11 124.269 1060.79 127.39 1056.18 126.658Z"></path>
<path stroke-miterlimit="10" stroke-width="2.26615" stroke="#BA2362" d="M1086.55 131.479L1079.86 130.418C1075.25 129.686 1072.11 125.359 1072.84 120.754L1073.56 116.252L1096.91 119.96L1096.19 124.462C1095.46 129.088 1091.15 132.211 1086.55 131.479Z"></path>
<path stroke-miterlimit="10" stroke-width="2.26615" stroke="#BA2362" d="M1066.56 115.162L1074.24 116.382"></path>
<path fill="#56271F" d="M1078.56 125.149C1080.03 125.323 1081.36 124.278 1081.53 122.813C1081.7 121.349 1080.66 120.02 1079.19 119.846C1077.73 119.671 1076.4 120.717 1076.23 122.181C1076.05 123.646 1077.1 124.974 1078.56 125.149Z"></path>
<path fill="#56271F" d="M1058.44 122.575C1059.9 122.749 1061.23 121.704 1061.4 120.24C1061.58 118.775 1060.53 117.447 1059.07 117.272C1057.61 117.098 1056.28 118.143 1056.1 119.608C1055.93 121.072 1056.97 122.401 1058.44 122.575Z"></path>
<path stroke-miterlimit="10" stroke-width="2.31021" stroke="#56271F" d="M1071.71 123.266C1066.73 120.04 1064.42 125.74 1069.47 127.896"></path>
<path fill="#56271F" d="M1073.21 139.514C1073.21 139.514 1072.12 145.121 1065.84 144.236C1059.19 143.298 1060.09 137.444 1060.09 137.444L1073.21 139.514Z"></path>
<path stroke-linejoin="round" stroke-width="29.5165" stroke="#FB8266" d="M992.281 138.774C993.363 135.291 1003.13 123.459 1003.13 111.862"></path>
<path fill="#2A2A2B" d="M1099.02 152.419C1099.02 152.419 1080.16 155.756 1066.87 155.756C1053.84 155.756 1038.43 152.419 1038.43 152.419L1032.14 247.257H1142L1099.02 152.419Z"></path>
<path fill="#F54E57" d="M1067.05 155.686C1063.95 155.686 1060.47 155.499 1056.95 155.213L1053 247.257H1106.5L1080.41 154.915C1075.91 155.362 1071.21 155.686 1067.05 155.686Z"></path>
<path stroke-linejoin="round" stroke-width="29.5165" stroke="#2A2A2B" d="M1043.8 167.393C1024.32 162.082 1018.24 187.757 998.957 180.912C983.455 175.409 985.515 152.448 993.582 135.736"></path>
<path stroke-width="28.3221" stroke="#2A2A2B" d="M1099.7 166.344C1127.14 158.339 1145 189.349 1145 203.338C1145 221.799 1117.68 199.374 1096.87 201.705"></path>
<path fill="#9BA3A2" d="M1050.29 172.796C1049.86 169.698 1052.02 166.834 1055.11 166.399L1094.25 160.898C1097.35 160.463 1100.21 162.621 1100.65 165.719L1108.61 222.393C1109.05 225.491 1106.89 228.355 1103.79 228.791L1064.65 234.291C1061.56 234.726 1058.69 232.568 1058.26 229.47L1050.29 172.796Z"></path>
<path fill="#DAE5E4" d="M1054.63 172.186C1054.2 169.089 1056.36 166.224 1059.45 165.789L1098.59 160.289C1101.69 159.853 1104.55 162.012 1104.99 165.11L1112.95 221.783C1113.39 224.881 1111.23 227.746 1108.13 228.181L1068.99 233.681C1065.9 234.117 1063.03 231.958 1062.6 228.86L1054.63 172.186Z"></path>
<path fill="#F4333D" d="M1077.83 175.868L1087.93 174.449C1091.28 173.978 1092.96 173.743 1094.84 174.059C1096.91 174.499 1098.68 175.831 1099.67 177.699C1100.49 179.422 1100.73 181.096 1101.2 184.445L1102.62 194.544C1103.09 197.893 1103.32 199.567 1103.01 201.45C1102.57 203.519 1101.24 205.287 1099.37 206.28C1097.64 207.103 1095.97 207.339 1092.62 207.809L1082.52 209.229C1079.17 209.699 1077.5 209.935 1075.62 209.618C1073.55 209.178 1071.78 207.846 1070.79 205.978C1069.96 204.256 1069.73 202.582 1069.26 199.232L1067.84 189.134C1067.37 185.785 1067.13 184.11 1067.45 182.227C1067.89 180.158 1069.22 178.39 1071.09 177.397C1072.81 176.574 1074.48 176.339 1077.83 175.868Z" clip-rule="evenodd" fill-rule="evenodd"></path>
<path fill="white" d="M1080.41 185.056C1080.7 187.103 1082.51 188.466 1084.55 188.179C1086.6 187.891 1087.96 186.081 1087.68 184.035C1087.39 181.989 1085.58 180.625 1083.53 180.912C1081.49 181.2 1080.12 183.01 1080.41 185.056ZM1090.48 201.825L1082.62 202.929L1082.47 189.706C1083.77 189.906 1085.78 189.624 1086.98 189.073L1090.48 201.825Z" clip-rule="evenodd" fill-rule="evenodd"></path>
<path fill="#FB8266" d="M1120.05 219.135C1117.23 218.276 1114.62 217.478 1111.42 216.698C1106.52 215.499 1102.73 215.062 1099.85 215.385L1096.87 188.725C1104.39 187.882 1111.78 189.17 1117.79 190.638C1118.29 190.759 1118.8 190.889 1119.32 191.023L1124.31 220.413C1122.78 219.969 1121.39 219.545 1120.05 219.135L1120.05 219.135Z"></path>
<path fill="#56271F" d="M1070.96 105.035C1062.52 116.27 1049.58 120.787 1042.05 115.128C1040.35 113.853 1039.07 112.182 1038.23 110.22C1038.24 110.201 1038.26 110.182 1038.29 110.144C1038.49 109.852 1038.7 109.568 1038.91 109.285C1044.02 102.487 1050.36 97.5022 1056.71 94.7984C1063.49 91.8879 1070.29 91.5617 1075.62 94.3258C1075.89 94.4688 1076.15 94.6022 1076.4 94.764C1075.27 98.1963 1073.44 101.73 1070.96 105.035Z"></path>
<path fill="#FFC46B" d="M925 254.213C925 246.794 931.014 240.78 938.433 240.78H1227.57C1234.99 240.78 1241 246.794 1241 254.213V259.011H925V254.213Z"></path>
</svg>
