<svg xmlns="http://www.w3.org/2000/svg" fill="none" viewBox="0 0 327 246" height="246" width="327">
<path fill="white" d="M105.993 57.8496H75.6752C69.3717 57.8496 64.2617 62.9596 64.2617 69.2631V99.5812C64.2617 105.885 69.3717 110.995 75.6752 110.995H105.993C112.297 110.995 117.407 105.885 117.407 99.5812V69.2631C117.407 62.9596 112.297 57.8496 105.993 57.8496Z" opacity="0.8"></path>
<path stroke-miterlimit="10" stroke-width="1.4461" stroke="#42A864" d="M73.5317 74.6086V71.6407C73.5317 70.6935 73.908 69.7851 74.5778 69.1154C75.2475 68.4456 76.1559 68.0693 77.1031 68.0693H80.071"></path>
<path stroke-miterlimit="10" stroke-width="1.4461" stroke="#42A864" d="M73.5313 94.2312V97.1544C73.5312 97.6303 73.625 98.1015 73.8072 98.5412C73.9894 98.9809 74.2564 99.3803 74.593 99.7168C74.9296 100.053 75.3292 100.32 75.769 100.502C76.2087 100.684 76.68 100.778 77.1559 100.777H80.0791"></path>
<path stroke-miterlimit="10" stroke-width="1.4461" stroke="#42A864" d="M108.136 94.2312V97.2403C108.136 98.1767 107.764 99.0746 107.101 99.7366C106.439 100.399 105.541 100.77 104.605 100.77H101.597"></path>
<path stroke-miterlimit="10" stroke-width="1.4461" stroke="#42A864" d="M108.136 74.6084V71.7368C108.136 70.7641 107.75 69.8312 107.062 69.1433C106.374 68.4555 105.441 68.0691 104.469 68.0691H101.597"></path>
<path fill="#42A864" d="M85.7089 82.4046C86.3822 82.4046 86.928 81.8587 86.928 81.1854C86.928 80.5121 86.3822 79.9663 85.7089 79.9663C85.0356 79.9663 84.4897 80.5121 84.4897 81.1854C84.4897 81.8587 85.0356 82.4046 85.7089 82.4046Z"></path>
<path fill="#42A864" d="M95.8104 82.4046C96.4837 82.4046 97.0296 81.8587 97.0296 81.1854C97.0296 80.5121 96.4837 79.9663 95.8104 79.9663C95.1371 79.9663 94.5913 80.5121 94.5913 81.1854C94.5913 81.8587 95.1371 82.4046 95.8104 82.4046Z"></path>
<path stroke-linecap="round" stroke-miterlimit="10" stroke-width="1.33433" stroke="#42A864" d="M90.7354 82.7571L90.8024 87.2415"></path>
<path stroke-linecap="round" stroke-miterlimit="10" stroke-width="1.33433" stroke="#42A864" d="M93.8517 84.5815C93.8517 84.5815 93.9084 87.6766 90.3765 87.3757C87.7526 87.1591 87.689 84.6813 87.689 84.6813"></path>
<path fill="#42A864" d="M90.7675 83.2403C92.1255 83.2403 93.2264 82.7553 93.2264 82.157C93.2264 81.5587 92.1255 81.0737 90.7675 81.0737C89.4095 81.0737 88.3086 81.5587 88.3086 82.157C88.3086 82.7553 89.4095 83.2403 90.7675 83.2403Z"></path>
<path stroke-linecap="round" stroke-miterlimit="10" stroke-width="1.33433" stroke="#42A864" d="M81.6424 84.4529C81.6424 84.4529 78.5988 84.9687 78.0864 87.9297"></path>
<path stroke-linecap="round" stroke-miterlimit="10" stroke-width="1.33433" stroke="#42A864" d="M82.7661 86.2715C82.7661 86.2715 81.4111 86.7203 81.4369 88.2094"></path>
<path stroke-linecap="round" stroke-miterlimit="10" stroke-width="1.33433" stroke="#42A864" d="M100.428 83.4883C100.428 83.4883 103.397 84.3308 103.585 87.3296"></path>
<path stroke-linecap="round" stroke-miterlimit="10" stroke-width="1.33433" stroke="#42A864" d="M99.1099 85.1748C99.1099 85.1748 100.408 85.768 100.222 87.2382"></path>
<path fill="#42A864" d="M236.883 23.8325H165.825C158.335 23.8325 152.264 29.904 152.264 37.3935V206.217C152.264 213.707 158.335 219.778 165.825 219.778H236.883C244.372 219.778 250.444 213.707 250.444 206.217V37.3935C250.444 29.904 244.372 23.8325 236.883 23.8325Z"></path>
<path fill="white" d="M236.883 114.896H165.825C158.335 114.896 152.264 122.415 152.264 126.424V212.52C152.264 216.529 158.335 219.778 165.825 219.778H236.883C244.372 219.778 250.444 216.529 250.444 212.52V126.424C250.444 122.415 244.372 114.896 236.883 114.896Z"></path>
<path fill="white" d="M208.658 53.8687H194.05C186.034 53.8687 179.536 60.3669 179.536 68.3829V82.9907C179.536 91.0067 186.034 97.505 194.05 97.505H208.658C216.674 97.505 223.172 91.0067 223.172 82.9907V68.3829C223.172 60.3669 216.674 53.8687 208.658 53.8687Z"></path>
<path stroke-miterlimit="10" stroke-width="2.17278" stroke="#141414" d="M201.119 65.2516C202.244 65.2371 203.329 65.6701 204.135 66.4553C204.941 67.2406 205.402 68.3138 205.416 69.4388L205.471 73.6808L196.987 73.7903L196.932 69.5484C196.925 68.9913 197.028 68.4383 197.234 67.9209C197.441 67.4035 197.747 66.9318 198.136 66.5328C198.525 66.1338 198.988 65.8153 199.5 65.5955C200.012 65.3756 200.562 65.2588 201.119 65.2516V65.2516Z"></path>
<path fill="#FE273A" d="M194.329 70.9217L208.076 70.7442C208.781 70.7351 209.461 71.0064 209.966 71.4984C210.471 71.9905 210.76 72.663 210.769 73.3679L210.938 86.4745C210.943 86.8291 210.806 87.1711 210.559 87.4251C210.311 87.679 209.973 87.8243 209.618 87.8289L193.229 88.0406C192.875 88.0452 192.533 87.9087 192.279 87.6612C192.025 87.4136 191.88 87.0754 191.875 86.7207L191.706 73.6141C191.697 72.9092 191.968 72.2295 192.46 71.7245C192.952 71.2196 193.625 70.9308 194.329 70.9217Z"></path>
<path fill="white" d="M201.316 77.6674C201.647 77.6641 201.969 77.5628 202.243 77.3763C202.516 77.1897 202.727 76.9262 202.851 76.6193C202.974 76.3124 203.003 75.9758 202.935 75.6521C202.867 75.3284 202.704 75.0322 202.468 74.801C202.231 74.5698 201.931 74.4141 201.606 74.3535C201.281 74.2929 200.945 74.3301 200.641 74.4605C200.337 74.591 200.079 74.8086 199.899 75.086C199.718 75.3634 199.625 75.6881 199.629 76.0188C199.628 76.2388 199.672 76.4567 199.757 76.6596C199.842 76.8624 199.967 77.0462 200.124 77.1999C200.281 77.3537 200.468 77.4742 200.673 77.5545C200.878 77.6348 201.096 77.6732 201.316 77.6674Z" clip-rule="evenodd" fill-rule="evenodd"></path>
<path fill="white" d="M199.603 84.2184L203.201 84.1717L202.358 78.2034C201.682 78.3857 200.971 78.3952 200.291 78.2308L199.603 84.2184Z" clip-rule="evenodd" fill-rule="evenodd"></path>
<path stroke-miterlimit="10" stroke-width="0.972672" stroke="#C9C9C9" d="M169.429 129.822H232.259"></path>
<path stroke-miterlimit="10" stroke-width="0.972672" stroke="#C9C9C9" d="M169.429 138.126H232.259"></path>
<path fill="#FB8266" d="M98.7705 164.687C98.8069 164.411 98.748 164.132 98.6036 163.894C98.4591 163.656 98.2378 163.475 97.9763 163.381C97.7148 163.286 97.4289 163.284 97.1659 163.374C96.9028 163.464 96.6786 163.642 96.5303 163.877L96.5019 163.921C95.5933 165.385 94.7551 166.889 93.9607 168.422C93.1663 169.954 92.4284 171.533 91.7699 173.145C91.1114 174.756 90.4781 176.404 89.952 178.106C88.7987 181.638 88.1458 185.314 88.0123 189.028C87.9479 191.127 88.1664 193.226 88.6621 195.268C88.9498 196.404 89.343 197.511 89.8365 198.574C90.104 199.142 90.4053 199.694 90.739 200.226L90.9977 200.635L91.2324 200.983C91.3855 201.214 91.5274 201.437 91.695 201.666C93.0347 203.551 94.6833 205.196 96.5709 206.532C98.572 207.949 100.826 208.968 103.211 209.535C105.584 210.088 108.037 210.21 110.454 209.897C112.774 209.593 115.032 208.927 117.146 207.924C121.196 205.989 124.649 202.998 127.143 199.266C129.57 195.657 131.044 191.493 131.429 187.162L119.534 185.364C118.941 187.642 117.88 189.772 116.42 191.618C115.062 193.358 113.332 194.771 111.355 195.753C109.655 196.617 107.743 196.98 105.844 196.798C103.918 196.528 102.135 195.633 100.766 194.252C100.659 194.163 100.563 194.053 100.459 193.954L100.313 193.806L100.214 193.702C100.071 193.552 99.9386 193.394 99.8164 193.228C99.5208 192.831 99.2684 192.403 99.0633 191.952C98.5504 190.814 98.1845 189.615 97.9749 188.385C97.4822 185.426 97.3009 182.423 97.4341 179.426C97.4809 177.844 97.5742 176.24 97.6945 174.618C97.8148 172.995 97.9734 171.362 98.1646 169.715C98.3558 168.067 98.5495 166.369 98.7705 164.687Z"></path>
<path fill="#FB8266" d="M156.408 114.87C154.788 115.107 153.282 113.985 153.045 112.365C152.808 110.745 153.929 109.24 155.549 109.003C157.169 108.766 158.675 109.887 158.912 111.507C159.149 113.127 158.028 114.633 156.408 114.87Z"></path>
<path fill="#FB8266" d="M117.518 208.087L124.253 208.206L125.403 208.087L159.906 206.608L159.906 182.319L158.678 122.716C158.744 121.257 158.627 119.795 158.329 118.365C157.475 114.317 155.194 110.71 151.903 108.203C148.612 105.696 144.529 104.454 140.399 104.705C136.269 104.956 132.367 106.682 129.404 109.569C126.44 112.457 124.613 116.312 124.254 120.434L117.518 208.087Z"></path>
<path stroke-miterlimit="10" stroke-width="11.2436" stroke="#FB8266" d="M153.921 197.994C154.844 207.941 155.357 219.632 155.357 219.632"></path>
<path stroke-miterlimit="10" stroke-width="11.2436" stroke="#FB8266" d="M123.568 201.891C122.14 208.5 121.517 213.684 121.517 219.529"></path>
<path fill="#FDF6F0" d="M146.036 127.591C141.442 128.263 137.172 125.083 136.5 120.489C135.828 115.894 139.007 111.625 143.602 110.952C148.196 110.28 152.466 113.46 153.138 118.054C153.81 122.649 150.631 126.918 146.036 127.591Z"></path>
<path stroke-miterlimit="10" stroke-width="7.64488" stroke="#FB8266" d="M155.998 142.535C161.106 144.285 171.594 154.773 175.478 160.211"></path>
<path fill="#FDF6F0" d="M145.499 194.21C148.775 193.864 151.88 192.571 154.433 190.489C156.987 188.407 158.878 185.626 159.877 182.487L158.648 122.884C157.615 121.299 156.17 120.025 154.469 119.198C152.767 118.372 150.873 118.023 148.988 118.191L139.548 119.01C137.083 119.221 134.772 120.3 133.027 122.055C131.282 123.809 130.216 126.126 130.02 128.593L126.787 176.01C126.59 178.495 126.943 180.992 127.821 183.325C128.699 185.657 130.081 187.768 131.868 189.506C133.654 191.243 135.802 192.566 138.158 193.379C140.514 194.192 143.021 194.476 145.499 194.21Z"></path>
<path fill="#FB8266" d="M127.52 115.328C125.9 115.565 124.395 114.444 124.158 112.824C123.921 111.204 125.042 109.699 126.662 109.462C128.282 109.225 129.787 110.346 130.024 111.966C130.261 113.586 129.14 115.091 127.52 115.328Z"></path>
<path stroke-miterlimit="10" stroke-width="7.64488" stroke="#FB8266" d="M125.48 143.97C118.994 148.024 111.097 155.693 111.157 162.347"></path>
<path fill="#56271F" d="M138.867 112.251C138.147 112.357 137.478 111.858 137.372 111.138C137.267 110.418 137.765 109.749 138.485 109.644C139.205 109.539 139.874 110.037 139.98 110.757C140.085 111.477 139.587 112.146 138.867 112.251Z"></path>
<path fill="#56271F" d="M149.738 111.582C149.018 111.688 148.349 111.189 148.244 110.469C148.138 109.749 148.636 109.08 149.356 108.975C150.076 108.87 150.746 109.368 150.851 110.088C150.956 110.808 150.458 111.477 149.738 111.582Z"></path>
<path stroke-linecap="round" stroke-miterlimit="10" stroke-width="1.49948" stroke="#56271F" d="M144.542 112.442C144.637 113.207 144.683 113.977 144.68 114.747"></path>
<path fill="#56271F" d="M147.903 114.424C146.379 114.473 142.715 114.9 141.247 114.852C141.247 114.852 141.58 118.927 145.349 118.227C148.154 117.702 147.903 114.424 147.903 114.424Z"></path>
<path fill="#56271F" d="M144.642 112.689C143.172 112.727 141.967 112.234 141.951 111.587C141.934 110.941 143.112 110.386 144.581 110.348C146.051 110.309 147.256 110.803 147.273 111.449C147.289 112.096 146.112 112.651 144.642 112.689Z"></path>
<path stroke-linecap="round" stroke-miterlimit="10" stroke-width="1.49948" stroke="#56271E" d="M154.359 113.385C154.359 113.385 157.686 113.644 158.528 116.78"></path>
<path stroke-linecap="round" stroke-miterlimit="10" stroke-width="1.49948" stroke="#56271E" d="M153.33 115.454C153.77 115.572 154.163 115.823 154.453 116.174C154.744 116.525 154.919 116.958 154.953 117.412"></path>
<path stroke-linecap="round" stroke-miterlimit="10" stroke-width="1.49948" stroke="#56271E" d="M134.035 114.193C134.035 114.193 130.921 115.394 131.009 118.64"></path>
<path stroke-linecap="round" stroke-miterlimit="10" stroke-width="1.49948" stroke="#56271E" d="M135.619 115.879C135.23 116.117 134.925 116.471 134.746 116.89C134.568 117.31 134.526 117.775 134.625 118.22"></path>
<g filter="url(#filter0_d_1006_3498)">
<path fill="white" d="M101.651 151.264H89.7513C88.2372 151.264 87.0098 152.491 87.0098 154.005V170.689C87.0098 172.203 88.2372 173.43 89.7513 173.43H101.651C103.165 173.43 104.392 172.203 104.392 170.689V154.005C104.392 152.491 103.165 151.264 101.651 151.264Z"></path>
<path fill="#F873AD" d="M95.7011 165.025C96.9861 165.025 98.0278 163.983 98.0278 162.698C98.0278 161.413 96.9861 160.372 95.7011 160.372C94.4162 160.372 93.3745 161.413 93.3745 162.698C93.3745 163.983 94.4162 165.025 95.7011 165.025Z"></path>
<path fill="white" d="M121.585 151.264H109.686C108.172 151.264 106.944 152.491 106.944 154.005V170.689C106.944 172.203 108.172 173.43 109.686 173.43H121.585C123.1 173.43 124.327 172.203 124.327 170.689V154.005C124.327 152.491 123.1 151.264 121.585 151.264Z"></path>
<path fill="#F873AD" d="M115.636 165.025C116.921 165.025 117.962 163.983 117.962 162.698C117.962 161.413 116.921 160.372 115.636 160.372C114.351 160.372 113.309 161.413 113.309 162.698C113.309 163.983 114.351 165.025 115.636 165.025Z"></path>
<path fill="white" d="M141.522 151.264H129.622C128.108 151.264 126.881 152.491 126.881 154.005V170.689C126.881 172.203 128.108 173.43 129.622 173.43H141.522C143.036 173.43 144.264 172.203 144.264 170.689V154.005C144.264 152.491 143.036 151.264 141.522 151.264Z"></path>
<path fill="#F873AD" d="M135.572 165.025C136.857 165.025 137.898 163.983 137.898 162.698C137.898 161.413 136.857 160.372 135.572 160.372C134.287 160.372 133.245 161.413 133.245 162.698C133.245 163.983 134.287 165.025 135.572 165.025Z"></path>
<path fill="white" d="M161.457 151.264H149.557C148.043 151.264 146.815 152.491 146.815 154.005V170.689C146.815 172.203 148.043 173.43 149.557 173.43H161.457C162.971 173.43 164.198 172.203 164.198 170.689V154.005C164.198 152.491 162.971 151.264 161.457 151.264Z"></path>
<path fill="#F873AD" d="M155.506 165.025C156.791 165.025 157.833 163.983 157.833 162.698C157.833 161.413 156.791 160.372 155.506 160.372C154.221 160.372 153.18 161.413 153.18 162.698C153.18 163.983 154.221 165.025 155.506 165.025Z"></path>
<path fill="white" d="M181.392 151.264H169.492C167.978 151.264 166.75 152.491 166.75 154.005V170.689C166.75 172.203 167.978 173.43 169.492 173.43H181.392C182.906 173.43 184.133 172.203 184.133 170.689V154.005C184.133 152.491 182.906 151.264 181.392 151.264Z"></path>
<path fill="#F873AD" d="M175.443 165.025C176.728 165.025 177.769 163.983 177.769 162.698C177.769 161.413 176.728 160.372 175.443 160.372C174.158 160.372 173.116 161.413 173.116 162.698C173.116 163.983 174.158 165.025 175.443 165.025Z"></path>
<path fill="white" d="M201.328 151.264H189.428C187.914 151.264 186.687 152.491 186.687 154.005V170.689C186.687 172.203 187.914 173.43 189.428 173.43H201.328C202.842 173.43 204.069 172.203 204.069 170.689V154.005C204.069 152.491 202.842 151.264 201.328 151.264Z"></path>
<path fill="#F873AD" d="M195.379 165.025C196.664 165.025 197.705 163.983 197.705 162.698C197.705 161.413 196.664 160.372 195.379 160.372C194.094 160.372 193.052 161.413 193.052 162.698C193.052 163.983 194.094 165.025 195.379 165.025Z"></path>
</g>
<path fill="#CE2027" d="M228.367 76.3183L242.419 63.9012L232.182 54.9034C229.308 59.2264 225.329 62.7003 220.658 64.9636L228.367 76.3183Z"></path>
<path fill="#531113" d="M261.003 80.1785L242.301 96.7041L228.394 76.2529L242.394 63.8797L261.003 80.1785Z"></path>
<path fill="#F1B4A5" d="M230.813 48.8798C231.041 51.7412 230.186 54.5837 228.419 56.8453C226.651 59.1069 224.099 60.6227 221.267 61.0931C218.436 61.5634 215.531 60.954 213.127 59.3853C210.723 57.8166 208.995 55.403 208.286 52.6217C207.576 49.8404 207.936 46.894 209.294 44.3653C210.652 41.8366 212.91 39.9097 215.621 38.9658C218.332 38.0219 221.298 38.1297 223.933 39.2678C226.569 40.4059 228.681 42.4914 229.852 45.112C230.385 46.304 230.71 47.5783 230.813 48.8798Z"></path>
<path fill="#CE2027" d="M229.852 45.1117L208.321 46.8225C208.934 44.536 210.24 42.4953 212.06 40.981C213.879 39.4666 216.123 38.5529 218.483 38.3654C220.843 38.1779 223.203 38.7258 225.238 39.9338C227.274 41.1418 228.886 42.9506 229.852 45.1117Z"></path>
<path fill="#CE2027" d="M229.823 45.1138L208.318 46.8234C205.933 46.4989 204.78 42.9863 210.281 42.5424C222.301 41.5869 228.933 43.734 229.823 45.1138Z"></path>
<path fill="#EF4D55" d="M224.007 50.5656C224.354 53.4842 222.654 56.1148 220.236 56.4027C217.818 56.6905 215.547 54.5297 215.2 51.6111L224.007 50.5656Z"></path>
<path fill="#F1B4A5" d="M254.464 64.0177C255.232 64.2768 256.06 64.3023 256.843 64.091C257.625 63.8797 258.328 63.441 258.861 62.8305C259.395 62.22 259.735 61.465 259.84 60.6611C259.944 59.8571 259.808 59.0403 259.448 58.3138C259.088 57.5872 258.521 56.9838 257.818 56.5795C257.116 56.1752 256.309 55.9884 255.5 56.0426C254.691 56.0968 253.917 56.3896 253.274 56.884C252.632 57.3784 252.15 58.0522 251.89 58.8203C251.718 59.3305 251.648 59.8698 251.684 60.4072C251.72 60.9446 251.861 61.4696 252.1 61.9523C252.339 62.4349 252.671 62.8658 253.077 63.2202C253.482 63.5746 253.954 63.8456 254.464 64.0177Z"></path>
<path fill="#F1B4A5" d="M202.647 65.546C203.478 65.8276 204.374 65.8563 205.222 65.6283C206.069 65.4004 206.83 64.9261 207.408 64.2655C207.986 63.605 208.355 62.7878 208.469 61.9174C208.582 61.047 208.435 60.1625 208.045 59.3759C207.656 58.5893 207.042 57.936 206.281 57.4986C205.52 57.0611 204.646 56.8593 203.77 56.9186C202.894 56.9779 202.056 57.2957 201.361 57.8317C200.666 58.3678 200.145 59.0979 199.866 59.9299C199.491 61.0434 199.573 62.2602 200.095 63.3131C200.616 64.366 201.534 65.169 202.647 65.546Z"></path>
<defs>
<filter color-interpolation-filters="sRGB" filterUnits="userSpaceOnUse" height="23.1665" width="119.323" y="151.264" x="87.0098" id="filter0_d_1006_3498">
<feFlood result="BackgroundImageFix" flood-opacity="0"></feFlood>
<feColorMatrix result="hardAlpha" values="0 0 0 0 0 0 0 0 0 0 0 0 0 0 0 0 0 0 127 0" type="matrix" in="SourceAlpha"></feColorMatrix>
<feOffset dy="1" dx="2.26361"></feOffset>
<feComposite operator="out" in2="hardAlpha"></feComposite>
<feColorMatrix values="0 0 0 0 0 0 0 0 0 0 0 0 0 0 0 0 0 0 0.15 0" type="matrix"></feColorMatrix>
<feBlend result="effect1_dropShadow_1006_3498" in2="BackgroundImageFix" mode="normal"></feBlend>
<feBlend result="shape" in2="effect1_dropShadow_1006_3498" in="SourceGraphic" mode="normal"></feBlend>
</filter>
</defs>
</svg>
