<svg xmlns="http://www.w3.org/2000/svg" fill="none" viewBox="0 0 327 160" height="160" width="327">
<g clip-path="url(#clip0_1203_8273)">
<path stroke-miterlimit="10" stroke-width="2.9823" stroke="#42A864" fill="#21286E" d="M131.514 37.5981C131.514 22.402 119.196 10.0831 104 10.0831C88.805 10.0831 76.4868 22.402 76.4868 37.5981V93.7597C76.4868 108.956 88.805 121.275 104 121.275C119.196 121.275 131.514 108.956 131.514 93.7597V37.5981Z"></path>
<path fill="#F4F4F4" d="M120.513 52.4651H86.8583C84.8339 52.4651 83.1928 54.1062 83.1928 56.1306V88.8972C83.1928 90.9216 84.8339 92.5627 86.8583 92.5627H120.513C122.537 92.5627 124.179 90.9216 124.179 88.8972V56.1306C124.179 54.1062 122.537 52.4651 120.513 52.4651Z"></path>
<path fill="#00025B" d="M117.418 71.6331C117.364 74.1209 116.331 76.4871 114.543 78.218C112.756 79.9489 110.357 80.9047 107.869 80.8779C105.381 80.8511 103.004 79.8439 101.254 78.0749C99.5036 76.3059 98.522 73.918 98.522 71.4296C98.522 68.9412 99.5036 66.5533 101.254 64.7843C103.004 63.0153 105.381 62.0081 107.869 61.9813C110.357 61.9545 112.756 62.9102 114.543 64.6411C116.331 66.372 117.364 68.7383 117.418 71.2261C117.418 71.3776 117.418 71.4964 117.418 71.6331Z"></path>
<path fill="#FB8266" d="M117.525 73.2937C117.552 75.1279 117.214 76.9492 116.531 78.6517C115.848 80.3541 114.833 81.9036 113.545 83.2103C112.257 84.5169 110.723 85.5545 109.031 86.2627C107.338 86.9709 105.522 87.3356 103.688 87.3356C101.853 87.3356 100.037 86.9709 98.345 86.2627C96.6528 85.5545 95.1182 84.5169 93.8306 83.2103C92.543 81.9036 91.528 80.3541 90.8447 78.6517C90.1613 76.9492 89.8232 75.1279 89.8501 73.2937C89.8501 72.8748 89.8679 72.459 89.9065 72.0491C89.991 71.0853 90.1782 70.1333 90.465 69.2094C90.9065 67.7734 91.5809 66.4197 92.4611 65.2023C94.1718 62.8266 96.5918 61.0547 99.3732 60.1415C102.155 59.2284 105.154 59.2209 107.94 60.1203C110.726 61.0197 113.155 62.7794 114.877 65.1466C116.6 67.5137 117.527 70.3662 117.525 73.2937Z"></path>
<path fill="#56271F" d="M107.875 72.9759C108.542 72.9759 109.084 72.4346 109.084 71.7669C109.084 71.0993 108.542 70.558 107.875 70.558C107.207 70.558 106.666 71.0993 106.666 71.7669C106.666 72.4346 107.207 72.9759 107.875 72.9759Z"></path>
<path fill="#56271F" d="M99.4961 73.27C100.164 73.27 100.705 72.7287 100.705 72.061C100.705 71.3933 100.164 70.8521 99.4961 70.8521C98.8284 70.8521 98.2872 71.3933 98.2872 72.061C98.2872 72.7287 98.8284 73.27 99.4961 73.27Z"></path>
<path stroke-miterlimit="10" stroke-width="0.873302" stroke="#56271F" d="M103.18 72.3281C104.071 72.5093 104.505 72.9223 104.496 73.4866C104.468 73.7738 104.338 74.0416 104.131 74.2423C103.924 74.443 103.652 74.5637 103.364 74.5827"></path>
<path stroke-miterlimit="10" stroke-width="0.873302" stroke="#56271F" d="M106.368 75.3135C106.368 75.3135 106.454 78.0908 103.84 78.174C102.011 78.2334 101.265 76.2165 101.307 75.5214"></path>
<path fill="#AC4734" d="M117.63 72.7411C117.615 72.0068 117.543 71.2748 117.413 70.5519C117.357 70.2548 117.288 69.9341 117.211 69.6281C116.727 66.2442 114.999 63.1622 112.365 60.9839C109.73 58.8057 106.379 57.6876 102.964 57.8479C99.5495 58.0082 96.3172 59.4355 93.8985 61.8511C91.4798 64.2666 90.0483 67.4969 89.8834 70.9113C89.6404 72.5001 89.6735 74.1191 89.9814 75.6966C90.329 75.8422 91.3538 75.2362 91.4666 75.2184L91.6478 71.3331L93.7271 68.0478C94.7886 66.3606 96.2607 64.9701 98.0056 64.0065C99.7506 63.0429 101.711 62.5375 103.705 62.5377C105.69 62.5381 107.642 63.0395 109.382 63.9955C111.121 64.9514 112.591 66.3309 113.656 68.0062L115.673 71.1816L115.883 75.0817C115.91 75.0817 116.977 75.7887 117.395 75.5451C117.567 74.6206 117.646 73.6813 117.63 72.7411Z"></path>
<path fill="#FB8266" d="M89.3666 76.6444C91.2023 76.6444 92.6904 75.1562 92.6904 73.3205C92.6904 71.4847 91.2023 69.9966 89.3666 69.9966C87.5308 69.9966 86.0427 71.4847 86.0427 73.3205C86.0427 75.1562 87.5308 76.6444 89.3666 76.6444Z"></path>
<path fill="#FB8266" d="M118.004 76.6444C119.84 76.6444 121.328 75.1562 121.328 73.3205C121.328 71.4847 119.84 69.9966 118.004 69.9966C116.169 69.9966 114.681 71.4847 114.681 73.3205C114.681 75.1562 116.169 76.6444 118.004 76.6444Z"></path>
<path fill="#CCD7D6" d="M158.053 146.173L157.8 116.87C157.792 116.068 157.469 115.303 156.9 114.739C156.331 114.175 155.563 113.858 154.762 113.858H122.467L108.783 146.173H90.3066V159.896H158.053V146.173Z"></path>
<path fill="#A3A3A3" d="M139.298 113.855L125.61 146.173H90.307L102.89 116.469C103.217 115.697 103.764 115.038 104.463 114.576C105.161 114.113 105.981 113.866 106.82 113.867L139.298 113.855Z"></path>
<path fill="black" d="M123.614 135.872L119.203 146.173H96.7944C96.833 146.051 96.8805 145.926 96.931 145.805L102.694 132.343C103.039 131.536 103.613 130.848 104.346 130.365C105.078 129.882 105.936 129.624 106.814 129.625H119.491C120.233 129.624 120.964 129.808 121.617 130.159C122.27 130.511 122.826 131.019 123.235 131.638C123.643 132.257 123.892 132.968 123.958 133.707C124.024 134.446 123.906 135.19 123.614 135.872Z"></path>
<path fill="#F4333D" d="M252.453 52.3777L252.345 155.263C252.342 158.632 251 161.861 248.615 164.241C246.231 166.62 242.999 167.955 239.63 167.952L158.053 167.866L158.187 39.5733L239.76 39.6587C241.429 39.6599 243.081 39.9899 244.622 40.6298C246.163 41.2698 247.563 42.2071 248.742 43.3883C249.921 44.5695 250.855 45.9713 251.492 47.5138C252.129 49.0562 252.455 50.709 252.453 52.3777Z"></path>
<path stroke-miterlimit="10" stroke-width="4.17311" stroke="#FFCE54" d="M205.294 129.282C218.619 129.282 229.421 118.48 229.421 105.156C229.421 91.8308 218.619 81.0291 205.294 81.0291C191.97 81.0291 181.168 91.8308 181.168 105.156C181.168 118.48 191.97 129.282 205.294 129.282Z"></path>
<path stroke-miterlimit="10" stroke-width="4.17311" stroke="#FFCE54" d="M206.455 129.282C200.534 129.282 195.749 118.473 195.762 105.147C195.774 91.8217 200.584 81.0291 206.505 81.0332"></path>
<path stroke-miterlimit="10" stroke-width="4.17311" stroke="#FFCE54" d="M205.089 129.282C211.005 129.282 215.832 118.489 215.832 105.168C215.832 91.8465 211.059 81.0373 205.142 81.0332"></path>
<path stroke-miterlimit="10" stroke-width="4.17311" stroke="#FFCE54" d="M181.169 105.131L229.88 105.18"></path>
<path fill="#FFCE54" d="M208.107 145.68L202.277 145.674C200.212 145.672 198.536 147.344 198.534 149.409L198.533 149.69C198.531 151.756 200.204 153.432 202.269 153.434L208.099 153.44C210.164 153.442 211.84 151.77 211.842 149.704L211.843 149.423C211.845 147.358 210.172 145.682 208.107 145.68Z"></path>
<path stroke-miterlimit="10" stroke-width="3.82535" stroke="#FFCE54" d="M189.118 55.2949L218.727 55.3238"></path>
<path stroke-miterlimit="10" stroke-width="3.82535" stroke="#FFCE54" d="M181.21 64.6992L229.459 64.7488"></path>
</g>
<defs>
<clipPath id="clip0_1203_8273">
<rect fill="white" height="160" width="327"></rect>
</clipPath>
</defs>
</svg>
