<svg xmlns="http://www.w3.org/2000/svg" fill="none" viewBox="0 0 120 120" height="120" width="120">
<g clip-path="url(#clip0_1084_7670)">
<path fill="#CE2027" d="M45.6992 70.4727H75.7095L72.9644 48.8407C69.2471 49.8701 65.1866 50.4134 60.9689 50.4134C56.5653 50.4134 52.3475 49.8273 48.4872 48.6978L45.6992 70.4727Z"></path>
<path fill="#531113" d="M80.7423 109.69H40.8096L45.7994 70.4297H75.6953L80.7423 109.69Z"></path>
<path fill="#F49298" d="M56.2076 60.6359C58.9671 60.6359 61.1975 58.4055 61.1975 55.6461C61.1975 52.8866 58.9671 50.6562 56.2076 50.6562C53.4482 50.6562 51.2178 52.8866 51.2178 55.6461C51.2035 58.3912 53.4482 60.6359 56.2076 60.6359Z"></path>
<path fill="#F6AAAF" d="M78.2397 29.2102C78.2397 39.3327 70.0329 47.5395 59.9104 47.5395C49.7878 47.5395 41.5811 39.3327 41.5811 29.2102C41.5811 27.0655 41.9528 24.9924 42.6248 23.0766C45.1411 15.9707 51.9181 10.8809 59.8961 10.8809C67.874 10.8809 74.6653 15.9707 77.1816 23.0909C77.8679 25.0067 78.2397 27.0655 78.2397 29.2102Z"></path>
<path fill="#CE2027" d="M77.1815 23.0909H42.6104C45.141 15.9707 51.918 10.8809 59.8959 10.8809C67.8739 10.8809 74.6652 15.9707 77.1815 23.0909Z"></path>
<path fill="#CE2027" d="M77.1394 23.0908H42.6111C38.8508 23.6913 37.4497 27.8805 46.2855 27.8805C65.587 27.8662 75.8955 24.7636 77.1394 23.0908Z"></path>
<path stroke-miterlimit="10" stroke-width="1.5" stroke="#56271F" d="M50.7031 36.9594C52.1043 41.4202 58.2522 41.4345 58.2236 35.8013"></path>
<path fill="white" d="M58.8666 70.4295H57.9659L50.8029 41.7203H30.472L30.4434 41.6631L31.4299 41.034L51.575 40.8481L58.8666 70.4295Z"></path>
<path fill="#E7454E" d="M57.9659 70.4295H37.6064L30.4434 41.7202H50.8029L57.9659 70.4295Z" opacity="0.4"></path>
<path fill="#F49298" d="M34.8472 67.0841C37.6066 67.0841 39.837 64.8537 39.837 62.0943C39.837 59.3349 37.6066 57.1045 34.8472 57.1045C32.0878 57.1045 29.8574 59.3349 29.8574 62.0943C29.8574 64.8537 32.0878 67.0841 34.8472 67.0841Z"></path>
</g>
<defs>
<clipPath id="clip0_1084_7670">
<rect transform="translate(29.8574 10.8809)" fill="white" height="98.8095" width="50.8845"></rect>
</clipPath>
</defs>
</svg>
