<svg xmlns="http://www.w3.org/2000/svg" fill="none" viewBox="0 0 327 246" height="246" width="327">
<path fill="#D97223" d="M153.481 201.804C153.481 201.804 154.134 203.068 154.467 203.769C156.31 207.663 159.564 214.507 167.56 219.042C168.703 219.696 169.888 220.274 171.108 220.773C174.569 222.181 178.27 222.907 182.007 222.91C186.525 222.935 190.976 221.819 194.948 219.665C200.244 216.749 207.063 210.484 209.46 197.192C209.806 195.262 210.26 192.402 210.784 189.084C212.017 181.295 214.578 165.109 216.253 160.627L196.22 157.853C193.975 163.867 191.919 171.457 189.661 185.743C189.15 188.937 188.718 191.693 188.41 193.402C188.004 195.66 186.97 199.641 184.633 200.926C182.902 201.878 180.415 201.467 179.168 200.96C178.154 200.578 177.238 199.972 176.49 199.187C175.482 198.114 174.76 196.668 173.79 194.618C172.661 192.238 171.385 189.547 169.031 187.214C165.323 183.515 160.321 182.113 154.947 183.269L153.481 201.804Z"></path>
<path fill="#FFC638" d="M117.413 230.6H171.736C171.736 230.6 161.173 185.75 160.63 184.571C160.086 183.392 158.999 182.84 157.363 182.931C157.363 182.931 154.499 183.472 152.811 183.697C148.888 184.232 144.933 184.501 140.973 184.502C135.985 184.502 131.515 183.598 127.236 182.944C123.502 182.373 119.513 185.722 119.162 189.503L117.413 230.6Z"></path>
<path fill="#D97223" d="M139.163 180.253C129.727 180.253 122.077 172.603 122.077 163.167C122.077 153.73 129.727 146.08 139.163 146.08C148.6 146.08 156.25 153.73 156.25 163.167C156.25 172.603 148.6 180.253 139.163 180.253Z"></path>
<path fill="#A64A35" d="M144.656 173.125C142.911 173.377 141.137 172.926 139.724 171.872C138.311 170.817 137.374 169.245 137.119 167.5L136.6 163.896C136.532 163.419 136.656 162.934 136.945 162.548C137.233 162.162 137.663 161.906 138.14 161.836L147.581 159.517C147.818 159.483 148.058 159.495 148.29 159.554C148.521 159.613 148.739 159.717 148.93 159.86C149.122 160.003 149.283 160.183 149.405 160.388C149.527 160.594 149.607 160.821 149.641 161.057L150.156 164.662C150.688 168.287 148.291 172.606 144.656 173.125Z"></path>
<path fill="#56271F" d="M136.726 158.743C135.875 158.743 135.185 158.053 135.185 157.202C135.185 156.352 135.875 155.662 136.726 155.662C137.576 155.662 138.266 156.352 138.266 157.202C138.266 158.053 137.576 158.743 136.726 158.743Z"></path>
<path fill="#56271F" d="M147.171 156.22C146.32 156.22 145.63 155.531 145.63 154.68C145.63 153.829 146.32 153.14 147.171 153.14C148.021 153.14 148.711 153.829 148.711 154.68C148.711 155.531 148.021 156.22 147.171 156.22Z"></path>
<path stroke-miterlimit="10" stroke-width="1.24177" stroke="#56271F" d="M141.109 156.575C144.09 155.654 144.462 158.873 141.589 159.249"></path>
<path fill="#56271F" d="M140.408 162.883C140.785 164.502 142.052 166.154 143.87 165.735C146.18 165.194 145.96 162.762 145.661 161.49L140.408 162.883Z"></path>
<path fill="#56271E" d="M119.513 166.545C118.937 166.371 118.419 166.042 118.017 165.593C117.615 165.145 117.343 164.595 117.232 164.003C117.122 163.411 117.175 162.8 117.388 162.236C117.601 161.673 117.964 161.179 118.438 160.807C119.246 159.862 119.772 158.708 119.956 157.478C120.14 156.248 119.974 154.991 119.477 153.85C119.232 152.92 119.366 151.931 119.849 151.1C120.331 150.268 121.124 149.661 122.053 149.413C122.122 149.405 122.195 149.397 122.266 149.366C122.293 148.721 122.485 148.093 122.822 147.542C123.16 146.991 123.633 146.536 124.195 146.218C124.758 145.901 125.393 145.733 126.039 145.729C126.685 145.725 127.321 145.886 127.888 146.197C127.844 145.355 128.082 144.523 128.562 143.83C129.043 143.138 129.74 142.625 130.544 142.372C131.348 142.119 132.214 142.141 133.004 142.433C133.795 142.725 134.466 143.271 134.912 143.986C135.156 143.241 135.623 142.589 136.251 142.119C136.879 141.649 137.636 141.385 138.42 141.362C139.204 141.339 139.976 141.559 140.63 141.991C141.284 142.423 141.789 143.047 142.076 143.776C142.083 143.841 142.117 143.907 142.138 143.97C142.52 143.562 142.989 143.245 143.51 143.042C144.129 142.798 144.801 142.721 145.46 142.818C146.118 142.916 146.739 143.184 147.262 143.596C147.784 144.008 148.189 144.55 148.437 145.167C148.685 145.785 148.766 146.457 148.674 147.116C148.581 147.774 148.317 148.398 147.909 148.923C147.5 149.448 146.961 149.857 146.345 150.109C145.729 150.361 145.058 150.447 144.399 150.359C143.739 150.271 143.114 150.011 142.586 149.606C142.201 150.492 141.492 151.198 140.605 151.581C139.718 151.963 138.718 151.994 137.81 151.666C137.378 152.382 136.721 152.936 135.942 153.24C135.163 153.544 134.305 153.582 133.503 153.348C133.362 153.955 133.074 154.518 132.664 154.987C132.255 155.456 131.736 155.817 131.154 156.039C130.572 156.261 129.944 156.336 129.326 156.258C128.708 156.18 128.119 155.951 127.61 155.591C127.462 156.487 127.001 157.301 126.307 157.888C127.159 158.246 127.877 158.863 128.36 159.651C128.843 160.439 129.067 161.359 128.999 162.281C128.932 163.203 128.577 164.08 127.985 164.79C127.393 165.5 126.593 166.006 125.698 166.237C125.278 166.352 124.844 166.403 124.409 166.388C124.803 166.793 125.088 167.292 125.237 167.838C125.391 168.409 125.386 169.012 125.224 169.582C125.755 169.661 126.255 169.883 126.67 170.224C127.085 170.565 127.401 171.012 127.583 171.517C127.764 172.023 127.806 172.568 127.703 173.095C127.601 173.622 127.357 174.112 126.999 174.512C126.64 174.912 126.18 175.207 125.667 175.367C125.155 175.527 124.608 175.545 124.086 175.42C123.563 175.294 123.085 175.03 122.701 174.654C122.317 174.279 122.041 173.806 121.904 173.287C121.791 172.862 121.775 172.418 121.856 171.986C121.248 171.949 120.663 171.744 120.166 171.394C119.668 171.045 119.277 170.564 119.036 170.005C118.795 169.446 118.714 168.832 118.802 168.23C118.889 167.628 119.142 167.062 119.532 166.595L119.513 166.545Z"></path>
<path fill="#56271E" d="M130.062 157.869C130.062 159.912 128.405 161.569 126.362 161.569C124.319 161.569 122.663 159.912 122.663 157.869C122.663 155.826 124.319 154.17 126.362 154.17C128.405 154.17 130.062 155.826 130.062 157.869Z"></path>
<path fill="#56271E" d="M129.326 167.263C129.326 169.306 127.67 170.962 125.627 170.962C123.583 170.962 121.927 169.306 121.927 167.263C121.927 165.219 123.583 163.563 125.627 163.563C127.67 163.563 129.326 165.219 129.326 167.263Z"></path>
<path fill="#531113" d="M216.079 161.279L196.354 160.966L199.118 141.689L213.898 141.922L216.079 161.279Z"></path>
<path fill="#F6AAAF" d="M203.766 128.52C205.325 129.193 207.049 129.387 208.718 129.08C210.388 128.772 211.93 127.977 213.147 126.793C214.365 125.61 215.205 124.092 215.56 122.431C215.915 120.771 215.769 119.042 215.142 117.464C214.515 115.887 213.434 114.53 212.035 113.567C210.637 112.603 208.985 112.076 207.287 112.052C205.589 112.028 203.922 112.507 202.497 113.43C201.072 114.353 199.952 115.678 199.28 117.238C198.834 118.273 198.596 119.386 198.579 120.514C198.563 121.641 198.769 122.76 199.186 123.808C199.603 124.856 200.221 125.811 201.007 126.62C201.793 127.428 202.73 128.074 203.766 128.52Z"></path>
<path fill="#EE373F" d="M200.073 115.726C201.096 113.978 202.714 112.655 204.631 112.001C206.548 111.347 208.637 111.405 210.515 112.164C212.394 112.923 213.936 114.333 214.861 116.135C215.785 117.938 216.03 120.013 215.55 121.981C215.55 121.981 214.003 118.321 208.842 116.093C203.681 113.865 200.073 115.726 200.073 115.726Z"></path>
<path fill="#EE373F" d="M200.048 115.787C200.048 115.787 197.972 113.334 200.259 111.683C203.047 110.048 211.579 115.023 213.702 118.23C215.38 120.763 215.401 122.048 215.401 122.048C212.072 119.204 205.481 114.799 200.048 115.787Z"></path>
<path fill="#CE2027" d="M213.853 141.924L199.073 141.69L200.591 131.053C204.528 132.169 208.692 132.209 212.65 131.169L213.853 141.924Z"></path>
<path fill="#EF4D55" d="M206.614 122.214C206.368 122.726 205.934 123.123 205.401 123.322C204.869 123.52 204.28 123.505 203.759 123.279C203.238 123.053 202.824 122.633 202.605 122.109C202.386 121.585 202.379 120.996 202.585 120.466L206.614 122.214Z"></path>
<path fill="#F6AAAF" d="M190.115 126.734C190.681 126.742 191.237 126.582 191.712 126.274C192.187 125.966 192.56 125.524 192.784 125.005C193.008 124.485 193.073 123.91 192.971 123.354C192.869 122.797 192.604 122.283 192.21 121.877C191.815 121.47 191.31 121.19 190.756 121.071C190.203 120.952 189.627 121 189.1 121.209C188.574 121.417 188.121 121.777 187.8 122.243C187.478 122.708 187.301 123.259 187.292 123.825C187.286 124.201 187.354 124.575 187.493 124.925C187.632 125.275 187.838 125.595 188.1 125.865C188.362 126.135 188.675 126.351 189.021 126.5C189.367 126.649 189.739 126.728 190.115 126.734Z"></path>
<path fill="#F6AAAF" d="M222.761 125.845C223.327 125.853 223.882 125.693 224.357 125.385C224.832 125.078 225.205 124.636 225.43 124.116C225.654 123.596 225.719 123.022 225.616 122.465C225.514 121.908 225.249 121.394 224.855 120.988C224.461 120.582 223.955 120.302 223.402 120.183C222.848 120.064 222.272 120.112 221.746 120.32C221.22 120.529 220.767 120.889 220.445 121.354C220.123 121.82 219.947 122.37 219.937 122.936C219.931 123.313 220 123.687 220.138 124.037C220.277 124.387 220.483 124.706 220.746 124.976C221.008 125.247 221.321 125.462 221.667 125.611C222.012 125.761 222.384 125.84 222.761 125.845Z"></path>
<path fill="#FFC638" d="M153.482 201.804C153.482 201.804 154.135 203.068 154.468 203.769C156.311 207.663 159.565 214.508 167.561 219.042L176.491 199.169C175.483 198.096 174.761 196.651 173.791 194.6C172.662 192.221 171.386 189.53 169.032 187.197C165.324 183.498 160.322 182.096 154.948 183.251L153.482 201.804Z"></path>
<path stroke-miterlimit="10" stroke-width="21.387" stroke="#D97223" d="M133.681 205.997C133.564 213.854 136.632 216.567 141.582 217.307C151.1 218.717 157.309 207.169 161.956 195.158C169.177 176.48 174.171 168.333 182.469 166.965"></path>
<circle fill="#D97223" r="4.11143" cy="161.965" cx="127.115"></circle>
<g clip-path="url(#clip0_1006_3439)">
<path fill="white" d="M180 106H150V136H180V106Z"></path>
<path fill="#4F4F4F" d="M153 118H162.001V109H153V118ZM154.502 110.5H160.502V116.5H154.502V110.5Z" clip-rule="evenodd" fill-rule="evenodd"></path>
<path fill="#4F4F4F" d="M159.001 112H156V115H159.001V112Z"></path>
<path fill="#4F4F4F" d="M153 132.998H162.001V124H153V132.998ZM154.502 125.498H160.502V131.496H154.502V125.498Z" clip-rule="evenodd" fill-rule="evenodd"></path>
<path fill="#4F4F4F" d="M159.001 127H156V130H159.001V127Z"></path>
<path fill="#4F4F4F" d="M177 109H168.001V118H177V109ZM175.502 116.5H169.502V110.5H175.502V116.5Z" clip-rule="evenodd" fill-rule="evenodd"></path>
<path fill="#4F4F4F" d="M174.002 112H171.001V115H174.002V112Z"></path>
<path fill="#4F4F4F" d="M153.752 118.75V121.75H158.251V123.248H159.752V121.75H161.251V120.25H155.252V118.75H153.752Z" clip-rule="evenodd" fill-rule="evenodd"></path>
<path fill="#4F4F4F" d="M177.002 121.75V120.25H175.501V118.75H174.001V120.25H172.501V124.75H167.251V126.25H177.002V124.75H174.001V121.75H177.002Z" clip-rule="evenodd" fill-rule="evenodd"></path>
<path fill="#4F4F4F" d="M166.503 121.75H168.753V123.25H170.253V120.25H165.001V118H166.503V116.5H165.001V114.25H167.251V109.752H165.753V112.752H163.503V124H166.503V121.75Z" clip-rule="evenodd" fill-rule="evenodd"></path>
<path fill="#4F4F4F" d="M175.501 127.748H174.001V129.25H172.501V131.498H170.251V128.498H165.751V127H164.25V133H165.751V129.998H168.752V133H177.001V131.498H175.501V127.748Z" clip-rule="evenodd" fill-rule="evenodd"></path>
</g>
<g clip-path="url(#clip1_1006_3439)">
<path fill="#FFDBDE" d="M129.154 93.3931H92.4267C90.3357 93.3931 88.6406 95.1045 88.6406 97.2158V120.322C88.6406 122.433 90.3357 124.145 92.4267 124.145H129.154C131.245 124.145 132.94 122.433 132.94 120.322V97.2158C132.94 95.1045 131.245 93.3931 129.154 93.3931Z"></path>
<path fill="white" d="M100.848 105.961H93.3169V115.365H100.848V105.961Z"></path>
<path fill="white" d="M124.369 119.446C126.466 119.446 128.166 118.354 128.166 117.007C128.166 115.66 126.466 114.568 124.369 114.568C122.272 114.568 120.572 115.66 120.572 117.007C120.572 118.354 122.272 119.446 124.369 119.446Z"></path>
<path stroke-miterlimit="10" stroke-width="0.61544" stroke="#F873AD" d="M88.6328 99.6422L132.932 99.6179"></path>
</g>
<g clip-path="url(#clip2_1006_3439)">
<path stroke-miterlimit="10" stroke-width="1.29476" stroke="#42A864" fill="white" d="M171.019 56.511H136.235C134.775 56.511 133.59 57.6952 133.59 59.1561V79.214C133.59 80.6749 134.775 81.8591 136.235 81.8591H171.019C172.479 81.8591 173.664 80.6749 173.664 79.214V59.1561C173.664 57.6952 172.479 56.511 171.019 56.511Z"></path>
<path stroke-linecap="round" stroke-miterlimit="10" stroke-width="1.17041" stroke="#42A864" d="M144.279 71.3196C147.858 71.403 153.883 68.7199 154.547 64.9292C155.152 61.478 151.864 61.8671 150.44 63.9621C148.559 66.7301 148.607 70.5149 152.049 72.5939C155.492 74.6728 160.242 71.3971 159.657 69.6123C159.072 67.8274 156.658 68.2517 156.073 69.8025C155.487 71.3533 155.246 73.7994 158.437 74.9084C161.628 76.0174 164.263 73.6926 164.263 73.6926"></path>
</g>
<g filter="url(#filter0_d_1006_3439)" clip-path="url(#clip3_1006_3439)">
<path fill="white" d="M196.917 13.426H165.216C164.69 13.426 164.263 13.853 164.263 14.3796V61.4065C164.263 61.9332 164.69 62.3601 165.216 62.3601H196.917C197.444 62.3601 197.87 61.9332 197.87 61.4065V14.3796C197.87 13.853 197.444 13.426 196.917 13.426Z"></path>
<path stroke-miterlimit="10" stroke-width="0.185859" stroke="#E6E7E8" d="M192.918 14.8315H169.215C167.234 14.8315 165.628 16.4377 165.628 18.4189V57.367C165.628 59.3483 167.234 60.9544 169.215 60.9544H192.918C194.9 60.9544 196.506 59.3483 196.506 57.367V18.4189C196.506 16.4377 194.9 14.8315 192.918 14.8315Z"></path>
<path stroke-miterlimit="10" stroke-width="0.722888" stroke="#E6E7E8" d="M173.252 43.5454H188.88"></path>
<path stroke-miterlimit="10" stroke-width="0.722888" stroke="#E6E7E8" d="M173.252 48.1067H188.88"></path>
<path stroke-miterlimit="10" stroke-width="0.642567" stroke="#E6E7E8" d="M176.953 52.6675H185.178"></path>
<path fill="#004E84" d="M178.272 37.9286L177.14 35.2098L174.473 36.4586C174.439 36.4751 174.401 36.481 174.364 36.4754C174.326 36.4698 174.292 36.453 174.264 36.4272C174.236 36.4014 174.217 36.3678 174.209 36.3309C174.201 36.2939 174.204 36.2554 174.218 36.2204L177.088 28.8057L181.491 30.5092L178.62 37.9249C178.607 37.9602 178.583 37.9906 178.552 38.0123C178.522 38.0339 178.485 38.0457 178.447 38.0461C178.409 38.0465 178.373 38.0355 178.341 38.0145C178.31 37.9935 178.286 37.9636 178.272 37.9286Z"></path>
<path fill="#004E84" d="M184.002 37.7707L184.981 34.9931L187.713 36.0924C187.748 36.1073 187.787 36.1112 187.824 36.1036C187.861 36.096 187.895 36.0772 187.921 36.0498C187.948 36.0225 187.965 35.9877 187.971 35.9503C187.977 35.9128 187.971 35.8744 187.955 35.8402L184.679 28.5955L180.377 30.54L183.653 37.7857C183.668 37.8203 183.694 37.8495 183.726 37.8696C183.758 37.8896 183.795 37.8994 183.833 37.8978C183.87 37.8962 183.907 37.8832 183.937 37.8605C183.967 37.8378 183.99 37.8065 184.002 37.7707Z"></path>
<path fill="#FFE457" d="M182.059 18.5394C182.13 18.7409 182.246 18.9235 182.398 19.0733C182.551 19.2231 182.735 19.3361 182.938 19.4036C183.141 19.4711 183.356 19.4914 183.568 19.4628C183.78 19.4343 183.982 19.3577 184.16 19.2389C185.293 18.4833 186.729 19.6228 186.251 20.8976C186.176 21.0976 186.147 21.3121 186.168 21.5248C186.188 21.7374 186.257 21.9426 186.369 22.1246C186.481 22.3066 186.633 22.4605 186.814 22.5747C186.994 22.6888 187.198 22.7602 187.411 22.7833C188.764 22.9327 189.132 24.7287 187.947 25.3984C187.761 25.5032 187.601 25.6492 187.48 25.8252C187.359 26.0013 187.28 26.2027 187.248 26.4141C187.217 26.6254 187.235 26.8411 187.299 27.0447C187.364 27.2482 187.475 27.4343 187.623 27.5885C188.563 28.5729 187.691 30.1859 186.353 29.9365C186.143 29.8972 185.926 29.9064 185.721 29.9634C185.515 30.0204 185.325 30.1238 185.165 30.2655C185.005 30.4073 184.88 30.5837 184.799 30.7813C184.718 30.9789 184.683 31.1925 184.697 31.4056C184.784 32.7645 183.08 33.4389 182.214 32.3882C182.079 32.2231 181.907 32.0912 181.713 32.0026C181.519 31.9139 181.307 31.8709 181.093 31.8768C180.88 31.8826 180.67 31.9372 180.481 32.0364C180.292 32.1355 180.128 32.2766 180.002 32.4489C179.196 33.5463 177.456 32.9672 177.469 31.6083C177.471 31.3947 177.424 31.1834 177.333 30.9905C177.241 30.7977 177.106 30.6284 176.939 30.4956C176.771 30.3629 176.576 30.2702 176.367 30.2246C176.158 30.179 175.942 30.1817 175.734 30.2326C174.411 30.5548 173.451 28.9932 174.333 27.9583C174.472 27.7962 174.573 27.6044 174.626 27.3976C174.68 27.1907 174.685 26.9744 174.642 26.7652C174.599 26.5559 174.509 26.3592 174.379 26.1901C174.248 26.021 174.081 25.8841 173.889 25.7897C172.668 25.1864 172.936 23.3726 174.279 23.1484C174.49 23.1136 174.69 23.031 174.864 22.9071C175.038 22.7831 175.181 22.621 175.283 22.4332C175.384 22.2454 175.442 22.0368 175.45 21.8235C175.459 21.6101 175.419 21.3975 175.333 21.2021C174.785 19.9552 176.157 18.7383 177.33 19.4275C177.513 19.5356 177.719 19.6003 177.932 19.6167C178.144 19.6331 178.358 19.6008 178.556 19.5223C178.754 19.4437 178.932 19.321 179.075 19.1635C179.219 19.0059 179.324 18.8177 179.384 18.6131C179.775 17.3065 181.605 17.2561 182.059 18.5394Z"></path>
</g>
<g clip-path="url(#clip4_1006_3439)">
<path fill="#6ECEC3" d="M235.696 70.614L196.556 70.9897C194.727 71.0073 193.258 72.5042 193.276 74.3331L193.514 99.1739C193.532 101.003 195.029 102.471 196.858 102.454L235.998 102.078C237.827 102.061 239.295 100.564 239.278 98.7345L239.039 73.8938C239.022 72.0648 237.525 70.5964 235.696 70.614Z"></path>
<path fill="white" d="M204.797 83.7047L199.957 83.7531C199.145 83.7612 198.493 84.4261 198.502 85.2381L198.568 91.9194C198.576 92.7314 199.241 93.3831 200.053 93.3749L204.893 93.3266C205.705 93.3184 206.357 92.6536 206.349 91.8416L206.282 85.1603C206.274 84.3483 205.609 83.6966 204.797 83.7047Z"></path>
<path fill="#6ECEC3" d="M230.383 97.343C228.217 97.3626 226.45 96.2623 226.438 94.8839C226.426 93.5055 228.169 92.3709 230.336 92.3513"></path>
<path stroke-miterlimit="10" stroke-width="0.639075" stroke="#F5F2B2" d="M193.282 77.412L239.046 76.9746"></path>
</g>
<defs>
<filter color-interpolation-filters="sRGB" filterUnits="userSpaceOnUse" height="51.6167" width="36.2905" y="13.426" x="161.58" id="filter0_d_1006_3439">
<feFlood result="BackgroundImageFix" flood-opacity="0"></feFlood>
<feColorMatrix result="hardAlpha" values="0 0 0 0 0 0 0 0 0 0 0 0 0 0 0 0 0 0 127 0" type="matrix" in="SourceAlpha"></feColorMatrix>
<feOffset dy="1.34131" dx="-1.34131"></feOffset>
<feGaussianBlur stdDeviation="0.670654"></feGaussianBlur>
<feComposite operator="out" in2="hardAlpha"></feComposite>
<feColorMatrix values="0 0 0 0 0 0 0 0 0 0 0 0 0 0 0 0 0 0 0.15 0" type="matrix"></feColorMatrix>
<feBlend result="effect1_dropShadow_1006_3439" in2="BackgroundImageFix" mode="normal"></feBlend>
<feBlend result="shape" in2="effect1_dropShadow_1006_3439" in="SourceGraphic" mode="normal"></feBlend>
</filter>
<clipPath id="clip0_1006_3439">
<rect fill="white" rx="3" height="30" width="30" y="106" x="150"></rect>
</clipPath>
<clipPath id="clip1_1006_3439">
<rect transform="translate(88.6313 93.3804)" fill="white" height="30.772" width="44.3117"></rect>
</clipPath>
<clipPath id="clip2_1006_3439">
<rect transform="translate(132.943 55.8643)" fill="white" height="26.6429" width="41.3681"></rect>
</clipPath>
<clipPath id="clip3_1006_3439">
<rect transform="translate(164.263 13.426)" fill="white" height="48.9341" width="33.6077"></rect>
</clipPath>
<clipPath id="clip4_1006_3439">
<rect transform="translate(193.252 70.6218)" fill="white" height="31.8392" width="46.0019"></rect>
</clipPath>
</defs>
</svg>
