<svg xmlns="http://www.w3.org/2000/svg" fill="none" viewBox="0 0 480 270" height="270" width="480">
<path fill="#B3B3B3" d="M324.264 132.372H342.896V149.572H324.264V132.372Z"></path>
<path fill="#293187" d="M297.988 92.2412C297.988 90.9219 299.058 89.8524 300.377 89.8524H362.007C363.326 89.8524 364.396 90.9219 364.396 92.2412V129.984C364.396 131.303 363.326 132.372 362.007 132.372H300.377C299.058 132.372 297.988 131.303 297.988 129.984V92.2412Z"></path>
<path fill="#D9B04A" d="M211.516 163.904C211.516 155.988 217.933 149.571 225.848 149.571H386.851C392.128 149.571 396.406 153.849 396.406 159.126V237H211.516V163.904Z"></path>
<path fill="#FFCF57" d="M211.516 164.191C211.516 159.469 211.516 157.108 212.332 155.263C213.293 153.087 215.032 151.349 217.207 150.387C219.053 149.571 221.413 149.571 226.135 149.571H365.065C369.786 149.571 372.147 149.571 373.993 150.387C376.168 151.349 377.907 153.087 378.868 155.263C379.684 157.108 379.684 159.469 379.684 164.19V237H211.516V164.191Z"></path>
<path fill="#3844BA" d="M293.209 92.2412C293.209 90.9219 294.278 89.8524 295.598 89.8524H357.228C358.547 89.8524 359.616 90.9219 359.616 92.2412V129.984C359.616 131.303 358.547 132.372 357.228 132.372H295.598C294.278 132.372 293.209 131.303 293.209 129.984V92.2412Z"></path>
<path fill="#D9D9D9" d="M319.488 132.372H338.121V149.572H319.488V132.372Z"></path>
<path fill="#56271F" d="M151.527 51.6519C152.444 51.0418 152.805 49.8352 152.308 48.8149C151.806 47.7575 150.585 47.2845 149.501 47.6765C150.099 46.7419 149.939 45.5017 149.074 44.7559C148.182 44.0008 146.878 44.0556 146.048 44.8561C146.209 43.7635 145.554 42.688 144.465 42.3619C143.338 42.0281 142.164 42.6082 141.747 43.6708C141.459 42.6109 140.42 41.8875 139.291 42.0331C138.063 42.1915 137.186 43.3133 137.346 44.5535C137.356 44.628 137.366 44.7024 137.388 44.7752C137.375 44.7768 137.364 44.7908 137.352 44.7924C137.335 44.7568 137.317 44.7212 137.288 44.6872C136.623 43.6381 135.235 43.338 134.186 44.0028C133.196 44.6349 132.867 45.9004 133.403 46.9282C132.409 46.4513 131.188 46.7601 130.566 47.7102C129.923 48.6884 130.141 49.9843 131.028 50.7021C129.926 50.6677 128.93 51.4518 128.747 52.5724C128.555 53.7194 129.277 54.8241 130.386 55.1099C129.368 55.5311 128.78 56.6409 129.061 57.7396C129.346 58.8754 130.458 59.5768 131.583 59.4065C130.815 60.199 130.738 61.4573 131.433 62.3511C132.157 63.2666 133.456 63.4647 134.423 62.8482C134.039 63.8812 134.482 65.0723 135.483 65.5989C136.512 66.147 137.78 65.807 138.412 64.8429C138.491 65.9423 139.365 66.851 140.497 66.9318C141.667 67.0079 142.683 66.1834 142.865 65.0504C143.382 66.0302 144.552 66.4972 145.611 66.1083C146.708 65.7147 147.313 64.5397 147.019 63.4302C147.888 64.1124 149.145 64.0765 149.964 63.29C150.804 62.4754 150.875 61.1676 150.167 60.2753C151.237 60.5534 152.377 60.003 152.796 58.9528C153.237 57.8746 152.776 56.6479 151.761 56.1105C152.848 55.9325 153.669 54.9692 153.635 53.8261C153.598 52.6582 152.67 51.7188 151.527 51.6519Z"></path>
<path fill="#F1D287" d="M144.717 81.9474C152.725 80.9146 158.379 73.586 157.346 65.5785C156.314 57.571 148.985 51.9168 140.977 52.9496C132.97 53.9824 127.316 61.311 128.348 69.3185C129.381 77.326 136.71 82.9801 144.717 81.9474Z"></path>
<path fill="#56271F" d="M161.43 70.9404C161.092 70.0762 160.289 69.524 159.422 69.4467C159.945 68.8118 160.108 67.9208 159.788 67.1046C159.353 65.9756 158.128 65.377 156.983 65.6886C157.13 65.1653 157.118 64.5867 156.897 64.0478C156.371 62.7035 154.861 62.0408 153.516 62.5673C153.443 62.5893 153.385 62.6221 153.313 62.6565C153.242 62.5901 153.172 62.5361 153.088 62.4712C153.156 62.0211 153.121 61.559 152.949 61.1021C152.423 59.7578 150.912 59.0952 149.568 59.6216C149.424 59.678 149.282 59.7468 149.153 59.8264C149.19 59.4307 149.138 59.0215 148.986 58.625C148.459 57.2806 146.949 56.618 145.604 57.1444C145.064 57.3529 144.633 57.7237 144.34 58.1902C144.315 58.0926 144.289 57.995 144.252 57.8989C143.725 56.5546 142.215 55.892 140.871 56.4184C140.09 56.7208 139.542 57.3589 139.323 58.1059C138.622 57.2633 137.443 56.9235 136.362 57.3404C135.197 57.7932 134.546 58.9994 134.737 60.1853C134.035 59.6327 133.068 59.4674 132.179 59.8091C131.002 60.2635 130.352 61.4821 130.557 62.6788C129.973 62.4515 129.303 62.4371 128.678 62.6815C127.334 63.2079 126.671 64.7182 127.198 66.0625C127.366 66.4823 127.626 66.8395 127.951 67.1128C127.542 67.0648 127.106 67.1084 126.686 67.276C125.342 67.8024 124.679 69.3127 125.206 70.657C125.412 71.1852 125.783 71.6165 126.223 71.9002C126.175 71.919 126.138 71.9238 126.09 71.9426C124.746 72.469 124.083 73.9793 124.61 75.3236C124.815 75.8394 125.158 76.2491 125.573 76.536C124.441 77.0476 123.893 78.3667 124.345 79.5313C124.798 80.696 126.072 81.2882 127.248 80.9222C127.291 81.0554 127.344 81.1747 127.386 81.3079C130.699 89.7828 140.242 93.9738 148.717 90.6616C153.086 88.9507 156.31 85.5969 157.96 81.5761C158.49 81.7726 159.086 81.7966 159.662 81.571C160.874 81.0994 161.48 79.7351 160.996 78.524C160.863 78.1755 160.649 77.8878 160.393 77.6562C161.591 77.1737 162.172 75.8127 161.702 74.6124C161.516 74.1447 161.203 73.769 160.817 73.5161C161.537 72.8432 161.788 71.8526 161.43 70.9404Z"></path>
<path fill="#A64A36" d="M145.498 96.5994C153.779 95.5313 159.627 87.9519 158.559 79.6704C157.491 71.3889 149.911 65.5413 141.63 66.6094C133.348 67.6775 127.501 75.2568 128.569 83.5383C129.637 91.8199 137.216 97.6675 145.498 96.5994Z"></path>
<path fill="#56271F" d="M157.061 72.9413C156.862 72.9669 156.667 73.0173 156.486 73.0785C156.788 72.5856 156.936 71.9739 156.856 71.3537C156.667 69.8902 155.337 68.8639 153.873 69.0527C153.712 69.0735 153.565 69.1051 153.407 69.1507C153.547 68.767 153.593 68.3449 153.539 67.9232C153.35 66.4597 152.02 65.4334 150.556 65.6221C149.961 65.6989 149.453 65.9661 149.048 66.3462C149.048 66.2454 149.035 66.1461 149.021 66.0345C148.832 64.571 147.502 63.5447 146.038 63.7334C145.195 63.8422 144.489 64.3367 144.085 65.0192C143.602 64.0098 142.512 63.3812 141.347 63.5315C140.081 63.6947 139.13 64.7253 139.036 65.9479C138.477 65.2381 137.567 64.826 136.599 64.9508C135.322 65.1155 134.372 66.1585 134.292 67.392C133.766 67.0311 133.112 66.8506 132.43 66.9386C130.967 67.1273 129.94 68.4576 130.129 69.9211C130.188 70.38 130.368 70.7981 130.616 71.157C130.219 71.0065 129.782 70.9493 129.324 71.0085C127.86 71.1972 126.834 72.5275 127.022 73.991C127.098 74.5739 127.352 75.0833 127.731 75.4758C127.681 75.4822 127.632 75.4886 127.594 75.4934C126.131 75.6821 125.105 77.0124 125.293 78.4759C125.482 79.9394 126.812 80.9657 128.276 80.777C129.739 80.5882 130.766 79.258 130.577 77.7944C130.502 77.2115 130.247 76.7022 129.869 76.3097C129.918 76.3033 129.968 76.2969 130.005 76.2921C131.468 76.1033 132.495 74.7731 132.306 73.3096C132.247 72.8507 132.067 72.4326 131.819 72.0737C132.216 72.2241 132.653 72.2814 133.111 72.2222C134.389 72.0574 135.339 71.0144 135.419 69.781C135.945 70.1419 136.599 70.3224 137.281 70.2344C138.546 70.0712 139.497 69.0406 139.592 67.818C140.15 68.5278 141.061 68.9399 142.028 68.8151C142.871 68.7064 143.577 68.2119 143.981 67.5294C144.464 68.5388 145.554 69.1674 146.719 69.017C147.315 68.9403 147.823 68.673 148.227 68.293C148.228 68.3938 148.241 68.493 148.255 68.6046C148.444 70.0682 149.774 71.0945 151.238 70.9057C151.399 70.8849 151.546 70.8533 151.704 70.8077C151.564 71.1914 151.518 71.6135 151.572 72.0352C151.761 73.4987 153.091 74.525 154.555 74.3363C154.753 74.3107 154.949 74.2603 155.13 74.1991C154.828 74.692 154.68 75.3037 154.76 75.9238C154.948 77.3873 156.279 78.4136 157.742 78.2249C159.206 78.0361 160.232 76.7059 160.043 75.2424C159.854 73.7788 158.512 72.7541 157.061 72.9413Z"></path>
<path fill="#A64A36" d="M129.063 86.8792C131.248 86.5973 132.791 84.5975 132.509 82.4124C132.227 80.2273 130.228 78.6843 128.042 78.9662C125.857 79.248 124.314 81.2478 124.596 83.4329C124.878 85.6181 126.878 87.161 129.063 86.8792Z"></path>
<path fill="#A64A36" d="M158.606 83.069C160.791 82.7872 162.334 80.7873 162.052 78.6022C161.77 76.4171 159.771 74.8742 157.585 75.156C155.4 75.4378 153.857 77.4376 154.139 79.6228C154.421 81.8079 156.421 83.3508 158.606 83.069Z"></path>
<path fill="#56271F" d="M152.752 81.0065C153.577 80.9001 154.16 80.1451 154.053 79.32C153.947 78.495 153.192 77.9125 152.367 78.0189C151.542 78.1253 150.959 78.8804 151.066 79.7054C151.172 80.5304 151.927 81.1129 152.752 81.0065Z"></path>
<path fill="#56271F" d="M141.391 82.3726C142.216 82.2662 142.798 81.5112 142.692 80.6861C142.586 79.8611 141.831 79.2786 141.006 79.385C140.181 79.4914 139.598 80.2464 139.704 81.0715C139.811 81.8965 140.566 82.479 141.391 82.3726Z"></path>
<path fill="#56271F" d="M145.79 80.6402C146.286 80.1702 147.033 79.8947 147.973 79.8493L148.037 81.1745C147.305 81.2098 146.9 81.4163 146.703 81.6029C146.518 81.7787 146.482 81.9627 146.515 82.118C146.576 82.4083 147.065 83.0121 148.357 82.7242L148.645 84.0191C146.916 84.4047 145.484 83.6594 145.217 82.3918C145.086 81.7682 145.283 81.121 145.79 80.6402Z" clip-rule="evenodd" fill-rule="evenodd"></path>
<path fill="#56271F" d="M146.076 91.1548C147.248 91.0036 148.075 89.931 147.924 88.759C147.773 87.587 146.7 86.7595 145.528 86.9106C144.356 87.0618 143.529 88.1344 143.68 89.3064C143.831 90.4784 144.904 91.3059 146.076 91.1548Z"></path>
<path fill="#A64A36" d="M146.062 236.829H177.833L161.351 144.623H151.079L146.062 236.829Z"></path>
<path fill="#A64A36" d="M114.098 236.829H83L120.659 142.872H141.912L114.098 236.829Z"></path>
<path fill="#F072AB" d="M171.189 199.086H97.6152L121.038 139.845H160.917L171.189 199.086Z"></path>
<path fill="#2A2A2B" d="M255.23 144.316L250.988 197.318L250.105 237H218.682L223.504 197.318L229.943 144.316H255.23Z"></path>
<path fill="#A47369" d="M250.378 225.056L250.105 237H218.682L220.115 225.056H250.378Z"></path>
<path fill="#2A2A2B" d="M289.389 237H257.96L255.216 197.318L251.549 144.316H274.816L283.15 197.318L289.389 237Z"></path>
<path fill="#A47369" d="M289.389 237H257.961L257.141 225.056H287.54L289.389 237Z"></path>
<path fill="#F1B4A5" d="M267.226 88.3372C266.985 89.2296 266.679 90.0897 266.308 90.9175C262.905 98.4982 254.419 102.702 246.14 100.466C237.861 98.23 232.646 90.325 233.522 82.062C233.615 81.1737 233.784 80.2765 234.028 79.3704C236.506 70.1993 245.939 64.7779 255.11 67.2551C264.268 69.7286 269.703 79.166 267.226 88.3372Z"></path>
<path fill="#56271F" d="M267.074 88.3549C266.837 89.2336 266.535 90.08 266.171 90.8804C263.576 90.1795 261.945 87.6029 262.426 84.9487L263.029 81.6793C263.641 78.3239 261.581 75.0423 258.286 74.1523L248.607 71.5379C245.312 70.6479 245.998 64.6168 255.252 67.2784C264.31 69.9018 269.564 79.2461 267.074 88.3549Z"></path>
<path fill="#56271F" d="M254.59 73.1685L247.885 71.9762C243.357 71.1803 240.486 66.6484 241.684 62.2139L241.943 61.2528L255.877 67.4764L254.59 73.1685Z"></path>
<path fill="#F1B4A5" d="M232.371 85.0207C234.79 85.674 237.28 84.2428 237.934 81.824C238.587 79.4052 237.156 76.9148 234.737 76.2614C232.318 75.6081 229.828 77.0393 229.174 79.4581C228.521 81.8769 229.952 84.3674 232.371 85.0207Z"></path>
<path fill="#F1B4A5" d="M264.463 93.4976C266.882 94.151 269.372 92.7198 270.026 90.301C270.679 87.8822 269.248 85.3917 266.829 84.7384C264.41 84.0851 261.92 85.5162 261.266 87.935C260.613 90.3538 262.044 92.8443 264.463 93.4976Z"></path>
<path fill="#56271F" d="M251.731 84.3315C252.534 84.5484 253.361 84.0732 253.578 83.2701C253.795 82.4671 253.32 81.6402 252.517 81.4233C251.714 81.2064 250.887 81.6815 250.67 82.4846C250.453 83.2877 250.928 84.1145 251.731 84.3315Z"></path>
<path fill="#56271F" d="M240.708 81.2521C241.511 81.469 242.338 80.9939 242.554 80.1908C242.771 79.3877 242.296 78.5608 241.493 78.3439C240.69 78.127 239.863 78.6022 239.646 79.4053C239.429 80.2083 239.905 81.0352 240.708 81.2521Z"></path>
<path fill="#56271F" d="M245.436 81.3328C246.073 81.0879 246.868 81.1185 247.754 81.4357L247.307 82.6848C246.617 82.4379 246.164 82.4741 245.911 82.5713C245.673 82.6629 245.57 82.8193 245.541 82.9754C245.486 83.2671 245.707 84.0118 247.011 84.2393L246.783 85.5462C245.037 85.2416 243.999 84.006 244.236 82.7324C244.353 82.1058 244.783 81.5834 245.436 81.3328Z" clip-rule="evenodd" fill-rule="evenodd"></path>
<path fill="#56271F" d="M248.188 89.8944C248.188 89.8944 247.429 94.8075 243.199 93.519C239.573 92.4229 240.958 87.9416 240.958 87.9416L248.188 89.8944Z"></path>
<path fill="#F1B4A5" d="M215.707 93.135C218.388 98.0358 218.751 103.544 218.444 107.685L201.312 106.414C201.49 104.011 201.111 102.249 200.636 101.38L215.707 93.135Z" clip-rule="evenodd" fill-rule="evenodd"></path>
<path fill="#2A2A2B" d="M223.355 110.345C225.574 105.922 229.688 102.044 236.2 101.374L237.957 118.457C238.028 118.436 238.25 118.364 238.511 118.167C238.711 118.017 238.795 117.896 238.795 117.896C238.795 117.896 238.764 117.94 238.71 118.047C238.273 118.919 237.906 120.507 237.456 123.632C237.418 123.897 237.378 124.186 237.335 124.493C236.997 126.94 236.491 130.593 235.316 133.592C234.588 135.448 233.367 137.745 231.193 139.631C228.858 141.655 225.996 142.709 222.947 142.832L222.942 142.832C218.286 143.017 213.713 142.144 209.851 139.413C205.978 136.674 203.893 132.824 202.755 129.148C201.647 125.57 201.278 121.667 201.155 118.004C201.035 114.413 201.143 110.498 201.248 106.691C201.251 106.573 201.254 106.455 201.258 106.338L218.43 106.81L218.429 106.851C218.317 110.906 218.222 114.369 218.324 117.429C218.428 120.538 218.728 122.656 219.164 124.067C219.445 124.972 219.692 125.303 219.773 125.39C219.782 125.395 219.794 125.401 219.809 125.408C219.98 124.47 220.159 123.227 220.406 121.507C220.422 121.401 220.437 121.293 220.453 121.183C220.849 118.433 221.476 114.091 223.355 110.345ZM219.27 127.442C219.27 127.441 219.274 127.433 219.282 127.418C219.274 127.435 219.27 127.442 219.27 127.442ZM219.77 125.388C219.77 125.388 219.771 125.388 219.771 125.389C219.743 125.373 219.745 125.37 219.77 125.388ZM219.774 125.391C219.793 125.405 219.802 125.414 219.801 125.415C219.801 125.416 219.791 125.409 219.774 125.391Z" clip-rule="evenodd" fill-rule="evenodd"></path>
<path fill="#2A2A2B" d="M274.862 115.433L274.58 144.44H229.895C229.895 144.44 233.887 103.653 234.153 101.64C235.602 101.146 237.163 101.079 238.649 101.447C241.027 101.961 243.228 103.167 245.285 103.404C247.608 103.675 250.335 104.251 255.024 103.294C255.891 103.091 256.74 102.819 257.563 102.481C259.193 101.776 260.898 101.26 262.645 100.943C270.1 99.782 274.602 107.961 274.862 115.433Z"></path>
<path fill="#F54E57" d="M260.234 144.462H237.154L238.649 101.469C241.027 101.983 243.228 103.189 245.285 103.426C247.608 103.697 250.334 104.272 255.024 103.316C255.891 103.113 256.739 102.841 257.562 102.503L260.234 144.462Z"></path>
<g filter="url(#filter0_d_2745_1066)">
<path fill="#F1B4A5" d="M244.656 128.673C244.655 128.672 244.654 128.671 238.984 135.123C233.315 141.576 233.314 141.575 233.313 141.574L233.305 141.567L233.294 141.558L233.267 141.533C233.246 141.515 233.222 141.493 233.192 141.467C233.134 141.415 233.059 141.347 232.969 141.263C232.787 141.097 232.544 140.868 232.248 140.583C231.66 140.013 230.859 139.206 229.943 138.2C228.134 136.212 225.757 133.316 223.675 129.803L238.451 121.042C239.76 123.25 241.344 125.204 242.648 126.637C243.288 127.34 243.832 127.887 244.198 128.242C244.381 128.418 244.518 128.546 244.597 128.619C244.637 128.656 244.663 128.679 244.673 128.688C244.678 128.692 244.679 128.693 244.675 128.69L244.668 128.683L244.656 128.673Z" clip-rule="evenodd" fill-rule="evenodd"></path>
<path fill="#2A2A2B" d="M243.21 127.275C248.916 133.516 254.6 134.931 258.176 134.761C258.706 134.736 259.78 134.488 261.009 133.778C262.21 133.085 263.089 132.221 263.57 131.448C265.113 128.969 265.729 127.825 265.718 126.433C265.71 125.478 265.327 122.301 259.122 116.848L270.461 103.943C278.831 111.298 282.836 118.744 282.896 126.297C282.949 132.959 279.764 137.984 278.405 140.128C278.312 140.274 278.228 140.407 278.154 140.526C273.909 147.346 265.967 151.588 258.993 151.92C249.91 152.353 239.403 148.568 230.533 138.868L243.21 127.275Z" clip-rule="evenodd" fill-rule="evenodd"></path>
</g>
<path fill="white" d="M183.805 33.4778C183.805 30.3115 186.371 27.7448 189.538 27.7448H214.223C217.39 27.7448 219.956 30.3115 219.956 33.4778V69.7869C219.956 71.8977 218.245 73.6089 216.134 73.6089H187.627C185.516 73.6089 183.805 71.8977 183.805 69.7869V33.4778Z"></path>
<path fill="#C9CACC" d="M214.223 28.7003H189.538C186.899 28.7003 184.76 30.8392 184.76 33.4778V69.7869C184.76 71.37 186.044 72.6534 187.627 72.6534H216.134C217.718 72.6534 219.001 71.37 219.001 69.7869V33.4778C219.001 30.8392 216.862 28.7003 214.223 28.7003ZM189.538 27.7448C186.371 27.7448 183.805 30.3115 183.805 33.4778V69.7869C183.805 71.8977 185.516 73.6089 187.627 73.6089H216.134C218.245 73.6089 219.956 71.8977 219.956 69.7869V33.4778C219.956 30.3115 217.39 27.7448 214.223 27.7448H189.538Z" clip-rule="evenodd" fill-rule="evenodd"></path>
<path fill="#F4333D" d="M198.221 40.1552H202.304C203.658 40.1552 204.335 40.1552 205.064 40.3856C205.86 40.6753 206.487 41.3021 206.777 42.098C207.007 42.8269 207.007 43.504 207.007 44.8581V48.9416C207.007 50.2959 207.007 50.9728 206.777 51.7018C206.487 52.4977 205.86 53.1245 205.064 53.4141C204.335 53.6446 203.658 53.6446 202.304 53.6446H198.221C196.866 53.6446 196.189 53.6446 195.46 53.4141C194.665 53.1245 194.038 52.4977 193.748 51.7018C193.518 50.9728 193.518 50.2959 193.518 48.9416V44.8581C193.518 43.504 193.518 42.8269 193.748 42.098C194.038 41.3021 194.665 40.6753 195.46 40.3856C196.189 40.1552 196.866 40.1552 198.221 40.1552Z" clip-rule="evenodd" fill-rule="evenodd"></path>
<path fill="white" d="M198.731 43.942C198.731 44.7694 199.372 45.411 200.2 45.411C201.027 45.411 201.669 44.7694 201.669 43.942C201.669 43.1146 201.027 42.4729 200.2 42.4729C199.372 42.4729 198.731 43.1146 198.731 43.942ZM201.788 51.1522H198.613L199.289 45.9007C199.795 46.0526 200.606 46.0526 201.112 45.9007L201.788 51.1522Z" clip-rule="evenodd" fill-rule="evenodd"></path>
<path fill="#C9CACC" d="M193.518 57.4834C193.518 57.2195 193.731 57.0056 193.995 57.0056H213.004C213.268 57.0056 213.482 57.2195 213.482 57.4834C213.482 57.7472 213.268 57.9611 213.004 57.9611H193.995C193.731 57.9611 193.518 57.7472 193.518 57.4834Z" clip-rule="evenodd" fill-rule="evenodd"></path>
<path fill="#C9CACC" d="M193.518 61.2605C193.518 60.9966 193.731 60.7827 193.995 60.7827H208.148C208.412 60.7827 208.626 60.9966 208.626 61.2605C208.626 61.5243 208.412 61.7382 208.148 61.7382H193.995C193.731 61.7382 193.518 61.5243 193.518 61.2605Z" clip-rule="evenodd" fill-rule="evenodd"></path>
<path fill="#42A864" d="M110.232 138.583C107.366 132.086 112.78 120.986 115.965 116.129C117.108 115.401 118.666 114.625 119.398 114.568C116.663 117.851 113.815 146.705 110.232 138.583Z"></path>
<path fill="#F072AB" d="M98.5208 128.42L116.728 127.94C116.231 127.197 115.734 126.512 115.272 125.875C113.195 122.996 112.767 122.23 112.984 120.609C113.434 117.344 117.079 114.126 123.972 113.84L120.795 140.115H160.949L160.065 134.007C162.242 136.494 165.916 139.097 171.726 139.097C172.645 139.095 173.564 139.035 174.476 138.916C176.177 138.688 177.81 138.1 179.267 137.192C180.723 136.284 181.97 135.077 182.924 133.65C186.967 127.8 186.932 117.941 186.007 108.896L170.169 109.399C170.54 112.578 170.708 115.777 170.673 118.977C170.556 118.304 170.444 117.66 170.357 117.11C169.772 113.693 169.146 109.826 167.431 106.444C166.299 104.051 164.533 102.013 162.325 100.553C160.117 99.0922 157.55 98.2645 154.905 98.1595C153.532 98.0801 152.154 98.1864 150.809 98.4755L149.387 98.7914C146.655 99.4159 143.864 99.7493 141.062 99.7861C137.856 99.6991 134.669 99.2715 131.554 98.5106H131.408C130.234 98.2198 129.031 98.0686 127.821 98.0601C111.515 96.9367 99.1527 105.327 97.3389 118.503C96.8499 121.855 97.2577 125.277 98.5208 128.42Z"></path>
<path fill="#A64A36" d="M166.651 89.0441C166.651 89.1201 168.5 96.849 169.688 105.52C169.881 106.906 170.033 108.194 170.168 109.399L186.006 108.896C185.83 107.205 185.631 105.549 185.421 103.946C184.128 94.2395 182.109 85.7384 182.027 85.3815L166.651 89.0441Z"></path>
<path fill="#F1D287" d="M131.548 98.5106L139.885 126.653C140.009 127.005 140.243 127.308 140.552 127.519C140.86 127.729 141.228 127.835 141.601 127.822C141.975 127.809 142.334 127.677 142.627 127.446C142.92 127.215 143.132 126.896 143.232 126.536L149.381 98.7915C146.649 99.4159 143.858 99.7493 141.055 99.7861C137.85 99.6991 134.663 99.2716 131.548 98.5106Z"></path>
<path fill="#42A864" d="M100.71 139.589C106.599 135.328 129.233 137.527 133.462 139.589C137.69 141.651 144.329 169.146 133.462 175.057C122.594 180.969 111.123 183.855 94.8216 175.057C78.5203 166.259 94.8216 143.851 100.71 139.589Z"></path>
<path fill="#42A864" d="M120.743 104.424C123.99 111.284 123.329 132.878 121.976 142.883C130.093 142.883 126.216 112.803 123.848 97.9743C122.415 97.7355 120.265 97.9743 119.07 98.4521C118.579 99.3702 119.411 101.609 120.743 104.424Z"></path>
<path fill="#A64A36" d="M102.482 135.137C105.044 138.682 106.109 140.151 104.571 145.235L119.695 149.805C122.954 139.004 119.771 132.44 116.734 127.94L98.5267 128.42C99.5547 130.818 100.884 133.075 102.482 135.137Z"></path>
<defs>
<filter color-interpolation-filters="sRGB" filterUnits="userSpaceOnUse" height="49.9209" width="60.6559" y="103.943" x="222.241" id="filter0_d_2745_1066">
<feFlood result="BackgroundImageFix" flood-opacity="0"></feFlood>
<feColorMatrix result="hardAlpha" values="0 0 0 0 0 0 0 0 0 0 0 0 0 0 0 0 0 0 127 0" type="matrix" in="SourceAlpha"></feColorMatrix>
<feOffset dy="1.91101" dx="-1.43326"></feOffset>
<feComposite operator="out" in2="hardAlpha"></feComposite>
<feColorMatrix values="0 0 0 0 0 0 0 0 0 0 0 0 0 0 0 0 0 0 0.15 0" type="matrix"></feColorMatrix>
<feBlend result="effect1_dropShadow_2745_1066" in2="BackgroundImageFix" mode="normal"></feBlend>
<feBlend result="shape" in2="effect1_dropShadow_2745_1066" in="SourceGraphic" mode="normal"></feBlend>
</filter>
</defs>
</svg>
