<svg xmlns="http://www.w3.org/2000/svg" fill="none" viewBox="0 0 480 270" height="270" width="480">
<path fill="#B3B3B3" d="M334.744 131.927H355.73V151.299H334.744V131.927Z"></path>
<path fill="#293187" d="M305.15 86.7255C305.15 85.2395 306.355 84.0349 307.841 84.0349H377.257C378.743 84.0349 379.948 85.2395 379.948 86.7255V129.236C379.948 130.722 378.743 131.927 377.257 131.927H307.841C306.355 131.927 305.15 130.722 305.15 129.236V86.7255Z"></path>
<path fill="#D9B04A" d="M207.752 167.442C207.752 158.526 214.98 151.299 223.895 151.299H405.238C411.182 151.299 416 156.117 416 162.061V249.773H207.752V167.442Z"></path>
<path fill="#FFCF57" d="M207.752 167.765C207.752 162.447 207.752 159.788 208.671 157.709C209.754 155.259 211.712 153.301 214.163 152.218C216.241 151.299 218.9 151.299 224.218 151.299H380.7C386.018 151.299 388.677 151.299 390.756 152.218C393.206 153.301 395.164 155.259 396.248 157.709C397.167 159.788 397.167 162.447 397.167 167.765V249.773H207.752V167.765Z"></path>
<path fill="#3844BA" d="M299.766 86.7255C299.766 85.2395 300.97 84.0349 302.456 84.0349H371.872C373.358 84.0349 374.563 85.2395 374.563 86.7255V129.236C374.563 130.722 373.358 131.927 371.872 131.927H302.456C300.97 131.927 299.766 130.722 299.766 129.236V86.7255Z"></path>
<path fill="#D9D9D9" d="M329.365 131.927H350.352V151.299H329.365V131.927Z"></path>
<path fill="#56271F" d="M140.184 41.0083C141.217 40.3211 141.624 38.9621 141.064 37.8129C140.498 36.6219 139.123 36.0891 137.902 36.5307C138.576 35.478 138.395 34.0811 137.421 33.241C136.416 32.3906 134.947 32.4523 134.013 33.3539C134.195 32.1233 133.456 30.9119 132.23 30.5446C130.96 30.1687 129.638 30.822 129.168 32.0189C128.843 30.8251 127.673 30.0103 126.402 30.1743C125.019 30.3527 124.032 31.6162 124.212 33.0131C124.223 33.097 124.233 33.1808 124.258 33.2628C124.244 33.2646 124.232 33.2804 124.218 33.2822C124.199 33.2421 124.179 33.202 124.146 33.1637C123.397 31.982 121.834 31.644 120.652 32.3929C119.537 33.1048 119.167 34.5301 119.771 35.6879C118.65 35.1506 117.275 35.4985 116.575 36.5687C115.851 37.6704 116.096 39.13 117.095 39.9385C115.854 39.8997 114.733 40.7829 114.526 42.0451C114.309 43.3371 115.123 44.5813 116.372 44.9031C115.226 45.3776 114.563 46.6276 114.879 47.8651C115.2 49.1444 116.453 49.9345 117.72 49.7426C116.855 50.6352 116.768 52.0525 117.552 53.0592C118.366 54.0903 119.829 54.3135 120.919 53.6191C120.486 54.7826 120.986 56.1242 122.114 56.7173C123.273 57.3347 124.7 56.9518 125.412 55.8658C125.501 57.1041 126.485 58.1276 127.761 58.2187C129.078 58.3044 130.223 57.3757 130.427 56.0995C131.01 57.2031 132.328 57.7291 133.521 57.2911C134.756 56.8478 135.438 55.5243 135.106 54.2747C136.086 55.0431 137.501 55.0026 138.423 54.1167C139.37 53.1993 139.45 51.7261 138.653 50.7212C139.858 51.0344 141.141 50.4144 141.613 49.2316C142.11 48.0171 141.591 46.6355 140.448 46.0302C141.672 45.8297 142.597 44.7447 142.559 43.4572C142.517 42.1418 141.471 41.0836 140.184 41.0083Z"></path>
<path fill="#F1D287" d="M132.514 75.1311C141.533 73.9679 147.901 65.7134 146.738 56.6942C145.575 47.6751 137.321 41.3066 128.301 42.4698C119.282 43.6331 112.914 51.8875 114.077 60.9067C115.24 69.9259 123.495 76.2944 132.514 75.1311Z"></path>
<path fill="#56271F" d="M151.339 62.7336C150.958 61.7602 150.054 61.1383 149.077 61.0513C149.666 60.3361 149.849 59.3326 149.489 58.4133C148.998 57.1416 147.619 56.4673 146.329 56.8183C146.495 56.2289 146.482 55.5773 146.233 54.9702C145.64 53.4561 143.939 52.7097 142.425 53.3027C142.343 53.3275 142.277 53.3644 142.196 53.4032C142.116 53.3284 142.037 53.2675 141.942 53.1945C142.019 52.6875 141.98 52.1671 141.786 51.6524C141.193 50.1383 139.492 49.3919 137.978 49.9849C137.815 50.0484 137.655 50.1259 137.51 50.2156C137.552 49.7699 137.493 49.3089 137.322 48.8623C136.729 47.3481 135.028 46.6018 133.513 47.1947C132.905 47.4295 132.419 47.8472 132.089 48.3726C132.061 48.2627 132.032 48.1527 131.99 48.0445C131.397 46.5304 129.696 45.784 128.182 46.377C127.302 46.7176 126.685 47.4363 126.438 48.2777C125.648 47.3286 124.321 46.9459 123.103 47.4154C121.791 47.9254 121.058 49.2841 121.273 50.6198C120.482 49.9974 119.393 49.8112 118.392 50.196C117.066 50.7078 116.334 52.0804 116.565 53.4283C115.907 53.1723 115.152 53.156 114.449 53.4313C112.935 54.0243 112.188 55.7254 112.781 57.2395C112.97 57.7123 113.264 58.1147 113.63 58.4225C113.168 58.3684 112.678 58.4175 112.205 58.6063C110.691 59.1992 109.944 60.9003 110.537 62.4145C110.77 63.0093 111.188 63.4951 111.684 63.8147C111.63 63.8358 111.588 63.8413 111.534 63.8624C110.02 64.4554 109.273 66.1565 109.866 67.6706C110.097 68.2515 110.483 68.713 110.951 69.0361C109.676 69.6124 109.058 71.0981 109.568 72.4099C110.078 73.7218 111.514 74.3888 112.838 73.9765C112.886 74.1266 112.946 74.2609 112.994 74.411C116.724 83.9565 127.473 88.6771 137.019 84.9463C141.94 83.0193 145.571 79.2418 147.43 74.713C148.027 74.9343 148.698 74.9614 149.347 74.7073C150.713 74.1761 151.395 72.6394 150.85 71.2753C150.7 70.8828 150.459 70.5588 150.17 70.2979C151.52 69.7545 152.174 68.2215 151.645 66.8695C151.435 66.3427 151.082 65.9196 150.648 65.6348C151.459 64.8768 151.741 63.7611 151.339 62.7336Z"></path>
<path fill="#A64A36" d="M133.395 91.6344C142.722 90.4313 149.309 81.8944 148.106 72.5666C146.903 63.2389 138.366 56.6525 129.038 57.8555C119.71 59.0586 113.124 67.5955 114.327 76.9233C115.53 86.251 124.067 92.8374 133.395 91.6344Z"></path>
<path fill="#56271F" d="M146.415 64.9873C146.192 65.0161 145.972 65.0729 145.768 65.1418C146.108 64.5867 146.275 63.8977 146.185 63.1992C145.972 61.5507 144.474 60.3948 142.825 60.6074C142.644 60.6308 142.478 60.6664 142.3 60.7178C142.457 60.2856 142.509 59.8102 142.448 59.3352C142.236 57.6868 140.737 56.5308 139.089 56.7434C138.418 56.8299 137.846 57.1309 137.39 57.559C137.39 57.4454 137.375 57.3337 137.359 57.2079C137.147 55.5595 135.648 54.4035 134 54.6161C133.05 54.7387 132.255 55.2956 131.801 56.0644C131.256 54.9274 130.029 54.2194 128.716 54.3887C127.291 54.5725 126.219 55.7333 126.113 57.1104C125.484 56.3109 124.459 55.8467 123.369 55.9873C121.93 56.1729 120.86 57.3476 120.77 58.7369C120.177 58.3304 119.441 58.1271 118.673 58.2262C117.024 58.4388 115.868 59.9371 116.081 61.5855C116.148 62.1024 116.35 62.5733 116.63 62.9776C116.182 62.8081 115.691 62.7436 115.174 62.8103C113.525 63.0229 112.369 64.5212 112.582 66.1696C112.667 66.8262 112.954 67.3999 113.38 67.842C113.324 67.8492 113.268 67.8564 113.226 67.8618C111.578 68.0744 110.422 69.5727 110.634 71.2211C110.847 72.8696 112.345 74.0255 113.994 73.8129C115.642 73.6003 116.798 72.102 116.586 70.4536C116.501 69.797 116.214 69.2233 115.788 68.7812C115.844 68.774 115.899 68.7668 115.941 68.7614C117.59 68.5488 118.746 67.0505 118.533 65.4021C118.466 64.8852 118.264 64.4143 117.984 64.0101C118.432 64.1795 118.923 64.244 119.44 64.1773C120.879 63.9917 121.949 62.817 122.04 61.4277C122.632 61.8342 123.368 62.0375 124.136 61.9384C125.561 61.7546 126.633 60.5938 126.739 59.2167C127.368 60.0162 128.394 60.4804 129.483 60.3398C130.433 60.2173 131.228 59.6604 131.683 58.8916C132.227 60.0286 133.454 60.7366 134.767 60.5673C135.438 60.4808 136.01 60.1798 136.466 59.7517C136.466 59.8653 136.481 59.977 136.497 60.1028C136.71 61.7512 138.208 62.9072 139.856 62.6946C140.038 62.6711 140.204 62.6355 140.382 62.5842C140.225 63.0163 140.172 63.4917 140.233 63.9667C140.446 65.6151 141.944 66.7711 143.593 66.5585C143.816 66.5297 144.036 66.4729 144.24 66.404C143.9 66.9591 143.733 67.6481 143.823 68.3466C144.036 69.9951 145.534 71.151 147.183 70.9384C148.831 70.7258 149.987 69.2275 149.775 67.5791C149.562 65.9307 148.05 64.7765 146.415 64.9873Z"></path>
<path fill="#A64A36" d="M114.883 80.6861C117.344 80.3687 119.082 78.1162 118.765 75.655C118.447 73.1938 116.195 71.456 113.734 71.7734C111.273 72.0908 109.535 74.3433 109.852 76.8045C110.17 79.2657 112.422 81.0035 114.883 80.6861Z"></path>
<path fill="#A64A36" d="M148.157 76.3945C150.618 76.077 152.356 73.8245 152.038 71.3634C151.721 68.9022 149.468 67.1643 147.007 67.4818C144.546 67.7992 142.808 70.0517 143.126 72.5129C143.443 74.974 145.695 76.7119 148.157 76.3945Z"></path>
<path fill="#56271F" d="M141.568 74.0716C142.497 73.9517 143.153 73.1013 143.033 72.172C142.913 71.2428 142.063 70.5866 141.134 70.7065C140.204 70.8263 139.548 71.6768 139.668 72.606C139.788 73.5353 140.638 74.1914 141.568 74.0716Z"></path>
<path fill="#56271F" d="M128.771 75.6103C129.7 75.4904 130.356 74.64 130.236 73.7107C130.117 72.7815 129.266 72.1253 128.337 72.2452C127.408 72.365 126.751 73.2155 126.871 74.1447C126.991 75.074 127.842 75.7301 128.771 75.6103Z"></path>
<path fill="#56271F" d="M133.723 73.6589C134.281 73.1295 135.122 72.8192 136.181 72.7681L136.253 74.2607C135.429 74.3005 134.973 74.5331 134.751 74.7432C134.543 74.9413 134.503 75.1485 134.54 75.3234C134.609 75.6504 135.159 76.3305 136.614 76.0062L136.939 77.4647C134.991 77.899 133.379 77.0595 133.077 75.6318C132.929 74.9294 133.152 74.2004 133.723 73.6589Z" clip-rule="evenodd" fill-rule="evenodd"></path>
<path fill="#56271F" d="M134.046 85.502C135.366 85.3317 136.298 84.1236 136.128 82.8035C135.957 81.4835 134.749 80.5514 133.429 80.7216C132.109 80.8919 131.177 82.1 131.347 83.4201C131.518 84.7401 132.726 85.6722 134.046 85.502Z"></path>
<path fill="#A64A36" d="M134.029 249.58H169.814L151.249 145.725H139.679L134.029 249.58Z"></path>
<path fill="#A64A36" d="M98.027 249.58H63L105.417 143.753H129.355L98.027 249.58Z"></path>
<path fill="#F072AB" d="M162.332 207.069H79.4629L105.845 140.344H150.762L162.332 207.069Z"></path>
<path fill="#2A2A2B" d="M256.99 145.38L252.212 205.078L251.217 249.773H215.824L221.256 205.078L228.508 145.38H256.99Z"></path>
<path fill="#A47369" d="M251.525 236.32L251.217 249.773H215.824L217.439 236.32H251.525Z"></path>
<path fill="#2A2A2B" d="M295.464 249.773H260.065L256.974 205.078L252.844 145.38H279.051L288.437 205.078L295.464 249.773Z"></path>
<path fill="#A47369" d="M295.465 249.773H260.066L259.143 236.32H293.383L295.465 249.773Z"></path>
<path fill="#F1B4A5" d="M270.502 82.3283C270.23 83.3334 269.886 84.3022 269.468 85.2346C265.635 93.773 256.077 98.5083 246.752 95.9896C237.427 93.471 231.553 84.5672 232.54 75.2603C232.645 74.2598 232.835 73.2493 233.11 72.2287C235.9 61.8989 246.526 55.7926 256.856 58.5828C267.17 61.3687 273.292 71.9985 270.502 82.3283Z"></path>
<path fill="#56271F" d="M270.331 82.3483C270.064 83.338 269.724 84.2913 269.314 85.1928C266.391 84.4034 264.554 81.5012 265.096 78.5117L265.775 74.8293C266.464 71.0499 264.144 67.3538 260.433 66.3513L249.531 63.4067C245.82 62.4042 246.593 55.6112 257.016 58.609C267.218 61.5638 273.136 72.0887 270.331 82.3483Z"></path>
<path fill="#56271F" d="M256.27 65.2432L248.718 63.9003C243.618 63.0038 240.384 57.8994 241.733 52.9046L242.025 51.8221L257.719 58.832L256.27 65.2432Z"></path>
<path fill="#F1B4A5" d="M231.245 78.5928C233.969 79.3287 236.774 77.7167 237.51 74.9923C238.246 72.2679 236.634 69.4628 233.909 68.7269C231.185 67.9911 228.38 69.6031 227.644 72.3275C226.908 75.0519 228.52 77.857 231.245 78.5928Z"></path>
<path fill="#F1B4A5" d="M267.391 88.1407C270.116 88.8765 272.921 87.2645 273.657 84.5401C274.392 81.8157 272.78 79.0107 270.056 78.2748C267.332 77.5389 264.527 79.1509 263.791 81.8753C263.055 84.5997 264.667 87.4048 267.391 88.1407Z"></path>
<path fill="#56271F" d="M253.046 77.8165C253.951 78.0608 254.882 77.5256 255.126 76.6211C255.371 75.7165 254.835 74.7852 253.931 74.5409C253.026 74.2966 252.095 74.8318 251.851 75.7363C251.606 76.6408 252.141 77.5722 253.046 77.8165Z"></path>
<path fill="#56271F" d="M240.63 74.3481C241.535 74.5924 242.466 74.0572 242.71 73.1527C242.954 72.2482 242.419 71.3168 241.515 71.0725C240.61 70.8282 239.679 71.3634 239.435 72.2679C239.19 73.1725 239.725 74.1038 240.63 74.3481Z"></path>
<path fill="#56271F" d="M245.955 74.4391C246.673 74.1631 247.569 74.1977 248.567 74.5549L248.063 75.9618C247.286 75.6837 246.776 75.7245 246.491 75.834C246.222 75.9372 246.106 76.1134 246.074 76.2891C246.012 76.6177 246.261 77.4565 247.73 77.7127L247.473 79.1848C245.506 78.8417 244.337 77.4499 244.605 76.0155C244.736 75.3097 245.221 74.7213 245.955 74.4391Z" clip-rule="evenodd" fill-rule="evenodd"></path>
<path fill="#56271F" d="M249.054 84.0821C249.054 84.0821 248.2 89.616 243.435 88.1647C239.351 86.9301 240.911 81.8827 240.911 81.8827L249.054 84.0821Z"></path>
<path fill="#F1B4A5" d="M212.471 87.7323C215.491 93.2522 215.9 99.4568 215.554 104.12L196.258 102.688C196.459 99.9821 196.032 97.9976 195.497 97.0192L212.471 87.7323Z" clip-rule="evenodd" fill-rule="evenodd"></path>
<path fill="#2A2A2B" d="M221.087 107.117C223.586 102.134 228.22 97.7662 235.554 97.0119L237.533 116.253C237.614 116.229 237.864 116.149 238.157 115.927C238.382 115.757 238.477 115.622 238.477 115.622C238.477 115.621 238.442 115.671 238.382 115.792C237.889 116.774 237.476 118.562 236.969 122.082C236.926 122.381 236.881 122.706 236.833 123.052C236.452 125.808 235.883 129.923 234.558 133.3C233.739 135.391 232.364 137.978 229.914 140.102C227.285 142.382 224.061 143.569 220.627 143.708L220.621 143.708C215.377 143.916 210.226 142.933 205.877 139.857C201.514 136.772 199.166 132.436 197.883 128.295C196.636 124.265 196.22 119.869 196.082 115.743C195.947 111.699 196.068 107.289 196.186 103C196.19 102.868 196.194 102.735 196.197 102.603L215.539 103.135L215.538 103.181C215.412 107.748 215.305 111.649 215.42 115.096C215.538 118.597 215.874 120.983 216.367 122.572C216.682 123.591 216.961 123.965 217.052 124.062C217.062 124.067 217.076 124.074 217.092 124.082C217.285 123.026 217.486 121.626 217.765 119.688C217.783 119.569 217.8 119.447 217.818 119.323C218.264 116.226 218.97 111.336 221.087 107.117ZM216.486 126.373C216.485 126.373 216.49 126.364 216.499 126.347C216.49 126.365 216.486 126.374 216.486 126.373ZM217.048 124.059C217.049 124.06 217.05 124.06 217.05 124.061C217.019 124.043 217.021 124.04 217.048 124.059ZM217.053 124.063C217.075 124.079 217.084 124.089 217.084 124.09C217.083 124.091 217.073 124.083 217.053 124.063Z" clip-rule="evenodd" fill-rule="evenodd"></path>
<path fill="#2A2A2B" d="M279.101 112.847L278.784 145.519H228.453C228.453 145.519 232.95 99.5793 233.249 97.3119C234.882 96.7556 236.64 96.6799 238.314 97.0939C240.992 97.6732 243.471 99.0312 245.789 99.299C248.405 99.6042 251.476 100.252 256.758 99.1744C257.734 98.9464 258.69 98.6402 259.617 98.2588C261.453 97.4651 263.374 96.8841 265.341 96.5271C273.738 95.219 278.809 104.432 279.101 112.847Z"></path>
<path fill="#F54E57" d="M262.625 145.543H236.629L238.312 97.1187C240.991 97.698 243.47 99.0559 245.787 99.3237C248.403 99.6289 251.474 100.277 256.756 99.1991C257.732 98.9711 258.688 98.6649 259.615 98.2835L262.625 145.543Z"></path>
<g filter="url(#filter0_d_2745_1066)">
<path fill="#F1B4A5" d="M245.078 127.76C245.077 127.759 245.075 127.758 238.69 135.025C232.304 142.293 232.303 142.292 232.302 142.291L232.293 142.283L232.281 142.272L232.25 142.245C232.227 142.225 232.199 142.2 232.166 142.17C232.101 142.111 232.016 142.035 231.914 141.941C231.71 141.753 231.435 141.496 231.103 141.174C230.44 140.532 229.538 139.624 228.506 138.49C226.469 136.252 223.792 132.989 221.446 129.033L238.09 119.165C239.564 121.652 241.347 123.853 242.816 125.467C243.537 126.259 244.15 126.874 244.563 127.274C244.768 127.473 244.922 127.616 245.012 127.699C245.057 127.74 245.086 127.766 245.097 127.776C245.102 127.781 245.103 127.782 245.1 127.779L245.091 127.772L245.078 127.76Z" clip-rule="evenodd" fill-rule="evenodd"></path>
<path fill="#2A2A2B" d="M243.451 126.186C249.878 133.215 256.279 134.809 260.308 134.617C260.905 134.589 262.114 134.309 263.498 133.511C264.851 132.73 265.841 131.757 266.383 130.886C268.121 128.094 268.814 126.805 268.802 125.237C268.793 124.162 268.362 120.583 261.373 114.441L274.144 99.9063C283.572 108.19 288.083 116.577 288.15 125.084C288.21 132.587 284.623 138.247 283.092 140.663C282.988 140.827 282.893 140.977 282.81 141.111C278.028 148.793 269.083 153.57 261.228 153.944C250.997 154.432 239.162 150.169 229.172 139.243L243.451 126.186Z" clip-rule="evenodd" fill-rule="evenodd"></path>
</g>
<path fill="white" d="M176.537 20.538C176.537 16.9717 179.428 14.0807 182.994 14.0807H210.799C214.365 14.0807 217.256 16.9717 217.256 20.538V61.4343C217.256 63.8119 215.329 65.7392 212.951 65.7392H180.842C178.464 65.7392 176.537 63.8119 176.537 61.4343V20.538Z"></path>
<path fill="#C9CACC" d="M210.799 15.1569H182.994C180.023 15.1569 177.613 17.5661 177.613 20.538V61.4343C177.613 63.2175 179.059 64.663 180.842 64.663H212.951C214.734 64.663 216.18 63.2175 216.18 61.4343V20.538C216.18 17.5661 213.771 15.1569 210.799 15.1569ZM182.994 14.0807C179.428 14.0807 176.537 16.9717 176.537 20.538V61.4343C176.537 63.8119 178.464 65.7392 180.842 65.7392H212.951C215.329 65.7392 217.256 63.8119 217.256 61.4343V20.538C217.256 16.9717 214.365 14.0807 210.799 14.0807H182.994Z" clip-rule="evenodd" fill-rule="evenodd"></path>
<path fill="#F4333D" d="M192.776 28.0591H197.375C198.9 28.0591 199.663 28.0591 200.484 28.3186C201.38 28.6449 202.086 29.3509 202.413 30.2474C202.672 31.0683 202.672 31.831 202.672 33.3562V37.9556C202.672 39.4809 202.672 40.2434 202.413 41.0645C202.086 41.9609 201.38 42.6669 200.484 42.9931C199.663 43.2528 198.9 43.2528 197.375 43.2528H192.776C191.25 43.2528 190.488 43.2528 189.667 42.9931C188.77 42.6669 188.064 41.9609 187.738 41.0645C187.479 40.2434 187.479 39.4809 187.479 37.9556V33.3562C187.479 31.831 187.479 31.0683 187.738 30.2474C188.064 29.3509 188.77 28.6449 189.667 28.3186C190.488 28.0591 191.25 28.0591 192.776 28.0591Z" clip-rule="evenodd" fill-rule="evenodd"></path>
<path fill="white" d="M193.349 32.3242C193.349 33.2562 194.072 33.9789 195.004 33.9789C195.936 33.9789 196.659 33.2562 196.659 32.3242C196.659 31.3923 195.936 30.6696 195.004 30.6696C194.072 30.6696 193.349 31.3923 193.349 32.3242ZM196.792 40.4454H193.217L193.978 34.5304C194.548 34.7016 195.461 34.7016 196.032 34.5304L196.792 40.4454Z" clip-rule="evenodd" fill-rule="evenodd"></path>
<path fill="#C9CACC" d="M187.479 47.5766C187.479 47.2794 187.719 47.0385 188.017 47.0385H209.427C209.724 47.0385 209.965 47.2794 209.965 47.5766C209.965 47.8738 209.724 48.1147 209.427 48.1147H188.017C187.719 48.1147 187.479 47.8738 187.479 47.5766Z" clip-rule="evenodd" fill-rule="evenodd"></path>
<path fill="#C9CACC" d="M187.479 51.8307C187.479 51.5335 187.719 51.2926 188.017 51.2926H203.957C204.255 51.2926 204.495 51.5335 204.495 51.8307C204.495 52.1279 204.255 52.3688 203.957 52.3688H188.017C187.719 52.3688 187.479 52.1279 187.479 51.8307Z" clip-rule="evenodd" fill-rule="evenodd"></path>
<path fill="#42A864" d="M93.6725 138.922C90.4439 131.604 96.542 119.102 100.129 113.631C101.416 112.812 103.172 111.938 103.997 111.873C100.915 115.571 97.7084 148.07 93.6725 138.922Z"></path>
<path fill="#F072AB" d="M80.4816 127.475L100.99 126.934C100.429 126.098 99.8693 125.326 99.3487 124.608C97.0092 121.366 96.5281 120.503 96.772 118.677C97.2794 115 101.385 111.376 109.148 111.053L105.57 140.648H150.796L149.801 133.768C152.253 136.569 156.391 139.501 162.935 139.501C163.971 139.499 165.005 139.431 166.032 139.297C167.948 139.04 169.788 138.378 171.429 137.356C173.069 136.333 174.474 134.973 175.548 133.366C180.102 126.776 180.062 115.672 179.021 105.484L161.182 106.051C161.6 109.631 161.789 113.234 161.749 116.839C161.617 116.081 161.492 115.356 161.393 114.736C160.734 110.888 160.029 106.532 158.098 102.723C156.823 100.027 154.834 97.7321 152.347 96.0871C149.859 94.442 146.969 93.5098 143.989 93.3916C142.442 93.3021 140.891 93.4218 139.376 93.7474L137.775 94.1033C134.697 94.8067 131.554 95.1822 128.397 95.2236C124.787 95.1257 121.197 94.6441 117.688 93.787H117.524C116.202 93.4595 114.846 93.2892 113.484 93.2796C95.1179 92.0143 81.1933 101.464 79.1505 116.305C78.5996 120.08 79.0589 123.934 80.4816 127.475Z"></path>
<path fill="#A64A36" d="M157.22 83.1245C157.22 83.2101 159.302 91.9154 160.64 101.682C160.858 103.244 161.029 104.693 161.18 106.051L179.02 105.484C178.822 103.58 178.598 101.715 178.361 99.9091C176.904 88.9763 174.631 79.4011 174.538 78.9991L157.22 83.1245Z"></path>
<path fill="#F1D287" d="M117.681 93.787L127.072 125.485C127.212 125.881 127.475 126.223 127.823 126.46C128.171 126.697 128.585 126.816 129.005 126.802C129.426 126.787 129.83 126.639 130.161 126.378C130.491 126.117 130.729 125.758 130.842 125.353L137.768 94.1033C134.69 94.8067 131.547 95.1822 128.39 95.2236C124.78 95.1257 121.19 94.6441 117.681 93.787Z"></path>
<path fill="#42A864" d="M82.9479 140.056C89.5806 135.255 115.074 137.733 119.837 140.056C124.6 142.378 132.078 173.346 119.837 180.004C107.596 186.663 94.6759 189.914 76.3151 180.004C57.9543 170.095 76.3151 144.856 82.9479 140.056Z"></path>
<path fill="#42A864" d="M105.511 100.448C109.168 108.175 108.424 132.497 106.9 143.765C116.043 143.765 111.675 109.885 109.009 93.1831C107.394 92.914 104.973 93.1831 103.627 93.7212C103.074 94.7553 104.011 97.2774 105.511 100.448Z"></path>
<path fill="#A64A36" d="M84.9444 135.04C87.8308 139.034 89.0302 140.688 87.297 146.415L104.332 151.561C108.003 139.396 104.418 132.002 100.998 126.935L80.4896 127.475C81.6475 130.176 83.1444 132.718 84.9444 135.04Z"></path>
<defs>
<filter color-interpolation-filters="sRGB" filterUnits="userSpaceOnUse" height="56.2278" width="68.3194" y="99.9062" x="219.831" id="filter0_d_2745_1066">
<feFlood result="BackgroundImageFix" flood-opacity="0"></feFlood>
<feColorMatrix result="hardAlpha" values="0 0 0 0 0 0 0 0 0 0 0 0 0 0 0 0 0 0 127 0" type="matrix" in="SourceAlpha"></feColorMatrix>
<feOffset dy="2.15244" dx="-1.61433"></feOffset>
<feComposite operator="out" in2="hardAlpha"></feComposite>
<feColorMatrix values="0 0 0 0 0 0 0 0 0 0 0 0 0 0 0 0 0 0 0.15 0" type="matrix"></feColorMatrix>
<feBlend result="effect1_dropShadow_2745_1066" in2="BackgroundImageFix" mode="normal"></feBlend>
<feBlend result="shape" in2="effect1_dropShadow_2745_1066" in="SourceGraphic" mode="normal"></feBlend>
</filter>
</defs>
</svg>
