<svg xmlns="http://www.w3.org/2000/svg" fill="none" viewBox="0 0 480 270" height="270" width="480">
<path fill="#42A864" d="M391 248.931H378.027L360.189 182.12H372.836L391 248.931Z"></path>
<path fill="#42A864" d="M269.703 248.931H282.027L300.484 181.929H287.793L269.703 248.931Z"></path>
<path fill="#42A864" d="M378.864 177.58H279.913C278.394 177.58 277.162 178.812 277.162 180.331C277.162 181.851 278.394 183.082 279.913 183.082H378.864C380.384 183.082 381.616 181.851 381.616 180.331C381.616 178.812 380.384 177.58 378.864 177.58Z"></path>
<path fill="#42A864" d="M370.238 194.574H289.612V199.81H370.238V194.574Z"></path>
<path fill="#E1583E" d="M207.432 129.339C207.432 95.6364 178.556 68.6094 143.291 68.6094C107.952 68.6094 79.0741 95.6344 79.0741 129.339C79.0741 163.043 107.952 190.068 143.291 190.068C178.556 190.068 207.432 163.041 207.432 129.339ZM143.291 73.7986C175.975 73.7986 202.242 98.7794 202.242 129.339C202.242 159.898 175.975 184.879 143.291 184.879C110.529 184.879 84.2633 159.896 84.2633 129.339C84.2633 98.7813 110.529 73.7986 143.291 73.7986Z" clip-rule="evenodd" fill-rule="evenodd"></path>
<path fill="#E1583E" d="M143.215 184.876C110.532 184.876 84.2592 159.896 84.1876 129.33L78.9984 129.336L78.9984 160.826C78.9984 177.149 92.9635 190.065 109.843 190.065L143.215 190.065L143.215 184.876ZM117.24 184.876L109.843 184.876C95.5342 184.876 84.1876 173.997 84.1876 160.826L84.1876 153.226C90.5913 167.346 102.467 178.676 117.24 184.876Z" clip-rule="evenodd" fill-rule="evenodd"></path>
<path fill="#E1583E" d="M146.121 249.323L139.921 187.214L134.757 187.729L140.958 249.839L146.121 249.323Z" clip-rule="evenodd" fill-rule="evenodd"></path>
<path fill="#E1583E" d="M99.2965 250.083L120.062 188.298L115.143 186.645L94.3777 248.43L99.2965 250.083Z" clip-rule="evenodd" fill-rule="evenodd"></path>
<path fill="#E1583E" d="M182.665 248.485L162.557 183.944L157.602 185.488L177.711 250.028L182.665 248.485Z" clip-rule="evenodd" fill-rule="evenodd"></path>
<path fill="#E1583E" d="M145.161 71.2021L141.269 71.2021L141.269 187.472L145.161 187.472L145.161 71.2021Z" clip-rule="evenodd" fill-rule="evenodd"></path>
<path fill="#E1583E" d="M176.352 79.9971L172.756 78.5078L141.614 153.696L110.678 177.888L113.076 180.954L144.817 156.131L176.352 79.9971Z" clip-rule="evenodd" fill-rule="evenodd"></path>
<path fill="#E1583E" d="M198.525 102.646L195.781 99.8867L142.375 153.004L89.1874 155.462L89.3671 159.35L144.055 156.822L198.525 102.646Z" clip-rule="evenodd" fill-rule="evenodd"></path>
<path fill="#E1583E" d="M80.8787 129.335L143.164 157.02L205.464 132.934L204.06 129.304L143.268 152.808L82.4595 125.778L80.8787 129.335Z" clip-rule="evenodd" fill-rule="evenodd"></path>
<path fill="#E1583E" d="M89.7267 99.5896L142.279 156.77L195.065 162.332L195.473 158.462L144.149 153.053L92.5922 96.956L89.7267 99.5896Z" clip-rule="evenodd" fill-rule="evenodd"></path>
<path fill="#E1583E" d="M113.362 78.2043L141.545 156.015L169.987 182.553L172.642 179.707L144.885 153.809L117.021 76.8789L113.362 78.2043Z" clip-rule="evenodd" fill-rule="evenodd"></path>
<path fill="#9D9D9D" d="M109.992 51.9232L110.741 55.7688L112.317 55.4616C111.397 48.1444 114.051 41.0844 118.978 36.1907C119.354 35.8253 119.731 35.4598 120.134 35.1281C123.081 32.5674 126.715 30.7298 130.823 29.9289C137.538 28.6198 144.127 30.3535 149.176 34.1788C152.051 36.3443 154.418 39.1932 156.039 42.5183L155.262 39.827C152.275 29.6023 142.096 23.2333 131.596 25.0075L128.224 25.5871C115.818 27.6744 107.585 39.5799 109.992 51.9232Z"></path>
<path fill="#B76C5B" d="M157.917 56.25C154.612 56.8942 151.411 54.7373 150.767 51.4324C150.122 48.1275 152.279 44.926 155.584 44.2818C158.889 43.6375 162.091 45.7944 162.735 49.0993C163.379 52.4042 161.222 55.6057 157.917 56.25Z"></path>
<path fill="#B76C5B" d="M139.665 75.288C127.139 77.7298 115.006 69.5552 112.564 57.0297C110.122 44.5041 118.297 32.3707 130.822 29.929C143.348 27.4872 155.481 35.6618 157.923 48.1873C160.365 60.7129 152.19 72.8463 139.665 75.288Z"></path>
<path fill="#9D9D9D" d="M112.554 56.9728C112.587 57.1417 112.616 57.2917 112.649 57.4606L112.949 57.4021C121.382 58.4064 123.973 49.6257 122.671 42.9475L121.53 37.0948C126.543 38.4348 132.561 38.644 138.827 37.4226C142.541 36.6985 145.976 35.5421 149.038 34.0689C144.004 30.3187 137.464 28.6339 130.823 29.9284C126.715 30.7293 123.082 32.567 120.134 35.1276C119.735 35.478 119.355 35.8248 118.978 36.1903C114.033 41.0876 111.398 48.1439 112.318 55.4611C112.375 55.9562 112.455 56.4663 112.554 56.9728Z"></path>
<path fill="#B76C5B" d="M114.917 63.3076C111.612 63.9518 108.411 61.7949 107.767 58.49C107.122 55.1851 109.279 51.9837 112.584 51.3394C115.889 50.6951 119.091 52.852 119.735 56.1569C120.379 59.4618 118.222 62.6633 114.917 63.3076Z"></path>
<path fill="#56271F" d="M135.589 53.8659C134.491 54.0812 133.426 53.3657 133.211 52.2678C132.995 51.1698 133.711 50.1052 134.809 49.8899C135.907 49.6746 136.971 50.3901 137.187 51.488C137.402 52.5859 136.687 53.6506 135.589 53.8659Z"></path>
<path fill="#56271F" d="M150.611 50.9206C149.513 51.1359 148.449 50.4204 148.233 49.3225C148.018 48.2245 148.733 47.1599 149.831 46.9446C150.929 46.7292 151.994 47.4447 152.209 48.5427C152.425 49.6406 151.709 50.7053 150.611 50.9206Z"></path>
<path fill="#56271F" d="M144.311 52.2588C143.486 51.8639 142.424 51.8207 141.211 52.1517L141.678 53.8635C142.619 53.6066 143.218 53.7026 143.544 53.8591C143.853 54.007 143.977 54.2286 144 54.4429C144.043 54.8404 143.675 55.807 141.923 55.9681L142.085 57.7351C144.446 57.518 145.952 55.9747 145.764 54.2508C145.672 53.4044 145.153 52.6624 144.311 52.2588Z" clip-rule="evenodd" fill-rule="evenodd"></path>
<path fill="#56271F" d="M144.313 64.2809C142.884 64.7163 141.483 64.4611 140.738 63.3476L139.263 64.3337C140.614 66.354 142.997 66.5368 144.83 65.9782C145.763 65.6939 146.64 65.2005 147.299 64.5641C147.951 63.934 148.458 63.0909 148.458 62.1222L146.684 62.1222C146.684 62.4508 146.506 62.8629 146.066 63.2879C145.633 63.7066 145.011 64.0683 144.313 64.2809Z" clip-rule="evenodd" fill-rule="evenodd"></path>
<path fill="#9D9D9D" d="M150.835 60.3871L138.139 63.5693L138.094 63.2447C137.881 61.9588 139.093 60.5955 140.736 60.1805L147.417 58.5076C149.093 58.0801 150.587 58.8017 150.791 60.0625L150.835 60.3871Z"></path>
<path fill="#E9E9E9" d="M133.462 47.7916C135.945 47.3839 138.288 49.0658 138.696 51.5483C139.103 54.0308 137.422 56.3739 134.939 56.7816C132.457 57.1894 130.113 55.5074 129.706 53.0249C129.298 50.5424 130.98 48.1994 133.462 47.7916ZM139.715 51.3808C139.215 48.3352 136.341 46.2717 133.295 46.772C130.249 47.2722 128.186 50.1467 128.686 53.1924C129.186 56.238 132.061 58.3015 135.107 57.8013C138.152 57.301 140.216 54.4265 139.715 51.3808Z" clip-rule="evenodd" fill-rule="evenodd"></path>
<path fill="#E9E9E9" d="M149.747 44.6422C152.229 44.2345 154.572 45.9164 154.98 48.3989C155.388 50.8814 153.706 53.2244 151.223 53.6322C148.741 54.04 146.398 52.358 145.99 49.8755C145.582 47.393 147.264 45.05 149.747 44.6422ZM156 48.2314C155.499 45.1858 152.625 43.1223 149.579 43.6226C146.533 44.1228 144.47 46.9973 144.97 50.043C145.471 53.0886 148.345 55.1521 151.391 54.6518C154.436 54.1516 156.5 51.2771 156 48.2314Z" clip-rule="evenodd" fill-rule="evenodd"></path>
<path fill="#E9E9E9" d="M145.484 48.8398L138.463 49.9932L138.66 51.1936L145.682 50.0403L145.484 48.8398Z" clip-rule="evenodd" fill-rule="evenodd"></path>
<path fill="#A47369" d="M156.56 77.0413L156.834 78.1449L156.757 76.9629L156.56 77.0413Z"></path>
<path fill="#B76C5B" d="M186.305 56.7537C186.222 62.1254 186.628 67.6125 187.437 72.8511L210.488 69.2915C209.868 65.2777 209.564 61.103 209.626 57.1138L186.305 56.7537Z" clip-rule="evenodd" fill-rule="evenodd"></path>
<path fill="#A66252" d="M181.322 79.375C176.787 73.4004 169.707 68.1585 159.552 68.535L160.417 91.8426C160.447 91.8414 160.478 91.8396 160.51 91.8378C160.948 91.8124 161.458 91.7827 162.744 93.4767C164.539 95.8405 166.146 99.5289 168.224 104.962C168.415 105.462 168.613 105.986 168.818 106.53C170.508 111 172.698 116.792 175.596 121.315C179.105 126.793 185.643 133.403 196.175 132.437L196.181 132.436C204.76 131.644 212.126 127.999 216.755 121.106C221.053 114.707 221.824 107.208 221.379 100.815C220.496 88.1135 214.438 74.1011 208.229 63.9428L188.329 76.1062C193.544 84.6389 197.591 94.9472 198.112 102.433C198.369 106.134 197.667 107.695 197.393 108.103C197.306 108.232 197.202 108.357 196.903 108.517C196.667 108.644 196.204 108.846 195.416 109.011C195.36 108.927 195.299 108.834 195.234 108.733C193.733 106.39 192.44 103.001 190.474 97.8488C190.323 97.4541 190.168 97.049 190.009 96.6332C188.09 91.6137 185.44 84.8009 181.322 79.375Z" clip-rule="evenodd" fill-rule="evenodd"></path>
<path fill="#B76C5B" d="M101.705 102.989L120.041 134.773L180.448 131.246C180.448 131.246 163.377 71.9271 162.433 69.0181C160.151 68.683 157.821 69.0104 155.721 69.9613C152.339 71.3736 149.409 73.7615 146.426 74.6765C143.06 75.7133 139.179 77.311 131.971 77.1767C130.632 77.1139 129.301 76.9435 127.989 76.667C125.382 76.0693 122.715 75.7717 120.041 75.7801C108.681 76.0992 100.047 91.8517 101.705 102.989Z"></path>
<path fill="#FF9C56" d="M107.033 103.773L133.963 98.909L164.665 88.531C165.91 77.4698 159.412 69.3079 160.403 68.7043C160.918 68.3905 167.527 65.3672 170.771 91.9616C176.484 105.583 191.545 140.311 187.652 142.556C183.76 144.802 178.896 145.151 178.896 145.151C178.896 145.151 118.554 158.123 115.718 149.262C112.882 140.4 110.446 130.556 109.149 125.691C107.852 120.826 107.033 103.773 107.033 103.773Z"></path>
<path fill="#B4DAE6" d="M302.46 151.287L303.037 158.076L304.279 174.671C304.412 176.402 305.61 177.689 307.03 177.689L319.632 177.6C321.052 177.6 322.206 176.269 322.339 174.538L322.428 173.34H324.424C326.599 173.34 328.241 171.743 328.507 169.258L329.927 159.762V159.673C329.927 158.564 329.483 157.499 328.729 156.745C327.93 155.946 326.865 155.547 325.8 155.547H323.581L323.848 151.597C323.848 151.509 323.892 151.376 323.892 151.287V151.242C323.848 150.355 323.138 149.689 322.25 149.689L304.146 149.823C303.17 149.689 302.46 150.399 302.46 151.287ZM322.516 171.033L323.315 157.943V157.81H325.711C326.199 157.81 326.643 157.987 326.998 158.342C327.353 158.697 327.531 159.141 327.531 159.629L326.111 168.992C326.022 169.79 325.667 171.077 324.291 171.077L322.516 171.033Z"></path>
<path fill="#56271F" d="M303.037 158.032L304.28 174.627C304.413 176.357 305.611 177.644 307.031 177.644L319.633 177.556C321.052 177.556 322.206 176.224 322.339 174.494L323.36 157.898L303.037 158.032Z"></path>
<path fill="#FF9C56" d="M131.311 76.6656C130.584 75.75 123.743 75.6708 121.104 75.2406C118.413 85.8802 126.147 100.53 127.683 103.331C128.912 105.571 132.697 114.362 137.887 114.362C143.076 114.362 167.027 91.2536 167.027 91.2536C165.841 84.8437 164.562 70.6366 162.859 68.9564C161.156 67.2762 155.022 69.6051 155.076 70.2536C155.357 73.6148 159.046 80.0961 158.329 84.4954C157.468 89.7747 139.475 92.581 135.192 91.9627C131.766 91.4681 131.178 81.5586 131.311 76.6656Z"></path>
<path fill="#00025B" d="M259.545 176.001L216.043 182.669L212.826 175.531L191.237 178.84C173.822 181.244 158.552 173.83 159.725 154.208C160.092 148.379 162.124 144.75 162.124 144.75L230.651 134.247L230.661 134.311C238.834 133.523 245.05 138.144 248.466 147.441L259.545 176.001Z"></path>
<path fill="#B76C5B" d="M233.378 248.932L187.325 248.932L170.019 187.599L213.002 181.011L233.378 248.932Z"></path>
<path fill="#B76C5B" d="M284.232 248.932L236.297 248.932L216.043 182.668L259.545 176L284.232 248.932Z"></path>
<path fill="#28327F" d="M213.001 181.011L170.018 187.599L169.064 182.238L145.659 185.825C128.245 188.229 112.975 180.816 114.148 161.194C114.515 155.365 116.546 151.735 116.546 151.735L185.074 141.232L185.084 141.297C193.257 140.509 199.473 145.13 202.888 154.427L213.001 181.011Z"></path>
<path fill="#B76C5B" d="M205.86 76.3707L193.53 105.692L193.038 106.481C184.295 120.516 176.716 131.15 164.2 136.319C146.452 143.649 130.371 137.73 119.895 129.732C110.524 122.577 106.22 112.905 102.497 104.537C102.25 103.982 102.006 103.433 101.763 102.891L123.047 93.3493C127.571 103.44 129.645 107.829 134.049 111.192C140.108 115.818 147.463 117.995 155.296 114.76C159.975 112.828 164.06 108.792 172.752 94.9289L184.358 67.329L205.86 76.3707Z" clip-rule="evenodd" fill-rule="evenodd"></path>
<path fill="#CCCCCC" d="M189.074 40.9387C191.144 35.502 197.229 32.7724 202.665 34.842L215.342 39.6675C220.779 41.7371 223.508 47.8221 221.439 53.2588L212.165 77.6209C210.785 81.2454 206.728 83.0651 203.104 81.6854L183.865 74.3617C180.24 72.982 178.42 68.9253 179.8 65.3008L189.074 40.9387Z"></path>
<path fill="white" d="M186.478 38.885C188.548 33.4483 194.633 30.7187 200.07 32.7883L212.746 37.6138C218.183 39.6834 220.912 45.7684 218.843 51.2051L209.569 75.5672C208.189 79.1917 204.133 81.0114 200.508 79.6317L181.269 72.3079C177.645 70.9282 175.825 66.8716 177.204 63.2471L186.478 38.885Z"></path>
<path fill="#CCCCCC" d="M212.434 38.4342L199.757 33.6086C194.774 31.7115 189.196 34.2136 187.299 39.1973L178.025 63.5594C176.818 66.7308 178.41 70.2804 181.581 71.4876L200.82 78.8113C203.992 80.0186 207.541 78.4263 208.749 75.2549L218.023 50.8928C219.92 45.9092 217.418 40.3313 212.434 38.4342ZM200.07 32.7883C194.633 30.7187 188.548 33.4483 186.478 38.885L177.204 63.2471C175.825 66.8716 177.645 70.9282 181.269 72.3079L200.508 79.6317C204.133 81.0114 208.189 79.1917 209.569 75.5672L218.843 51.2051C220.912 45.7684 218.183 39.6834 212.746 37.6138L200.07 32.7883Z" clip-rule="evenodd" fill-rule="evenodd"></path>
<path fill="#F4333D" d="M199.242 46.3225L203.929 48.1067C205.483 48.6984 206.26 48.9942 206.997 49.5772C207.783 50.2575 208.229 51.2508 208.214 52.2909C208.16 53.2282 207.864 54.0055 207.272 55.5598L205.488 60.2469C204.896 61.8013 204.601 62.5783 204.018 63.3144C203.337 64.1014 202.344 64.5469 201.304 64.5316C200.366 64.4777 199.589 64.1819 198.035 63.5902L193.348 61.806C191.793 61.2143 191.016 60.9184 190.28 60.3353C189.493 59.6552 189.048 58.6618 189.063 57.6217C189.117 56.6843 189.413 55.9073 190.005 54.3529L191.789 49.6658C192.381 48.1115 192.676 47.3342 193.259 46.5983C193.94 45.8113 194.933 45.3657 195.973 45.381C196.91 45.4349 197.688 45.7308 199.242 46.3225V46.3225" clip-rule="evenodd" fill-rule="evenodd"></path>
<path fill="white" d="M198.175 50.8909C197.813 51.8406 198.269 52.8575 199.219 53.2191C200.169 53.5806 201.186 53.1244 201.547 52.1747C201.909 51.225 201.453 50.2081 200.503 49.8466C199.553 49.485 198.536 49.9412 198.175 50.8909ZM198.533 60.5038L194.889 59.1167L197.959 53.384C198.474 53.7797 199.404 54.1339 200.052 54.1808L198.533 60.5038Z" clip-rule="evenodd" fill-rule="evenodd"></path>
</svg>
