<svg xmlns="http://www.w3.org/2000/svg" fill="none" viewBox="0 0 480 270" height="270" width="480">
<path fill="#42A864" d="M400 248.11H386.736L368.498 179.801H381.428L400 248.11Z"></path>
<path fill="#42A864" d="M275.981 248.11H288.582L307.453 179.604H294.478L275.981 248.11Z"></path>
<path fill="#42A864" d="M387.592 175.158H286.421C284.868 175.158 283.608 176.418 283.608 177.971C283.608 179.525 284.868 180.784 286.421 180.784H387.592C389.146 180.784 390.405 179.525 390.405 177.971C390.405 176.418 389.146 175.158 387.592 175.158Z"></path>
<path fill="#42A864" d="M378.772 192.533H296.338V197.887H378.772V192.533Z"></path>
<path fill="#E1583E" d="M212.314 125.834C212.314 91.3755 182.791 63.7422 146.734 63.7422C110.603 63.7422 81.0772 91.3735 81.0772 125.834C81.0771 160.294 110.603 187.926 146.734 187.926C182.791 187.926 212.314 160.292 212.314 125.834ZM146.734 69.0478C180.152 69.0478 207.009 94.589 207.009 125.834C207.009 157.079 180.152 182.62 146.734 182.62C113.237 182.62 86.3828 157.077 86.3828 125.834C86.3828 94.5911 113.237 69.0478 146.734 69.0478Z" clip-rule="evenodd" fill-rule="evenodd"></path>
<path fill="#E1583E" d="M146.657 182.618C113.241 182.618 86.3789 157.076 86.3057 125.825L81.0001 125.831L81.0001 158.028C81.0001 174.717 95.2784 187.923 112.536 187.923L146.657 187.923L146.657 182.618ZM120.1 182.618L112.536 182.618C97.9068 182.618 86.3057 171.494 86.3057 158.028L86.3057 150.257C92.8531 164.694 104.995 176.278 120.1 182.618Z" clip-rule="evenodd" fill-rule="evenodd"></path>
<path fill="#E1583E" d="M149.63 248.51L143.29 185.007L138.011 185.534L144.351 249.037L149.63 248.51Z" clip-rule="evenodd" fill-rule="evenodd"></path>
<path fill="#E1583E" d="M101.754 249.286L122.984 186.115L117.955 184.425L96.7244 247.596L101.754 249.286Z" clip-rule="evenodd" fill-rule="evenodd"></path>
<path fill="#E1583E" d="M186.992 247.653L166.433 181.664L161.367 183.242L181.927 249.231L186.992 247.653Z" clip-rule="evenodd" fill-rule="evenodd"></path>
<path fill="#E1583E" d="M148.646 66.3936L144.666 66.3936L144.666 185.272L148.645 185.272L148.646 66.3936Z" clip-rule="evenodd" fill-rule="evenodd"></path>
<path fill="#E1583E" d="M180.536 75.385L176.86 73.8623L145.019 150.737L113.39 175.472L115.841 178.607L148.295 153.227L180.536 75.385Z" clip-rule="evenodd" fill-rule="evenodd"></path>
<path fill="#E1583E" d="M203.208 98.543L200.402 95.7217L145.798 150.03L91.417 152.544L91.6007 156.519L147.516 153.934L203.208 98.543Z" clip-rule="evenodd" fill-rule="evenodd"></path>
<path fill="#E1583E" d="M82.9205 125.829L146.603 154.135L210.301 129.508L208.866 125.797L146.709 149.828L84.5368 122.192L82.9205 125.829Z" clip-rule="evenodd" fill-rule="evenodd"></path>
<path fill="#E1583E" d="M91.9675 95.4182L145.699 153.881L199.669 159.569L200.086 155.611L147.611 150.081L94.8973 92.7256L91.9675 95.4182Z" clip-rule="evenodd" fill-rule="evenodd"></path>
<path fill="#E1583E" d="M116.133 73.5534L144.949 153.11L174.029 180.243L176.743 177.333L148.364 150.854L119.875 72.1982L116.133 73.5534Z" clip-rule="evenodd" fill-rule="evenodd"></path>
<path fill="#9D9D9D" d="M112.685 46.681L113.451 50.6129L115.062 50.2988C114.121 42.8174 116.835 35.599 121.872 30.5956C122.257 30.2219 122.643 29.8482 123.054 29.5091C126.068 26.891 129.783 25.0121 133.983 24.1933C140.849 22.8547 147.586 24.6274 152.748 28.5385C155.688 30.7526 158.107 33.6654 159.765 37.0651L158.97 34.3134C155.917 23.8594 145.509 17.3474 134.774 19.1615L131.326 19.754C118.642 21.8882 110.224 34.0607 112.685 46.681Z"></path>
<path fill="#FFB8A8" d="M161.686 51.1052C158.307 51.7639 155.034 49.5586 154.375 46.1796C153.716 42.8005 155.922 39.5272 159.301 38.8685C162.68 38.2098 165.953 40.4151 166.612 43.7941C167.27 47.1732 165.065 50.4465 161.686 51.1052Z"></path>
<path fill="#FFB8A8" d="M143.024 70.5699C130.218 73.0664 117.812 64.7085 115.316 51.9019C112.819 39.0953 121.177 26.6897 133.984 24.1932C146.79 21.6967 159.196 30.0546 161.692 42.8612C164.189 55.6678 155.831 68.0734 143.024 70.5699Z"></path>
<path fill="#9D9D9D" d="M115.304 51.8453C115.338 52.0179 115.368 52.1714 115.401 52.344L115.708 52.2842C124.33 53.3111 126.979 44.3334 125.648 37.5054L124.482 31.5213C129.606 32.8914 135.76 33.1053 142.166 31.8565C145.964 31.1162 149.476 29.9338 152.607 28.4276C147.459 24.5932 140.773 22.8706 133.983 24.1942C129.783 25.013 126.068 26.8919 123.054 29.51C122.646 29.8683 122.258 30.2228 121.873 30.5965C116.816 35.6037 114.122 42.8183 115.062 50.2997C115.121 50.8059 115.203 51.3275 115.304 51.8453Z"></path>
<path fill="#FFB8A8" d="M117.722 58.321C114.343 58.9797 111.07 56.7744 110.411 53.3954C109.752 50.0163 111.958 46.743 115.337 46.0843C118.716 45.4256 121.989 47.6309 122.648 51.0099C123.307 54.389 121.101 57.6623 117.722 58.321Z"></path>
<path fill="#56271F" d="M138.855 48.6679C137.733 48.8881 136.644 48.1566 136.424 47.034C136.204 45.9114 136.936 44.8229 138.058 44.6027C139.181 44.3826 140.269 45.1141 140.489 46.2367C140.71 47.3593 139.978 48.4478 138.855 48.6679Z"></path>
<path fill="#56271F" d="M154.215 45.6562C153.092 45.8764 152.004 45.1448 151.784 44.0223C151.563 42.8997 152.295 41.8112 153.418 41.591C154.54 41.3709 155.629 42.1024 155.849 43.225C156.069 44.3476 155.337 45.4361 154.215 45.6562Z"></path>
<path fill="#56271F" d="M147.774 47.0253C146.931 46.6216 145.845 46.5774 144.605 46.9158L145.083 48.666C146.045 48.4033 146.656 48.5015 146.991 48.6615C147.306 48.8127 147.432 49.0392 147.456 49.2584C147.501 49.6648 147.124 50.6531 145.332 50.8178L145.498 52.6244C147.912 52.4025 149.452 50.8245 149.26 49.062C149.166 48.1966 148.636 47.4379 147.774 47.0253Z" clip-rule="evenodd" fill-rule="evenodd"></path>
<path fill="#56271F" d="M147.775 59.3154C146.314 59.7606 144.881 59.4996 144.12 58.3611L142.612 59.3693C143.993 61.435 146.43 61.6219 148.304 61.0508C149.258 60.76 150.155 60.2556 150.828 59.6049C151.495 58.9607 152.013 58.0987 152.013 57.1082L150.199 57.1082C150.199 57.4442 150.018 57.8655 149.568 58.3001C149.125 58.7282 148.488 59.098 147.775 59.3154Z" clip-rule="evenodd" fill-rule="evenodd"></path>
<path fill="#9D9D9D" d="M154.445 55.3356L141.464 58.5891L141.418 58.2572C141.2 56.9425 142.439 55.5486 144.119 55.1242L150.95 53.4139C152.663 52.9767 154.191 53.7145 154.399 55.0037L154.445 55.3356Z"></path>
<path fill="#424242" d="M136.683 42.4569C139.221 42.04 141.617 43.7597 142.034 46.2979C142.451 48.8361 140.731 51.2317 138.193 51.6486C135.655 52.0655 133.259 50.3458 132.842 47.8076C132.425 45.2694 134.145 42.8738 136.683 42.4569ZM143.076 46.1266C142.565 43.0127 139.626 40.9029 136.512 41.4144C133.398 41.9259 131.288 44.8649 131.8 47.9788C132.311 51.0928 135.25 53.2026 138.364 52.6911C141.478 52.1796 143.588 49.2406 143.076 46.1266Z" clip-rule="evenodd" fill-rule="evenodd"></path>
<path fill="#424242" d="M153.332 39.2372C155.87 38.8203 158.266 40.5399 158.682 43.0781C159.099 45.6164 157.38 48.0119 154.841 48.4288C152.303 48.8458 149.908 47.1261 149.491 44.5879C149.074 42.0497 150.794 39.6541 153.332 39.2372ZM159.725 42.9069C159.213 39.7929 156.274 37.6832 153.16 38.1947C150.047 38.7061 147.937 41.6451 148.448 44.7591C148.96 47.8731 151.899 49.9828 155.013 49.4714C158.127 48.9599 160.236 46.0209 159.725 42.9069Z" clip-rule="evenodd" fill-rule="evenodd"></path>
<path fill="#424242" d="M148.975 43.5293L141.795 44.7085L141.997 45.9359L149.176 44.7567L148.975 43.5293Z" clip-rule="evenodd" fill-rule="evenodd"></path>
<path fill="#A47369" d="M160.299 72.3634L160.579 73.4917L160.5 72.2832L160.299 72.3634Z"></path>
<path fill="#FFB8A8" d="M190.712 51.6203C190.628 57.1126 191.043 62.7227 191.87 68.0788L215.438 64.4394C214.804 60.3356 214.493 56.0672 214.556 51.9885L190.712 51.6203Z" clip-rule="evenodd" fill-rule="evenodd"></path>
<path fill="#FFB8A8" d="M185.617 74.7497C180.98 68.641 173.742 63.2815 163.359 63.6664L164.243 87.4969C164.274 87.4958 164.306 87.4939 164.338 87.4921C164.786 87.4661 165.308 87.4358 166.623 89.1677C168.457 91.5846 170.101 95.3557 172.225 100.911C172.42 101.422 172.623 101.958 172.833 102.514C174.561 107.084 176.8 113.006 179.763 117.631C183.351 123.231 190.035 129.99 200.803 129.002L200.809 129.001C209.581 128.192 217.113 124.465 221.846 117.417C226.24 110.874 227.028 103.207 226.573 96.6706C225.67 83.6842 219.476 69.3574 213.128 58.9713L192.781 71.4075C198.113 80.1317 202.251 90.6713 202.784 98.3251C203.047 102.109 202.329 103.705 202.049 104.122C201.96 104.254 201.853 104.381 201.548 104.545C201.307 104.675 200.834 104.881 200.028 105.05C199.97 104.964 199.908 104.87 199.842 104.766C198.307 102.371 196.985 98.9056 194.974 93.6379C194.82 93.2343 194.662 92.8202 194.5 92.3951C192.538 87.263 189.828 80.2972 185.617 74.7497Z" clip-rule="evenodd" fill-rule="evenodd"></path>
<path fill="#FFB8A8" d="M104.215 98.8929L122.962 131.389L184.724 127.783C184.724 127.783 167.27 67.1339 166.305 64.1596C163.972 63.817 161.59 64.1517 159.442 65.124C155.985 66.5679 152.989 69.0094 149.94 69.9449C146.498 71.0049 142.53 72.6385 135.16 72.5013C133.791 72.437 132.43 72.2627 131.089 71.9801C128.423 71.3689 125.696 71.0647 122.962 71.0733C111.347 71.3996 102.519 87.5054 104.215 98.8929Z"></path>
<path fill="#B4DAE6" d="M309.473 148.274L310.062 155.215L311.333 172.183C311.469 173.952 312.694 175.268 314.146 175.268L327.03 175.177C328.482 175.177 329.662 173.816 329.798 172.047L329.888 170.822H331.93C334.153 170.822 335.832 169.189 336.104 166.648L337.556 156.939V156.848C337.556 155.714 337.102 154.625 336.331 153.854C335.514 153.038 334.425 152.629 333.336 152.629H331.068L331.34 148.591C331.34 148.501 331.386 148.365 331.386 148.274V148.229C331.34 147.321 330.614 146.641 329.707 146.641L311.197 146.777C310.199 146.641 309.473 147.367 309.473 148.274ZM329.979 168.463L330.796 155.079V154.943H333.246C333.745 154.943 334.198 155.124 334.561 155.487C334.924 155.85 335.106 156.304 335.106 156.803L333.654 166.376C333.563 167.192 333.2 168.508 331.794 168.508L329.979 168.463Z"></path>
<path fill="#56271F" d="M310.062 155.17L311.332 172.138C311.468 173.907 312.693 175.223 314.145 175.223L327.029 175.132C328.481 175.132 329.661 173.771 329.797 172.002L330.84 155.034L310.062 155.17Z"></path>
<path fill="#D97223" d="M109.661 99.6934L137.196 94.7207L168.586 84.1099C169.859 72.8005 163.215 64.4555 164.228 63.8383C164.755 63.5174 171.513 60.4264 174.829 87.6174C180.671 101.545 196.069 137.052 192.089 139.347C188.11 141.643 183.136 142 183.136 142C183.136 142 121.441 155.264 118.541 146.203C115.642 137.142 113.151 127.078 111.825 122.104C110.498 117.13 109.661 99.6934 109.661 99.6934Z"></path>
<path fill="#D97223" d="M134.485 71.9785C133.741 71.0424 126.746 70.9614 124.048 70.5215C121.297 81.3999 129.204 96.3783 130.775 99.2418C132.031 101.533 135.902 110.52 141.207 110.52C146.513 110.52 171.002 86.8938 171.002 86.8938C169.789 80.3401 168.481 65.8143 166.74 64.0964C164.999 62.3785 158.727 64.7596 158.782 65.4227C159.069 68.8593 162.841 75.486 162.108 79.984C161.228 85.3817 142.831 88.251 138.453 87.6188C134.95 87.1131 134.349 76.9813 134.485 71.9785Z"></path>
<path fill="#00025B" d="M265.596 173.543L221.118 180.361L217.828 173.063L195.755 176.446C177.949 178.904 162.337 171.324 163.536 151.262C163.912 145.302 165.989 141.591 165.989 141.591L236.053 130.852L236.064 130.919C244.42 130.113 250.776 134.837 254.268 144.343L265.596 173.543Z"></path>
<path fill="#FFB8A8" d="M238.841 248.11L191.754 248.11L174.06 185.401L218.008 178.665L238.841 248.11Z"></path>
<path fill="#FFB8A8" d="M290.835 248.11L241.825 248.11L221.116 180.359L265.594 173.542L290.835 248.11Z"></path>
<path fill="#28327F" d="M218.007 178.666L174.059 185.402L173.083 179.921L149.154 183.589C131.348 186.046 115.736 178.466 116.935 158.404C117.311 152.444 119.388 148.734 119.388 148.734L189.453 137.995L189.463 138.061C197.82 137.255 204.175 141.98 207.667 151.486L218.007 178.666Z"></path>
<path fill="#FFB8A8" d="M210.706 71.678L198.099 101.657L197.597 102.464C188.657 116.814 180.908 127.687 168.112 132.972C149.966 140.466 133.524 134.414 122.813 126.236C113.231 118.921 108.831 109.032 105.024 100.477C104.772 99.9091 104.522 99.3475 104.273 98.7929L126.035 89.0375C130.66 99.3544 132.782 103.843 137.284 107.28C143.479 112.01 150.999 114.236 159.008 110.929C163.792 108.953 167.968 104.826 176.855 90.6525L188.722 62.4334L210.706 71.678Z" clip-rule="evenodd" fill-rule="evenodd"></path>
<path fill="#CCCCCC" d="M193.542 35.4486C195.658 29.89 201.879 27.0991 207.438 29.2151L220.399 34.1489C225.958 36.2649 228.748 42.4865 226.632 48.0451L217.15 72.9538C215.74 76.6596 211.592 78.5201 207.886 77.1095L188.215 69.6214C184.51 68.2108 182.649 64.0631 184.06 60.3573L193.542 35.4486Z"></path>
<path fill="white" d="M190.888 33.349C193.004 27.7904 199.226 24.9995 204.785 27.1155L217.746 32.0493C223.304 34.1653 226.095 40.3869 223.979 45.9455L214.497 70.8542C213.086 74.56 208.939 76.4205 205.233 75.0099L185.562 67.5218C181.856 66.1112 179.996 61.9635 181.406 58.2577L190.888 33.349Z"></path>
<path fill="#CCCCCC" d="M217.426 32.8881L204.465 27.9543C199.37 26.0146 193.667 28.5729 191.727 33.6683L182.245 58.577C181.011 61.8195 182.639 65.4488 185.881 66.6831L205.552 74.1711C208.795 75.4055 212.424 73.7775 213.658 70.5349L223.14 45.6262C225.08 40.5308 222.522 34.8277 217.426 32.8881ZM204.785 27.1155C199.226 24.9995 193.004 27.7904 190.888 33.349L181.406 58.2577C179.996 61.9635 181.856 66.1112 185.562 67.5218L205.233 75.0099C208.939 76.4205 213.086 74.56 214.497 70.8542L223.979 45.9455C226.095 40.3869 223.304 34.1653 217.746 32.0493L204.785 27.1155Z" clip-rule="evenodd" fill-rule="evenodd"></path>
<path fill="#F4333D" d="M203.941 40.9535L208.733 42.7778C210.323 43.3828 211.117 43.6852 211.87 44.2813C212.674 44.9768 213.13 45.9925 213.114 47.0559C213.059 48.0142 212.757 48.809 212.152 50.3981L210.327 55.1904C209.722 56.7797 209.42 57.5741 208.824 58.3267C208.128 59.1313 207.113 59.5869 206.049 59.5712C205.091 59.5161 204.296 59.2136 202.707 58.6087L197.915 56.7844C196.326 56.1794 195.531 55.8769 194.779 55.2808C193.974 54.5854 193.518 53.5697 193.534 52.5063C193.589 51.5478 193.892 50.7534 194.497 49.1641L196.321 44.3718C196.926 42.7827 197.228 41.988 197.824 41.2355C198.52 40.4309 199.536 39.9753 200.599 39.9909C201.557 40.0461 202.352 40.3486 203.941 40.9535V40.9535" clip-rule="evenodd" fill-rule="evenodd"></path>
<path fill="white" d="M202.85 45.6252C202.48 46.5962 202.947 47.6359 203.918 48.0056C204.889 48.3752 205.928 47.9088 206.298 46.9378C206.668 45.9668 206.201 44.9271 205.23 44.5574C204.259 44.1878 203.219 44.6542 202.85 45.6252ZM203.216 55.4538L199.49 54.0355L202.629 48.1742C203.156 48.5789 204.107 48.9409 204.769 48.9889L203.216 55.4538Z" clip-rule="evenodd" fill-rule="evenodd"></path>
</svg>
