<svg xmlns="http://www.w3.org/2000/svg" fill="none" viewBox="0 0 480 270" height="270" width="480">
<path fill="#42A864" d="M360.956 225.654H350.252L334.666 167.666H345.37L360.956 225.654Z"></path>
<path fill="#42A864" d="M257.804 226.004H268.508L284.131 168.053H273.39L257.804 226.004Z"></path>
<path fill="#42A864" d="M350.473 164.372H266.72C265.434 164.372 264.392 165.415 264.392 166.701C264.392 167.987 265.434 169.029 266.72 169.029H350.473C351.759 169.029 352.801 167.987 352.801 166.701C352.801 165.415 351.759 164.372 350.473 164.372Z"></path>
<path fill="#42A864" d="M343.171 178.757H274.93V183.189H343.171V178.757Z"></path>
<path stroke-miterlimit="10" stroke-width="2.18886" stroke="#E1583E" d="M224.313 124.09C224.313 151.286 200.977 173.296 172.22 173.296C143.4 173.296 120.063 151.286 120.063 124.09C120.063 96.8945 143.4 74.8848 172.22 74.8848C200.977 74.8848 224.313 96.8946 224.313 124.09Z"></path>
<path stroke-miterlimit="10" stroke-width="2.18886" stroke="#E1583E" d="M172.157 173.294L143.911 173.294C130.712 173.294 120 163.224 120 150.742L120 124.089C120.064 151.285 143.401 173.294 172.157 173.294Z"></path>
<path stroke-miterlimit="10" stroke-width="2.18886" stroke="#E1583E" d="M167.184 173.294L172.604 227.625"></path>
<path stroke-miterlimit="10" stroke-width="2.18886" stroke="#E1583E" d="M150.478 173.294L144.93 226.901"></path>
<path stroke-miterlimit="10" stroke-width="2.18886" stroke="#E1583E" d="M195.941 167.928L206.334 211.284"></path>
<path stroke-miterlimit="10" stroke-width="1.30125" stroke="#E1583E" d="M172.157 74.8838L172.157 145.737L172.157 173.295"></path>
<path stroke-miterlimit="10" stroke-width="1.30125" stroke="#E1583E" d="M198.681 81.6982L172.156 145.738L145.631 166.481"></path>
<path stroke-miterlimit="10" stroke-width="1.30125" stroke="#E1583E" d="M217.81 100.331L172.156 145.738L126.503 147.848"></path>
<path stroke-miterlimit="10" stroke-width="1.30125" stroke="#E1583E" d="M224.249 125.597L172.156 145.738L120.063 122.582"></path>
<path stroke-miterlimit="10" stroke-width="1.30125" stroke="#E1583E" d="M216.215 150.379L172.156 145.736L128.096 97.7969"></path>
<path stroke-miterlimit="10" stroke-width="1.30125" stroke="#E1583E" d="M195.939 167.926L172.156 145.736L148.437 80.249"></path>
<path fill="#F4F4F4" d="M145.697 64.0546L146.331 67.3095L147.665 67.0495C146.886 60.8561 149.133 54.8805 153.303 50.7385C153.621 50.4292 153.94 50.1198 154.281 49.8391C156.776 47.6717 159.851 46.1163 163.328 45.4385C169.012 44.3304 174.589 45.7979 178.862 49.0356C181.296 50.8685 183.299 53.2798 184.672 56.0942L184.013 53.8163C181.486 45.1621 172.87 39.7713 163.983 41.273L161.129 41.7635C150.628 43.5303 143.66 53.6071 145.697 64.0546Z"></path>
<path fill="#B76C5B" d="M186.261 67.7169C183.464 68.2622 180.754 66.4366 180.209 63.6393C179.664 60.842 181.489 58.1323 184.287 57.587C187.084 57.0417 189.794 58.8673 190.339 61.6646C190.884 64.4619 189.059 67.1716 186.261 67.7169Z"></path>
<path fill="#B76C5B" d="M170.813 83.8304C160.211 85.8971 149.941 78.9782 147.874 68.3765C145.808 57.7748 152.727 47.5051 163.328 45.4384C173.93 43.3717 184.2 50.2906 186.267 60.8923C188.333 71.494 181.414 81.7637 170.813 83.8304Z"></path>
<path fill="#F4F4F4" d="M147.865 68.3295C147.893 68.4724 147.917 68.5994 147.945 68.7423L148.199 68.6928C155.336 69.5429 157.53 62.1108 156.428 56.4584L155.462 51.5046C159.705 52.6388 164.799 52.8159 170.102 51.7821C173.246 51.1692 176.153 50.1904 178.745 48.9435C174.484 45.7693 168.949 44.3433 163.328 45.439C159.851 46.1168 156.775 47.6722 154.281 49.8396C153.943 50.1362 153.621 50.4297 153.302 50.739C149.117 54.8841 146.886 60.8566 147.665 67.05C147.713 67.469 147.781 67.9008 147.865 68.3295Z"></path>
<path fill="#B76C5B" d="M149.866 73.6905C147.069 74.2358 144.359 72.4102 143.814 69.6129C143.268 66.8156 145.094 64.1059 147.891 63.5606C150.688 63.0153 153.398 64.8409 153.943 67.6382C154.489 70.4355 152.663 73.1452 149.866 73.6905Z"></path>
<path fill="#56271F" d="M167.361 65.6973C166.432 65.8795 165.531 65.2739 165.348 64.3446C165.166 63.4153 165.772 62.5142 166.701 62.332C167.63 62.1497 168.532 62.7553 168.714 63.6846C168.896 64.6139 168.29 65.515 167.361 65.6973Z"></path>
<path fill="#56271F" d="M180.076 63.2041C179.147 63.3864 178.246 62.7808 178.063 61.8515C177.881 60.9222 178.487 60.0211 179.416 59.8388C180.345 59.6565 181.246 60.2621 181.429 61.1914C181.611 62.1207 181.005 63.0218 180.076 63.2041Z"></path>
<path stroke-miterlimit="10" stroke-width="1.50184" stroke="#56271F" d="M172.318 64.9712C175.963 63.976 176.272 67.9047 172.791 68.2248"></path>
<path stroke-miterlimit="10" stroke-width="1.50184" stroke="#56271F" d="M171.096 74.14C172.869 76.7925 177.504 74.8816 177.504 72.6855"></path>
<path fill="white" d="M180.268 71.2192L169.522 73.9126L169.484 73.6378C169.303 72.5495 170.329 71.3956 171.72 71.0443L177.374 69.6284C178.793 69.2665 180.058 69.8773 180.23 70.9445L180.268 71.2192Z"></path>
<path stroke-linecap="round" stroke-width="0.549018" stroke="#995A4C" d="M163.923 55.6486C167.535 55.7523 175.337 55.462 177.648 53.4707"></path>
<path stroke-linecap="round" stroke-width="0.549018" stroke="#995A4C" d="M165.295 57.3131C168.907 57.4168 173.14 57.6573 175.452 55.666"></path>
<path stroke-linecap="round" stroke-width="0.549018" stroke="#995A4C" d="M162.001 65C162.458 65.4575 163.483 66.3177 163.923 66.098"></path>
<path stroke-linecap="round" stroke-width="0.549018" stroke="#995A4C" d="M160.628 65.5488C161.085 66.0064 162.934 67.4155 163.373 67.1959"></path>
<path fill="#A47369" d="M183.452 79.8252L183.683 80.7592L183.618 79.7588L183.452 79.8252Z"></path>
<path stroke-miterlimit="10" stroke-width="19.7412" stroke="#B76C5B" d="M223.147 80.0803C222.542 76.1647 222.242 72.0758 222.303 68.1143"></path>
<path stroke-miterlimit="10" stroke-width="19.7412" stroke="#B76C5B" d="M188.627 88.3983C206.599 87.732 199.646 118.175 214.074 116.851C233.863 115.025 223.896 99.9809 221.04 79.7953"></path>
<path fill="#B76C5B" d="M142.24 105.238L149.31 141.537L205.33 131.191C205.33 131.191 190.881 80.9832 190.082 78.521C188.151 78.2373 186.179 78.5144 184.4 79.3193C181.538 80.5147 179.058 82.5358 176.534 83.3102C173.685 84.1877 170.4 85.5401 164.299 85.4265C163.166 85.3733 162.039 85.229 160.928 84.995C158.722 84.4891 156.465 84.2372 154.201 84.2443C144.586 84.5144 140.836 95.8109 142.24 105.238Z"></path>
<path fill="#D9D9D9" d="M143.191 107.937L165.985 103.821L191.97 95.0368C193.024 85.6746 187.524 78.7663 188.363 78.2554C188.799 77.9898 194.393 75.4309 197.139 97.9405C201.974 109.47 211.962 135.316 208.668 137.216C205.373 139.116 201.974 137.216 201.974 137.216C201.974 137.216 152.942 153.94 150.542 146.439C148.141 138.939 146.08 130.607 144.982 126.489C143.884 122.372 143.191 107.937 143.191 107.937Z"></path>
<path fill="#0F3682" d="M245.452 152.888L267.413 220.097L256.431 212.412L226.786 166.568L207.361 167.749C202.784 168.191 198.211 166.873 194.649 164.086C191.087 161.299 188.826 157.271 188.365 152.888L186.642 136.494L220.184 133.26C226.595 132.646 230.757 147.384 236.393 150.372C242.03 153.36 242.593 147.36 245.452 152.888Z"></path>
<path fill="#0F3682" d="M178.61 137.268L194.214 135.764C198.23 135.376 202.261 136.338 205.617 138.484C208.974 140.629 211.447 143.826 212.613 147.526L234.984 225.555L222.942 225.555L202.902 170.687L168.721 171.475C164.144 171.916 159.571 170.598 156.009 167.811C152.446 165.024 150.186 160.996 149.725 156.613C149.725 156.613 148.825 141.314 149.099 140.216C149.374 139.118 178.61 137.268 178.61 137.268Z"></path>
<g filter="url(#filter0_d_2755_1290)">
<path stroke-miterlimit="10" stroke-width="19.7412" stroke="#B76C5B" d="M214.002 89.4538C215.602 86.0848 219.211 78.5483 220.087 74.876"></path>
<path stroke-miterlimit="10" stroke-width="19.7412" stroke="#B76C5B" d="M152.566 105.631C154.747 127.543 169.27 129.748 177.384 129.894C185.499 130.04 191.568 126.469 196.502 122.024C202.413 116.703 207.269 103.643 214.002 89.4541"></path>
</g>
<path fill="#CCCCCC" d="M212.994 57.5468C214.289 54.1463 218.095 52.439 221.495 53.7335L229.424 56.7518C232.825 58.0462 234.532 61.8523 233.237 65.2528L227.437 80.4908C226.574 82.7578 224.036 83.896 221.769 83.033L209.736 78.4522C207.469 77.5892 206.33 75.0518 207.193 72.7848L212.994 57.5468Z"></path>
<path stroke-width="0.549018" stroke="#CCCCCC" fill="white" d="M219.773 52.7059L227.702 55.7241C230.961 56.9647 232.597 60.6121 231.357 63.871L225.556 79.1089C224.747 81.2342 222.368 82.3013 220.243 81.4923L208.209 76.9114C206.084 76.1024 205.017 73.7236 205.826 71.5983L211.627 56.3603C212.867 53.1015 216.515 51.4653 219.773 52.7059Z"></path>
<path fill="#F4333D" d="M219.355 60.9152L222.287 62.0312C223.259 62.4013 223.745 62.5863 224.205 62.951C224.698 63.3764 224.976 63.9978 224.967 64.6483C224.933 65.2346 224.748 65.7208 224.378 66.6929L223.262 69.6246C222.892 70.5969 222.707 71.0829 222.342 71.5432C221.917 72.0355 221.295 72.3142 220.645 72.3046C220.058 72.2709 219.572 72.0859 218.6 71.7157L215.668 70.5998C214.696 70.2297 214.21 70.0446 213.75 69.6799C213.258 69.2545 212.979 68.6332 212.988 67.9826C213.022 67.3963 213.207 66.9103 213.577 65.938L214.693 63.0063C215.063 62.0342 215.248 61.548 215.613 61.0877C216.038 60.5955 216.66 60.3168 217.31 60.3263C217.897 60.36 218.383 60.5451 219.355 60.9152V60.9152" clip-rule="evenodd" fill-rule="evenodd"></path>
<path fill="white" d="M218.688 63.7724C218.462 64.3665 218.747 65.0025 219.341 65.2286C219.935 65.4548 220.571 65.1694 220.797 64.5754C221.023 63.9814 220.738 63.3453 220.144 63.1192C219.55 62.8931 218.914 63.1784 218.688 63.7724ZM218.912 69.785L216.633 68.9174L218.553 65.3317C218.875 65.5792 219.457 65.8008 219.862 65.8301L218.912 69.785Z" clip-rule="evenodd" fill-rule="evenodd"></path>
<path fill="#F7F7F7" d="M276.471 142.117L276.959 147.863L278.011 161.909C278.123 163.374 279.137 164.463 280.339 164.463L291.005 164.388C292.207 164.388 293.184 163.261 293.296 161.797L293.371 160.783H295.062C296.902 160.783 298.291 159.431 298.517 157.327L299.719 149.29V149.215C299.719 148.276 299.343 147.375 298.705 146.736C298.029 146.06 297.127 145.722 296.226 145.722H294.348L294.573 142.38C294.573 142.304 294.611 142.192 294.611 142.117V142.079C294.573 141.328 293.972 140.765 293.221 140.765L277.898 140.877C277.072 140.765 276.471 141.366 276.471 142.117ZM293.447 158.83L294.123 147.75V147.638H296.151C296.564 147.638 296.939 147.788 297.24 148.088C297.54 148.389 297.691 148.764 297.691 149.177L296.489 157.102C296.414 157.778 296.113 158.867 294.949 158.867L293.447 158.83Z"></path>
<path fill="#56271F" d="M276.959 147.825L278.011 161.871C278.123 163.336 279.137 164.425 280.339 164.425L291.005 164.35C292.207 164.35 293.184 163.223 293.296 161.758L294.16 147.712L276.959 147.825Z"></path>
<path fill="#B76C5B" d="M273.177 226.411C273.177 226.411 259.177 168.764 250.393 150.921C241.608 133.078 220.473 133.078 220.473 133.078C220.473 133.078 217.727 153.118 220.472 162.725C223.217 172.333 247.099 226.411 247.099 226.411H273.177Z"></path>
<path fill="#D9D9D9" d="M163.743 84.9969C163.127 84.222 157.337 84.1549 155.103 83.7908C152.825 92.7962 159.371 105.196 160.672 107.566C161.712 109.463 164.916 116.903 169.308 116.903C173.7 116.903 193.973 97.3442 193.973 97.3442C192.968 91.9189 191.886 79.8939 190.445 78.4718C189.004 77.0497 183.811 79.0208 183.857 79.5697C184.095 82.4147 187.217 87.9005 186.61 91.6241C185.882 96.0925 170.652 98.4677 167.027 97.9444C164.128 97.5258 163.63 89.1383 163.743 84.9969Z"></path>
<path fill-opacity="0.5" fill="#995A4C" d="M242.981 226.686C242.981 226.686 226.785 157.788 223.216 146.258C219.648 134.729 201.805 135.279 201.805 135.279L199.06 170.69L203.177 170.69L218.275 226.686H242.981Z"></path>
<path fill="#B76C5B" d="M241.334 226.685C241.334 226.685 224.863 157.783 221.294 146.253C217.726 134.724 199.883 135.274 199.883 135.274L197.138 170.685L201.255 170.685C201.255 170.685 210.314 226.685 215.804 226.685H241.334Z"></path>
<path stroke-width="1.09804" stroke-opacity="0.5" stroke="#995A4C" d="M206.745 127.862C213.059 118.254 225.796 97.0621 226.235 89.1562"></path>
<defs>
<filter color-interpolation-filters="sRGB" filterUnits="userSpaceOnUse" height="69.3797" width="88.5904" y="72.585" x="141.097" id="filter0_d_2755_1290">
<feFlood result="BackgroundImageFix" flood-opacity="0"></feFlood>
<feColorMatrix result="hardAlpha" values="0 0 0 0 0 0 0 0 0 0 0 0 0 0 0 0 0 0 127 0" type="matrix" in="SourceAlpha"></feColorMatrix>
<feOffset dy="2.19607" dx="-1.64705"></feOffset>
<feComposite operator="out" in2="hardAlpha"></feComposite>
<feColorMatrix values="0 0 0 0 0 0 0 0 0 0 0 0 0 0 0 0 0 0 0.15 0" type="matrix"></feColorMatrix>
<feBlend result="effect1_dropShadow_2755_1290" in2="BackgroundImageFix" mode="normal"></feBlend>
<feBlend result="shape" in2="effect1_dropShadow_2755_1290" in="SourceGraphic" mode="normal"></feBlend>
</filter>
</defs>
</svg>
