<svg xmlns="http://www.w3.org/2000/svg" fill="none" viewBox="0 0 480 270" height="270" width="480">
<path fill="#42A864" d="M400 248.11H386.736L368.498 179.8H381.428L400 248.11Z"></path>
<path fill="#42A864" d="M275.98 248.11H288.581L307.452 179.604H294.477L275.98 248.11Z"></path>
<path fill="#42A864" d="M387.592 175.158H286.42C284.867 175.158 283.607 176.417 283.607 177.971C283.607 179.524 284.867 180.784 286.42 180.784H387.592C389.145 180.784 390.404 179.524 390.404 177.971C390.404 176.417 389.145 175.158 387.592 175.158Z"></path>
<path fill="#42A864" d="M378.77 192.533H296.336V197.887H378.77V192.533Z"></path>
<path fill="#E1583E" d="M212.314 125.834C212.314 91.3755 182.791 63.7422 146.734 63.7422C110.603 63.7422 81.0772 91.3735 81.0772 125.834C81.0771 160.294 110.603 187.926 146.734 187.926C182.791 187.926 212.314 160.292 212.314 125.834ZM146.734 69.0478C180.152 69.0478 207.009 94.589 207.009 125.834C207.009 157.079 180.152 182.62 146.734 182.62C113.237 182.62 86.3828 157.077 86.3828 125.834C86.3828 94.5911 113.237 69.0478 146.734 69.0478Z" clip-rule="evenodd" fill-rule="evenodd"></path>
<path fill="#E1583E" d="M146.658 182.618C113.242 182.618 86.3799 157.077 86.3066 125.826L81.001 125.832L81.001 158.028C81.001 174.718 95.2794 187.924 112.537 187.924L146.658 187.924L146.658 182.618ZM120.1 182.618L112.537 182.618C97.9078 182.618 86.3066 171.495 86.3066 158.028L86.3066 150.258C92.8541 164.694 104.996 176.278 120.1 182.618Z" clip-rule="evenodd" fill-rule="evenodd"></path>
<path fill="#E1583E" d="M149.629 248.51L143.29 185.007L138.01 185.534L144.35 249.037L149.629 248.51Z" clip-rule="evenodd" fill-rule="evenodd"></path>
<path fill="#E1583E" d="M101.754 249.286L122.984 186.115L117.955 184.425L96.7244 247.596L101.754 249.286Z" clip-rule="evenodd" fill-rule="evenodd"></path>
<path fill="#E1583E" d="M186.992 247.652L166.433 181.664L161.367 183.242L181.927 249.231L186.992 247.652Z" clip-rule="evenodd" fill-rule="evenodd"></path>
<path fill="#E1583E" d="M148.646 66.3934L144.667 66.3934L144.667 185.271L148.646 185.271L148.646 66.3934Z" clip-rule="evenodd" fill-rule="evenodd"></path>
<path fill="#E1583E" d="M180.535 75.3848L176.859 73.8621L145.018 150.737L113.389 175.472L115.84 178.606L148.294 153.226L180.535 75.3848Z" clip-rule="evenodd" fill-rule="evenodd"></path>
<path fill="#E1583E" d="M203.207 98.5433L200.401 95.7219L145.797 150.031L91.416 152.545L91.5997 156.519L147.515 153.935L203.207 98.5433Z" clip-rule="evenodd" fill-rule="evenodd"></path>
<path fill="#E1583E" d="M82.9205 125.828L146.603 154.135L210.301 129.508L208.866 125.797L146.709 149.828L84.5368 122.192L82.9205 125.828Z" clip-rule="evenodd" fill-rule="evenodd"></path>
<path fill="#E1583E" d="M91.9675 95.4185L145.699 153.881L199.669 159.569L200.086 155.612L147.611 150.082L94.8973 92.7258L91.9675 95.4185Z" clip-rule="evenodd" fill-rule="evenodd"></path>
<path fill="#E1583E" d="M116.134 73.5537L144.95 153.11L174.029 180.243L176.744 177.334L148.365 150.855L119.876 72.1986L116.134 73.5537Z" clip-rule="evenodd" fill-rule="evenodd"></path>
<path fill="#FFB8A8" d="M161.687 51.1053C158.308 51.764 155.035 49.5588 154.376 46.1797C153.717 42.8006 155.923 39.5273 159.302 38.8686C162.681 38.2099 165.954 40.4152 166.613 43.7943C167.271 47.1733 165.066 50.4466 161.687 51.1053Z"></path>
<path fill="#FFB8A8" d="M143.024 70.57C130.218 73.0665 117.812 64.7086 115.316 51.902C112.819 39.0955 121.177 26.6899 133.984 24.1933C146.79 21.6968 159.196 30.0547 161.692 42.8613C164.189 55.6679 155.831 68.0735 143.024 70.57Z"></path>
<path fill="#9D9D9D" d="M113.452 50.6135L112.686 46.6816C110.225 34.0614 118.643 21.8888 131.327 19.7546L134.775 19.1621C145.51 17.348 155.918 23.86 158.971 34.314L159.766 37.0657C158.108 33.666 155.689 30.7532 152.749 28.5391C152.615 28.438 152.481 28.3383 152.345 28.2401C149.27 29.7138 145.83 30.8688 142.115 31.5929C135.709 32.8417 129.551 32.6042 124.418 31.1946L125.605 37.2823C126.959 44.2285 124.337 53.3473 115.707 52.2753L115.4 52.3351L115.301 51.8278C115.201 51.3161 115.12 50.801 115.06 50.3001L113.452 50.6135Z" clip-rule="evenodd" fill-rule="evenodd"></path>
<path fill="#FFB8A8" d="M117.722 58.3211C114.343 58.9798 111.07 56.7746 110.411 53.3955C109.752 50.0164 111.958 46.7432 115.337 46.0844C118.716 45.4257 121.989 47.631 122.648 51.01C123.307 54.3891 121.101 57.6624 117.722 58.3211Z"></path>
<path fill="#56271F" d="M138.855 48.6678C137.732 48.888 136.643 48.1564 136.423 47.0339C136.203 45.9113 136.935 44.8228 138.057 44.6026C139.18 44.3825 140.268 45.114 140.488 46.2366C140.709 47.3592 139.977 48.4477 138.855 48.6678Z"></path>
<path fill="#56271F" d="M154.214 45.6564C153.091 45.8765 152.003 45.145 151.783 44.0224C151.562 42.8998 152.294 41.8113 153.417 41.5911C154.539 41.371 155.628 42.1025 155.848 43.2251C156.068 44.3477 155.336 45.4362 154.214 45.6564Z"></path>
<path fill="#56271F" d="M147.774 47.0251C146.931 46.6213 145.845 46.5771 144.605 46.9156L145.083 48.6657C146.045 48.4031 146.656 48.5012 146.991 48.6613C147.306 48.8125 147.432 49.039 147.456 49.2581C147.501 49.6646 147.124 50.6528 145.332 50.8176L145.498 52.6242C147.912 52.4022 149.452 50.8243 149.26 49.0617C149.166 48.1963 148.636 47.4377 147.774 47.0251Z" clip-rule="evenodd" fill-rule="evenodd"></path>
<path fill="#56271F" d="M147.774 59.316C146.313 59.7612 144.88 59.5002 144.119 58.3617L142.611 59.3699C143.992 61.4356 146.429 61.6225 148.303 61.0514C149.257 60.7607 150.154 60.2562 150.827 59.6055C151.494 58.9613 152.013 58.0993 152.013 57.1089L150.198 57.1089C150.198 57.4448 150.017 57.8661 149.567 58.3007C149.124 58.7288 148.487 59.0986 147.774 59.316Z" clip-rule="evenodd" fill-rule="evenodd"></path>
<path fill="#9D9D9D" d="M154.444 55.3358L141.463 58.5893L141.417 58.2574C141.199 56.9427 142.438 55.5488 144.118 55.1245L150.949 53.4141C152.662 52.977 154.19 53.7148 154.398 55.0039L154.444 55.3358Z"></path>
<path fill="#424242" d="M136.683 42.4569C139.221 42.04 141.617 43.7597 142.034 46.2979C142.451 48.8361 140.731 51.2317 138.193 51.6486C135.655 52.0655 133.259 50.3458 132.842 47.8076C132.425 45.2694 134.145 42.8738 136.683 42.4569ZM143.076 46.1266C142.565 43.0127 139.626 40.9029 136.512 41.4144C133.398 41.9259 131.288 44.8649 131.8 47.9788C132.311 51.0928 135.25 53.2026 138.364 52.6911C141.478 52.1796 143.588 49.2406 143.076 46.1266Z" clip-rule="evenodd" fill-rule="evenodd"></path>
<path fill="#424242" d="M153.332 39.2369C155.87 38.82 158.266 40.5397 158.682 43.0779C159.099 45.6161 157.38 48.0117 154.841 48.4286C152.303 48.8455 149.908 47.1258 149.491 44.5876C149.074 42.0494 150.794 39.6538 153.332 39.2369ZM159.725 42.9067C159.213 39.7927 156.274 37.6829 153.16 38.1944C150.047 38.7059 147.937 41.6449 148.448 44.7589C148.96 47.8728 151.899 49.9826 155.013 49.4711C158.127 48.9596 160.236 46.0206 159.725 42.9067Z" clip-rule="evenodd" fill-rule="evenodd"></path>
<path fill="#424242" d="M148.975 43.5291L141.795 44.7083L141.997 45.9356L149.176 44.7564L148.975 43.5291Z" clip-rule="evenodd" fill-rule="evenodd"></path>
<path fill="#A47369" d="M160.299 72.3633L160.579 73.4916L160.5 72.2831L160.299 72.3633Z"></path>
<path fill="#FFB8A8" d="M190.713 51.6202C190.628 57.1124 191.044 62.7226 191.871 68.0787L215.439 64.4393C214.805 60.3354 214.494 56.067 214.557 51.9884L190.713 51.6202Z" clip-rule="evenodd" fill-rule="evenodd"></path>
<path fill="#FFB8A8" d="M185.619 74.7498C180.982 68.6411 173.744 63.2816 163.361 63.6666L164.245 87.497C164.276 87.4959 164.308 87.494 164.34 87.4922C164.788 87.4662 165.31 87.4359 166.625 89.1678C168.459 91.5847 170.103 95.3558 172.227 100.911C172.422 101.422 172.625 101.958 172.835 102.514C174.563 107.084 176.802 113.006 179.765 117.631C183.353 123.231 190.037 129.99 200.805 129.002L200.811 129.001C209.583 128.192 217.115 124.465 221.848 117.417C226.242 110.874 227.03 103.207 226.575 96.6708C225.672 83.6843 219.478 69.3576 213.13 58.9714L192.783 71.4076C198.115 80.1318 202.253 90.6714 202.786 98.3252C203.049 102.109 202.331 103.705 202.051 104.122C201.962 104.255 201.855 104.382 201.55 104.546C201.309 104.676 200.836 104.882 200.03 105.05C199.972 104.964 199.91 104.87 199.844 104.766C198.309 102.371 196.987 98.9057 194.976 93.638C194.822 93.2345 194.664 92.8203 194.502 92.3952C192.54 87.2631 189.83 80.2974 185.619 74.7498Z" clip-rule="evenodd" fill-rule="evenodd"></path>
<path fill="#FFB8A8" d="M104.215 98.8928L122.962 131.389L184.724 127.783C184.724 127.783 167.27 67.1338 166.305 64.1595C163.972 63.8168 161.59 64.1515 159.442 65.1238C155.985 66.5678 152.989 69.0092 149.94 69.9448C146.498 71.0048 142.53 72.6384 135.16 72.5011C133.791 72.4369 132.43 72.2626 131.089 71.98C128.423 71.3688 125.696 71.0645 122.962 71.0732C111.347 71.3995 102.519 87.5053 104.215 98.8928Z"></path>
<path fill="#B4DAE6" d="M309.473 148.274L310.062 155.215L311.333 172.183C311.469 173.952 312.694 175.268 314.146 175.268L327.03 175.177C328.482 175.177 329.662 173.816 329.798 172.047L329.888 170.822H331.93C334.153 170.822 335.832 169.189 336.104 166.648L337.556 156.939V156.848C337.556 155.714 337.102 154.625 336.331 153.854C335.514 153.037 334.425 152.629 333.336 152.629H331.068L331.34 148.591C331.34 148.501 331.386 148.364 331.386 148.274V148.228C331.34 147.321 330.614 146.641 329.707 146.641L311.197 146.777C310.199 146.64 309.473 147.366 309.473 148.274ZM329.979 168.463L330.796 155.079V154.943H333.246C333.745 154.943 334.198 155.124 334.561 155.487C334.924 155.85 335.106 156.304 335.106 156.803L333.654 166.376C333.563 167.192 333.2 168.508 331.794 168.508L329.979 168.463Z"></path>
<path fill="#56271F" d="M310.062 155.17L311.333 172.137C311.469 173.907 312.694 175.222 314.146 175.222L327.03 175.132C328.482 175.132 329.662 173.771 329.798 172.001L330.841 155.034L310.062 155.17Z"></path>
<path fill="#D97223" d="M109.66 99.6929L137.195 94.7202L168.585 84.1094C169.858 72.8 163.214 64.455 164.227 63.8378C164.754 63.5169 171.512 60.4259 174.828 87.617C180.67 101.544 196.068 137.051 192.088 139.347C188.109 141.642 183.135 142 183.135 142C183.135 142 121.44 155.263 118.54 146.202C115.641 137.142 113.15 127.077 111.824 122.103C110.497 117.129 109.66 99.6929 109.66 99.6929Z"></path>
<path fill="#D97223" d="M134.484 71.9786C133.74 71.0426 126.745 70.9616 124.047 70.5217C121.296 81.4 129.203 96.3784 130.774 99.2419C132.03 101.533 135.901 110.521 141.206 110.521C146.512 110.521 171.001 86.8939 171.001 86.8939C169.788 80.3402 168.48 65.8144 166.739 64.0965C164.998 62.3786 158.726 64.7597 158.781 65.4228C159.068 68.8594 162.84 75.4861 162.107 79.9842C161.227 85.3818 142.83 88.2511 138.452 87.619C134.949 87.1132 134.348 76.9814 134.484 71.9786Z"></path>
<path fill="#00025B" d="M265.595 173.543L221.117 180.36L217.827 173.063L195.754 176.446C177.948 178.904 162.336 171.323 163.535 151.262C163.911 145.302 165.988 141.591 165.988 141.591L236.052 130.852L236.063 130.918C244.419 130.112 250.775 134.837 254.267 144.343L265.595 173.543Z"></path>
<path fill="#FFB8A8" d="M238.841 248.11L191.754 248.11L174.06 185.401L218.008 178.665L238.841 248.11Z"></path>
<path fill="#FFB8A8" d="M290.836 248.11L241.826 248.11L221.117 180.359L265.595 173.542L290.836 248.11Z"></path>
<path fill="#28327F" d="M218.006 178.666L174.058 185.402L173.082 179.921L149.153 183.588C131.347 186.046 115.735 178.466 116.934 158.404C117.31 152.444 119.387 148.733 119.387 148.733L189.452 137.994L189.462 138.061C197.819 137.255 204.174 141.98 207.666 151.485L218.006 178.666Z"></path>
<path fill="#FFB8A8" d="M210.706 71.6783L198.099 101.657L197.597 102.464C188.657 116.815 180.908 127.687 168.112 132.972C149.966 140.466 133.524 134.414 122.813 126.237C113.231 118.922 108.831 109.032 105.024 100.477C104.772 99.9095 104.522 99.3479 104.273 98.7933L126.035 89.0378C130.66 99.3548 132.782 103.843 137.284 107.281C143.479 112.01 150.999 114.237 159.008 110.929C163.792 108.953 167.968 104.827 176.855 90.6529L188.722 62.4338L210.706 71.6783Z" clip-rule="evenodd" fill-rule="evenodd"></path>
<path fill="#CCCCCC" d="M193.542 35.4485C195.658 29.8898 201.879 27.099 207.438 29.215L220.399 34.1488C225.958 36.2648 228.748 42.4864 226.632 48.045L217.15 72.9537C215.74 76.6595 211.592 78.52 207.886 77.1094L188.215 69.6213C184.51 68.2106 182.649 64.063 184.06 60.3572L193.542 35.4485Z"></path>
<path fill="white" d="M190.887 33.3491C193.003 27.7905 199.225 24.9997 204.784 27.1156L217.745 32.0495C223.303 34.1654 226.094 40.387 223.978 45.9456L214.496 70.8543C213.086 74.5601 208.938 76.4206 205.232 75.01L185.561 67.5219C181.855 66.1113 179.995 61.9636 181.406 58.2578L190.887 33.3491Z"></path>
<path fill="#CCCCCC" d="M217.425 32.8882L204.464 27.9544C199.369 26.0147 193.666 28.573 191.726 33.6684L182.244 58.5771C181.01 61.8196 182.638 65.4489 185.88 66.6832L205.551 74.1712C208.794 75.4056 212.423 73.7776 213.657 70.535L223.139 45.6264C225.079 40.5309 222.521 34.8279 217.425 32.8882ZM204.784 27.1156C199.225 24.9997 193.003 27.7905 190.887 33.3491L181.406 58.2578C179.995 61.9636 181.855 66.1113 185.561 67.5219L205.232 75.01C208.938 76.4206 213.086 74.5601 214.496 70.8543L223.978 45.9456C226.094 40.387 223.303 34.1654 217.745 32.0495L204.784 27.1156Z" clip-rule="evenodd" fill-rule="evenodd"></path>
<path fill="#F4333D" d="M203.941 40.9535L208.733 42.7778C210.323 43.3828 211.117 43.6852 211.87 44.2813C212.674 44.9768 213.13 45.9925 213.114 47.0559C213.059 48.0142 212.757 48.809 212.152 50.3981L210.327 55.1904C209.722 56.7797 209.42 57.5741 208.824 58.3267C208.128 59.1313 207.113 59.5869 206.049 59.5712C205.091 59.5161 204.296 59.2136 202.707 58.6087L197.915 56.7844C196.326 56.1794 195.531 55.8769 194.779 55.2808C193.974 54.5854 193.518 53.5697 193.534 52.5063C193.589 51.5478 193.892 50.7534 194.497 49.1641L196.321 44.3718C196.926 42.7827 197.228 41.988 197.824 41.2355C198.52 40.4309 199.536 39.9753 200.599 39.9909C201.557 40.0461 202.352 40.3486 203.941 40.9535V40.9535" clip-rule="evenodd" fill-rule="evenodd"></path>
<path fill="white" d="M202.849 45.6247C202.479 46.5958 202.946 47.6355 203.917 48.0051C204.888 48.3747 205.927 47.9084 206.297 46.9373C206.667 45.9663 206.2 44.9266 205.229 44.5569C204.258 44.1873 203.218 44.6537 202.849 45.6247ZM203.215 55.4533L199.489 54.035L202.628 48.1737C203.155 48.5784 204.106 48.9405 204.768 48.9884L203.215 55.4533Z" clip-rule="evenodd" fill-rule="evenodd"></path>
</svg>
